<svg width="50" height="50" viewBox="0 0 50 50" fill="none" xmlns="http://www.w3.org/2000/svg">
<g clip-path="url(#clip0)">
<path d="M24.9986 37.5007C31.9021 37.5007 37.4986 31.9043 37.4986 25.0008C37.4986 18.0973 31.9021 12.5009 24.9986 12.5009C18.095 12.5009 12.4985 18.0973 12.4985 25.0008C12.4985 31.9043 18.095 37.5007 24.9986 37.5007Z" fill="white"/>
<path d="M4.99902 10.0019C7.76045 10.0019 9.99903 7.76333 9.99903 5.00192C9.99903 2.24051 7.76045 0.00195312 4.99902 0.00195312C2.2376 0.00195312 -0.000976562 2.24051 -0.000976562 5.00192C-0.000976562 7.76333 2.2376 10.0019 4.99902 10.0019Z" fill="white"/>
<path d="M44.9995 10.0009C47.7609 10.0009 49.9995 7.76235 49.9995 5.00094C49.9995 2.23954 47.7609 0.000976562 44.9995 0.000976562C42.2381 0.000976562 39.9995 2.23954 39.9995 5.00094C39.9995 7.76235 42.2381 10.0009 44.9995 10.0009Z" fill="white"/>
<path d="M44.9995 50.0007C47.7609 50.0007 49.9995 47.7621 49.9995 45.0007C49.9995 42.2393 47.7609 40.0007 44.9995 40.0007C42.2381 40.0007 39.9995 42.2393 39.9995 45.0007C39.9995 47.7621 42.2381 50.0007 44.9995 50.0007Z" fill="white"/>
<path d="M4.99951 50.0007C7.76094 50.0007 9.99951 47.7621 9.99951 45.0007C9.99951 42.2393 7.76094 40.0007 4.99951 40.0007C2.23809 40.0007 -0.000488281 42.2393 -0.000488281 45.0007C-0.000488281 47.7621 2.23809 50.0007 4.99951 50.0007Z" fill="white"/>
<path fill-rule="evenodd" clip-rule="evenodd" d="M5.70806 5.00049L45.7529 45.0447L45.0014 45.7963L4.95654 5.75209L5.70806 5.00049Z" fill="white"/>
<path fill-rule="evenodd" clip-rule="evenodd" d="M4.95508 45.0452L44.9998 5.00073L45.7513 5.75235L5.70659 45.797L4.95508 45.0452Z" fill="white"/>
</g>
<defs>
<clipPath id="clip0">
<rect width="50" height="50" fill="white"/>
</clipPath>
</defs>
</svg>
