<svg viewBox="0 0 480 614" fill="none" xmlns="http://www.w3.org/2000/svg">
<g>
<path fill-rule="evenodd" clip-rule="evenodd" d="M200.352 427.786C200.352 412.37 187.848 399.853 172.446 399.853C157.045 399.853 144.541 412.37 144.541 427.786V467.736C144.541 483.153 157.045 495.669 172.446 495.669C187.848 495.669 200.352 483.153 200.352 467.736V427.786ZM187.255 429.796C187.255 421.615 180.62 414.973 172.446 414.973C164.273 414.973 157.637 421.615 157.637 429.796V465.726C157.637 473.907 164.273 480.549 172.446 480.549C180.62 480.549 187.255 473.907 187.255 465.726V429.796Z" fill="#3165D4"/>
<path fill-rule="evenodd" clip-rule="evenodd" d="M196.381 427.584C196.381 414.362 185.657 403.627 172.447 403.627C159.237 403.627 148.513 414.362 148.513 427.584V467.94C148.513 481.162 159.237 491.897 172.447 491.897C185.657 491.897 196.381 481.162 196.381 467.94V427.584ZM190.708 428.453C190.708 418.365 182.525 410.175 172.447 410.175C162.369 410.175 154.186 418.365 154.186 428.453V467.071C154.186 477.159 162.369 485.349 172.447 485.349C182.525 485.349 190.708 477.159 190.708 467.071V428.453Z" fill="white"/>
<path fill-rule="evenodd" clip-rule="evenodd" d="M242.026 537.486C234.325 524.135 217.244 519.554 203.906 527.262C190.568 534.97 185.991 552.067 193.692 565.419L213.648 600.017C221.349 613.368 238.429 617.949 251.768 610.241C265.105 602.532 269.682 585.435 261.982 572.084L242.026 537.486ZM231.688 545.782C227.601 538.696 218.537 536.265 211.459 540.356C204.38 544.446 201.951 553.52 206.038 560.605L223.986 591.721C228.072 598.806 237.137 601.238 244.215 597.147C251.293 593.056 253.722 583.983 249.636 576.898L231.688 545.782Z" fill="#3165D4"/>
<path fill-rule="evenodd" clip-rule="evenodd" d="M238.487 539.299C231.882 527.848 217.232 523.919 205.792 530.53C194.352 537.141 190.426 551.806 197.031 563.256L217.189 598.205C223.794 609.656 238.444 613.585 249.884 606.974C261.324 600.363 265.249 585.699 258.645 574.247L238.487 539.299ZM234.007 542.891C228.968 534.154 217.791 531.156 209.062 536.201C200.334 541.245 197.339 552.433 202.379 561.169L221.669 594.613C226.708 603.35 237.885 606.348 246.613 601.304C255.341 596.26 258.336 585.072 253.297 576.335L234.007 542.891Z" fill="white"/>
<path fill-rule="evenodd" clip-rule="evenodd" d="M200.352 292.011C200.352 276.595 187.848 264.079 172.446 264.079C157.045 264.079 144.541 276.595 144.541 292.011V331.961C144.541 347.378 157.045 359.894 172.446 359.894C187.848 359.894 200.352 347.378 200.352 331.961V292.011ZM187.255 294.021C187.255 285.84 180.62 279.198 172.446 279.198C164.273 279.198 157.637 285.84 157.637 294.021V329.951C157.637 338.132 164.273 344.775 172.446 344.775C180.62 344.775 187.255 338.132 187.255 329.951V294.021Z" fill="#3165D4"/>
<path fill-rule="evenodd" clip-rule="evenodd" d="M196.381 291.809C196.381 278.586 185.657 267.851 172.447 267.851C159.237 267.851 148.513 278.586 148.513 291.809V332.164C148.513 345.386 159.237 356.121 172.447 356.121C185.657 356.121 196.381 345.386 196.381 332.164V291.809ZM190.708 292.677C190.708 282.589 182.525 274.399 172.447 274.399C162.369 274.399 154.186 282.589 154.186 292.677V331.295C154.186 341.383 162.369 349.574 172.447 349.574C182.525 349.574 190.708 341.383 190.708 331.295V292.677Z" fill="white"/>
<path fill-rule="evenodd" clip-rule="evenodd" d="M181.461 340.452C181.461 335.473 177.422 331.43 172.447 331.43C167.472 331.43 163.433 335.473 163.433 340.452V418.188C163.433 423.168 167.472 427.211 172.447 427.211C177.422 427.211 181.461 423.168 181.461 418.188V340.452Z" fill="#3165D4"/>
<path fill-rule="evenodd" clip-rule="evenodd" d="M177.963 340.791C177.963 337.744 175.491 335.27 172.447 335.27C169.403 335.27 166.932 337.744 166.932 340.791V417.846C166.932 420.893 169.403 423.367 172.447 423.367C175.491 423.367 177.963 420.893 177.963 417.846V340.791Z" fill="white"/>
<path fill-rule="evenodd" clip-rule="evenodd" d="M181.36 469.458C178.872 465.145 173.355 463.665 169.046 466.155C164.738 468.645 163.259 474.168 165.747 478.481L204.577 545.802C207.065 550.115 212.582 551.595 216.891 549.105C221.199 546.615 222.677 541.092 220.19 536.779L181.36 469.458Z" fill="#3165D4"/>
<path fill-rule="evenodd" clip-rule="evenodd" d="M178.499 471.503C176.977 468.864 173.601 467.958 170.965 469.482C168.329 471.005 167.424 474.385 168.946 477.024L207.436 543.755C208.958 546.394 212.334 547.299 214.97 545.776C217.607 544.252 218.511 540.873 216.989 538.234L178.499 471.503Z" fill="white"/>
<path fill-rule="evenodd" clip-rule="evenodd" d="M273.766 417.726C258.364 417.726 245.86 430.242 245.86 445.658C245.86 461.074 258.364 473.591 273.766 473.591H313.677C329.079 473.591 341.583 461.074 341.583 445.658C341.583 430.242 329.079 417.726 313.677 417.726H273.766ZM275.774 430.835C267.601 430.835 260.965 437.477 260.965 445.658C260.965 453.839 267.601 460.482 275.774 460.482H311.669C319.842 460.482 326.478 453.839 326.478 445.658C326.478 437.477 319.842 430.835 311.669 430.835H275.774Z" fill="#3165D4"/>
<path fill-rule="evenodd" clip-rule="evenodd" d="M273.564 421.7C260.354 421.7 249.63 432.435 249.63 445.657C249.63 458.88 260.354 469.615 273.564 469.615H313.88C327.09 469.615 337.815 458.88 337.815 445.657C337.815 432.435 327.09 421.7 313.88 421.7H273.564ZM274.432 427.379C264.354 427.379 256.171 435.569 256.171 445.657C256.171 455.745 264.354 463.936 274.432 463.936H313.012C323.091 463.936 331.273 455.745 331.273 445.657C331.273 435.569 323.091 427.379 313.012 427.379H274.432Z" fill="white"/>
<path fill-rule="evenodd" clip-rule="evenodd" d="M184.574 436.299C179.599 436.299 175.56 440.342 175.56 445.322C175.56 450.301 179.599 454.344 184.574 454.344H262.234C267.209 454.344 271.248 450.301 271.248 445.322C271.248 440.342 267.209 436.299 262.234 436.299H184.574Z" fill="#3165D4"/>
<path fill-rule="evenodd" clip-rule="evenodd" d="M184.914 439.802C181.87 439.802 179.398 442.276 179.398 445.323C179.398 448.37 181.87 450.844 184.914 450.844H261.894C264.938 450.844 267.409 448.37 267.409 445.323C267.409 442.276 264.938 439.802 261.894 439.802H184.914Z" fill="white"/>
<path fill-rule="evenodd" clip-rule="evenodd" d="M193.692 190.713C185.991 204.064 190.568 221.162 203.906 228.87C217.244 236.578 234.325 231.997 242.026 218.646L261.982 184.048C269.682 170.697 265.105 153.6 251.768 145.891C238.429 138.183 221.349 142.764 213.648 156.115L193.692 190.713ZM206.038 195.527C201.951 202.612 204.38 211.686 211.459 215.776C218.537 219.867 227.601 217.436 231.688 210.35L249.636 179.234C253.722 172.149 251.293 163.076 244.215 158.985C237.137 154.894 228.072 157.326 223.986 164.411L206.038 195.527Z" fill="#3165D4"/>
<path fill-rule="evenodd" clip-rule="evenodd" d="M197.031 192.876C190.426 204.327 194.352 218.991 205.792 225.603C217.232 232.214 231.882 228.285 238.487 216.833L258.645 181.885C265.249 170.434 261.324 155.77 249.884 149.158C238.444 142.547 223.794 146.476 217.189 157.928L197.031 192.876ZM202.379 194.963C197.339 203.7 200.334 214.888 209.062 219.932C217.791 224.976 228.968 221.978 234.007 213.242L253.297 179.798C258.336 171.061 255.341 159.873 246.613 154.829C237.885 149.785 226.708 152.783 221.669 161.519L202.379 194.963Z" fill="white"/>
<path fill-rule="evenodd" clip-rule="evenodd" d="M165.168 277.319C162.68 281.631 164.159 287.154 168.467 289.644C172.776 292.134 178.293 290.654 180.781 286.341L219.611 219.02C222.099 214.707 220.62 209.184 216.312 206.695C212.003 204.205 206.486 205.684 203.998 209.997L165.168 277.319Z" fill="#3165D4"/>
<path fill-rule="evenodd" clip-rule="evenodd" d="M168.368 278.774C166.846 281.413 167.75 284.792 170.387 286.316C173.023 287.84 176.399 286.934 177.921 284.295L216.411 217.564C217.933 214.925 217.028 211.546 214.392 210.022C211.756 208.499 208.38 209.404 206.858 212.043L168.368 278.774Z" fill="white"/>
<path fill-rule="evenodd" clip-rule="evenodd" d="M411.85 417.726C396.448 417.726 383.944 430.242 383.944 445.658C383.944 461.074 396.448 473.591 411.85 473.591H451.761C467.163 473.591 479.667 461.074 479.667 445.658C479.667 430.242 467.163 417.726 451.761 417.726H411.85ZM413.858 430.835C405.685 430.835 399.049 437.477 399.049 445.658C399.049 453.839 405.685 460.482 413.858 460.482H449.753C457.926 460.482 464.562 453.839 464.562 445.658C464.562 437.477 457.926 430.835 449.753 430.835H413.858Z" fill="#3165D4"/>
<path fill-rule="evenodd" clip-rule="evenodd" d="M411.645 421.7C398.436 421.7 387.711 432.435 387.711 445.657C387.711 458.88 398.436 469.615 411.645 469.615H451.961C465.171 469.615 475.896 458.88 475.896 445.657C475.896 432.435 465.171 421.7 451.961 421.7H411.645ZM412.513 427.379C402.435 427.379 394.252 435.569 394.252 445.657C394.252 455.745 402.435 463.936 412.513 463.936H451.094C461.172 463.936 469.354 455.745 469.354 445.657C469.354 435.569 461.172 427.379 451.094 427.379H412.513Z" fill="white"/>
<path fill-rule="evenodd" clip-rule="evenodd" d="M322.656 436.299C317.681 436.299 313.642 440.342 313.642 445.322C313.642 450.301 317.681 454.344 322.656 454.344H400.316C405.291 454.344 409.33 450.301 409.33 445.322C409.33 440.342 405.291 436.299 400.316 436.299H322.656Z" fill="#3165D4"/>
<path fill-rule="evenodd" clip-rule="evenodd" d="M322.997 439.802C319.953 439.802 317.481 442.276 317.481 445.323C317.481 448.37 319.953 450.844 322.997 450.844H399.977C403.021 450.844 405.492 448.37 405.492 445.323C405.492 442.276 403.021 439.802 399.977 439.802H322.997Z" fill="white"/>
<path fill-rule="evenodd" clip-rule="evenodd" d="M334.273 214.309C320.935 206.601 303.854 211.182 296.153 224.533C288.452 237.884 293.029 254.981 306.367 262.69L340.932 282.665C354.27 290.373 371.35 285.792 379.051 272.441C386.752 259.09 382.175 241.993 368.837 234.285L334.273 214.309ZM329.464 226.667C322.385 222.577 313.321 225.008 309.234 232.093C305.147 239.178 307.576 248.252 314.655 252.342L345.741 270.307C352.819 274.398 361.884 271.967 365.97 264.881C370.057 257.796 367.628 248.723 360.55 244.632L329.464 226.667Z" fill="#3165D4"/>
<path fill-rule="evenodd" clip-rule="evenodd" d="M332.111 217.651C320.671 211.039 306.021 214.969 299.416 226.42C292.811 237.871 296.737 252.535 308.177 259.146L343.091 279.324C354.531 285.935 369.181 282.006 375.786 270.555C382.391 259.104 378.465 244.439 367.025 237.828L332.111 217.651ZM330.025 223.003C321.297 217.959 310.12 220.957 305.081 229.693C300.042 238.43 303.037 249.618 311.765 254.662L345.176 273.971C353.905 279.015 365.082 276.017 370.121 267.281C375.16 258.544 372.165 247.356 363.437 242.312L330.025 223.003Z" fill="white"/>
<path fill-rule="evenodd" clip-rule="evenodd" d="M247.751 185.757C243.442 183.267 237.925 184.746 235.437 189.059C232.95 193.372 234.428 198.895 238.737 201.385L305.993 240.253C310.301 242.742 315.819 241.263 318.306 236.95C320.794 232.637 319.315 227.114 315.007 224.625L247.751 185.757Z" fill="#3165D4"/>
<path fill-rule="evenodd" clip-rule="evenodd" d="M246.297 188.96C243.66 187.436 240.285 188.341 238.762 190.98C237.24 193.619 238.145 196.998 240.781 198.522L307.448 237.049C310.084 238.573 313.46 237.667 314.982 235.028C316.504 232.39 315.599 229.01 312.963 227.487L246.297 188.96Z" fill="white"/>
<path fill-rule="evenodd" clip-rule="evenodd" d="M215.173 67.6759C215.173 83.0924 227.677 95.6084 243.078 95.6084C258.48 95.6084 270.984 83.0924 270.984 67.6759V27.7256C270.984 12.3091 258.48 -0.206909 243.078 -0.206909C227.677 -0.206909 215.173 12.3091 215.173 27.7256V67.6759ZM228.269 65.6657C228.269 73.8469 234.905 80.4892 243.078 80.4892C251.252 80.4892 257.887 73.8469 257.887 65.6657V29.7358C257.887 21.5546 251.252 14.9123 243.078 14.9123C234.905 14.9123 228.269 21.5546 228.269 29.7358V65.6657Z" fill="#3165D4"/>
<path fill-rule="evenodd" clip-rule="evenodd" d="M219.144 67.8783C219.144 81.1009 229.868 91.8358 243.078 91.8358C256.287 91.8358 267.012 81.1009 267.012 67.8783V27.5232C267.012 14.3007 256.287 3.56567 243.078 3.56567C229.868 3.56567 219.144 14.3007 219.144 27.5232V67.8783ZM224.817 67.0096C224.817 77.0978 232.999 85.2882 243.078 85.2882C253.156 85.2882 261.339 77.0978 261.339 67.0096V28.3919C261.339 18.3037 253.156 10.1133 243.078 10.1133C232.999 10.1133 224.817 18.3037 224.817 28.3919V67.0096Z" fill="white"/>
<path fill-rule="evenodd" clip-rule="evenodd" d="M233.729 156.954C233.729 161.935 237.769 165.977 242.743 165.977C247.719 165.977 251.758 161.935 251.758 156.954V79.2185C251.758 74.2388 247.719 70.1958 242.743 70.1958C237.769 70.1958 233.729 74.2388 233.729 79.2185V156.954Z" fill="#3165D4"/>
<path fill-rule="evenodd" clip-rule="evenodd" d="M237.228 156.614C237.228 159.661 239.699 162.135 242.743 162.135C245.787 162.135 248.259 159.661 248.259 156.614V79.5595C248.259 76.5124 245.787 74.0386 242.743 74.0386C239.699 74.0386 237.228 76.5124 237.228 79.5595V156.614Z" fill="white"/>
<path fill-rule="evenodd" clip-rule="evenodd" d="M67.817 339.918C83.2185 339.918 95.7224 327.402 95.7224 311.986C95.7224 296.57 83.2185 284.053 67.817 284.053H27.9054C12.5038 284.053 0 296.57 0 311.986C0 327.402 12.5038 339.918 27.9054 339.918H67.817ZM65.8087 326.809C73.982 326.809 80.6178 320.167 80.6178 311.986C80.6178 303.805 73.982 297.163 65.8087 297.163H29.9136C21.7404 297.163 15.1046 303.805 15.1046 311.986C15.1046 320.167 21.7404 326.809 29.9136 326.809H65.8087Z" fill="#3165D4"/>
<path fill-rule="evenodd" clip-rule="evenodd" d="M68.0188 335.944C81.2285 335.944 91.9531 325.209 91.9531 311.987C91.9531 298.765 81.2285 288.03 68.0188 288.03H27.7029C14.4931 288.03 3.76855 298.765 3.76855 311.987C3.76855 325.209 14.4931 335.944 27.7029 335.944H68.0188ZM67.151 330.265C77.2294 330.265 85.4118 322.075 85.4118 311.987C85.4118 301.899 77.2294 293.709 67.151 293.709H28.5707C18.4923 293.709 10.3098 301.899 10.3098 311.987C10.3098 322.075 18.4923 330.265 28.5707 330.265H67.151Z" fill="white"/>
<path fill-rule="evenodd" clip-rule="evenodd" d="M157.009 321.342C161.984 321.342 166.023 317.299 166.023 312.32C166.023 307.34 161.984 303.297 157.009 303.297H79.3479C74.373 303.297 70.334 307.34 70.334 312.32C70.334 317.299 74.373 321.342 79.3479 321.342H157.009Z" fill="#3165D4"/>
<path fill-rule="evenodd" clip-rule="evenodd" d="M156.668 317.842C159.712 317.842 162.184 315.368 162.184 312.321C162.184 309.273 159.712 306.8 156.668 306.8H79.6884C76.6443 306.8 74.1729 309.273 74.1729 312.321C74.1729 315.368 76.6443 317.842 79.6884 317.842H156.668Z" fill="white"/>


</g>
</svg>
