<svg  viewBox="0 0 42 42" fill="none" xmlns="http://www.w3.org/2000/svg">
<path d="M21 2.625C10.7625 2.625 2.625 10.7625 2.625 21C2.625 31.2375 10.7625 39.375 21 39.375C31.2375 39.375 39.375 31.2375 39.375 21C39.375 10.7625 31.2375 2.625 21 2.625ZM21 36.75C12.3375 36.75 5.25 29.6625 5.25 21C5.25 12.3375 12.3375 5.25 21 5.25C29.6625 5.25 36.75 12.3375 36.75 21C36.75 29.6625 29.6625 36.75 21 36.75Z" fill="black"/>
<circle cx="21" cy="21" r="16.5" fill="#fff" stroke-width="4"/>
<path d="M28.0875 30.1875L21 23.1L13.9125 30.1875L11.8125 28.0875L18.9 21L11.8125 13.9125L13.9125 11.8125L21 18.9L28.0875 11.8125L30.1875 13.9125L23.1 21L30.1875 28.0875L28.0875 30.1875Z" fill="black" />
</svg>
