<svg width="48" height="48" fill="currentColor" xmlns="http://www.w3.org/2000/svg"><path fill-rule="evenodd" clip-rule="evenodd" d="M24 0C10.748 0 0 10.744 0 24c0 13.254 10.748 24 24 24 13.254 0 24-10.746 24-24C48 10.744 37.254 0 24 0zm6.496 36.696l-.742-2.59 1.792 1.666 1.694 1.568L36.25 40V14.884A2.877 2.877 0 0033.38 12H14.62a2.877 2.877 0 00-2.87 2.884v18.928a2.877 2.877 0 002.87 2.884h15.876zm-2.52-6.412l-.924-1.134c1.834-.518 2.534-1.666 2.534-1.666a8.011 8.011 0 01-1.61.826c-.7.294-1.372.49-2.03.602a9.807 9.807 0 01-3.626-.014 11.752 11.752 0 01-2.058-.602 8.204 8.204 0 01-1.022-.476l-.056-.032-.014-.006-.056-.032-.056-.042-.392-.238s.672 1.12 2.45 1.652l-.938 1.162c-3.094-.098-4.27-2.128-4.27-2.128 0-4.508 2.016-8.162 2.016-8.162 2.016-1.512 3.934-1.47 3.934-1.47l.14.168c-2.52.728-3.682 1.834-3.682 1.834l.826-.406c1.498-.658 2.688-.84 3.178-.882l.238-.028a11.412 11.412 0 017.042 1.316s-1.106-1.05-3.486-1.778l.196-.224s1.918-.042 3.934 1.47c0 0 2.016 3.654 2.016 8.162 0 0-1.146 1.954-4.284 2.128zm-1.4-6.538c-.798 0-1.428.7-1.428 1.554 0 .854.644 1.554 1.428 1.554.798 0 1.428-.7 1.428-1.554 0-.854-.63-1.554-1.428-1.554zm-5.11 0c-.798 0-1.428.7-1.428 1.554 0 .854.644 1.554 1.428 1.554.798 0 1.428-.7 1.428-1.554.014-.854-.63-1.554-1.428-1.554z"/></svg>
