<svg viewBox="0 0 150 150" xmlns="http://www.w3.org/2000/svg" fill-rule="evenodd" clip-rule="evenodd" stroke-linejoin="round" stroke-miterlimit="2"><g transform="matrix(.56604 0 0 .69444 0 457.642)"><path fill="none" d="M0-659h265v216H0z"/><clipPath id="a"><path d="M0-659h265v216H0z"/></clipPath><g clip-path="url(#a)"><path d="M265-644.6c0-7.953-7.909-14.4-17.666-14.4H17.667C7.91-659 0-652.553 0-644.6v187.2c0 7.953 7.91 14.4 17.667 14.4h229.667c9.757 0 17.667-6.447 17.667-14.4v-187.2z" fill="#c1d5ff"/><path d="M208.468-602.84c0-7.952-7.91-14.4-17.667-14.4H86.06c-14.39 0-28.192 4.66-38.368 12.953-10.175 8.294-15.891 19.543-15.891 31.273V-479c0 7.952 7.91 14.4 17.666 14.4h141.334c9.757 0 17.667-6.448 17.667-14.4v-123.84z" fill="#3165d4"/></g></g></svg>