<svg width="17" height="16" viewBox="0 0 17 16" fill="none" xmlns="http://www.w3.org/2000/svg">
<path d="M8.35682 11.3864C8.37383 11.4081 8.39556 11.4257 8.42036 11.4378C8.44517 11.4498 8.4724 11.4561 8.5 11.4561C8.5276 11.4561 8.55483 11.4498 8.57964 11.4378C8.60444 11.4257 8.62617 11.4081 8.64318 11.3864L11.1886 8.16591C11.2818 8.04773 11.1977 7.87273 11.0455 7.87273H9.36136V0.181818C9.36136 0.0818182 9.27955 0 9.17955 0H7.81591C7.71591 0 7.63409 0.0818182 7.63409 0.181818V7.87045H5.95455C5.80227 7.87045 5.71818 8.04545 5.81136 8.16364L8.35682 11.3864ZM16.8182 10.5909H15.4545C15.3545 10.5909 15.2727 10.6727 15.2727 10.7727V14.2727H1.72727V10.7727C1.72727 10.6727 1.64545 10.5909 1.54545 10.5909H0.181818C0.0818182 10.5909 0 10.6727 0 10.7727V15.2727C0 15.675 0.325 16 0.727273 16H16.2727C16.675 16 17 15.675 17 15.2727V10.7727C17 10.6727 16.9182 10.5909 16.8182 10.5909Z" fill="current color"/>
</svg>
