<svg viewBox="0 0 150 150" xmlns="http://www.w3.org/2000/svg" fill-rule="evenodd" clip-rule="evenodd" stroke-linejoin="round" stroke-miterlimit="2"><g transform="matrix(.56604 0 0 .69444 0 457.64)"><path fill="none" d="M0-659h265v216H0z"/><clipPath id="a"><path d="M0-659h265v216H0z"/></clipPath><g clip-path="url(#a)"><path d="M265.002-644.6c0-7.953-8.374-16.822-17.666-14.4-55.25 14.4-181.485 0-229.668 0-9.757 0-17.666 6.447-17.666 14.4v187.2c0 7.953 8.303 16.64 17.666 14.4 48.183-11.52 181.485 0 229.668 0 9.757 0 17.666-6.447 17.666-14.4v-187.2z" fill="#3165d4"/><path d="M84.8-514.7c4.509 11.5 16.683 25.738 42.835 27.746v13.69h13.752v-13.69c25.25-2.19 40.58-16.976 40.58-35.412 0-40.888-74.172-34.864-74.172-64.07 0-10.587 9.244-19.166 26.603-19.166 17.36 0 25.926 9.674 29.533 16.063l15.33-5.11c-3.607-7.85-14.428-21.722-37.874-24.095v-10.04h-13.752v10.222c-23.898 2.008-38.1 15.516-38.1 32.126 0 41.253 73.945 33.04 73.945 64.983 0 13.325-11.948 21.174-28.631 21.174-20.741 0-30.21-10.04-34.493-19.896L84.8-514.7z" fill="#fff" fill-rule="nonzero"/></g></g></svg>