<svg viewBox="0 0 150 150" xmlns="http://www.w3.org/2000/svg" fill-rule="evenodd" clip-rule="evenodd" stroke-linejoin="round" stroke-miterlimit="2"><g transform="matrix(.56604 0 0 .69444 0 457.64)"><path fill="none" d="M0-659h265v216H0z"/><clipPath id="a"><path d="M0-659h265v216H0z"/></clipPath><g clip-path="url(#a)"><circle cx="293.676" cy="88.324" r="39.676" fill="#3165d4" transform="matrix(1.78111 0 0 1.45177 -390.568 -679.227)"/><circle cx="223" cy="20" r="20" fill="#c1d5ff" transform="matrix(1.76667 0 0 1.44 -358.633 -659)"/><circle cx="223" cy="20" r="20" fill="#c1d5ff" transform="matrix(1.76667 0 0 1.44 -164.3 -659)"/><circle cx="223" cy="20" r="20" fill="#c1d5ff" transform="matrix(1.76667 0 0 1.44 -164.3 -500.6)"/><circle cx="223" cy="20" r="20" fill="#c1d5ff" transform="matrix(1.76667 0 0 1.44 -358.633 -500.6)"/></g></g></svg>