<svg viewBox="0 0 150 150" xmlns="http://www.w3.org/2000/svg" fill-rule="evenodd" clip-rule="evenodd" stroke-linejoin="round" stroke-miterlimit="2"><g transform="matrix(.56604 0 0 .69444 0 457.642)"><path fill="none" d="M0-659h265v216H0z"/><clipPath id="a"><path d="M0-659h265v216H0z"/></clipPath><g clip-path="url(#a)"><path fill="#c1d5ff" d="M79.501-582.68h107.767v60.48H79.501z"/><path d="M265.002-542.36H77.735c-9.37 0-18.358 3.034-24.985 8.436-6.626 5.401-10.349 12.726-10.349 20.364V-443h222.6v-99.36z" fill="#3165d4"/><path d="M-.002-559.64h187.267c9.37 0 18.358-3.034 24.985-8.436 6.626-5.401 10.349-12.726 10.349-20.364V-659H-.001v99.36z" fill="#4aa658"/><path d="M113.484-534.166h31.193v-4.243c0-11.77 26.69-16.15 26.69-34.9 0-16.56-16.848-27.371-39.367-27.371-25.522 0-35.03 12.728-38.367 20.666l25.355 9.17c1.168-2.327 3.67-6.844 10.676-6.844 6.339 0 8.841 3.285 8.841 6.159 0 8.896-25.021 12.865-25.021 31.34v6.023zm-3.503 17.792c0 8.211 8.007 15.054 18.85 15.054 10.842 0 18.849-6.843 18.849-15.054 0-8.486-8.007-15.329-18.85-15.329-10.842 0-18.85 6.843-18.85 15.329z" fill="#fff" fill-rule="nonzero"/></g></g></svg>