<svg width="64" height="64" xmlns="http://www.w3.org/2000/svg"><g fill="none" fill-rule="evenodd"><path d="M0 .003h64v64H0z"/><path d="M42.182 27.1l-5.28-5.28L53.819 4.907 48.915.003H64v15.085l-4.902-4.902L42.182 27.1zm-20.364 0l5.28-5.28L10.182 4.907 15.085.003H0v15.085l4.902-4.903L21.818 27.1zm20.364 9.806l-5.28 5.28 16.916 16.915-4.903 4.902H64V48.918l-4.903 4.903-16.915-16.915zm-20.364 0l5.28 5.28-16.916 16.915 4.903 4.902H0V48.918l4.902 4.903 16.916-16.915z" fill="#3165D4" fill-rule="nonzero"/></g></svg>
