<svg width="50" height="50" viewBox="0 0 50 50" fill="none" xmlns="http://www.w3.org/2000/svg">
<g clip-path="url(#clip0)">
<path fill-rule="evenodd" clip-rule="evenodd" d="M32.955 21.1712L28.8303 17.0465L42.0451 3.83199L38.2149 0.0016909H50.0002V11.7868L46.17 7.95674L32.955 21.1712ZM17.0452 21.1712L21.1699 17.0465L7.95513 3.83199L11.7853 0.00146484H0V11.7866L3.8302 7.95651L17.0452 21.171V21.1712ZM32.955 28.8318L28.8303 32.9568L42.0451 46.1713L38.2149 50.0014L50.0002 50.0016V38.2163L46.17 42.0466L32.955 28.8318ZM17.0452 28.8318L21.1699 32.9568L7.95513 46.1713L11.7853 50.0014L0 50.0016V38.2163L3.8302 42.0466L17.0452 28.8318Z" fill="white"/>
</g>
<defs>
<clipPath id="clip0">
<rect width="50" height="50" fill="white"/>
</clipPath>
</defs>
</svg>
