<svg width="50" height="50" viewBox="0 0 50 50" fill="none" xmlns="http://www.w3.org/2000/svg">
<g clip-path="url(#clip0)">
<path fill-rule="evenodd" clip-rule="evenodd" d="M6.66767 15.3342V2.6329C6.66767 1.18037 7.84767 0.000976562 9.30108 0.000976562H47.3676C48.821 0.000976562 50.001 1.18037 50.001 2.6329V24.0355C50.001 25.4881 48.821 26.6675 47.3676 26.6675H46.6676V17.9661C46.6676 16.5136 45.4876 15.3342 44.0344 15.3342H6.66748H6.66767Z" fill="white"/>
<path fill-rule="evenodd" clip-rule="evenodd" d="M39.9987 25.2152C39.9987 23.7171 38.7827 22.5011 37.284 22.5011H2.71326C1.21458 22.5011 -0.00146484 23.7171 -0.00146484 25.2152V47.2868C-0.00146484 48.7847 1.21458 50.0009 2.71326 50.0009H37.284C38.7827 50.0009 39.9987 48.7847 39.9987 47.2868V25.2152Z" fill="white"/>
<path fill-rule="evenodd" clip-rule="evenodd" d="M4.66699 27.3341H14.667V38.0841H4.66699V27.3341ZM11.2172 5.9176H18.1163V15.3344H11.2172V5.9176Z" fill="#3165D4"/>
</g>
<defs>
<clipPath id="clip0">
<rect width="50" height="50" fill="white"/>
</clipPath>
</defs>
</svg>
