<svg width="100" height="100" viewBox="0 0 100 100" fill="none" xmlns="http://www.w3.org/2000/svg">
<g clip-path="url(#clip0)">
<path fill-rule="evenodd" clip-rule="evenodd" d="M13.3363 30.6685V5.26593C13.3363 2.36085 15.6963 0.0020752 18.6031 0.0020752H94.7363C97.6431 0.0020752 100.003 2.36085 100.003 5.26593V48.0712C100.003 50.9763 97.6431 53.3351 94.7363 53.3351H93.3363V35.9324C93.3363 33.0273 90.9763 30.6685 88.0698 30.6685H13.3359H13.3363Z" fill="#3165D4"/>
<path fill-rule="evenodd" clip-rule="evenodd" d="M79.9974 50.4305C79.9974 47.4342 77.5653 45.0023 74.5679 45.0023H5.42653C2.42916 45.0023 -0.00292969 47.4342 -0.00292969 50.4305V94.5737C-0.00292969 97.5695 2.42916 100.002 5.42653 100.002H74.5679C77.5653 100.002 79.9974 97.5695 79.9974 94.5737V50.4305Z" fill="#3165D4"/>
<path fill-rule="evenodd" clip-rule="evenodd" d="M9.3335 54.6683H29.3336V76.1682H9.3335V54.6683ZM22.4339 11.8353H36.2321V30.669H22.4339V11.8353Z" fill="#C1D5FF"/>
</g>
<defs>
<clipPath id="clip0">
<rect width="100" height="100" fill="white"/>
</clipPath>
</defs>
</svg>
