<svg viewBox="0 0 75 75" fill="none" xmlns="http://www.w3.org/2000/svg">
<g>
<path fill-rule="evenodd" clip-rule="evenodd" d="M10.0021 23.0014V3.94942C10.0021 1.77061 11.7721 0.00152588 13.9522 0.00152588H71.0521C73.2322 0.00152588 75.0022 1.77061 75.0022 3.94942V36.0534C75.0022 38.2322 73.2322 40.0013 71.0521 40.0013H70.0021V26.9493C70.0021 24.7705 68.2321 23.0014 66.0522 23.0014H10.0018H10.0021Z" fill="#3165D4"/>
<path fill-rule="evenodd" clip-rule="evenodd" d="M59.9979 37.8228C59.9979 35.5756 58.1738 33.7516 55.9258 33.7516H4.06977C1.82174 33.7516 -0.00231934 35.5756 -0.00231934 37.8228V70.9302C-0.00231934 73.1771 1.82174 75.0014 4.06977 75.0014H55.9258C58.1738 75.0014 59.9979 73.1771 59.9979 70.9302V37.8228Z" fill="#3165D4"/>
<path fill-rule="evenodd" clip-rule="evenodd" d="M7.00012 41.0013H22.0002V57.1262H7.00012V41.0013ZM16.8254 8.87646H27.1741V23.0017H16.8254V8.87646Z" fill="#C1D5FF"/>
</g>
</svg>
