<svg width="64" height="64" xmlns="http://www.w3.org/2000/svg"><g fill="none" fill-rule="evenodd"><path d="M8.532 19.628V3.372c0-1.86 1.51-3.369 3.37-3.369h48.723c1.86 0 3.37 1.51 3.37 3.369v27.393c0 1.86-1.51 3.37-3.37 3.37h-.896V22.996c0-1.86-1.51-3.369-3.37-3.369H8.532z" fill="#3165D4"/><path d="M51.193 32.275a3.475 3.475 0 00-3.475-3.474H3.47a3.475 3.475 0 00-3.475 3.474v28.25A3.476 3.476 0 003.47 64h44.248a3.476 3.476 0 003.475-3.474v-28.25z" fill="#3165D4"/><path fill="#C1D5FF" d="M5.97 34.987h12.8v13.76H5.97zM14.354 7.576h8.83v12.053h-8.83z"/></g></svg>
