<svg viewBox="0 0 150 150" xmlns="http://www.w3.org/2000/svg" fill-rule="evenodd" clip-rule="evenodd" stroke-linejoin="round" stroke-miterlimit="2"><path fill="none" d="M0 0h150v150H0z"/><circle cx="969" cy="76" r="30" fill="#3165d4" transform="translate(-894 -1)"/><circle cx="969" cy="76" r="30" fill="#3165d4" transform="matrix(.5 0 0 .5 -454.5 -8)"/><circle cx="969" cy="76" r="30" fill="#3165d4" transform="matrix(.25 0 0 .25 -167.25 -11.5)"/><circle cx="969" cy="76" r="30" fill="#3165d4" transform="matrix(.25 0 0 .25 -99.75 56)"/><circle cx="969" cy="76" r="30" fill="#3165d4" transform="matrix(.25 0 0 .25 -167.25 123.5)"/><circle cx="969" cy="76" r="30" fill="#3165d4" transform="matrix(.25 0 0 .25 -234.75 56)"/><circle cx="969" cy="76" r="30" fill="#3165d4" transform="matrix(.5 0 0 .5 -364.5 -8)"/><circle cx="969" cy="76" r="30" fill="#3165d4" transform="matrix(.5 0 0 .5 -364.5 82)"/><circle cx="969" cy="76" r="30" fill="#3165d4" transform="matrix(.5 0 0 .5 -454.5 82)"/></svg>