<svg width="50" height="50" viewBox="0 0 50 50" fill="none" xmlns="http://www.w3.org/2000/svg">
<path d="M25 35C30.5228 35 35 30.5228 35 25C35 19.4772 30.5228 15 25 15C19.4772 15 15 19.4772 15 25C15 30.5228 19.4772 35 25 35Z" fill="white"/>
<path d="M10 15C12.7614 15 15 12.7614 15 10C15 7.23858 12.7614 5 10 5C7.23858 5 5 7.23858 5 10C5 12.7614 7.23858 15 10 15Z" fill="white"/>
<path d="M25 5C26.3807 5 27.5 3.88071 27.5 2.5C27.5 1.11929 26.3807 0 25 0C23.6193 0 22.5 1.11929 22.5 2.5C22.5 3.88071 23.6193 5 25 5Z" fill="white"/>
<path d="M47.5 27.5C48.8807 27.5 50 26.3807 50 25C50 23.6193 48.8807 22.5 47.5 22.5C46.1193 22.5 45 23.6193 45 25C45 26.3807 46.1193 27.5 47.5 27.5Z" fill="white"/>
<path d="M25 50C26.3807 50 27.5 48.8807 27.5 47.5C27.5 46.1193 26.3807 45 25 45C23.6193 45 22.5 46.1193 22.5 47.5C22.5 48.8807 23.6193 50 25 50Z" fill="white"/>
<path d="M2.5 27.5C3.88071 27.5 5 26.3807 5 25C5 23.6193 3.88071 22.5 2.5 22.5C1.11929 22.5 0 23.6193 0 25C0 26.3807 1.11929 27.5 2.5 27.5Z" fill="white"/>
<path d="M40 15C42.7614 15 45 12.7614 45 10C45 7.23858 42.7614 5 40 5C37.2386 5 35 7.23858 35 10C35 12.7614 37.2386 15 40 15Z" fill="white"/>
<path d="M40 45C42.7614 45 45 42.7614 45 40C45 37.2386 42.7614 35 40 35C37.2386 35 35 37.2386 35 40C35 42.7614 37.2386 45 40 45Z" fill="white"/>
<path d="M10 45C12.7614 45 15 42.7614 15 40C15 37.2386 12.7614 35 10 35C7.23858 35 5 37.2386 5 40C5 42.7614 7.23858 45 10 45Z" fill="white"/>
</svg>
