<svg  viewBox="0 0 48 48" fill="currentColor" preserveAspectRatio="xMidYMid meet" xmlns="http://www.w3.org/2000/svg">
<path d="M24 0C10.746 0 0 10.746 0 24C0 37.254 10.746 48 24 48C37.254 48 48 37.254 48 24C48 10.746 37.254 0 24 0ZM20 32H16V20H20V32ZM18 18.218C16.786 18.218 15.8 17.226 15.8 16C15.8 14.776 16.784 13.782 18 13.782C19.216 13.782 20.2 14.776 20.2 16C20.2 17.226 19.214 18.218 18 18.218ZM34 32H30.004V26.278C30.004 22.516 26 22.834 26 26.278V32H22V20H26V22.186C27.744 18.954 34 18.714 34 25.282V32Z"/>
</svg>
