<svg  viewBox="0 0 12 16"  preserveAspectRatio="xMidYMid meet" fill="currentColor" xmlns="http://www.w3.org/2000/svg">
<path d="M11.7207 12.6993C11.354 12.402 11.4967 11.7453 11.116 11.4213C11.4847 9.178 10.4513 7.20067 9.21933 5.93333C8.18533 4.87 8.51867 3.83533 8.51867 2.94C8.51867 1.50933 7.93133 0 6.152 0C4.25 0 3.72867 1.58667 3.71 2.492C3.66467 4.66667 4.14933 5.232 2.87667 6.81467C1.37933 8.67667 1.15867 10.534 1.49667 11.5193C1.33867 11.7033 1.12533 11.9073 0.726667 12.076C-0.374667 12.556 0.432667 13.3593 0.128 13.9293C0.0413333 14.0913 0 14.2607 0 14.4227C0 14.9227 0.397333 15.3553 1.11933 15.2907C2.09333 15.204 2.992 15.894 3.57333 15.894C4.08667 15.894 4.508 15.602 4.704 15.2C5.622 14.974 6.75533 15.0027 7.67267 15.2393C7.83733 15.7 8.284 16 8.78067 16C9.868 16 10.0773 14.7673 11.3247 14.35C11.774 14.2 12 13.764 12 13.358C12 13.098 11.9073 12.8507 11.7207 12.6993ZM5.62267 5.72267C5.41 5.72267 5.234 5.55067 4.956 5.344C4.604 5.08267 4.246 4.932 4.25 4.65733C4.25 4.46867 4.50267 4.41067 4.82933 4.20333C5.18 3.98133 5.31667 3.756 5.662 3.756C6.01533 3.756 6.122 3.93467 6.602 4.142C7.074 4.34667 7.40267 4.42667 7.40267 4.65733C7.40267 4.894 6.90867 5.06333 6.63067 5.236C6.222 5.488 6.012 5.72267 5.62267 5.72267ZM6.73267 2.246C7.32067 2.34 7.38667 3.37333 7.10533 3.882L6.86867 3.78533C6.99133 3.42333 6.98933 2.82733 6.57867 2.78933C6.318 2.76533 6.15 3.10933 6.114 3.404C6.012 3.36133 5.90067 3.33067 5.76533 3.31933C5.80667 2.704 6.204 2.16133 6.73267 2.246ZM4.464 2.46667C4.91467 2.35467 5.18067 2.87867 5.18267 3.42333L4.976 3.55C4.948 3.32133 4.846 2.952 4.59 3.03067C4.316 3.116 4.36067 3.75267 4.51333 3.88333L4.30933 3.99667C4.02933 3.52533 4.03 2.57467 4.464 2.46667ZM3.054 15.2953C1.74533 14.7 1.30067 14.8353 1.05067 14.8353C0.532667 14.8353 0.363333 14.4493 0.558 14.084C0.723333 13.774 0.672 13.4493 0.631333 13.1887C0.568667 12.7893 0.557333 12.6593 0.95 12.4873C1.49333 12.2567 1.73467 11.96 1.91467 11.738C2.42 11.1133 2.93 12.096 3.348 12.9713C3.61933 13.5387 4.15333 13.826 4.318 14.4547C4.46933 15.0353 3.84467 15.6553 3.054 15.2953ZM7.712 14.046C6.78933 14.4947 5.614 14.7007 4.73467 14.2453C4.60467 13.87 4.39667 13.6273 4.17267 13.3833C4.532 13.2887 4.79867 12.8407 4.47933 12.3907C4.13867 11.91 3.44267 11.5747 2.73933 11.0307C2.08133 10.522 1.87333 9.268 2.76933 7.86667C2.33267 9.108 2.588 10.252 2.80733 10.5793C2.85267 9.92067 2.90467 8.82067 3.80467 7.50267C4.25867 6.83733 4.26533 5.95867 4.27533 5.40933L4.68867 5.692C4.99267 5.91667 5.24733 6.164 5.61267 6.164C6.15267 6.164 6.45133 5.85333 6.86733 5.59533C7.03 5.49533 7.276 5.394 7.48267 5.25333C7.82933 6.904 9.26533 8.88933 9.346 10.02C9.68 9.332 9.25133 7.67733 9.25133 7.67733C9.81267 8.534 9.85733 9.248 9.882 10.124C10.2747 10.2847 10.696 10.7033 10.7347 11.2547L10.5713 11.236C10.4873 10.6233 8.83333 9.72333 8.68467 10.8767C7.89133 10.9973 8.18 12.254 8.02 13.0687C7.94667 13.4413 7.81067 13.736 7.712 14.046ZM10.9427 14.0187C10.286 14.272 9.84267 14.81 9.538 15.144C8.95133 15.788 8.17533 15.4793 8.09267 14.8767C8.00533 14.2327 8.33267 13.8813 8.474 13.1607C8.60267 12.5027 8.45867 11.49 8.76133 11.382C8.958 12.5507 10.1387 12.0593 10.408 11.7407C10.846 11.7407 10.8827 11.8887 10.9807 12.2987C11.042 12.5553 11.1267 12.7713 11.366 13.0253C11.6447 13.3233 11.5593 13.7807 10.9427 14.0187ZM5.60933 5.348C5.17533 5.348 4.85067 5.05933 4.58667 4.83533C4.45133 4.72133 4.62 4.51067 4.75533 4.62533C5.01333 4.844 5.27333 5.07533 5.60933 5.07533C6.014 5.07533 6.37067 4.72933 6.854 4.53867C7.01867 4.474 7.11267 4.72867 6.94933 4.79333C6.48 4.978 6.10333 5.348 5.60933 5.348Z"  />
</svg>
