<svg  viewBox="0 0 14 16"  preserveAspectRatio="xMidYMid meet" fill="currentColor" xmlns="http://www.w3.org/2000/svg">
<path d="M13.6666 11.738C13.1426 13.258 11.5739 15.9493 9.95792 15.9787C8.88592 15.9993 8.54125 15.3433 7.31592 15.3433C6.09125 15.3433 5.70792 15.9587 4.69459 15.9987C2.97992 16.0647 0.333252 12.114 0.333252 8.66867C0.333252 5.504 2.53859 3.93533 4.46525 3.90667C5.49859 3.888 6.47459 4.60333 7.10459 4.60333C7.73725 4.60333 8.92259 3.74333 10.1686 3.86933C10.6899 3.89133 12.1546 4.07933 13.0946 5.454C10.6006 7.082 10.9893 10.4867 13.6666 11.738ZM10.1853 0C8.30125 0.076 6.76392 2.05267 6.97859 3.68733C8.71992 3.82267 10.3906 1.87067 10.1853 0Z"  />
</svg>
