<svg viewBox="0 0 150 150" xmlns="http://www.w3.org/2000/svg" fill-rule="evenodd" clip-rule="evenodd" stroke-linejoin="round" stroke-miterlimit="2"><path fill="none" d="M0 0h150v150H0z"/><path d="M4.884 89.79l-2.46-9.183a5.998 5.998 0 014.24-7.348l109.15-29.247a6.005 6.005 0 017.35 4.243l12.42 46.364a5.998 5.998 0 01-4.24 7.35l-9.22 2.47-9.55-35.642c-1.08-4.05-5.25-6.457-9.3-5.37L4.884 89.788z" fill="#3165d4"/><path d="M12.624 60.658l-4.2-15.664a5.997 5.997 0 014.24-7.348L121.814 8.4a6.005 6.005 0 017.35 4.243l12.42 46.364a6 6 0 01-4.2 7.336l-8.22-30.7a6.005 6.005 0 00-7.35-4.243L12.664 60.646l-.04.012zm92.861 19.736a4.502 4.502 0 00-5.511-3.182L4.347 102.836a4.502 4.502 0 00-3.182 5.51l9.317 34.774a4.502 4.502 0 005.512 3.182l95.626-25.623a4.502 4.502 0 003.182-5.511l-9.317-34.774z" fill="#3165d4"/></svg>
