<svg viewBox="0 0 625 625" xmlns="http://www.w3.org/2000/svg" fill-rule="evenodd" clip-rule="evenodd" stroke-linejoin="round" stroke-miterlimit="2"><path fill="none" d="M0 0h625v625H0z"/><clipPath id="a"><path d="M0 0h625v625H0z"/></clipPath><g clip-path="url(#a)"><path d="M277.307 136.921C288.735 59.502 355.53 0 436.113 0c88.601 0 160.534 71.933 160.534 160.534 0 37.496-12.883 72.007-34.459 99.341 88.464 45.74 148.998 138.107 148.998 244.5 0 119.252-76.051 220.882-182.236 258.986 15.213-36.081 23.626-75.731 23.626-117.33 0-97.505-46.212-184.309-117.916-239.648 8.917-22.558 13.818-47.137 13.818-72.852 0-100.275-74.524-183.282-171.171-196.61z" fill="#4aa658"/><path d="M135.417 423.817c-19.61-24.842-31.318-56.207-31.318-90.286 0-80.525 65.376-145.901 145.901-145.901s145.901 65.376 145.901 145.901c0 34.079-11.708 65.444-31.318 90.286C444.984 465.389 500 549.336 500 646.031c0 137.979-112.021 250-250 250-137.979 0-250-112.021-250-250 0-96.695 55.016-180.642 135.417-222.214z" fill="#3165d4"/></g></svg>