<svg width="228" height="228" viewBox="0 0 228 228" fill="none" xmlns="http://www.w3.org/2000/svg">
<circle cx="114" cy="114" r="113.5" fill="#3165D4" stroke="#D6D6D6"/>
<path d="M194 33L34 193M36.5 33L196.5 193" stroke="#E3E3E3"/>
<path d="M45.44 83V72.504H46.768V83H45.44ZM50.9071 83.192C50.4058 83.192 50.0485 83.0427 49.8351 82.744C49.6218 82.4453 49.5151 82.008 49.5151 81.432V71.608H50.8271V81.528C50.8271 81.7413 50.8645 81.8907 50.9391 81.976C51.0138 82.0613 51.0991 82.104 51.1951 82.104C51.2378 82.104 51.2751 82.104 51.3071 82.104C51.3498 82.104 51.4085 82.0933 51.4831 82.072L51.6591 83.064C51.5738 83.1067 51.4725 83.1387 51.3551 83.16C51.2378 83.1813 51.0885 83.192 50.9071 83.192ZM54.9853 83.192C54.4839 83.192 54.1266 83.0427 53.9133 82.744C53.6999 82.4453 53.5933 82.008 53.5933 81.432V71.608H54.9053V81.528C54.9053 81.7413 54.9426 81.8907 55.0173 81.976C55.0919 82.0613 55.1773 82.104 55.2733 82.104C55.3159 82.104 55.3533 82.104 55.3853 82.104C55.4279 82.104 55.4866 82.0933 55.5613 82.072L55.7373 83.064C55.6519 83.1067 55.5506 83.1387 55.4333 83.16C55.3159 83.1813 55.1666 83.192 54.9853 83.192ZM59.9434 83.192C59.1114 83.192 58.5034 82.936 58.1194 82.424C57.746 81.912 57.5594 81.1547 57.5594 80.152V75.224H58.8874V79.976C58.8874 80.712 58.9994 81.2453 59.2234 81.576C59.458 81.896 59.8314 82.056 60.3434 82.056C60.7487 82.056 61.106 81.9547 61.4154 81.752C61.7247 81.5387 62.066 81.2027 62.4394 80.744V75.224H63.7514V83H62.6634L62.5514 81.784H62.5034C62.1407 82.2107 61.7567 82.552 61.3514 82.808C60.9567 83.064 60.4874 83.192 59.9434 83.192ZM68.4065 83.192C67.8518 83.192 67.3238 83.0907 66.8225 82.888C66.3212 82.6853 65.8838 82.4293 65.5105 82.12L66.1665 81.24C66.5078 81.5173 66.8545 81.7413 67.2065 81.912C67.5692 82.0827 67.9852 82.168 68.4545 82.168C68.9665 82.168 69.3505 82.0507 69.6065 81.816C69.8625 81.5813 69.9905 81.2933 69.9905 80.952C69.9905 80.7493 69.9372 80.5733 69.8305 80.424C69.7238 80.2747 69.5852 80.1467 69.4145 80.04C69.2545 79.9227 69.0678 79.8213 68.8545 79.736C68.6412 79.6507 68.4278 79.5653 68.2145 79.48C67.9372 79.384 67.6598 79.2773 67.3825 79.16C67.1052 79.032 66.8545 78.8827 66.6305 78.712C66.4172 78.5307 66.2412 78.3227 66.1025 78.088C65.9638 77.8533 65.8945 77.5707 65.8945 77.24C65.8945 76.9307 65.9532 76.6427 66.0705 76.376C66.1985 76.0987 66.3745 75.864 66.5985 75.672C66.8332 75.4693 67.1158 75.3147 67.4465 75.208C67.7772 75.0907 68.1505 75.032 68.5665 75.032C69.0572 75.032 69.5052 75.1173 69.9105 75.288C70.3265 75.4587 70.6838 75.6667 70.9825 75.912L70.3585 76.744C70.0918 76.5413 69.8145 76.376 69.5265 76.248C69.2385 76.12 68.9238 76.056 68.5825 76.056C68.0918 76.056 67.7292 76.168 67.4945 76.392C67.2705 76.616 67.1585 76.8773 67.1585 77.176C67.1585 77.3573 67.2065 77.5173 67.3025 77.656C67.3985 77.784 67.5265 77.9013 67.6865 78.008C67.8465 78.104 68.0278 78.1947 68.2305 78.28C68.4438 78.3547 68.6625 78.4347 68.8865 78.52C69.1638 78.6267 69.4412 78.7387 69.7185 78.856C70.0065 78.9733 70.2625 79.1227 70.4865 79.304C70.7105 79.4747 70.8918 79.688 71.0305 79.944C71.1798 80.2 71.2545 80.5093 71.2545 80.872C71.2545 81.192 71.1905 81.4907 71.0625 81.768C70.9452 82.0453 70.7638 82.2907 70.5185 82.504C70.2838 82.7173 69.9852 82.8827 69.6225 83C69.2705 83.128 68.8652 83.192 68.4065 83.192ZM75.2131 83.192C74.7971 83.192 74.4451 83.128 74.1571 83C73.8798 82.872 73.6505 82.696 73.4691 82.472C73.2985 82.248 73.1758 81.976 73.1011 81.656C73.0265 81.336 72.9891 80.984 72.9891 80.6V76.296H71.8371V75.304L73.0531 75.224L73.2131 73.048H74.3171V75.224H76.4131V76.296H74.3171V80.616C74.3171 81.096 74.4025 81.4693 74.5731 81.736C74.7545 81.992 75.0691 82.12 75.5171 82.12C75.6558 82.12 75.8051 82.0987 75.9651 82.056C76.1251 82.0133 76.2691 81.9653 76.3971 81.912L76.6531 82.904C76.4398 82.9787 76.2051 83.0427 75.9491 83.096C75.7038 83.16 75.4585 83.192 75.2131 83.192ZM78.1714 83V75.224H79.2594L79.3714 76.632H79.4194C79.686 76.1413 80.006 75.752 80.3794 75.464C80.7634 75.176 81.1794 75.032 81.6274 75.032C81.9367 75.032 82.214 75.0853 82.4594 75.192L82.2034 76.344C82.0754 76.3013 81.958 76.2693 81.8514 76.248C81.7447 76.2267 81.6114 76.216 81.4514 76.216C81.1207 76.216 80.774 76.3493 80.4114 76.616C80.0594 76.8827 79.75 77.3467 79.4834 78.008V83H78.1714ZM85.1196 83.192C84.469 83.192 83.925 83 83.4876 82.616C83.061 82.232 82.8476 81.688 82.8476 80.984C82.8476 80.1307 83.2263 79.48 83.9836 79.032C84.741 78.5733 85.9516 78.2533 87.6156 78.072C87.6156 77.8267 87.589 77.5867 87.5356 77.352C87.493 77.1173 87.413 76.9093 87.2956 76.728C87.1783 76.5467 87.013 76.4027 86.7996 76.296C86.597 76.1787 86.3356 76.12 86.0156 76.12C85.5676 76.12 85.1463 76.2053 84.7516 76.376C84.357 76.5467 84.005 76.7387 83.6956 76.952L83.1836 76.04C83.5463 75.8053 83.989 75.5813 84.5116 75.368C85.0343 75.144 85.6103 75.032 86.2396 75.032C87.189 75.032 87.877 75.3253 88.3036 75.912C88.7303 76.488 88.9436 77.2613 88.9436 78.232V83H87.8556L87.7436 82.072H87.6956C87.3223 82.3813 86.9223 82.648 86.4956 82.872C86.069 83.0853 85.6103 83.192 85.1196 83.192ZM85.5036 82.136C85.877 82.136 86.229 82.0507 86.5596 81.88C86.8903 81.6987 87.2423 81.4373 87.6156 81.096V78.936C86.965 79.0213 86.4156 79.1227 85.9676 79.24C85.5303 79.3573 85.173 79.496 84.8956 79.656C84.629 79.816 84.4316 80.0027 84.3036 80.216C84.1863 80.4187 84.1276 80.6427 84.1276 80.888C84.1276 81.336 84.261 81.656 84.5276 81.848C84.7943 82.04 85.1196 82.136 85.5036 82.136ZM93.6194 83.192C93.2034 83.192 92.8514 83.128 92.5634 83C92.286 82.872 92.0567 82.696 91.8754 82.472C91.7047 82.248 91.582 81.976 91.5074 81.656C91.4327 81.336 91.3954 80.984 91.3954 80.6V76.296H90.2434V75.304L91.4594 75.224L91.6194 73.048H92.7234V75.224H94.8194V76.296H92.7234V80.616C92.7234 81.096 92.8087 81.4693 92.9794 81.736C93.1607 81.992 93.4754 82.12 93.9234 82.12C94.062 82.12 94.2114 82.0987 94.3714 82.056C94.5314 82.0133 94.6754 81.9653 94.8034 81.912L95.0594 82.904C94.846 82.9787 94.6114 83.0427 94.3554 83.096C94.11 83.16 93.8647 83.192 93.6194 83.192ZM96.5776 83V75.224H97.8896V83H96.5776ZM97.2496 73.624C96.9936 73.624 96.775 73.544 96.5936 73.384C96.423 73.224 96.3376 73.0213 96.3376 72.776C96.3376 72.52 96.423 72.3173 96.5936 72.168C96.775 72.008 96.9936 71.928 97.2496 71.928C97.5056 71.928 97.719 72.008 97.8896 72.168C98.071 72.3173 98.1616 72.52 98.1616 72.776C98.1616 73.0213 98.071 73.224 97.8896 73.384C97.719 73.544 97.5056 73.624 97.2496 73.624ZM103.539 83.192C103.059 83.192 102.6 83.1013 102.163 82.92C101.736 82.7387 101.358 82.4773 101.027 82.136C100.696 81.784 100.43 81.3573 100.227 80.856C100.035 80.344 99.9391 79.768 99.9391 79.128C99.9391 78.4773 100.035 77.9013 100.227 77.4C100.43 76.888 100.696 76.456 101.027 76.104C101.358 75.752 101.736 75.4853 102.163 75.304C102.6 75.1227 103.059 75.032 103.539 75.032C104.019 75.032 104.472 75.1227 104.899 75.304C105.336 75.4853 105.72 75.752 106.051 76.104C106.382 76.456 106.643 76.888 106.835 77.4C107.038 77.9013 107.139 78.4773 107.139 79.128C107.139 79.768 107.038 80.344 106.835 80.856C106.643 81.3573 106.382 81.784 106.051 82.136C105.72 82.4773 105.336 82.7387 104.899 82.92C104.472 83.1013 104.019 83.192 103.539 83.192ZM103.539 82.104C103.87 82.104 104.174 82.0347 104.451 81.896C104.728 81.7467 104.963 81.544 105.155 81.288C105.358 81.0213 105.512 80.7067 105.619 80.344C105.726 79.9813 105.779 79.576 105.779 79.128C105.779 78.68 105.726 78.2747 105.619 77.912C105.512 77.5387 105.358 77.2187 105.155 76.952C104.963 76.6853 104.728 76.4827 104.451 76.344C104.174 76.1947 103.87 76.12 103.539 76.12C103.208 76.12 102.904 76.1947 102.627 76.344C102.35 76.4827 102.11 76.6853 101.907 76.952C101.715 77.2187 101.566 77.5387 101.459 77.912C101.352 78.2747 101.299 78.68 101.299 79.128C101.299 79.576 101.352 79.9813 101.459 80.344C101.566 80.7067 101.715 81.0213 101.907 81.288C102.11 81.544 102.35 81.7467 102.627 81.896C102.904 82.0347 103.208 82.104 103.539 82.104ZM109.187 83V75.224H110.275L110.387 76.344H110.435C110.808 75.9707 111.198 75.6613 111.603 75.416C112.019 75.16 112.499 75.032 113.043 75.032C113.864 75.032 114.462 75.288 114.835 75.8C115.219 76.312 115.411 77.0693 115.411 78.072V83H114.099V78.248C114.099 77.512 113.982 76.984 113.747 76.664C113.512 76.3333 113.139 76.168 112.627 76.168C112.222 76.168 111.864 76.2693 111.555 76.472C111.246 76.6747 110.894 76.9733 110.499 77.368V83H109.187ZM124.212 83.192C123.7 83.192 123.22 83.1013 122.772 82.92C122.324 82.7387 121.935 82.4773 121.604 82.136C121.284 81.784 121.028 81.3573 120.836 80.856C120.655 80.344 120.564 79.768 120.564 79.128C120.564 78.4773 120.665 77.9013 120.868 77.4C121.071 76.888 121.343 76.456 121.684 76.104C122.025 75.752 122.42 75.4853 122.868 75.304C123.327 75.1227 123.807 75.032 124.308 75.032C124.82 75.032 125.257 75.1227 125.62 75.304C125.983 75.4853 126.303 75.6987 126.58 75.944L125.908 76.808C125.684 76.6053 125.444 76.44 125.188 76.312C124.943 76.184 124.665 76.12 124.356 76.12C124.004 76.12 123.679 76.1947 123.38 76.344C123.081 76.4827 122.825 76.6853 122.612 76.952C122.399 77.2187 122.228 77.5387 122.1 77.912C121.983 78.2747 121.924 78.68 121.924 79.128C121.924 79.576 121.983 79.9813 122.1 80.344C122.217 80.7067 122.377 81.0213 122.58 81.288C122.793 81.544 123.049 81.7467 123.348 81.896C123.647 82.0347 123.972 82.104 124.324 82.104C124.687 82.104 125.017 82.0293 125.316 81.88C125.625 81.72 125.903 81.5333 126.148 81.32L126.724 82.2C126.372 82.5093 125.983 82.7547 125.556 82.936C125.129 83.1067 124.681 83.192 124.212 83.192ZM131.117 83.192C130.637 83.192 130.179 83.1013 129.741 82.92C129.315 82.7387 128.936 82.4773 128.605 82.136C128.275 81.784 128.008 81.3573 127.805 80.856C127.613 80.344 127.517 79.768 127.517 79.128C127.517 78.4773 127.613 77.9013 127.805 77.4C128.008 76.888 128.275 76.456 128.605 76.104C128.936 75.752 129.315 75.4853 129.741 75.304C130.179 75.1227 130.637 75.032 131.117 75.032C131.597 75.032 132.051 75.1227 132.477 75.304C132.915 75.4853 133.299 75.752 133.629 76.104C133.96 76.456 134.221 76.888 134.413 77.4C134.616 77.9013 134.717 78.4773 134.717 79.128C134.717 79.768 134.616 80.344 134.413 80.856C134.221 81.3573 133.96 81.784 133.629 82.136C133.299 82.4773 132.915 82.7387 132.477 82.92C132.051 83.1013 131.597 83.192 131.117 83.192ZM131.117 82.104C131.448 82.104 131.752 82.0347 132.029 81.896C132.307 81.7467 132.541 81.544 132.733 81.288C132.936 81.0213 133.091 80.7067 133.197 80.344C133.304 79.9813 133.357 79.576 133.357 79.128C133.357 78.68 133.304 78.2747 133.197 77.912C133.091 77.5387 132.936 77.2187 132.733 76.952C132.541 76.6853 132.307 76.4827 132.029 76.344C131.752 76.1947 131.448 76.12 131.117 76.12C130.787 76.12 130.483 76.1947 130.205 76.344C129.928 76.4827 129.688 76.6853 129.485 76.952C129.293 77.2187 129.144 77.5387 129.037 77.912C128.931 78.2747 128.877 78.68 128.877 79.128C128.877 79.576 128.931 79.9813 129.037 80.344C129.144 80.7067 129.293 81.0213 129.485 81.288C129.688 81.544 129.928 81.7467 130.205 81.896C130.483 82.0347 130.787 82.104 131.117 82.104ZM136.765 83V75.224H137.853L137.965 76.344H138.013C138.354 75.9707 138.722 75.6613 139.117 75.416C139.522 75.16 139.96 75.032 140.429 75.032C141.026 75.032 141.49 75.1653 141.821 75.432C142.162 75.688 142.413 76.0507 142.573 76.52C142.978 76.072 143.384 75.7147 143.789 75.448C144.205 75.1707 144.653 75.032 145.133 75.032C145.933 75.032 146.525 75.288 146.909 75.8C147.304 76.312 147.501 77.0693 147.501 78.072V83H146.189V78.248C146.189 77.512 146.072 76.984 145.837 76.664C145.602 76.3333 145.24 76.168 144.749 76.168C144.162 76.168 143.512 76.568 142.797 77.368V83H141.485V78.248C141.485 77.512 141.368 76.984 141.133 76.664C140.898 76.3333 140.53 76.168 140.029 76.168C139.442 76.168 138.792 76.568 138.077 77.368V83H136.765ZM153.183 83.192C152.66 83.192 152.169 83.1013 151.711 82.92C151.263 82.728 150.868 82.4613 150.527 82.12C150.196 81.768 149.935 81.3413 149.743 80.84C149.551 80.3387 149.455 79.768 149.455 79.128C149.455 78.488 149.551 77.9173 149.743 77.416C149.945 76.904 150.207 76.472 150.527 76.12C150.857 75.768 151.231 75.5013 151.647 75.32C152.063 75.128 152.495 75.032 152.943 75.032C153.433 75.032 153.871 75.1173 154.255 75.288C154.649 75.4587 154.975 75.704 155.231 76.024C155.497 76.344 155.7 76.728 155.839 77.176C155.977 77.624 156.047 78.1253 156.047 78.68C156.047 78.8187 156.041 78.9573 156.031 79.096C156.031 79.224 156.02 79.336 155.999 79.432H150.751C150.804 80.264 151.06 80.9253 151.519 81.416C151.988 81.896 152.596 82.136 153.343 82.136C153.716 82.136 154.057 82.0827 154.367 81.976C154.687 81.8587 154.991 81.7093 155.279 81.528L155.743 82.392C155.401 82.6053 155.023 82.792 154.607 82.952C154.191 83.112 153.716 83.192 153.183 83.192ZM150.735 78.488H154.895C154.895 77.6987 154.724 77.1013 154.383 76.696C154.052 76.28 153.583 76.072 152.975 76.072C152.697 76.072 152.431 76.1253 152.175 76.232C151.929 76.3387 151.705 76.4987 151.503 76.712C151.3 76.9147 151.129 77.1653 150.991 77.464C150.863 77.7627 150.777 78.104 150.735 78.488ZM160 83.192C159.446 83.192 158.918 83.0907 158.416 82.888C157.915 82.6853 157.478 82.4293 157.104 82.12L157.76 81.24C158.102 81.5173 158.448 81.7413 158.8 81.912C159.163 82.0827 159.579 82.168 160.048 82.168C160.56 82.168 160.944 82.0507 161.2 81.816C161.456 81.5813 161.584 81.2933 161.584 80.952C161.584 80.7493 161.531 80.5733 161.424 80.424C161.318 80.2747 161.179 80.1467 161.008 80.04C160.848 79.9227 160.662 79.8213 160.448 79.736C160.235 79.6507 160.022 79.5653 159.808 79.48C159.531 79.384 159.254 79.2773 158.976 79.16C158.699 79.032 158.448 78.8827 158.224 78.712C158.011 78.5307 157.835 78.3227 157.696 78.088C157.558 77.8533 157.488 77.5707 157.488 77.24C157.488 76.9307 157.547 76.6427 157.664 76.376C157.792 76.0987 157.968 75.864 158.192 75.672C158.427 75.4693 158.71 75.3147 159.04 75.208C159.371 75.0907 159.744 75.032 160.16 75.032C160.651 75.032 161.099 75.1173 161.504 75.288C161.92 75.4587 162.278 75.6667 162.576 75.912L161.952 76.744C161.686 76.5413 161.408 76.376 161.12 76.248C160.832 76.12 160.518 76.056 160.176 76.056C159.686 76.056 159.323 76.168 159.088 76.392C158.864 76.616 158.752 76.8773 158.752 77.176C158.752 77.3573 158.8 77.5173 158.896 77.656C158.992 77.784 159.12 77.9013 159.28 78.008C159.44 78.104 159.622 78.1947 159.824 78.28C160.038 78.3547 160.256 78.4347 160.48 78.52C160.758 78.6267 161.035 78.7387 161.312 78.856C161.6 78.9733 161.856 79.1227 162.08 79.304C162.304 79.4747 162.486 79.688 162.624 79.944C162.774 80.2 162.848 80.5093 162.848 80.872C162.848 81.192 162.784 81.4907 162.656 81.768C162.539 82.0453 162.358 82.2907 162.112 82.504C161.878 82.7173 161.579 82.8827 161.216 83C160.864 83.128 160.459 83.192 160 83.192ZM167.875 83V71.608H169.187V74.712L169.139 76.312C169.512 75.96 169.901 75.6613 170.307 75.416C170.712 75.16 171.187 75.032 171.731 75.032C172.552 75.032 173.149 75.288 173.523 75.8C173.907 76.312 174.099 77.0693 174.099 78.072V83H172.787V78.248C172.787 77.512 172.669 76.984 172.435 76.664C172.2 76.3333 171.827 76.168 171.315 76.168C170.909 76.168 170.552 76.2693 170.243 76.472C169.933 76.6747 169.581 76.9733 169.187 77.368V83H167.875ZM179.73 83.192C179.207 83.192 178.716 83.1013 178.258 82.92C177.81 82.728 177.415 82.4613 177.074 82.12C176.743 81.768 176.482 81.3413 176.29 80.84C176.098 80.3387 176.002 79.768 176.002 79.128C176.002 78.488 176.098 77.9173 176.29 77.416C176.492 76.904 176.754 76.472 177.074 76.12C177.404 75.768 177.778 75.5013 178.194 75.32C178.61 75.128 179.042 75.032 179.49 75.032C179.98 75.032 180.418 75.1173 180.802 75.288C181.196 75.4587 181.522 75.704 181.778 76.024C182.044 76.344 182.247 76.728 182.386 77.176C182.524 77.624 182.594 78.1253 182.594 78.68C182.594 78.8187 182.588 78.9573 182.578 79.096C182.578 79.224 182.567 79.336 182.546 79.432H177.298C177.351 80.264 177.607 80.9253 178.066 81.416C178.535 81.896 179.143 82.136 179.89 82.136C180.263 82.136 180.604 82.0827 180.914 81.976C181.234 81.8587 181.538 81.7093 181.826 81.528L182.29 82.392C181.948 82.6053 181.57 82.792 181.154 82.952C180.738 83.112 180.263 83.192 179.73 83.192ZM177.282 78.488H181.442C181.442 77.6987 181.271 77.1013 180.93 76.696C180.599 76.28 180.13 76.072 179.522 76.072C179.244 76.072 178.978 76.1253 178.722 76.232C178.476 76.3387 178.252 76.4987 178.05 76.712C177.847 76.9147 177.676 77.1653 177.538 77.464C177.41 77.7627 177.324 78.104 177.282 78.488ZM184.515 83V75.224H185.603L185.715 76.632H185.763C186.03 76.1413 186.35 75.752 186.723 75.464C187.107 75.176 187.523 75.032 187.971 75.032C188.28 75.032 188.558 75.0853 188.803 75.192L188.547 76.344C188.419 76.3013 188.302 76.2693 188.195 76.248C188.088 76.2267 187.955 76.216 187.795 76.216C187.464 76.216 187.118 76.3493 186.755 76.616C186.403 76.8827 186.094 77.3467 185.827 78.008V83H184.515ZM193.058 83.192C192.535 83.192 192.044 83.1013 191.586 82.92C191.138 82.728 190.743 82.4613 190.402 82.12C190.071 81.768 189.81 81.3413 189.618 80.84C189.426 80.3387 189.33 79.768 189.33 79.128C189.33 78.488 189.426 77.9173 189.618 77.416C189.82 76.904 190.082 76.472 190.402 76.12C190.732 75.768 191.106 75.5013 191.522 75.32C191.938 75.128 192.37 75.032 192.818 75.032C193.308 75.032 193.746 75.1173 194.13 75.288C194.524 75.4587 194.85 75.704 195.106 76.024C195.372 76.344 195.575 76.728 195.714 77.176C195.852 77.624 195.922 78.1253 195.922 78.68C195.922 78.8187 195.916 78.9573 195.906 79.096C195.906 79.224 195.895 79.336 195.874 79.432H190.626C190.679 80.264 190.935 80.9253 191.394 81.416C191.863 81.896 192.471 82.136 193.218 82.136C193.591 82.136 193.932 82.0827 194.242 81.976C194.562 81.8587 194.866 81.7093 195.154 81.528L195.618 82.392C195.276 82.6053 194.898 82.792 194.482 82.952C194.066 83.112 193.591 83.192 193.058 83.192ZM190.61 78.488H194.77C194.77 77.6987 194.599 77.1013 194.258 76.696C193.927 76.28 193.458 76.072 192.85 76.072C192.572 76.072 192.306 76.1253 192.05 76.232C191.804 76.3387 191.58 76.4987 191.378 76.712C191.175 76.9147 191.004 77.1653 190.866 77.464C190.738 77.7627 190.652 78.104 190.61 78.488Z" fill="white"/>
</svg>
