<svg width="28" height="28" viewBox="0 0 28 28" fill="none" xmlns="http://www.w3.org/2000/svg">
<path d="M14 0C6.26875 0 0 6.26875 0 14C0 21.7313 6.26875 28 14 28C21.7313 28 28 21.7313 28 14C28 6.26875 21.7313 0 14 0ZM20 14.75C20 14.8875 19.8875 15 19.75 15H15V19.75C15 19.8875 14.8875 20 14.75 20H13.25C13.1125 20 13 19.8875 13 19.75V15H8.25C8.1125 15 8 14.8875 8 14.75V13.25C8 13.1125 8.1125 13 8.25 13H13V8.25C13 8.1125 13.1125 8 13.25 8H14.75C14.8875 8 15 8.1125 15 8.25V13H19.75C19.8875 13 20 13.1125 20 13.25V14.75Z" fill="#4AA658"/>
</svg>
