<svg width="50" height="50" viewBox="0 0 50 50" fill="none" xmlns="http://www.w3.org/2000/svg">
<g clip-path="url(#clip0)">
<path fill-rule="evenodd" clip-rule="evenodd" d="M13.9389 47.4236C14.3729 46.4481 15.5049 45.981 16.5051 46.3796C17.6544 46.8362 18.8275 47.1968 20.0165 47.459C20.6114 47.5907 21.2151 47.699 21.8265 47.7835C22.8931 47.9308 23.6472 48.896 23.5427 49.9585C20.1106 49.7611 16.8627 48.8699 13.9389 47.4236ZM27.5372 49.8731C27.3869 48.8162 28.0982 47.819 29.1576 47.6254C30.3566 47.4069 31.5423 47.0896 32.7065 46.6757C33.2812 46.4711 33.85 46.2424 34.4118 45.9898C35.3941 45.5481 36.5458 45.9653 37.0214 46.9206C34.1544 48.4981 30.9465 49.5287 27.5372 49.8731ZM3.71923 38.1211C4.60395 37.523 5.81169 37.7269 6.4498 38.5947C7.09573 39.4724 7.79129 40.2931 8.53132 41.0507L8.85566 41.3769C9.29625 41.811 9.75017 42.2243 10.2164 42.616C11.0413 43.3088 11.1655 44.528 10.5108 45.3717C7.79302 43.4343 5.47923 40.9671 3.71923 38.1209V38.1211ZM40.3573 44.7222C39.6656 43.9074 39.7407 42.6847 40.5324 41.9567C41.4236 41.1413 42.2609 40.2407 43.0366 39.2635L43.3198 38.9005C43.599 38.5343 43.8656 38.1598 44.1239 37.7769C44.7239 36.8818 45.9198 36.6264 46.8283 37.1855C45.1949 40.1097 42.9866 42.6722 40.3573 44.7222ZM0.000155517 24.8149C1.06714 24.78 1.9813 25.5957 2.05865 26.6705C2.14713 27.9007 2.3331 29.1174 2.61394 30.3033C2.75545 30.9029 2.92054 31.4931 3.10847 32.0737C3.43979 33.0982 2.89903 34.1971 1.89714 34.5653C0.673932 31.6191 -0.000976562 28.3883 -0.000976562 25.0008L0.000155517 24.8149ZM49.9656 23.73C49.9864 24.1504 49.999 24.5747 49.999 25.0008C49.999 28.0045 49.4698 30.8853 48.4949 33.5538C47.4783 33.2299 46.8907 32.1556 47.1741 31.1174C47.499 29.9445 47.7306 28.7358 47.8656 27.5082C47.9283 26.9029 47.9698 26.2904 47.9907 25.6721C48.0198 24.595 48.899 23.7399 49.9656 23.73ZM3.91677 11.5664C4.83942 12.1039 5.1798 13.2805 4.67432 14.2312C4.10521 15.2984 3.617 16.4274 3.21583 17.6039C3.01936 18.1809 2.84545 18.7692 2.69469 19.3666C2.43149 20.4106 1.38978 21.0545 0.345629 20.8346C0.910914 17.4701 2.14941 14.3324 3.91677 11.5662V11.5664ZM45.4783 10.6643C47.3656 13.3571 48.7405 16.4404 49.449 19.768C48.4156 20.0333 47.3449 19.4358 47.0366 18.4041C46.68 17.2146 46.2336 16.0686 45.7032 14.981C45.4338 14.4254 45.1447 13.8845 44.8366 13.3601C44.2907 12.4319 44.5781 11.2414 45.4781 10.6643H45.4783ZM14.2734 2.416C14.7715 3.36021 14.4376 4.53867 13.5055 5.07802C12.4569 5.68354 11.4456 6.38207 10.4798 7.16805C10.0077 7.55264 9.54777 7.95919 9.10095 8.3868C8.32264 9.1317 7.09717 9.12337 6.3298 8.38125C8.54019 5.89978 11.2385 3.86044 14.2734 2.416ZM34.7344 1.97063C37.8352 3.28382 40.6156 5.20603 42.9282 7.58634C42.1949 8.36087 40.9698 8.42199 40.1614 7.71135C39.2238 6.89066 38.2383 6.15573 37.2128 5.51251L36.8214 5.27223C36.425 5.03409 36.0234 4.80886 35.6173 4.59678C34.6626 4.0984 34.2782 2.93544 34.7343 1.97063H34.7344ZM18.0068 0.993795C20.2251 0.347734 22.5719 0.000976562 24.9989 0.000976562C27.0465 0.000976562 29.0369 0.247732 30.9424 0.713006C30.732 1.7593 29.7291 2.46253 28.6656 2.2917C27.4498 2.09754 26.225 2.00042 24.9989 2.00097L24.6399 2.00398C23.8035 2.01648 22.9776 2.07389 22.1651 2.17388C21.5523 2.24935 20.9472 2.34888 20.35 2.47133C19.2955 2.688 18.2632 2.03013 18.0068 0.993795ZM35.0005 22.8342C35.0005 20.0745 32.7603 17.8342 30.0005 17.8342H20.0004C17.2408 17.8342 15.0004 20.0745 15.0004 22.8342V32.8341C15.0004 35.5938 17.2408 37.8341 20.0004 37.8341H30.0005C32.7603 37.8341 35.0005 35.5938 35.0005 32.8341V22.8342Z" fill="white"/>
<path d="M25.0002 25.5008C28.6821 25.5008 31.6669 22.1429 31.6669 18.0008C31.6669 13.8587 28.6821 10.5009 25.0002 10.5009C21.3183 10.5009 18.3335 13.8587 18.3335 18.0008C18.3335 22.1429 21.3183 25.5008 25.0002 25.5008Z" fill="white"/>
<path d="M25.0007 26.1675C25.9211 26.1675 26.6673 25.4214 26.6673 24.5009C26.6673 23.5804 25.9211 22.8342 25.0007 22.8342C24.0802 22.8342 23.334 23.5804 23.334 24.5009C23.334 25.4214 24.0802 26.1675 25.0007 26.1675Z" fill="#3165D4"/>
<path fill-rule="evenodd" clip-rule="evenodd" d="M24.3345 25.5009H25.6679V32.1675H24.3345V25.5009Z" fill="#3165D4"/>
</g>
<defs>
<clipPath id="clip0">
<rect width="50" height="50" fill="white"/>
</clipPath>
</defs>
</svg>
