<svg viewBox="0 0 64 64" xmlns="http://www.w3.org/2000/svg" fill-rule="evenodd" clip-rule="evenodd" stroke-linejoin="round" stroke-miterlimit="2"><g transform="matrix(.2415 0 0 .2963 0 195.25)"><path fill="none" d="M0-659h265v216H0z"/><clipPath id="a"><path d="M0-659h265v216H0z"/></clipPath><g clip-path="url(#a)"><path d="M73.877-454.133c2.3-4.214 8.3-6.232 13.601-4.51a141.901 141.901 0 0018.61 4.663c3.153.569 6.353 1.037 9.593 1.402 5.653.636 9.65 4.806 9.096 9.396-18.19-.853-35.404-4.703-50.9-10.951zm72.071 10.582c-.797-4.566 2.973-8.874 8.588-9.71a143.158 143.158 0 0018.809-4.103 138.095 138.095 0 009.038-2.963c5.206-1.908 11.31-.106 13.831 4.021-15.195 6.815-32.197 11.267-50.266 12.755zM19.713-494.32c4.689-2.584 11.09-1.703 14.472 2.046a109.336 109.336 0 0012.75 12.019 117.844 117.844 0 007.213 5.353c4.372 2.993 5.03 8.26 1.56 11.905-14.404-8.37-26.667-19.028-35.995-31.324zm194.181 28.517c-3.666-3.52-3.268-8.802.928-11.947a111.893 111.893 0 0013.272-11.635 98.974 98.974 0 005.763-6.422c3.18-3.867 9.518-4.97 14.333-2.555-8.657 12.633-20.361 23.703-34.296 32.559zM.002-551.803c5.655-.151 10.5 3.373 10.91 8.016a82.125 82.125 0 002.943 15.694c.75 2.59 1.625 5.14 2.621 7.648 1.756 4.426-1.11 9.173-6.42 10.764C3.573-522.409-.004-536.366-.004-551l.006-.803zm264.816-4.687c.11 1.816.177 3.649.177 5.49 0 12.976-2.805 25.421-7.972 36.949-5.388-1.399-8.502-6.04-7-10.525a82.95 82.95 0 003.665-15.592c.332-2.615.552-5.261.663-7.932.154-4.653 4.814-8.347 10.467-8.39zM20.762-609.04c4.887 2.325 6.692 7.408 4.013 11.515a90.358 90.358 0 00-7.73 14.57 84.904 84.904 0 00-2.762 7.615c-1.395 4.51-6.916 7.292-12.45 6.342 2.996-14.535 9.56-28.09 18.93-40.041zm220.273-3.894c10.003 11.633 17.29 24.953 21.045 39.328-5.477 1.146-11.152-1.435-12.786-5.892a87.87 87.87 0 00-7.067-14.788 95.121 95.121 0 00-4.593-7.002c-2.893-4.01-1.37-9.153 3.4-11.646zM75.65-648.567c2.64 4.079.87 9.17-4.07 11.5a126.35 126.35 0 00-16.036 9.029 118.096 118.096 0 00-7.308 5.265c-4.125 3.218-10.62 3.182-14.687-.024 11.717-10.722 26.016-19.53 42.101-25.77zm108.443-1.924c16.434 5.673 31.17 13.977 43.427 24.26-3.887 3.346-10.38 3.61-14.664.54a124.433 124.433 0 00-15.628-9.499 131.31 131.31 0 00-8.456-3.956c-5.06-2.153-7.097-7.177-4.68-11.345zm-88.656-4.22c11.757-2.791 24.195-4.289 37.058-4.289 10.852 0 21.401 1.066 31.5 3.076-1.115 4.52-6.43 7.558-12.067 6.82a150.125 150.125 0 00-19.433-1.256l-1.903.013c-4.433.054-8.81.302-13.116.734-3.248.326-6.455.756-9.617 1.285-5.592.936-11.064-1.906-12.422-6.383zM97.178-580.736a22.973 22.973 0 01-.005-.504c0-17.885 15.833-32.4 35.334-32.4 19.5 0 35.333 14.515 35.333 32.4 0 .173-.002.346-.005.504 10.29 2.966 17.672 10.973 17.672 20.376v43.2c0 11.923-11.874 21.6-26.5 21.6h-53c-14.627 0-26.5-9.677-26.5-21.6v-43.2c0-9.403 7.38-17.41 17.671-20.376zm31.795 34.171c-3.118-1.109-5.3-3.643-5.3-6.595 0-3.974 3.958-7.2 8.834-7.2 4.876 0 8.833 3.226 8.833 7.2 0 2.952-2.182 5.486-5.3 6.595v26.525h-7.067v-26.525z" fill="#3165d4"/></g></g></svg>