<svg viewBox="0 0 150 150" xmlns="http://www.w3.org/2000/svg" fill-rule="evenodd" clip-rule="evenodd" stroke-linejoin="round" stroke-miterlimit="2"><g transform="matrix(.56604 0 0 .69444 0 457.642)"><path fill="none" d="M0-659h265v216H0z"/><clipPath id="a"><path d="M0-659h265v216H0z"/></clipPath><g clip-path="url(#a)"><path d="M265.003-510.68h-265v53.28c0 7.953 7.909 14.4 17.666 14.4h229.667c9.757 0 17.667-6.447 17.667-14.4v-53.28z" fill="#4aa658"/><path d="M265.003-644.6c0-7.953-7.91-14.4-17.667-14.4H17.669C7.912-659 .002-652.553.002-644.6v53.28h265v-53.28z" fill="#3165d4"/><path d="M211.997-551c0-6.303-3.07-12.346-8.538-16.802-5.466-4.455-12.88-6.959-20.612-6.959H-.003v47.52h182.85c7.731 0 15.146-2.503 20.612-6.96 5.467-4.455 8.538-10.498 8.538-16.8z" fill="#d4313e"/></g></g></svg>