<svg width="48" height="48" fill="currentColor" xmlns="http://www.w3.org/2000/svg"><path fill-rule="evenodd" clip-rule="evenodd" d="M24 0C10.748 0 0 10.744 0 24c0 13.254 10.748 24 24 24 13.254 0 24-10.746 24-24C48 10.744 37.254 0 24 0zm6.448 35.742c.376.266.86.332 1.292.17.43-.164.748-.534.844-.982 1.014-4.764 3.474-16.824 4.396-21.156a.913.913 0 00-.302-.886.94.94 0 00-.93-.164c-4.892 1.812-19.958 7.464-26.116 9.742A.968.968 0 009 23.4c.014.412.292.77.692.89a487.52 487.52 0 016.386 1.976s1.694 5.116 2.576 7.716c.112.328.368.584.704.672a1.01 1.01 0 00.948-.242l3.61-3.408s4.168 3.054 6.532 4.738zM17.602 25.618l1.96 6.462.436-4.092s7.566-6.826 11.882-10.716a.325.325 0 00.038-.44.33.33 0 00-.438-.074l-13.878 8.86z"/></svg>
