<svg width="275" height="210" fill="none" xmlns="http://www.w3.org/2000/svg"><g fill="currentColor"><path d="M185.75 23.092a.5.5 0 00-.516.427l-.874 5.433a.501.501 0 00.493.587.502.502 0 00.494-.428l.873-5.433a.5.5 0 00-.47-.587z"/><path d="M192.932.506a7.06 7.06 0 00-.333.013c-3.491.218-7.711 1.094-10.912 3.5-3.201 2.405-8.909 11.926-5.001 14.53 0 0 3.396-9.899 5.144-10.105 1.75-.206 4.014 15.982 23.973 12.889l1.233-4.228s20.063 37.841 36.215 35.882c0 0 8.231.206 8.694-2.939.463-3.145 2.058-8.61-5.813-12.682-7.87-4.073-19.033-13.92-19.033-13.92s-5.327-6.158-5.763-8.127c-.438-1.968-3.493-11.52-10.767-12.905-7.277-1.385-9.021.438-9.021.438S196.427.457 192.932.506zm12.058 4.56a.585.585 0 01.465.216c2.745 3.276 3.584 6.182 3.704 8.278.12 2.096-.5 3.433-.5 3.433a.59.59 0 01-.531.337.59.59 0 01-.531-.842s.493-1.012.388-2.86c-.105-1.85-.827-4.483-3.431-7.588a.592.592 0 01.027-.798.588.588 0 01.409-.176zM65.608 66.18s-1.4-13.419 6.016-17.449c0 0 16.005 5.101 20.294 3.003 0 0 8.349.667 7.35-7.108-.997-7.776-9.565-10.862-14.36-10.187-7.354 1.034-10.949 3.753-11.365 4.18l-6.81 3.718s-4.904 2.832-5.357 8.959c-.525 7.096 3.95 15.06 4.232 14.884zm68.966 49.59l4.235 3.825-3.619 1.042-2.795-2.523 2.179-2.344zm7.667 6.926l4.984 4.503-2.134 2.379-3.903-3.525 1.053-3.357zm14.531 58.634l-.887 4.095-5.175-1.119.888-4.095 5.174 1.119zM23.05 174.849l12.506-3.106s3.166.063 2.973 2.312c-.192 2.248-1.424 1.814-1.424 1.814l-12.998 3.238s-2.721-.287-2.508-1.736c.213-1.45 1.45-2.522 1.45-2.522zm229.291-49.491l1.267 2.156 2.206 1.485-.009 2.293 7.596 13.052 5.678.124-11.163-19.184-5.575.074zm-74.691 18.98l5.62-9.658 1.936 6.307-1.36 3.331-6.196.02zm7.772-13.356l3.391-5.828h5.735l-6.85 11.551-2.276-5.723zm35.852-78.862c-.839 8.157 1.042 23.455 4.022 33.85.589-.544 11.491 10.846 11.935 16.147.052.623.059 1.18.034 1.683a.585.585 0 01.226-.067s1.009-.086 2.542-.061c1.535.026 3.596.164 5.703.614 2.107.45 4.275 1.209 6.024 2.524a8.767 8.767 0 012.119 2.248c5.602-14.828-8.845-32.173-8.845-32.173-6.103-9.217-23.76-24.765-23.76-24.765zm15.896 52.655c-.363 2.358-1.492 3.075-1.492 3.075 11.18.291 14.779 7.009 15.034 6.754l2.545-4.29c-.523-1.038-1.28-1.872-2.201-2.562-1.55-1.163-3.564-1.886-5.565-2.314-4.003-.854-7.902-.531-7.902-.531a.58.58 0 01-.419-.132zm-61.068-46.224s-5.397 11.876-6.93 18.684c-1.225 5.45-4.288 20.785-7.136 28.656.236.02 2.955.271 5.953 1.117 1.568.442 3.199 1.043 4.579 1.88 1.275.772 2.356 1.761 2.893 3.042 2.281-4.438 5.537-13.298 6.339-17.671l.413-2.982c-1.943-8.923-3.909-15.78-6.111-32.726zm-14.482 48.44c-.566 1.425-1.121 2.519-1.645 3.133 0 0 11.797 1.007 13.304 5.909 0 0 .664-1.189 1.62-3.014a.58.58 0 01-.428-.395c-.36-1.066-1.272-1.978-2.512-2.729-1.24-.752-2.785-1.331-4.288-1.754-3.007-.848-5.822-1.086-5.822-1.086a.573.573 0 01-.229-.064zm11.644 73.534H274.37v4.964H173.264v-4.964zm0-17.314h39.291v-5.306h-39.291v5.306zm61.815 0h39.291v-5.306h-39.291v5.306zm-21.078-25.937h3.971v7.543h-3.971v-7.543zm24.902 2.71l3.668-.713.566 5.392-3.365-.188-.869-4.491zm-46.865-6.121h7.459v1.804h-7.459v-1.804zM51.33 131.748l21.804-11.549s11.791 2.113 11.576 8.256c0 0-.616 3.345-3.434 3.396-2.818.05-6.666.959-11.6 4.574a5354.922 5354.922 0 01-7.725 5.653s-7.922-2.317-10.621-10.33zm49.713-7.891s-4.564-.229-4.64 1.282c-.076 1.513 1.488 3.228 1.488 3.228l3.152-4.51zm4.453-.974c1.14-.708 11.516 3.419 8.798 9.194 0 0-10.665 3.572-14.921-1.181l6.123-8.013zm-45.7-42.881S69.003 97.284 73.839 94.5c4.835-2.784 5.83-12.046 5.83-12.046-3.999 10.58-11.886 4.277-19.871-2.452zM186.78 44.62s7.18 4.614 16.265-1.861l-1.152-5.011s-9.082 4.845-15.497 1.226l.384 5.646zM81.657 189.237h54.437l1.109 1.926H80.547l1.11-1.926zM146.51 45.802c.592 0 1.08.489 1.08 1.083 0 .593-.488 1.082-1.08 1.082a1.087 1.087 0 01-1.081-1.082c0-.594.488-1.083 1.081-1.083zm0 14.958c.592 0 1.08.489 1.08 1.083s-.488 1.082-1.08 1.082a1.087 1.087 0 01-1.081-1.082c0-.594.488-1.083 1.081-1.083zm0 14.959c.592 0 1.08.488 1.08 1.082 0 .594-.488 1.083-1.08 1.083a1.087 1.087 0 01-1.081-1.083c0-.593.488-1.082 1.081-1.082zm-13.942-29.917c.593 0 1.08.489 1.08 1.083 0 .593-.487 1.082-1.08 1.082-.592 0-1.08-.489-1.08-1.082 0-.594.488-1.083 1.08-1.083zm0 14.958c.593 0 1.08.489 1.08 1.083s-.487 1.082-1.08 1.082c-.592 0-1.08-.488-1.08-1.082 0-.594.488-1.083 1.08-1.083zm0 14.959c.593 0 1.08.488 1.08 1.082 0 .594-.487 1.083-1.08 1.083-.592 0-1.08-.489-1.08-1.083 0-.593.488-1.082 1.08-1.082zm-13.941-29.917c.592 0 1.08.489 1.08 1.083 0 .593-.488 1.082-1.08 1.082-.593 0-1.08-.489-1.08-1.082 0-.594.487-1.083 1.08-1.083zm0 14.958c.592 0 1.08.489 1.08 1.083s-.488 1.082-1.08 1.082c-.593 0-1.08-.488-1.08-1.082 0-.594.487-1.083 1.08-1.083zm0 14.959c.592 0 1.08.488 1.08 1.082 0 .594-.488 1.083-1.08 1.083-.593 0-1.08-.489-1.08-1.083 0-.593.487-1.082 1.08-1.082zM42.665 154.43h-.007a.502.502 0 000 1.001h31.029a.502.502 0 000-1.001H42.666zm101.141 0h-.006a.501.501 0 000 1.001h29.326a.503.503 0 00.499-.501c0-.275-.226-.5-.499-.5h-29.32z"/><path d="M273.537 144.318c.729 0 1.332.604 1.332 1.334v42.552c0 .731-.603 1.335-1.332 1.335h-99.441a1.342 1.342 0 01-1.332-1.335v-42.552c0-.73.603-1.334 1.332-1.334h99.441zm0 1.001h-99.441a.322.322 0 00-.333.333v42.552c0 .194.14.334.333.334h99.441c.193 0 .333-.14.333-.334v-42.552a.322.322 0 00-.333-.333z"/><path d="M173.264 157.405c-.002-.002-.005-.002-.007-.002a.502.502 0 000 1.003h38.798v9.172c0 .274.225.5.5.5h22.524a.501.501 0 00.499-.5v-9.172h38.798c.275 0 .5-.227.5-.501a.503.503 0 00-.5-.502l-.006.002h-39.291c-.273 0-.5.225-.5.5v9.173h-21.525v-9.173c0-.275-.226-.5-.499-.5h-39.291zm0 22.62h-.007a.5.5 0 000 1h101.119c.275 0 .5-.225.5-.5 0-.274-.225-.5-.5-.5H173.264zm13.983-60.105c-.811 0-1.478.671-1.478 1.481v2.771c0 .812.667 1.483 1.478 1.483h22.165a.503.503 0 00.499-.501c0-.275-.226-.5-.499-.5h-22.165a.47.47 0 01-.48-.482v-2.771c0-.275.205-.48.48-.48h24.484a.502.502 0 00.499-.5.502.502 0 00-.499-.501h-24.484zm73.138 0l-19.408.057h-.005a.502.502 0 000 1.001h.008l19.408-.057a.466.466 0 01.478.48v2.771a.47.47 0 01-.479.482h-28.932a.502.502 0 00-.499.5c0 .274.226.501.499.501h28.932a1.49 1.49 0 001.478-1.483v-2.771c0-.81-.668-1.484-1.48-1.481z"/><path d="M257.891 124.777a.5.5 0 00-.477.501c0 .09.023.18.071.258l11.165 19.184a.498.498 0 00.935-.244.52.52 0 00-.073-.262l-11.165-19.183a.496.496 0 00-.456-.254zm-5.576.074a.501.501 0 00-.405.76l1.267 2.157a.5.5 0 10.861-.507l-1.265-2.157a.508.508 0 00-.458-.253zm3.466 5.934a.504.504 0 00-.407.759l7.598 13.052a.496.496 0 00.434.256.504.504 0 00.428-.759l-7.597-13.052a.508.508 0 00-.192-.193.508.508 0 00-.264-.063zm-232.9 43.57a2.472 2.472 0 00-1.799 3.021l.108.415a2.538 2.538 0 003.05 1.823l12.84-3.167a2.472 2.472 0 001.799-3.021l-.108-.415a2.538 2.538 0 00-3.05-1.825l-12.84 3.169zm.25.969l12.84-3.169c.814-.2 1.62.282 1.83 1.094l.108.417a1.466 1.466 0 01-1.08 1.812l-12.84 3.167a1.504 1.504 0 01-1.83-1.094l-.107-.415a1.465 1.465 0 011.08-1.812z"/><path d="M50.99 168.148a.505.505 0 00-.134.017l-13.37 3.57a.499.499 0 10.256.965l12.888-3.439.242.916-12.474 3.394a.502.502 0 00.131.984.524.524 0 00.131-.018l12.954-3.525a.502.502 0 00.351-.61l-.498-1.882a.504.504 0 00-.477-.372zm137.833-43.501a.502.502 0 00-.441.255l-3.392 5.828a.502.502 0 00.427.759.498.498 0 00.437-.255l3.392-5.828a.501.501 0 00-.423-.759zm5.74 0a.506.506 0 00-.444.25l-6.851 11.551a.505.505 0 00.174.694.492.492 0 00.685-.182l6.85-11.551a.503.503 0 00-.414-.762zm-11.283 9.526a.5.5 0 00-.441.255l-5.62 9.658a.502.502 0 00.431.752.501.501 0 00.431-.248l5.62-9.658a.5.5 0 00-.421-.759zm1.936 6.308a.495.495 0 00-.441.254l-1.88 3.228a.503.503 0 00.425.765c.183 0 .351-.1.439-.26l1.878-3.229a.496.496 0 00.072-.257.504.504 0 00-.493-.501zm-24.266 37.932c-1.137-.245-2.282.25-3.182 1.141-.901.892-1.597 2.195-1.928 3.718-.33 1.525-.235 2.997.215 4.182.449 1.182 1.288 2.106 2.425 2.353 1.139.245 2.282-.25 3.183-1.141.899-.892 1.596-2.193 1.928-3.718.329-1.524.234-2.997-.215-4.181-.45-1.183-1.287-2.107-2.426-2.354zm-.211.979c.732.159 1.335.766 1.703 1.732.366.967.464 2.261.171 3.613-.293 1.352-.919 2.49-1.653 3.219-.734.727-1.534 1.032-2.269.874-.732-.159-1.335-.768-1.702-1.733-.367-.968-.465-2.262-.172-3.613.293-1.353.919-2.49 1.653-3.219.734-.728 1.537-1.031 2.269-.873z"/><path d="M151.703 179.723a.515.515 0 00-.426.101c-.066.054-.09.092-.11.12a.666.666 0 00-.07.13c-.031.072-.053.144-.08.229-.051.17-.108.39-.161.636l-.519 2.396a8.071 8.071 0 00-.117.646c-.012.088-.02.163-.022.242-.001.04-.003.077.009.147.006.035.013.08.051.156a.513.513 0 00.347.269l5.173 1.119a.507.507 0 00.426-.102.41.41 0 00.11-.12.639.639 0 00.07-.13 1.84 1.84 0 00.08-.228c.052-.17.108-.391.162-.636l.519-2.397c.053-.245.093-.468.117-.645.011-.089.02-.162.021-.242a.576.576 0 00-.008-.147c-.007-.035-.012-.08-.052-.157a.513.513 0 00-.346-.268l-5.174-1.119zm.22 1.07l4.313.933c-.02.115-.035.218-.066.362l-.52 2.397c-.031.145-.06.245-.09.358l-4.313-.932c.02-.115.035-.219.067-.362l.519-2.397c.03-.145.06-.245.09-.359zm4.065 4.144h.002-.002zm-67.02-53.361a.5.5 0 00-.417.225L71.16 158.257a.501.501 0 00.41.787c.172 0 .333-.09.424-.236l17.243-26.231H99.71a.502.502 0 000-1.001H88.968zm25.271 0h-.008a.501.501 0 000 1.001h12.102a.503.503 0 00.499-.501c0-.275-.225-.5-.499-.5h-12.094zm15.629 1.65h-.001a.502.502 0 00-.414.78l16.301 24.797a.5.5 0 10.834-.551l-16.3-24.796a.49.49 0 00-.42-.23zM71.513 162.18h-.001a.504.504 0 00-.413.781l15.517 23.607a.5.5 0 00.423.234.502.502 0 00.411-.784L71.933 162.41a.498.498 0 00-.42-.23zm74.675.052a.498.498 0 00-.404.23l-15.401 23.429a.501.501 0 00.411.784.496.496 0 00.423-.234l15.401-23.428a.5.5 0 00-.413-.781h-.017zm-57.22 26.504h-.007a.502.502 0 00-.5.501c0 .273.226.5.5.5h39.828a.507.507 0 00.353-.147.508.508 0 00.147-.353.503.503 0 00-.499-.501H88.968z"/><path d="M81.657 188.736a.498.498 0 00-.433.251L69.61 209.148a.5.5 0 10.865.5l11.47-19.911h53.859l11.471 19.911a.5.5 0 00.866-.5l-11.616-20.161a.496.496 0 00-.431-.251H81.657z"/><path d="M63.908 208.897h-.006a.502.502 0 00-.5.501c0 .275.226.5.5.5h6.147a.502.502 0 000-1.001h-6.14zm83.8 0h-.007a.501.501 0 000 1.001h6.148a.5.5 0 000-1.001h-6.141zm-43.307-.373h-.007a.501.501 0 000 1.001h8.962a.503.503 0 00.5-.501c0-.275-.226-.5-.5-.5h-8.955z"/><path d="M108.868 188.728a.506.506 0 00-.492.509v19.794c0 .274.225.5.499.5s.5-.226.5-.5v-19.802a.504.504 0 00-.5-.501h-.007zm-19.916-57.159a.5.5 0 00-.394.793l18.699 26.844a.497.497 0 00.767.075.5.5 0 00.052-.647L89.378 131.79a.503.503 0 00-.426-.221zm21.117 30.318a.505.505 0 00-.488.5.5.5 0 00.094.292l16.649 23.902a.5.5 0 10.819-.573l-16.649-23.901a.495.495 0 00-.425-.22zm17.372-28.389a.496.496 0 00-.411.22l-17.296 24.83a.504.504 0 00.405.795.498.498 0 00.414-.222l17.296-24.831a.5.5 0 00-.405-.792h-.003zM107.588 162a.496.496 0 00-.411.219l-16.62 23.86a.502.502 0 00.41.788c.164 0 .317-.08.41-.215l16.619-23.859a.501.501 0 00-.405-.793h-.003z"/><path d="M79.725 145.617a.501.501 0 00-.404.787l29.141 43.113a.494.494 0 00.413.22.504.504 0 00.414-.782l-29.141-43.113a.496.496 0 00-.423-.225z"/><path d="M138.01 145.617a.506.506 0 00-.408.225l-29.14 43.113a.5.5 0 00.827.562l29.141-43.113a.5.5 0 00-.41-.787h-.01z"/><path d="M74.264 160.156h-.007c-.273 0-.5.225-.5.5s.227.5.5.5H106.8a.501.501 0 00.499-.5c0-.275-.225-.5-.499-.5H74.265zm36.675 0h-.007a.501.501 0 00-.499.5c0 .275.225.5.499.5h32.478a.5.5 0 000-1h-32.471zm-51.563-47.693c-.98 0-1.948.674-2.424 1.678l-.85 1.789c-.634 1.338-.262 2.988 1.026 3.543l9.555 4.122a.51.51 0 00.24.038.513.513 0 00.396-.261.502.502 0 00-.242-.698l-9.555-4.12c-.67-.29-.955-1.272-.517-2.195l.849-1.79c.438-.922 1.377-1.319 2.025-.98l13.017 7.05a.503.503 0 00.737-.44.5.5 0 00-.262-.441l-13.023-7.053-.007-.004a2.094 2.094 0 00-.965-.238zm25.307 15.489a.502.502 0 00-.187.955l7.485 3.565a.495.495 0 00.566-.099.5.5 0 00-.138-.805l-7.484-3.565a.505.505 0 00-.242-.051zm91.665-109.081a.502.502 0 00-.517.48c-.448 8.375 5.986 15.54 14.354 15.989 8.37.448 15.529-5.987 15.977-14.362l.002-.04c0-.274-.226-.5-.499-.5a.501.501 0 00-.5.486c-.419 7.835-7.095 13.836-14.925 13.416-7.832-.42-13.83-7.101-13.412-14.936.002-.01.001-.022.001-.033a.499.499 0 00-.481-.5zM81.471 73a.5.5 0 00-.483.407l-1.809 8.947a.503.503 0 00.21.515c13.885 9.36 20.731 18.924 26.961 32.628a.505.505 0 00.459.303.503.503 0 00.45-.717c-6.231-13.705-13.204-23.459-27.036-32.852l1.744-8.625a.502.502 0 00-.488-.607h-.008zm27.088 45.809a.505.505 0 00-.448.704 258.64 258.64 0 012.178 5.304.495.495 0 00.468.324.503.503 0 00.46-.695c-.734-1.84-1.46-3.612-2.187-5.325a.505.505 0 00-.471-.312z"/><path d="M91.906 51.227a.501.501 0 00-.425.747c.296.542.979 2.174 1.219 2.816a.502.502 0 00.47.336.503.503 0 00.465-.686c-.26-.695-.897-2.25-1.279-2.947a.501.501 0 00-.45-.266zm.099 12.825a.5.5 0 00-.46.304c-2.502 5.647-7.93 8.93-12.662 8.93-5.79 0-10.772-3.43-13.046-8.372a.501.501 0 00-.456-.296.502.502 0 00-.45.715c2.432 5.286 7.769 8.953 13.952 8.953 5.188 0 10.916-3.52 13.574-9.525a.502.502 0 00-.452-.71z"/><path d="M84.957 34.499c-4.242-.036-8.54 1.14-11.637 3.667-7.907 2.423-11.58 7.35-12.393 12.733-.816 5.402 1.162 11.21 4.275 15.572.04.057.093.105.153.14.09.053.281.096.436.037a.485.485 0 00.257-.22c.07-.12.063-.16.069-.198.01-.075.01-.116.01-.17a9.814 9.814 0 00-.013-.413c-.016-.345-.04-.842-.052-1.456a30.809 30.809 0 01.258-4.77c.5-3.627 1.888-7.77 5.407-10.142.661.193 7.32 2.102 14.087 2.631 3.56.279 7.1.175 9.772-.851 1.335-.514 2.462-1.27 3.215-2.346.753-1.078 1.109-2.461.966-4.13-.225-2.616-1.525-4.775-3.436-6.387-1.912-1.613-4.43-2.7-7.16-3.258a22.032 22.032 0 00-4.214-.44zm-.003 1.007c1.362.009 2.718.147 4.017.413 2.6.531 4.968 1.567 6.716 3.042 1.75 1.476 2.883 3.37 3.084 5.707.128 1.486-.177 2.597-.788 3.47-.61.873-1.55 1.523-2.755 1.986-2.41.927-5.85 1.061-9.336.788-6.974-.545-14.127-2.66-14.127-2.66a.498.498 0 00-.411.058c-4.009 2.582-5.494 7.14-6.024 10.974a31.745 31.745 0 00-.267 4.927c.002.099.006.14.008.233-2.419-3.978-3.835-8.899-3.157-13.396.764-5.056 4.086-9.62 11.774-11.95a.5.5 0 00.174-.094c2.864-2.38 7.007-3.523 11.092-3.498zm-25.14 43.99a.502.502 0 00-.386.843s3.633 4.006 8.03 6.35c2.198 1.172 4.611 1.95 6.902 1.52 2.29-.43 4.369-2.117 5.771-5.567a.501.501 0 00-.741-.608.5.5 0 00-.184.23c-1.318 3.243-3.084 4.596-5.03 4.961-1.945.366-4.16-.306-6.25-1.42-4.179-2.228-7.76-6.14-7.76-6.14a.499.499 0 00-.352-.169zM200.5 31.273a.501.501 0 00-.463.62l2.521 10.978a.503.503 0 00.369.373c13.322 3.27 29.511 17.125 40.088 32.222 5.291 7.549 9.184 15.405 10.669 22.352 1.48 6.927.586 12.883-3.591 16.904-11.557 7.006-25.793 14.087-36.294 14.215l-4.045-4.343c.619-.274 1.505-.736 2.256-1.673.224-.281.273-.621.266-.881-.007-.262-.048-.48-.058-.657-.01-.175.005-.294.06-.402.056-.109.164-.239.459-.392.639-.332 1.728-.536 2.933-.734 1.205-.197 2.532-.402 3.724-.847 4.428-1.655 9.165-3.802 12.16-5.949 2.036-1.457 3.669-3.03 4.791-4.538 1.124-1.508 1.763-2.95 1.696-4.227-.406-7.725-7.532-13.478-12.055-18.843a.497.497 0 00-.864.199.485.485 0 00-.008.218l5.102 26.855c-2.878 1.893-7.13 3.838-11.17 5.347-1.057.394-2.327.599-3.537.797-1.209.199-2.353.377-3.231.833-.427.222-.725.503-.889.824-.164.322-.184.65-.169.914.015.263.054.48.057.625.003.145-.01.184-.047.232-.847 1.058-2.48 1.655-2.48 1.655a.5.5 0 00-.203.814l4.679 5.024c.095.102.228.16.367.158 10.976-.038 25.374-7.304 37.07-14.398a.456.456 0 00.085-.067c4.514-4.315 5.44-10.727 3.911-17.872-1.526-7.146-5.481-15.091-10.825-22.718-10.61-15.142-26.662-29.025-40.367-32.531l-2.458-10.692a.496.496 0 00-.509-.395zm25.937 56.202c4.518 5.059 10.263 10.339 10.606 16.871.046.882-.453 2.175-1.497 3.576-1.017 1.366-2.534 2.836-4.425 4.21l-4.684-24.657z"/><path d="M201.874 37.245a.504.504 0 00-.178.043c-6.589 2.83-11.644 3.272-15.047 1.256a.502.502 0 10-.509.861c3.827 2.266 9.227 1.69 15.949-1.198a.496.496 0 00.268-.659.507.507 0 00-.483-.303zm5.344-35.994c-2.839-.023-5.256.674-6.391 1.244a.502.502 0 00.212.954.5.5 0 00.236-.06c1.195-.601 4.946-1.602 8.698-.863 3.753.74 7.566 3.094 9.355 9.296 3.025 10.486 12.651 16.554 20.683 21.727 4.015 2.587 7.641 4.961 9.865 7.476 2.222 2.512 3.085 5.05 1.743 8.349-.413.92-1.085 1.55-2.317 2.06-1.235.51-3.023.858-5.505 1.108-5.818.586-13.359-4.485-20.164-11.752-6.807-7.268-12.893-16.661-16.029-24.388a.5.5 0 10-.926.377c3.2 7.882 9.331 17.331 16.226 24.695 6.895 7.364 14.539 12.714 20.993 12.064 2.525-.255 4.388-.601 5.786-1.179 1.397-.577 2.335-1.427 2.851-2.583l.007-.015c1.477-3.623.455-6.719-1.918-9.4-2.372-2.682-6.054-5.066-10.072-7.654-8.036-5.176-17.368-11.124-20.264-21.163-1.878-6.508-6.089-9.205-10.121-10a15.919 15.919 0 00-2.948-.293zm29.054 106.111h-.016c-.273 0-.5.225-.5.5 0 .269.217.492.485.501 3.111.098 8.961.358 14.263 6.625a.498.498 0 00.888-.314.498.498 0 00-.126-.333c-5.53-6.537-11.861-6.879-14.994-6.979zm-54.608-16.434h-.017a.502.502 0 00-.499.5l.001.034 1.707 31.661-.643 9.722c-.002.015-.002.03-.002.044 0 .275.225.5.5.5a.504.504 0 00.499-.477l.644-9.753a.3.3 0 000-.06l-1.708-31.69a.499.499 0 00-.484-.48h.002z"/><path d="M186.027 33.86h-.005a.497.497 0 00-.473.341.506.506 0 00-.025.204l.741 10.025c-10.288 10.061-14.596 20.943-17.331 31.699-2.75 10.816-3.94 21.507-8.037 31.228l-.002.003c-3.066 6.934-10.202 11.688-20.863 11.908h.032s-1.701-.075-3.669.442c-1.964.515-4.268 1.643-5.386 4.076-.781 1.448-.554 3.076.34 4.482.896 1.411 2.435 2.657 4.364 3.571 3.837 1.82 9.257 2.314 14.292-.273 12.319-2.617 18.446-7.114 22.428-13.131 3.989-6.026 5.853-13.486 9.916-22.127a.503.503 0 00-.449-.716.5.5 0 00-.453.29c-4.106 8.733-5.991 16.172-9.846 22-3.856 5.828-9.658 10.136-21.857 12.718a.582.582 0 00-.127.045c-4.747 2.469-9.889 1.992-13.477.29-1.795-.85-3.19-2.01-3.949-3.204-.758-1.194-.907-2.363-.299-3.479l.016-.032c.947-2.077 2.929-3.067 4.74-3.543 1.81-.475 3.373-.41 3.373-.41h.031c10.955-.225 18.53-5.198 21.761-12.51l.003-.008c4.172-9.9 5.358-20.643 8.085-31.373 2.729-10.73 6.972-21.443 17.226-31.397a.498.498 0 00.15-.397l-.758-10.251a.504.504 0 00-.492-.47z"/><path d="M159.958 109.624a.504.504 0 00-.489.5c0 .265.21.487.474.5 1.37.087 3.962.427 6.524 1.295 2.562.867 5.074 2.265 6.387 4.38a.504.504 0 00.425.235.503.503 0 00.423-.765c-1.507-2.426-4.237-3.89-6.915-4.798-2.68-.907-5.329-1.252-6.78-1.346l-.049-.001zM191.528.002c-2.916.041-5.794.766-8.175 2.127l-.005.003c-2.763 1.624-5.247 4.371-6.752 7.516-1.503 3.144-2.024 6.713-.729 9.917a.497.497 0 00.936-.026s.774-2.271 1.843-4.731c.534-1.23 1.142-2.505 1.754-3.554.44-.755.896-1.381 1.287-1.788.642 1.22 2.542 4.512 5.81 7.525 4.065 3.747 10.244 6.908 18.312 4.439a.502.502 0 00.29-.235s4.133-7.527-1.786-15.469c-2.952-3.96-7.922-5.793-12.783-5.724h-.002zm-.013 1.032c4.581-.056 9.284 1.648 11.999 5.291 5.398 7.245 2.052 13.72 1.791 14.204-7.599 2.239-13.266-.71-17.133-4.275-3.903-3.598-5.882-7.794-5.882-7.794a.515.515 0 00-.316-.268.497.497 0 00-.409.061c-.744.484-1.383 1.392-2.027 2.496-.646 1.104-1.265 2.407-1.808 3.66a67.742 67.742 0 00-1.358 3.38c-.56-2.512-.064-5.22 1.127-7.71 1.413-2.957 3.788-5.574 6.349-7.08v-.001c2.21-1.263 4.917-1.93 7.665-1.964h.002zM65.437 64.682a.5.5 0 00-.493.33l-5.535 14.602c-11.141 4.416-21.87 6.884-31.638 17.754-8.174 9.097-13.463 23.566-14.604 36.35-.57 6.392-.104 12.365 1.61 17.053 1.714 4.687 4.726 8.118 9.166 9.209.011.004.023.005.034.009 6.109 1.066 12.675-1.141 20.165-5.38 7.49-4.24 15.933-10.533 25.829-17.78l.008-.005s6.029-4.516 11.293-4.472c1.458.01 2.607-.649 3.196-1.692.588-1.042.636-2.407.155-3.808-.96-2.8-4.032-5.811-9.616-7.144-.64-.153-1.301-.133-1.97 0-2 .396-4.122 1.762-6.47 3.058l-37 20.424a.506.506 0 00-.263.441.505.505 0 00.248.431.493.493 0 00.497.006l37-20.427c2.38-1.312 4.494-2.617 6.182-2.952.565-.112 1.075-.12 1.544-.008 5.335 1.274 8.086 4.111 8.904 6.497.409 1.192.333 2.256-.08 2.989-.414.732-1.147 1.192-2.32 1.184-5.822-.047-11.905 4.675-11.905 4.675-9.896 7.248-18.324 13.524-25.723 17.711-7.393 4.185-13.73 6.265-19.485 5.268-4.066-1.006-6.814-4.1-8.45-8.579-1.64-4.483-2.115-10.33-1.554-16.618 1.122-12.577 6.388-26.908 14.352-35.77 9.634-10.72 20.165-13.069 31.467-17.571a.5.5 0 00.283-.287l5.613-14.814a.5.5 0 00-.44-.684z"/><path d="M26.076 137.816c-6.672.148-12.74 2.424-12.74 2.424a.494.494 0 00-.337.473.503.503 0 00.683.466s10.67-3.883 18.805-1.677a.497.497 0 00.434-.086.504.504 0 00.093-.701.499.499 0 00-.266-.18c-2.156-.584-4.448-.769-6.672-.719zm113.97-18.551h-.01c-.275 0-.5.227-.5.5 0 .22.145.415.355.48 0 0 .792.261 1.322.993.531.734.874 1.923-.278 4.135-.628 1.202-.873 2.046-.816 2.73a1.515 1.515 0 001.039 1.32c.496.148.989.091 1.375.021.384-.07.677-.175.677-.175a.505.505 0 00.332-.472c0-.273-.225-.5-.5-.5a.473.473 0 00-.166.03s-.218.077-.525.133c-.304.055-.681.072-.904.004-.223-.067-.304-.094-.333-.442-.029-.349.122-1.066.706-2.185 1.267-2.432.942-4.162.202-5.186-.743-1.024-1.828-1.36-1.828-1.36a.5.5 0 00-.148-.026zm-56.291 20.242h-.007c-.275 0-.5.226-.5.501 0 .273.225.5.5.5h50.255a.504.504 0 00.499-.5.502.502 0 00-.499-.501H83.755zm25.12 18.602a2.552 2.552 0 00-2.541 2.547 2.552 2.552 0 002.541 2.547 2.551 2.551 0 002.541-2.547 2.551 2.551 0 00-2.541-2.547zm0 1.001a1.524 1.524 0 011.093.451 1.532 1.532 0 01.45 1.095c0 .859-.685 1.546-1.543 1.546a1.53 1.53 0 01-1.427-.953 1.546 1.546 0 01-.115-.593c0-.859.684-1.546 1.542-1.546zm-57.529-27.869h-.018a.502.502 0 00-.482.63s2.283 8.987 11.009 10.697a.493.493 0 00.416-.103.503.503 0 00.184-.387.501.501 0 00-.408-.492c-8.11-1.59-10.233-9.962-10.233-9.962a.5.5 0 00-.468-.383zm59.054-21.249a.51.51 0 00-.426.214L94.89 131.79a.503.503 0 00.403.795.498.498 0 00.416-.222l14.791-21.165 2.111 1.55-14.396 18.84a.502.502 0 00.393.809.502.502 0 00.4-.2l14.706-19.246a.497.497 0 00-.101-.707l-2.934-2.155a.496.496 0 00-.28-.097h.001z"/><path d="M105.506 122.381h-.017a.503.503 0 00-.5.5c0 .255.195.472.448.499 0 0 2.545.315 4.851 1.564 1.153.626 2.23 1.478 2.914 2.609.647 1.071.946 2.409.639 4.142l-.461.186a20.13 20.13 0 01-2.139.721c-1.813.499-4.309.897-6.96.415-2.375-.433-3.49-1.066-3.987-1.518-.248-.225-.347-.405-.39-.51-.043-.105-.032-.082-.032-.082v-.018a.5.5 0 00-.999-.007s.006.24.107.487c.1.247.295.556.643.871.697.634 1.991 1.308 4.479 1.761 2.854.521 5.497.09 7.404-.433.76-.21 1.509-.462 2.242-.756.259-.103.458-.187.572-.232l.015-.006a.516.516 0 00.195-.057.529.529 0 00.156-.13.524.524 0 00.093-.209l.003.002c.002-.005.001-.01.002-.015.002-.01.005-.005.007-.015.001-.005-.003-.012-.003-.017.427-2.066.07-3.773-.732-5.099-.808-1.336-2.036-2.288-3.292-2.969-2.514-1.364-5.208-1.679-5.208-1.679l-.05-.005zm-6.523.672c-.585.001-1.217.085-1.786.377a2.49 2.49 0 00-1.275 1.576c-.39 1.403.044 2.444.598 3.037a3.161 3.161 0 001.218.801.503.503 0 00.658-.474.5.5 0 00-.352-.478s-.43-.144-.795-.534c-.365-.391-.675-.963-.365-2.084.14-.505.4-.767.766-.954.365-.185.85-.265 1.338-.266a7.251 7.251 0 011.905.281.503.503 0 00.651-.477.502.502 0 00-.351-.478s-1.04-.334-2.21-.327zm-47.99-8.867a13.72 13.72 0 00-3.558.295c-5.038 1.101-10.89 5.509-14.48 18.069-3.223 11.268-11.29 16.704-18.608 19.369C7.028 154.586.52 154.431.52 154.431H.5a.502.502 0 00-.004 1.001s6.683.163 14.192-2.572c7.51-2.736 15.906-8.422 19.226-20.035 3.53-12.344 9.074-16.349 13.733-17.367 2.33-.508 4.464-.26 6.035.134.786.197 1.43.43 1.882.622a7.125 7.125 0 01.664.315c.03.017.063.05-.002-.006a.5.5 0 10.655-.756c-.086-.075-.102-.075-.152-.103a5.263 5.263 0 00-.184-.101 9.277 9.277 0 00-.594-.273 14.213 14.213 0 00-2.026-.669 15 15 0 00-2.931-.435zm18.295-64.095h-.02a.502.502 0 00-.243.937l3.452 2.002c.726.646 2.03 1.256 3.749 1.855a36.013 36.013 0 006.208 1.526c2.253.345 4.576.475 6.645.21 1.718-.22 3.254-.735 4.424-1.645.35 1.763.477 3.472.269 4.974-.239 1.713-.885 3.147-2.062 4.192-5.549 2.808-10.18 2.446-13.672 1.198-3.432-1.227-5.724-3.307-6.59-4.145l-1.428-3.688a.501.501 0 00-.203-.245l-2.7-1.67a.498.498 0 00-.77.42.5.5 0 00.246.432l2.556 1.581 1.41 3.642a.5.5 0 00.118.177c.854.832 3.31 3.11 7.025 4.438 3.716 1.328 8.714 1.686 14.525-1.277a.496.496 0 00.101-.069c1.415-1.231 2.168-2.942 2.433-4.848.264-1.906.056-4.018-.449-6.153a.502.502 0 00-.486-.385.5.5 0 00-.367.16c-.972 1.056-2.572 1.671-4.506 1.919-1.934.247-4.18.128-6.368-.208a35.044 35.044 0 01-6.032-1.482c-1.713-.596-3.033-1.283-3.474-1.701a.5.5 0 00-.093-.069l-3.461-2.008a.501.501 0 00-.237-.07z"/><path d="M83.523 62.414a.501.501 0 00-.493.455l-.692 6.543a.504.504 0 00.496.56.5.5 0 00.497-.454l.692-6.544a.504.504 0 00-.495-.56h-.005zm95.296-44.835c-3.201-.172-5.946 2.3-6.118 5.508-.171 3.209 2.296 5.96 5.497 6.133 3.201.171 5.946-2.301 6.117-5.51.172-3.208-2.293-5.96-5.496-6.131zm-.054 1a4.815 4.815 0 014.553 5.078 4.813 4.813 0 01-5.067 4.563 4.816 4.816 0 01-4.553-5.079 4.814 4.814 0 015.067-4.563zm14.723-.213c-3.201-.172-5.946 2.3-6.118 5.508-.171 3.209 2.296 5.96 5.497 6.132 3.201.172 5.948-2.3 6.119-5.509.17-3.208-2.296-5.96-5.498-6.131zm-.054.999a4.815 4.815 0 014.553 5.079 4.818 4.818 0 11-9.62-.516 4.814 4.814 0 015.067-4.563z"/><path d="M183.283 22.968a.504.504 0 00-.486.5.505.505 0 00.483.5l4.841.26a.505.505 0 00.485-.302.496.496 0 00-.097-.541.503.503 0 00-.335-.157l-4.841-.259a.485.485 0 00-.05-.001zm66.718 103.876a1.485 1.485 0 00-1.636 1.304l-1.878 16.487c-.002.018-.004.036-.004.056 0 .274.227.501.502.501a.504.504 0 00.496-.444l1.876-16.486a.468.468 0 01.531-.424l5.007.572c.273.03.454.259.423.532l-1.785 15.684a.502.502 0 00.495.566.502.502 0 00.497-.452l1.785-15.684a1.489 1.489 0 00-1.302-1.64l-5.007-.572z"/><path d="M248.499 131.873h-.013a.5.5 0 00-.05.998l1.976.226a.503.503 0 00.566-.495.503.503 0 00-.453-.499l-1.976-.227c-.016-.001-.033-.003-.05-.003zm-1.103 9.698h-.014a.503.503 0 00-.499.5c0 .255.195.472.448.499l1.977.225a.503.503 0 00.565-.495.503.503 0 00-.451-.499l-1.978-.225c-.015-.004-.033-.004-.048-.005zm-53.486-6.307a.503.503 0 00-.499.5v8.867c0 .274.225.501.499.501.275 0 .5-.227.5-.501v-8.366h2.715v8.56c0 .275.226.5.499.5.275 0 .5-.225.5-.5v-9.061c0-.273-.225-.5-.5-.5h-3.714z"/><path d="M192.038 133.362c-.273 0-.5.227-.5.501v1.805c0 .275.227.5.5.5h7.459a.5.5 0 00.499-.5v-1.805a.502.502 0 00-.499-.501h-7.459zm.499 1.001h6.461v.804h-6.461v-.804zm11.321 4.132a.502.502 0 00-.464.368s-.418 1.457-.809 2.866c-.196.706-.385 1.398-.513 1.897-.063.25-.111.447-.141.59-.014.072-.029.102-.03.219 0 .03-.005.061.018.15.012.045.03.108.103.195a.556.556 0 00.39.178c.294-.003.341-.135.379-.178a.471.471 0 00.062-.089.496.496 0 00.067-.315c.023-.108.063-.277.119-.502.125-.485.313-1.176.508-1.876.39-1.405.807-2.858.807-2.858a.5.5 0 00-.477-.645h-.019zm-1.721 5.531z"/><path d="M201.901 137.669a.504.504 0 00-.496.501.5.5 0 00.369.482l3.564 1.021a.502.502 0 10.275-.963l-3.564-1.021a.528.528 0 00-.148-.02zm12.1-.895a.503.503 0 00-.499.5v7.544c0 .274.226.501.499.501h3.972a.503.503 0 00.499-.501v-7.544c0-.274-.226-.5-.499-.5h-3.972zm.5 1h2.973v6.544h-2.973v-6.544z"/><path d="M220.192 132.545c0-.273-.225-.5-.499-.5h-7.724c-.275 0-.5.227-.5.5v4.729c0 .275.225.5.5.5h7.724a.501.501 0 00.499-.5v-4.729zm-.999.501v3.728h-6.725v-3.728h6.725z"/><path d="M208.416 131.551a.503.503 0 00-.499.501v5.716c0 .275.226.5.499.5h3.553a.502.502 0 00.499-.5v-5.716a.503.503 0 00-.499-.501h-3.553zm.5 1.001h2.553v4.715h-2.553v-4.715zm10.772-.509h-.002c-.273 0-.5.227-.5.501 0 .223.15.42.365.482 0 0 .972.277 2.023 1.491.982 1.137 1.986 3.106 2.11 6.458l-.06-.018a4.53 4.53 0 00-.254-1.827c-.405-1.149-1.513-2.356-3.677-2.356h-.007c-.275 0-.5.226-.5.5 0 .275.225.5.5.5h.007c1.827 0 2.428.816 2.735 1.688.306.874.188 1.787.188 1.787a.504.504 0 00.344.549l1.101.343a.5.5 0 00.647-.479c0-3.983-1.17-6.4-2.38-7.799-1.209-1.401-2.494-1.796-2.494-1.796a.485.485 0 00-.146-.024zm9.909-1.119a.498.498 0 00-.489.402l-.896 4.489a.511.511 0 00.009.23l.569 2.1v6.41c0 .275.225.5.499.5.273 0 .5-.225.5-.5v-6.477a.481.481 0 00-.019-.13l-.556-2.052.793-3.971h1.445l.79 3.971-.554 2.052a.48.48 0 00-.018.13v6.684c0 .273.224.5.499.5a.502.502 0 00.499-.5v-6.617l.57-2.1a.51.51 0 00.006-.23l-.893-4.489a.503.503 0 00-.49-.402h-2.264zm11.884.402c-.042-.003-.098-.028-.26.047a.976.976 0 00-.131.093c-.002 0-.115.169-.115.169l-.038.186.008.064-.002-.002.362 3.109-1.592.596-1.696.043-.826-3.019-.001.003a1.437 1.437 0 01-.015-.061l-.107-.161-.17-.113s-.111-.032-.156-.035c-.178-.012-.222.035-.258.053a.499.499 0 00-.225.231l-.086.123c-.097.138-.24.349-.395.61-.313.523-.682 1.258-.864 2.107-.181.849-.165 1.833.33 2.762.494.931 1.448 1.77 3.006 2.407a.504.504 0 00.694-.462.5.5 0 00-.318-.465c-1.408-.576-2.137-1.266-2.5-1.95-.365-.682-.381-1.394-.235-2.083.128-.602.39-1.153.638-1.598l.627 2.295c.06.22.267.374.495.367l2.172-.057a.502.502 0 00.162-.032l2.034-.76a.509.509 0 00.321-.527l-.275-2.364c.398.32.846.732 1.189 1.243.394.584.643 1.251.561 2.02-.082.77-.499 1.684-1.591 2.747a.497.497 0 00-.157.364.498.498 0 00.852.353c1.207-1.174 1.778-2.31 1.89-3.357.11-1.05-.242-1.967-.728-2.688-.484-.72-1.102-1.261-1.586-1.629a9.322 9.322 0 00-.594-.417l-.125-.082a.508.508 0 00-.297-.13h.002z"/><path d="M242.099 138.86a.386.386 0 00-.084.01l-3.209.624a.504.504 0 00-.395.586l.871 4.491a.497.497 0 00.489.404.501.501 0 00.492-.595l-.776-3.998 2.227-.434.932 4.812a.503.503 0 00.491.404.502.502 0 00.49-.596l-1.027-5.302a.504.504 0 00-.501-.406zM61.526 113.375a.502.502 0 00-.462.302l-2.61 5.815a.502.502 0 00.452.713c.2 0 .381-.12.46-.303l2.609-5.815a.5.5 0 00-.45-.712zm124.038 17.257c-.202-.018-.41 0-.613.058l-1.616.468c-.807.233-1.353 1.057-1.1 1.871l3.627 11.639a.496.496 0 00.479.364.503.503 0 00.473-.662l-3.626-11.64c-.071-.225.085-.513.423-.61l1.618-.467c.337-.099.623.063.683.292l3.402 12.925a.5.5 0 10.966-.255l-3.403-12.925c-.163-.619-.711-1.003-1.313-1.058zm49.315-5.985l-.023-.001a.504.504 0 00-.493.577l1.224 8.762a.503.503 0 00.496.442.503.503 0 00.494-.581l-1.225-8.762a.502.502 0 00-.473-.437zm2.013 14.4h-.024a.503.503 0 00-.492.577l.734 5.263a.504.504 0 00.496.432.503.503 0 00.494-.571l-.736-5.262a.504.504 0 00-.472-.439zm-53.003-15.827h-.008a.502.502 0 00-.499.5c0 .275.226.5.499.5h2.394a.502.502 0 00.499-.5c0-.275-.226-.5-.499-.5h-2.386zm-38.362 34.889a2.552 2.552 0 00-2.54 2.547 2.552 2.552 0 002.54 2.547 2.551 2.551 0 002.542-2.547 2.551 2.551 0 00-2.542-2.547zm0 1.001c.858 0 1.544.687 1.544 1.546s-.686 1.546-1.544 1.546a1.536 1.536 0 01-1.541-1.546c0-.859.684-1.546 1.541-1.546zm-73.304-1.001a2.551 2.551 0 00-2.541 2.547 2.552 2.552 0 002.54 2.547 2.552 2.552 0 002.542-2.547 2.552 2.552 0 00-2.541-2.547zm0 1.001a1.52 1.52 0 011.093.451 1.528 1.528 0 01.45 1.095c0 .859-.686 1.546-1.543 1.546a1.52 1.52 0 01-1.093-.451 1.54 1.54 0 01-.45-1.095c0-.859.685-1.546 1.543-1.546zm56.389-29.58a2.55 2.55 0 00-2.541 2.547 2.55 2.55 0 002.541 2.545 2.55 2.55 0 002.541-2.545 2.55 2.55 0 00-2.541-2.547zm0 1a1.542 1.542 0 011.093.451 1.531 1.531 0 01.449 1.096c0 .859-.684 1.544-1.542 1.544a1.533 1.533 0 01-1.542-1.544 1.543 1.543 0 01.95-1.431c.188-.077.389-.117.592-.116zm.17 54.113a2.552 2.552 0 00-2.541 2.547c0 1.4 1.144 2.547 2.541 2.547a2.552 2.552 0 002.541-2.547 2.551 2.551 0 00-2.541-2.547zm0 1.001a1.524 1.524 0 011.093.451 1.545 1.545 0 01.45 1.095c0 .859-.685 1.547-1.543 1.547-.202 0-.404-.039-.591-.116a1.562 1.562 0 01-.502-.335 1.543 1.543 0 01-.449-1.096 1.55 1.55 0 01.449-1.095 1.53 1.53 0 011.093-.451zm-39.814-1.001a2.552 2.552 0 00-2.541 2.547c0 1.4 1.143 2.547 2.541 2.547a2.552 2.552 0 002.541-2.547 2.552 2.552 0 00-2.541-2.547zm0 1.001a1.52 1.52 0 011.093.451 1.538 1.538 0 01.45 1.095c0 .859-.685 1.547-1.543 1.547-.203 0-.404-.039-.592-.116a1.544 1.544 0 01-.951-1.431 1.544 1.544 0 01.45-1.095 1.526 1.526 0 011.093-.451zm41.465-76.16c-.304-.002-.556.013-.725.023l-.148.01a.51.51 0 00-.316.073c-.034.022-.096.035-.179.194a1.15 1.15 0 00-.051.153l.009.204.082.173s.026.025.043.045h-.002l2.147 2.274-.918 1.431-1.333 1.054-2.465-1.923.001.002c-.021-.015-.048-.039-.048-.039l-.181-.065-.203.01s-.11.042-.148.067c-.149.097-.156.16-.174.197a.499.499 0 00-.043.318l.005.152c.005.169.016.422.047.726.063.605.205 1.416.567 2.205.363.789.963 1.568 1.915 2.016.952.447 2.216.549 3.845.124a.507.507 0 00.374-.486.503.503 0 00-.626-.483c-1.472.385-2.469.268-3.168-.06-.699-.331-1.138-.889-1.432-1.53-.257-.559-.377-1.156-.443-1.661l1.872 1.459c.181.142.437.14.617-.001l1.705-1.348a.558.558 0 00.111-.122l1.175-1.831a.508.508 0 00-.058-.616l-1.631-1.728c.509.018 1.113.08 1.694.284.664.23 1.261.615 1.655 1.281.394.665.606 1.649.366 3.154a.503.503 0 00.493.58c.244 0 .454-.18.494-.422.265-1.666.043-2.917-.494-3.823-.537-.907-1.367-1.431-2.186-1.716-.818-.285-1.637-.35-2.245-.354v-.001z"/><path d="M134.591 115.27a.502.502 0 00-.383.158l-2.178 2.344a.499.499 0 00.031.714l2.794 2.523a.501.501 0 10.67-.744l-2.418-2.183 1.497-1.611 3.87 3.496a.501.501 0 10.67-.744l-4.235-3.825a.502.502 0 00-.318-.128zm7.619 6.922a.499.499 0 00-.303.876l4.613 4.168-1.465 1.635-3.533-3.19a.495.495 0 00-.343-.136.503.503 0 00-.326.879l3.904 3.526a.5.5 0 00.706-.037l2.134-2.38a.504.504 0 00-.037-.706l-4.984-4.502a.497.497 0 00-.366-.133zm-51.517 2.087a.491.491 0 00-.382.191.503.503 0 00-.097.417l1.492 7.233a.503.503 0 00.489.4.503.503 0 00.489-.602l-1.491-7.234a.502.502 0 00-.5-.405zm-6.348 5.414a.5.5 0 00-.271.919c.072.05.063.037.073.042l.024.011.052.022.163.065.551.219 1.644.645 2.371.926a.496.496 0 00.543-.109.502.502 0 00-.18-.824s-1.183-.46-2.371-.925c-.73-.285-1.46-.572-2.187-.861l-.154-.062-.03-.013a.486.486 0 00-.228-.055zm89.122 19.57h-.008c-.273 0-.5.226-.5.501 0 .273.227.5.5.5h100.917c.275 0 .5-.227.5-.5a.502.502 0 00-.5-.501H173.467zm-38.655-8.516a.5.5 0 00-.414.782l3.201 4.869a.497.497 0 00.92-.269c0-.1-.03-.198-.086-.282l-3.2-4.868a.509.509 0 00-.421-.232zm4.451-.352a.502.502 0 00-.093.987l.53.132-.099.505-.005.039-.096.834a.5.5 0 00.299.517l.898.383.038.014.503.168-.042.524-.095.756a.502.502 0 00.271.51l.896.45a.501.501 0 00.731-.445.499.499 0 00-.283-.45l-.581-.292.053-.416.002-.023.075-.924a.502.502 0 00-.342-.515l-.853-.286-.535-.228.05-.444.185-.952a.504.504 0 00-.37-.581l-.987-.247a.504.504 0 00-.15-.016zm-31.565-26.606a.498.498 0 00-.268.905l2.761 2.055a.499.499 0 10.596-.802l-2.762-2.057a.51.51 0 00-.327-.101zm1.177 74.003c.791 0 1.441.651 1.441 1.445a1.45 1.45 0 01-1.441 1.444 1.45 1.45 0 01-1.441-1.444 1.45 1.45 0 011.441-1.445zm19.318-28.581a1.45 1.45 0 011.441 1.445 1.45 1.45 0 01-1.441 1.444 1.45 1.45 0 01-1.441-1.444 1.45 1.45 0 011.441-1.445zm15.716-40.242a.504.504 0 00-.479.501c0 .248.186.462.433.495 0 0 2.673.404 5.348 1.848 2.674 1.446 5.277 3.848 5.327 7.97 0 .274.227.499.5.499a.502.502 0 00.499-.501v-.01c-.055-4.545-3.001-7.297-5.853-8.838-2.85-1.542-5.675-1.957-5.675-1.957a.554.554 0 00-.1-.007zm81.718-3.639a.5.5 0 00-.038.996s2.269.322 4.549 1.386c1.142.532 2.276 1.247 3.121 2.173.846.926 1.412 2.047 1.467 3.473a.503.503 0 00.499.48c.275 0 .5-.225.5-.5v-.02c-.067-1.675-.758-3.046-1.728-4.108-.972-1.065-2.216-1.837-3.436-2.406a18.991 18.991 0 00-4.836-1.469c-.033-.005-.065-.007-.098-.005zm-8.242 51.739a.503.503 0 00-.491.509v2.756c0 .275.225.5.5.5h12.847c.273 0 .5-.225.5-.5v-2.764a.504.504 0 00-.5-.501.503.503 0 00-.499.501v2.263h-11.849v-2.263a.503.503 0 00-.499-.501h-.009zm-.87-8.945c-.275 0-.5.227-.5.5v5.52c0 .275.225.5.5.5h14.807a.501.501 0 00.499-.5v-5.52c0-.273-.225-.5-.499-.5h-14.807zm.499 1.001h13.808v4.518h-13.808v-4.518zm51.131 1.416a.503.503 0 00-.492.508v27.619c0 .275.226.5.499.5.275 0 .5-.225.5-.5v-27.627c0-.273-.225-.5-.5-.5h-.007zm-178.588-1.33c.79 0 1.442.653 1.442 1.445a1.45 1.45 0 01-1.442 1.444 1.45 1.45 0 01-1.441-1.444c0-.792.65-1.445 1.441-1.445zm4.935-20.648a1.45 1.45 0 011.442 1.445 1.45 1.45 0 01-1.442 1.444 1.45 1.45 0 01-1.44-1.444c0-.793.65-1.445 1.44-1.445zm28.766 0c.79 0 1.441.652 1.441 1.445a1.45 1.45 0 01-1.441 1.444 1.45 1.45 0 01-1.441-1.444c0-.793.65-1.445 1.441-1.445zm-46.811 38.096a.5.5 0 00-.093.987l.528.132-.097.505a.475.475 0 00-.006.037l-.097.836a.501.501 0 00.3.517l.898.383.037.014.503.168-.042.524-.094.755a.5.5 0 00.271.509l.896.451a.502.502 0 10.448-.895l-.58-.291.052-.416.002-.023.074-.924a.504.504 0 00-.34-.516l-.855-.285-.535-.228.052-.446.183-.95a.503.503 0 00-.37-.581l-.986-.247a.497.497 0 00-.149-.016zm103.026-16.118a.502.502 0 00-.491.508v27.619c0 .275.225.5.499.5.273 0 .5-.225.5-.5v-27.627c0-.273-.227-.5-.5-.5h-.008z"/></g></svg>
