<svg viewBox="0 0 150 150" xmlns="http://www.w3.org/2000/svg" fill-rule="evenodd" clip-rule="evenodd" stroke-linejoin="round" stroke-miterlimit="2"><g transform="matrix(.56604 0 0 .69444 0 457.64)"><path fill="none" d="M0-659h265v216H0z"/><clipPath id="a"><path d="M0-659h265v216H0z"/></clipPath><g clip-path="url(#a)"><path d="M141.192-581.518c11.417-4.757 24.253-7.428 37.817-7.428 47.462 0 85.994 32.699 85.994 72.973 0 40.275-38.532 72.973-85.994 72.973-47.461 0-85.993-32.698-85.993-72.973 0-11.51 3.147-22.402 8.753-32.092l29.658 25.168c10.88 9.232 28.545 9.232 39.423 0 10.879-9.231 10.879-24.221 0-33.453l-29.658-25.168z" fill="#3165d4"/><path d="M91.872-605.188l62.7 51.106c5.633 4.591 5.633 12.047 0 16.638-5.633 4.592-14.78 4.592-20.414 0l-60.974-49.7c-7.368 3.789-16.089 5.982-25.433 5.982-26.353 0-47.748-17.439-47.748-38.92C.003-641.561 21.398-659 47.751-659c26.353 0 47.747 17.439 47.747 38.919 0 5.273-1.289 10.303-3.626 14.893z" fill="#4aa658"/></g></g></svg>