<?xml version="1.0" encoding="UTF-8" standalone="no"?>
<!DOCTYPE svg PUBLIC "-//W3C//DTD SVG 1.1//EN" "http://www.w3.org/Graphics/SVG/1.1/DTD/svg11.dtd">
<svg width="100%" height="100%" viewBox="0 0 150 150" version="1.1" xmlns="http://www.w3.org/2000/svg" xmlns:xlink="http://www.w3.org/1999/xlink" xml:space="preserve" xmlns:serif="http://www.serif.com/" style="fill-rule:evenodd;clip-rule:evenodd;stroke-linejoin:round;stroke-miterlimit:2;">
    <g transform="matrix(1,0,0,1,-1082,-505.378)">
        <g id="payment" transform="matrix(0.566038,0,0,0.694444,1082,963.017)">
            <rect x="0" y="-659" width="265" height="216" style="fill:none;"/>
            <g transform="matrix(1.76667,0,0,1.44,-1911.53,-659)">
                <path d="M1086.88,89.789L1084.42,80.607C1083.56,77.409 1085.46,74.116 1088.66,73.259L1197.81,44.012C1201.01,43.155 1204.3,45.056 1205.16,48.255L1217.58,94.619C1218.44,97.818 1216.54,101.111 1213.34,101.968L1204.12,104.438L1194.57,68.797C1193.49,64.747 1189.32,62.34 1185.27,63.426L1086.88,89.789Z" style="fill:rgb(49,101,212);"/>
            </g>
            <g transform="matrix(1.76667,0,0,1.44,-1911.53,-659)">
                <path d="M1094.62,60.658L1090.42,44.994C1089.56,41.795 1091.46,38.503 1094.66,37.646L1203.81,8.399C1207.01,7.542 1210.3,9.443 1211.16,12.642L1223.58,59.006C1224.43,62.189 1222.56,65.466 1219.38,66.342L1211.16,35.642C1210.3,32.443 1207.01,30.542 1203.81,31.399L1094.66,60.646L1094.62,60.658Z" style="fill:rgb(49,101,212);"/>
            </g>
            <g transform="matrix(1.22866,-0.268344,0.342935,1.0432,-1329.41,-218.892)">
                <path d="M1232,6C1232,2.689 1229.2,0 1225.75,0L1088.25,0C1084.8,0 1082,2.689 1082,6L1082,54C1082,57.311 1084.8,60 1088.25,60L1225.75,60C1229.2,60 1232,57.311 1232,54L1232,6Z" style="fill:rgb(49,101,212);"/>
            </g>
        </g>
    </g>
</svg>
