<svg viewBox="0 0 2409 1500" xmlns="http://www.w3.org/2000/svg" fill-rule="evenodd" clip-rule="evenodd" stroke-linejoin="round" stroke-miterlimit="2"><path d="M2405.38 51.345c0-27.436-22.275-49.71-49.71-49.71H1003.18c-27.436 0-49.71 22.274-49.71 49.71v829.977c0 27.436 22.274 49.71 49.71 49.71h1352.49c27.435 0 49.71-22.274 49.71-49.71V51.345z" fill="#fff"/><path d="M2405.38 51.345c0-27.436-22.275-49.71-49.71-49.71H1003.18c-27.436 0-49.71 22.274-49.71 49.71v829.977c0 27.436 22.274 49.71 49.71 49.71h1352.49c27.435 0 49.71-22.274 49.71-49.71V51.345zm-27.769 0v829.977c0 12.11-9.832 21.942-21.941 21.942H1003.18c-12.11 0-21.942-9.832-21.942-21.942V51.345c0-12.11 9.832-21.942 21.942-21.942h1352.49c12.109 0 21.941 9.832 21.941 21.942z" fill="#353535"/><path d="M1455.34 207.828c0-30.99-25.161-56.151-56.151-56.151h-234.225c-30.991 0-56.151 25.161-56.151 56.151v291.384c0 30.991 25.16 56.151 56.151 56.151h234.225c30.99 0 56.151-25.16 56.151-56.151V207.828zM1679.43 182.043H2176v57.159h-496.57zM1679.43 296.361h367.962v57.159H1679.43zM1679.43 417.824h425.121v57.159H1679.43z" fill="#e2e2e2"/><g><path d="M1773.1 424.389c0-33.496-27.194-60.689-60.689-60.689H61.211c-33.496 0-60.69 27.193-60.69 60.689v1013.29c0 33.496 27.194 60.689 60.69 60.689h1651.2c33.495 0 60.689-27.193 60.689-60.689V424.389z" fill="#fff"/><path d="M1773.1 424.389c0-33.496-27.194-60.689-60.689-60.689H61.211c-33.496 0-60.69 27.193-60.69 60.689v1013.29c0 33.496 27.194 60.689 60.69 60.689h1651.2c33.495 0 60.689-27.193 60.689-60.689V424.389zm-33.902 0v1013.29c0 14.785-12.003 26.788-26.787 26.788H61.211c-14.785 0-26.788-12.003-26.788-26.788V424.389c0-14.785 12.003-26.788 26.788-26.788h1651.2c14.784 0 26.787 12.003 26.787 26.788z" fill="#3165d4"/><path d="M613.226 615.433c0-37.835-30.717-68.552-68.553-68.552H258.717c-37.835 0-68.552 30.717-68.552 68.552v355.74c0 37.835 30.717 68.552 68.552 68.552h285.956c37.836 0 68.553-30.717 68.553-68.552v-355.74zM886.808 583.953h606.243v69.783H886.808zM886.808 723.52h449.23v69.783h-449.23zM886.808 871.809h519.013v69.783H886.808z" fill="#d9e5ff"/></g><circle cx="1016.56" cy="1217.25" r="129.753" fill="#caf5d1"/><circle cx="1366.56" cy="1217.25" r="129.753" fill="#caf5d1"/></svg>