<svg viewBox="0 0 24 24" fill="none" xmlns="http://www.w3.org/2000/svg">
<g clip-path="url(#clip0)">
<path d="M23.6364 14.8955C22.0364 21.3206 15.5344 25.244 9.10306 23.6417C2.68345 22.0354 -1.23028 15.5278 0.369721 9.10266C1.96972 2.67753 8.46776 -1.24589 14.8834 0.35647C21.3187 1.93919 25.2325 8.46643 23.6364 14.8955Z" fill="#F2A900"/>
<path d="M17.6821 10.4388C17.8978 8.83648 16.6821 7.99996 15.0155 7.43442L15.5331 5.26652L14.2155 4.94841L13.7135 7.06918C13.3645 6.9867 13.0115 6.90423 12.6625 6.83353L13.1645 4.71277L11.8312 4.39465L11.3135 6.56255C11.0312 6.49578 10.7449 6.44473 10.4625 6.37796L8.64685 5.94203L8.31352 7.34409C8.31352 7.34409 9.29783 7.56009 9.26254 7.57973C9.79587 7.71326 9.89783 8.06279 9.87822 8.32985L9.29391 10.8002C9.3292 10.8159 9.37626 10.8159 9.42724 10.8512C9.37626 10.8355 9.34489 10.8355 9.29391 10.8198L8.49391 14.2759C8.42724 14.4408 8.25862 14.6764 7.89391 14.594C7.9096 14.6097 6.92529 14.3583 6.92529 14.3583L6.30176 15.8782L8.0194 16.2788C8.33705 16.3613 8.65469 16.428 8.95273 16.5144L8.43509 18.702L9.75273 19.0201L10.2704 16.8522C10.639 16.9504 10.988 17.0368 11.3214 17.1193L10.8037 19.2714L12.1214 19.5896L12.639 17.402C14.89 17.8026 16.5723 17.618 17.2547 15.564C17.8037 13.9263 17.2037 12.9916 16.0037 12.375C16.8821 12.1747 17.5174 11.6053 17.6821 10.4388ZM14.7174 14.6922C14.3331 16.3299 11.5684 15.4776 10.6821 15.2616L11.3645 12.3554C12.2665 12.5753 15.1174 12.9759 14.7174 14.6922ZM15.0821 10.4388C14.7331 11.9234 12.4312 11.2086 11.6821 11.024L12.3174 8.38876C13.0508 8.56942 15.4508 8.88754 15.0821 10.4388Z" fill="white"/>
</g>
<defs>
<clipPath id="clip0">
<rect width="24" height="24" fill="white"/>
</clipPath>
</defs>
</svg>
