<svg viewBox="0 0 75 75" fill="none" xmlns="http://www.w3.org/2000/svg">
<g>
<path d="M37.4979 56.2512C47.8532 56.2512 56.2479 47.8566 56.2479 37.5013C56.2479 27.146 47.8532 18.7514 37.4979 18.7514C27.1425 18.7514 18.7478 27.146 18.7478 37.5013C18.7478 47.8566 27.1425 56.2512 37.4979 56.2512Z" fill="#3165D4"/>
<path d="M7.49878 15.0019C11.6409 15.0019 14.9988 11.6441 14.9988 7.50197C14.9988 3.35986 11.6409 0.00201416 7.49878 0.00201416C3.35664 0.00201416 -0.0012207 3.35986 -0.0012207 7.50197C-0.0012207 11.6441 3.35664 15.0019 7.49878 15.0019Z" fill="#3165D4"/>
<path d="M67.4993 15.0014C71.6414 15.0014 74.9993 11.6436 74.9993 7.50148C74.9993 3.35937 71.6414 0.00152588 67.4993 0.00152588C63.3571 0.00152588 59.9993 3.35937 59.9993 7.50148C59.9993 11.6436 63.3571 15.0014 67.4993 15.0014Z" fill="#3165D4"/>
<path d="M67.4993 75.0011C71.6414 75.0011 74.9993 71.6432 74.9993 67.5011C74.9993 63.359 71.6414 60.0012 67.4993 60.0012C63.3571 60.0012 59.9993 63.359 59.9993 67.5011C59.9993 71.6432 63.3571 75.0011 67.4993 75.0011Z" fill="#3165D4"/>
<path d="M7.49903 75.0011C11.6412 75.0011 14.999 71.6432 14.999 67.5011C14.999 63.359 11.6412 60.0012 7.49903 60.0012C3.35689 60.0012 -0.000976562 63.359 -0.000976562 67.5011C-0.000976562 71.6432 3.35689 75.0011 7.49903 75.0011Z" fill="#3165D4"/>
<path fill-rule="evenodd" clip-rule="evenodd" d="M8.56221 7.50079L68.6295 67.5671L67.5023 68.6945L7.43494 8.6282L8.56221 7.50079Z" fill="#3165D4"/>
<path fill-rule="evenodd" clip-rule="evenodd" d="M7.43262 67.5678L67.4997 7.50116L68.6269 8.62859L8.55989 68.6956L7.43262 67.5678Z" fill="#3165D4"/>
</g>
</svg>
