<svg viewBox="0 0 1406 99" fill="none" xmlns="http://www.w3.org/2000/svg">
<path fill-rule="evenodd" clip-rule="evenodd" d="M173.362 0C146.174 0 124.102 22.063 124.102 49.2391C124.102 76.4146 146.174 98.4781 173.362 98.4781H243.818C271.006 98.4781 293.079 76.4146 293.079 49.2391C293.079 22.063 271.006 0 243.818 0H173.362ZM176.908 23.1084C162.479 23.1084 150.765 34.8173 150.765 49.2391C150.765 63.6608 162.479 75.3697 176.908 75.3697H240.273C254.701 75.3697 266.415 63.6608 266.415 49.2391C266.415 34.8173 254.701 23.1084 240.273 23.1084H176.908Z" fill="#3165D4"/>
<path fill-rule="evenodd" clip-rule="evenodd" d="M173.005 7.00708C149.686 7.00708 130.754 25.9306 130.754 49.2392C130.754 72.5478 149.686 91.4713 173.005 91.4713H244.174C267.493 91.4713 286.425 72.5478 286.425 49.2392C286.425 25.9306 267.493 7.00708 244.174 7.00708H173.005ZM174.536 17.0179C156.746 17.0179 142.301 31.4558 142.301 49.2392C142.301 67.0226 156.746 81.4599 174.536 81.4599H242.642C260.434 81.4599 274.877 67.0226 274.877 49.2392C274.877 31.4558 260.434 17.0179 242.642 17.0179H174.536Z" fill="white"/>
<path fill-rule="evenodd" clip-rule="evenodd" d="M15.9122 32.7437C7.13012 32.7437 0 39.8706 0 48.6493C0 57.4275 7.13012 64.5544 15.9122 64.5544H153.006C161.789 64.5544 168.919 57.4275 168.919 48.6493C168.919 39.8706 161.789 32.7437 153.006 32.7437H15.9122Z" fill="#3165D4"/>
<path fill-rule="evenodd" clip-rule="evenodd" d="M16.5138 38.9171C11.1401 38.9171 6.77734 43.278 6.77734 48.6492C6.77734 54.0205 11.1401 58.3814 16.5138 58.3814H152.405C157.779 58.3814 162.142 54.0205 162.142 48.6492C162.142 43.278 157.779 38.9171 152.405 38.9171H16.5138Z" fill="white"/>
<path fill-rule="evenodd" clip-rule="evenodd" d="M421.315 0C394.127 0 372.054 22.063 372.054 49.2391C372.054 76.4146 394.127 98.4781 421.315 98.4781H491.77C518.959 98.4781 541.032 76.4146 541.032 49.2391C541.032 22.063 518.959 0 491.77 0H421.315ZM424.86 23.1084C410.432 23.1084 398.718 34.8173 398.718 49.2391C398.718 63.6608 410.432 75.3697 424.86 75.3697H488.225C502.653 75.3697 514.368 63.6608 514.368 49.2391C514.368 34.8173 502.653 23.1084 488.225 23.1084H424.86Z" fill="#3165D4"/>
<path fill-rule="evenodd" clip-rule="evenodd" d="M420.959 7.00708C397.64 7.00708 378.708 25.9306 378.708 49.2392C378.708 72.5478 397.64 91.4713 420.959 91.4713H492.128C515.447 91.4713 534.379 72.5478 534.379 49.2392C534.379 25.9306 515.447 7.00708 492.128 7.00708H420.959ZM422.491 17.0179C404.7 17.0179 390.255 31.4558 390.255 49.2392C390.255 67.0226 404.7 81.4599 422.491 81.4599H490.596C508.388 81.4599 522.832 67.0226 522.832 49.2392C522.832 31.4558 508.388 17.0179 490.596 17.0179H422.491Z" fill="white"/>
<path fill-rule="evenodd" clip-rule="evenodd" d="M263.867 32.7437C255.085 32.7437 247.955 39.8706 247.955 48.6493C247.955 57.4275 255.085 64.5544 263.867 64.5544H400.961C409.744 64.5544 416.874 57.4275 416.874 48.6493C416.874 39.8706 409.744 32.7437 400.961 32.7437H263.867Z" fill="#3165D4"/>
<path fill-rule="evenodd" clip-rule="evenodd" d="M264.469 38.9171C259.096 38.9171 254.732 43.278 254.732 48.6492C254.732 54.0205 259.096 58.3814 264.469 58.3814H400.361C405.735 58.3814 410.098 54.0205 410.098 48.6492C410.098 43.278 405.735 38.9171 400.361 38.9171H264.469Z" fill="white"/>
<path fill-rule="evenodd" clip-rule="evenodd" d="M667.372 0C640.183 0 618.11 22.063 618.11 49.2391C618.11 76.4146 640.183 98.4781 667.372 98.4781H737.827C765.015 98.4781 787.088 76.4146 787.088 49.2391C787.088 22.063 765.015 0 737.827 0H667.372ZM670.917 23.1084C656.488 23.1084 644.774 34.8173 644.774 49.2391C644.774 63.6608 656.488 75.3697 670.917 75.3697H734.282C748.71 75.3697 760.424 63.6608 760.424 49.2391C760.424 34.8173 748.71 23.1084 734.282 23.1084H670.917Z" fill="#3165D4"/>
<path fill-rule="evenodd" clip-rule="evenodd" d="M667.009 7.00708C643.69 7.00708 624.758 25.9306 624.758 49.2392C624.758 72.5478 643.69 91.4713 667.009 91.4713H738.178C761.497 91.4713 780.429 72.5478 780.429 49.2392C780.429 25.9306 761.497 7.00708 738.178 7.00708H667.009ZM668.541 17.0179C650.749 17.0179 636.305 31.4558 636.305 49.2392C636.305 67.0226 650.749 81.4599 668.541 81.4599H736.646C754.438 81.4599 768.882 67.0226 768.882 49.2392C768.882 31.4558 754.438 17.0179 736.646 17.0179H668.541Z" fill="white"/>
<path fill-rule="evenodd" clip-rule="evenodd" d="M509.92 32.7437C501.137 32.7437 494.007 39.8706 494.007 48.6493C494.007 57.4275 501.137 64.5544 509.92 64.5544H647.013C655.795 64.5544 662.925 57.4275 662.925 48.6493C662.925 39.8706 655.795 32.7437 647.013 32.7437H509.92Z" fill="#3165D4"/>
<path fill-rule="evenodd" clip-rule="evenodd" d="M510.519 38.9171C505.145 38.9171 500.782 43.278 500.782 48.6492C500.782 54.0205 505.145 58.3814 510.519 58.3814H646.41C651.784 58.3814 656.147 54.0205 656.147 48.6492C656.147 43.278 651.784 38.9171 646.41 38.9171H510.519Z" fill="white"/>
<path fill-rule="evenodd" clip-rule="evenodd" d="M916.941 0C889.753 0 867.68 22.063 867.68 49.2391C867.68 76.4146 889.753 98.4781 916.941 98.4781H987.396C1014.58 98.4781 1036.66 76.4146 1036.66 49.2391C1036.66 22.063 1014.58 0 987.396 0H916.941ZM920.486 23.1084C906.058 23.1084 894.344 34.8173 894.344 49.2391C894.344 63.6608 906.058 75.3697 920.486 75.3697H983.851C998.279 75.3697 1009.99 63.6608 1009.99 49.2391C1009.99 34.8173 998.279 23.1084 983.851 23.1084H920.486Z" fill="#3165D4"/>
<path fill-rule="evenodd" clip-rule="evenodd" d="M916.58 7.00708C893.261 7.00708 874.329 25.9306 874.329 49.2392C874.329 72.5478 893.261 91.4713 916.58 91.4713H987.749C1011.07 91.4713 1030 72.5478 1030 49.2392C1030 25.9306 1011.07 7.00708 987.749 7.00708H916.58ZM918.112 17.0179C900.321 17.0179 885.876 31.4558 885.876 49.2392C885.876 67.0226 900.321 81.4599 918.112 81.4599H986.217C1004.01 81.4599 1018.45 67.0226 1018.45 49.2392C1018.45 31.4558 1004.01 17.0179 986.217 17.0179H918.112Z" fill="white"/>
<path fill-rule="evenodd" clip-rule="evenodd" d="M759.487 32.7437C750.704 32.7437 743.574 39.8706 743.574 48.6493C743.574 57.4275 750.704 64.5544 759.487 64.5544H896.581C905.363 64.5544 912.493 57.4275 912.493 48.6493C912.493 39.8706 905.363 32.7437 896.581 32.7437H759.487Z" fill="#3165D4"/>
<path fill-rule="evenodd" clip-rule="evenodd" d="M760.09 38.9171C754.716 38.9171 750.354 43.278 750.354 48.6492C750.354 54.0205 754.716 58.3814 760.09 58.3814H895.982C901.355 58.3814 905.718 54.0205 905.718 48.6492C905.718 43.278 901.355 38.9171 895.982 38.9171H760.09Z" fill="white"/>
<path fill-rule="evenodd" clip-rule="evenodd" d="M1162.96 0C1135.78 0 1113.7 22.063 1113.7 49.2391C1113.7 76.4146 1135.78 98.4781 1162.96 98.4781H1233.42C1260.61 98.4781 1282.68 76.4146 1282.68 49.2391C1282.68 22.063 1260.61 0 1233.42 0H1162.96ZM1166.51 23.1084C1152.08 23.1084 1140.37 34.8173 1140.37 49.2391C1140.37 63.6608 1152.08 75.3697 1166.51 75.3697H1229.87C1244.3 75.3697 1256.02 63.6608 1256.02 49.2391C1256.02 34.8173 1244.3 23.1084 1229.87 23.1084H1166.51Z" fill="#3165D4"/>
<path fill-rule="evenodd" clip-rule="evenodd" d="M1162.61 7.00708C1139.29 7.00708 1120.36 25.9306 1120.36 49.2392C1120.36 72.5478 1139.29 91.4713 1162.61 91.4713H1233.78C1257.1 91.4713 1276.03 72.5478 1276.03 49.2392C1276.03 25.9306 1257.1 7.00708 1233.78 7.00708H1162.61ZM1164.14 17.0179C1146.35 17.0179 1131.9 31.4558 1131.9 49.2392C1131.9 67.0226 1146.35 81.4599 1164.14 81.4599H1232.25C1250.04 81.4599 1264.48 67.0226 1264.48 49.2392C1264.48 31.4558 1250.04 17.0179 1232.25 17.0179H1164.14Z" fill="white"/>
<path fill-rule="evenodd" clip-rule="evenodd" d="M1005.52 32.7437C996.735 32.7437 989.604 39.8706 989.604 48.6493C989.604 57.4275 996.735 64.5544 1005.52 64.5544H1142.61C1151.39 64.5544 1158.52 57.4275 1158.52 48.6493C1158.52 39.8706 1151.39 32.7437 1142.61 32.7437H1005.52Z" fill="#3165D4"/>
<path fill-rule="evenodd" clip-rule="evenodd" d="M1006.12 38.9171C1000.75 38.9171 996.384 43.278 996.384 48.6492C996.384 54.0205 1000.75 58.3814 1006.12 58.3814H1142.01C1147.39 58.3814 1151.75 54.0205 1151.75 48.6492C1151.75 43.278 1147.39 38.9171 1142.01 38.9171H1006.12Z" fill="white"/>
<path fill-rule="evenodd" clip-rule="evenodd" d="M1252.95 32.7437C1244.17 32.7437 1237.04 39.8706 1237.04 48.6493C1237.04 57.4275 1244.17 64.5544 1252.95 64.5544H1390.04C1398.82 64.5544 1405.95 57.4275 1405.95 48.6493C1405.95 39.8706 1398.82 32.7437 1390.04 32.7437H1252.95Z" fill="#3165D4"/>
<path fill-rule="evenodd" clip-rule="evenodd" d="M1253.55 38.9171C1248.17 38.9171 1243.81 43.278 1243.81 48.6492C1243.81 54.0205 1248.17 58.3814 1253.55 58.3814H1389.44C1394.81 58.3814 1399.17 54.0205 1399.17 48.6492C1399.17 43.278 1394.81 38.9171 1389.44 38.9171H1253.55Z" fill="white"/>
</svg>
