<svg viewBox="0 0 256 480" fill="none" xmlns="http://www.w3.org/2000/svg">
<g clip-path="url(#clip0)">
<path fill-rule="evenodd" clip-rule="evenodd" d="M200.352 395.786C200.352 380.37 187.848 367.854 172.447 367.854C157.045 367.854 144.541 380.37 144.541 395.786V435.736C144.541 451.153 157.045 463.669 172.447 463.669C187.848 463.669 200.352 451.153 200.352 435.736V395.786ZM187.256 397.796C187.256 389.615 180.62 382.973 172.447 382.973C164.273 382.973 157.638 389.615 157.638 397.796V433.726C157.638 441.907 164.273 448.55 172.447 448.55C180.62 448.55 187.256 441.907 187.256 433.726V397.796Z" fill="#F0F0F0"/>
<path fill-rule="evenodd" clip-rule="evenodd" d="M196.381 395.584C196.381 382.362 185.656 371.627 172.447 371.627C159.237 371.627 148.512 382.362 148.512 395.584V435.94C148.512 449.162 159.237 459.897 172.447 459.897C185.656 459.897 196.381 449.162 196.381 435.94V395.584ZM190.708 396.453C190.708 386.365 182.525 378.175 172.447 378.175C162.369 378.175 154.186 386.365 154.186 396.453V435.071C154.186 445.159 162.369 453.349 172.447 453.349C182.525 453.349 190.708 445.159 190.708 435.071V396.453Z" fill="white"/>
<path fill-rule="evenodd" clip-rule="evenodd" d="M200.352 260.011C200.352 244.595 187.848 232.079 172.447 232.079C157.045 232.079 144.541 244.595 144.541 260.011V299.961C144.541 315.378 157.045 327.894 172.447 327.894C187.848 327.894 200.352 315.378 200.352 299.961V260.011ZM187.256 262.021C187.256 253.84 180.62 247.198 172.447 247.198C164.273 247.198 157.638 253.84 157.638 262.021V297.951C157.638 306.132 164.273 312.775 172.447 312.775C180.62 312.775 187.256 306.132 187.256 297.951V262.021Z" fill="#F0F0F0"/>
<path fill-rule="evenodd" clip-rule="evenodd" d="M196.381 259.809C196.381 246.586 185.656 235.851 172.447 235.851C159.237 235.851 148.512 246.586 148.512 259.809V300.164C148.512 313.386 159.237 324.121 172.447 324.121C185.656 324.121 196.381 313.386 196.381 300.164V259.809ZM190.708 260.677C190.708 250.589 182.525 242.399 172.447 242.399C162.369 242.399 154.186 250.589 154.186 260.677V299.295C154.186 309.383 162.369 317.574 172.447 317.574C182.525 317.574 190.708 309.383 190.708 299.295V260.677Z" fill="white"/>
<path fill-rule="evenodd" clip-rule="evenodd" d="M181.461 308.452C181.461 303.473 177.422 299.43 172.446 299.43C167.472 299.43 163.432 303.473 163.432 308.452V386.188C163.432 391.168 167.472 395.211 172.446 395.211C177.422 395.211 181.461 391.168 181.461 386.188V308.452Z" fill="#F0F0F0"/>
<path fill-rule="evenodd" clip-rule="evenodd" d="M177.963 308.791C177.963 305.744 175.491 303.27 172.447 303.27C169.403 303.27 166.931 305.744 166.931 308.791V385.846C166.931 388.893 169.403 391.366 172.447 391.366C175.491 391.366 177.963 388.893 177.963 385.846V308.791Z" fill="white"/>
<path fill-rule="evenodd" clip-rule="evenodd" d="M181.359 437.458C178.872 433.145 173.354 431.665 169.046 434.155C164.737 436.645 163.259 442.168 165.747 446.481L204.577 513.802C207.064 518.115 212.582 519.595 216.89 517.105C221.199 514.615 222.677 509.092 220.19 504.779L181.359 437.458Z" fill="#F0F0F0"/>
<path fill-rule="evenodd" clip-rule="evenodd" d="M178.5 439.503C176.978 436.864 173.602 435.958 170.965 437.482C168.329 439.005 167.424 442.385 168.946 445.024L207.436 511.755C208.958 514.394 212.335 515.299 214.971 513.775C217.607 512.252 218.512 508.873 216.99 506.234L178.5 439.503Z" fill="white"/>
<path fill-rule="evenodd" clip-rule="evenodd" d="M273.766 385.726C258.365 385.726 245.861 398.242 245.861 413.658C245.861 429.074 258.365 441.591 273.766 441.591H313.678C329.079 441.591 341.583 429.074 341.583 413.658C341.583 398.242 329.079 385.726 313.678 385.726H273.766ZM275.774 398.835C267.601 398.835 260.965 405.477 260.965 413.658C260.965 421.839 267.601 428.482 275.774 428.482H311.669C319.843 428.482 326.478 421.839 326.478 413.658C326.478 405.477 319.843 398.835 311.669 398.835H275.774Z" fill="#F0F0F0"/>
<path fill-rule="evenodd" clip-rule="evenodd" d="M273.564 389.7C260.354 389.7 249.63 400.435 249.63 413.657C249.63 426.88 260.354 437.615 273.564 437.615H313.88C327.09 437.615 337.814 426.88 337.814 413.657C337.814 400.435 327.09 389.7 313.88 389.7H273.564ZM274.432 395.379C264.353 395.379 256.171 403.569 256.171 413.657C256.171 423.745 264.353 431.936 274.432 431.936H313.012C323.091 431.936 331.273 423.745 331.273 413.657C331.273 403.569 323.091 395.379 313.012 395.379H274.432Z" fill="white"/>
<path fill-rule="evenodd" clip-rule="evenodd" d="M184.574 404.299C179.599 404.299 175.56 408.342 175.56 413.322C175.56 418.301 179.599 422.344 184.574 422.344H262.235C267.209 422.344 271.248 418.301 271.248 413.322C271.248 408.342 267.209 404.299 262.235 404.299H184.574Z" fill="#F0F0F0"/>
<path fill-rule="evenodd" clip-rule="evenodd" d="M184.914 407.802C181.87 407.802 179.399 410.276 179.399 413.323C179.399 416.37 181.87 418.844 184.914 418.844H261.894C264.938 418.844 267.41 416.37 267.41 413.323C267.41 410.276 264.938 407.802 261.894 407.802H184.914Z" fill="white"/>
<path fill-rule="evenodd" clip-rule="evenodd" d="M193.693 158.713C185.992 172.064 190.569 189.162 203.907 196.87C217.245 204.578 234.326 199.997 242.026 186.646L261.982 152.048C269.683 138.697 265.106 121.6 251.768 113.891C238.43 106.183 221.349 110.764 213.649 124.115L193.693 158.713ZM206.039 163.527C201.952 170.612 204.381 179.686 211.459 183.776C218.537 187.867 227.602 185.436 231.689 178.35L249.636 147.234C253.723 140.149 251.294 131.076 244.216 126.985C237.137 122.894 228.073 125.326 223.986 132.411L206.039 163.527Z" fill="#F0F0F0"/>
<path fill-rule="evenodd" clip-rule="evenodd" d="M197.031 160.876C190.426 172.327 194.351 186.991 205.791 193.603C217.231 200.214 231.881 196.285 238.486 184.833L258.644 149.885C265.249 138.434 261.324 123.77 249.884 117.158C238.444 110.547 223.794 114.476 217.189 125.928L197.031 160.876ZM202.378 162.963C197.339 171.7 200.334 182.888 209.062 187.932C217.79 192.976 228.968 189.978 234.007 181.242L253.297 147.798C258.336 139.061 255.341 127.873 246.613 122.829C237.885 117.785 226.707 120.783 221.669 129.519L202.378 162.963Z" fill="white"/>
<path fill-rule="evenodd" clip-rule="evenodd" d="M165.168 245.319C162.68 249.631 164.159 255.154 168.467 257.644C172.775 260.134 178.293 258.654 180.78 254.341L219.611 187.02C222.098 182.707 220.62 177.184 216.311 174.695C212.003 172.205 206.485 173.684 203.998 177.997L165.168 245.319Z" fill="#F0F0F0"/>
<path fill-rule="evenodd" clip-rule="evenodd" d="M168.367 246.774C166.845 249.413 167.75 252.792 170.386 254.316C173.023 255.84 176.399 254.934 177.921 252.295L216.411 185.564C217.933 182.925 217.028 179.546 214.392 178.023C211.755 176.499 208.379 177.404 206.857 180.043L168.367 246.774Z" fill="white"/>
<path fill-rule="evenodd" clip-rule="evenodd" d="M247.751 153.757C243.443 151.267 237.925 152.746 235.438 157.059C232.95 161.372 234.429 166.895 238.737 169.385L305.993 208.253C310.301 210.742 315.819 209.263 318.307 204.95C320.794 200.637 319.316 195.114 315.007 192.625L247.751 153.757Z" fill="#F0F0F0"/>
<path fill-rule="evenodd" clip-rule="evenodd" d="M246.297 156.96C243.66 155.436 240.285 156.342 238.762 158.981C237.24 161.619 238.145 164.999 240.781 166.522L307.448 205.049C310.084 206.573 313.46 205.668 314.982 203.029C316.504 200.39 315.599 197.011 312.963 195.487L246.297 156.96Z" fill="white"/>
<path fill-rule="evenodd" clip-rule="evenodd" d="M215.173 35.676C215.173 51.0925 227.677 63.6085 243.078 63.6085C258.48 63.6085 270.984 51.0925 270.984 35.676V-4.27431C270.984 -19.6908 258.48 -32.2068 243.078 -32.2068C227.677 -32.2068 215.173 -19.6908 215.173 -4.27431V35.676ZM228.269 33.6658C228.269 41.847 234.905 48.4893 243.078 48.4893C251.252 48.4893 257.887 41.847 257.887 33.6658V-2.26411C257.887 -10.4453 251.252 -17.0876 243.078 -17.0876C234.905 -17.0876 228.269 -10.4453 228.269 -2.26411V33.6658Z" fill="#F0F0F0"/>
<path fill-rule="evenodd" clip-rule="evenodd" d="M219.144 35.8783C219.144 49.1009 229.869 59.8358 243.078 59.8358C256.288 59.8358 267.012 49.1009 267.012 35.8783V-4.47677C267.012 -17.6993 256.288 -28.4343 243.078 -28.4343C229.869 -28.4343 219.144 -17.6993 219.144 -4.47677V35.8783ZM224.817 35.0096C224.817 45.0978 233 53.2882 243.078 53.2882C253.156 53.2882 261.339 45.0978 261.339 35.0096V-3.6081C261.339 -13.6963 253.156 -21.8867 243.078 -21.8867C233 -21.8867 224.817 -13.6963 224.817 -3.6081V35.0096Z" fill="white"/>
<path fill-rule="evenodd" clip-rule="evenodd" d="M233.73 124.954C233.73 129.935 237.769 133.977 242.744 133.977C247.719 133.977 251.758 129.935 251.758 124.954V47.2185C251.758 42.2388 247.719 38.1958 242.744 38.1958C237.769 38.1958 233.73 42.2388 233.73 47.2185V124.954Z" fill="#F0F0F0"/>
<path fill-rule="evenodd" clip-rule="evenodd" d="M237.228 124.614C237.228 127.661 239.7 130.135 242.744 130.135C245.788 130.135 248.259 127.661 248.259 124.614V47.5595C248.259 44.5124 245.788 42.0386 242.744 42.0386C239.7 42.0386 237.228 44.5124 237.228 47.5595V124.614Z" fill="white"/>
</g>
<defs>
<clipPath id="clip0">
<rect width="256" height="480" fill="white"/>
</clipPath>
</defs>
</svg>
