<svg viewBox="0 0 436 478" fill="none" xmlns="http://www.w3.org/2000/svg">
<g clip-path="url(#clip0)">
<path fill-rule="evenodd" clip-rule="evenodd" d="M137.258 118.842H142.555V386.079H137.258V118.842Z" fill="#3165D4"/>
<path fill-rule="evenodd" clip-rule="evenodd" d="M185.189 255.302V250.005H137.258V255.302H185.189Z" fill="#3165D4"/>
<path fill-rule="evenodd" clip-rule="evenodd" d="M92.8213 269.885H98.1181V301.331H92.8213V269.885Z" fill="#3165D4"/>
<path fill-rule="evenodd" clip-rule="evenodd" d="M259.999 160.933H265.296V192.379H259.999V160.933Z" fill="#3165D4"/>
<path fill-rule="evenodd" clip-rule="evenodd" d="M12.5098 303.808H17.8066V323.201H12.5098V303.808Z" fill="#3165D4"/>
<path fill-rule="evenodd" clip-rule="evenodd" d="M137.258 303.979V298.681H12.2979V303.979H137.258Z" fill="#3165D4"/>
<path fill-rule="evenodd" clip-rule="evenodd" d="M326.372 162.002V156.704H140.336V162.002H326.372Z" fill="#3165D4"/>
<path fill-rule="evenodd" clip-rule="evenodd" d="M395.317 98.0751V92.7773H209.281V98.0751H395.317Z" fill="#3165D4"/>
<path fill-rule="evenodd" clip-rule="evenodd" d="M210.86 56.0759V50.7781H90.0107V56.0759H210.86Z" fill="#3165D4"/>
<path fill-rule="evenodd" clip-rule="evenodd" d="M208.213 29.9188H213.51V160.933H208.213V29.9188Z" fill="#3165D4"/>
<path fill-rule="evenodd" clip-rule="evenodd" d="M138.326 386.078V380.781H90.3945V386.078H138.326Z" fill="#3165D4"/>
<path fill-rule="evenodd" clip-rule="evenodd" d="M357.545 386.055V380.757H139.439V386.055H357.545Z" fill="#3165D4"/>
<path fill-rule="evenodd" clip-rule="evenodd" d="M138.326 187.072V181.774H90.3945V187.072H138.326Z" fill="#3165D4"/>
<path fill-rule="evenodd" clip-rule="evenodd" d="M139.906 79.5016C151.691 79.5016 161.258 89.0708 161.258 100.857C161.258 112.644 151.691 122.213 139.906 122.213C128.122 122.213 118.555 112.644 118.555 100.857C118.555 89.0708 128.122 79.5016 139.906 79.5016ZM139.906 84.9384C148.691 84.9384 155.823 92.0713 155.823 100.857C155.823 109.643 148.691 116.776 139.906 116.776C131.122 116.776 123.99 109.643 123.99 100.857C123.99 92.0713 131.122 84.9384 139.906 84.9384Z" fill="#3165D4"/>
<path fill-rule="evenodd" clip-rule="evenodd" d="M72.0091 30.9875C83.7935 30.9875 93.3608 40.5566 93.3608 52.3431C93.3608 64.1296 83.7935 73.6988 72.0091 73.6988C60.2247 73.6988 50.6572 64.1296 50.6572 52.3431C50.6572 40.5566 60.2247 30.9875 72.0091 30.9875ZM72.0091 36.4241C80.7934 36.4241 87.925 43.5572 87.925 52.3431C87.925 61.1289 80.7934 68.262 72.0091 68.262C63.2249 68.262 56.093 61.1289 56.093 52.3431C56.093 43.5572 63.2249 36.4241 72.0091 36.4241Z" fill="#3165D4"/>
<path fill-rule="evenodd" clip-rule="evenodd" d="M344.852 137.997C356.636 137.997 366.204 147.567 366.204 159.353C366.204 171.139 356.636 180.709 344.852 180.709C333.067 180.709 323.5 171.139 323.5 159.353C323.5 147.567 333.067 137.997 344.852 137.997ZM344.852 143.434C353.636 143.434 360.768 150.567 360.768 159.353C360.768 168.139 353.636 175.272 344.852 175.272C336.067 175.272 328.936 168.139 328.936 159.353C328.936 150.567 336.067 143.434 344.852 143.434Z" fill="#3165D4"/>
<path fill-rule="evenodd" clip-rule="evenodd" d="M374.114 362.05C385.898 362.05 395.465 371.619 395.465 383.406C395.465 395.192 385.898 404.762 374.114 404.762C362.329 404.762 352.762 395.192 352.762 383.406C352.762 371.619 362.329 362.05 374.114 362.05ZM374.114 367.487C382.898 367.487 390.029 374.62 390.029 383.406C390.029 392.192 382.898 399.325 374.114 399.325C365.329 399.325 358.198 392.192 358.198 383.406C358.198 374.62 365.329 367.487 374.114 367.487Z" fill="#3165D4"/>
<path fill-rule="evenodd" clip-rule="evenodd" d="M414.534 74.0707C426.318 74.0707 435.885 83.6399 435.885 95.4264C435.885 107.213 426.318 116.782 414.534 116.782C402.749 116.782 393.182 107.213 393.182 95.4264C393.182 83.6399 402.749 74.0707 414.534 74.0707ZM414.534 79.5075C423.318 79.5075 430.45 86.6405 430.45 95.4264C430.45 104.212 423.318 111.345 414.534 111.345C405.749 111.345 398.617 104.212 398.617 95.4264C398.617 86.6405 405.749 79.5075 414.534 79.5075Z" fill="#3165D4"/>
<path fill-rule="evenodd" clip-rule="evenodd" d="M262.648 191.31C274.432 191.31 284 200.879 284 212.665C284 224.452 274.432 234.021 262.648 234.021C250.863 234.021 241.296 224.452 241.296 212.665C241.296 200.879 250.863 191.31 262.648 191.31ZM262.648 196.747C271.432 196.747 278.564 203.88 278.564 212.665C278.564 221.451 271.432 228.584 262.648 228.584C253.863 228.584 246.732 221.451 246.732 212.665C246.732 203.88 253.863 196.747 262.648 196.747Z" fill="#3165D4"/>
<path fill-rule="evenodd" clip-rule="evenodd" d="M192.737 383.406H198.034V414.852H192.737V383.406Z" fill="#3165D4"/>
<path fill-rule="evenodd" clip-rule="evenodd" d="M195.384 413.782C207.169 413.782 216.736 423.352 216.736 435.138C216.736 446.924 207.169 456.494 195.384 456.494C183.6 456.494 174.032 446.924 174.032 435.138C174.032 423.352 183.6 413.782 195.384 413.782ZM195.384 419.219C204.168 419.219 211.3 426.352 211.3 435.138C211.3 443.924 204.168 451.057 195.384 451.057C186.6 451.057 179.468 443.924 179.468 435.138C179.468 426.352 186.6 419.219 195.384 419.219Z" fill="#3165D4"/>
<path fill-rule="evenodd" clip-rule="evenodd" d="M300.369 383.406H305.666V436.207H300.369V383.406Z" fill="#3165D4"/>
<path fill-rule="evenodd" clip-rule="evenodd" d="M303.017 435.139C314.801 435.139 324.369 444.708 324.369 456.494C324.369 468.281 314.801 477.85 303.017 477.85C291.232 477.85 281.665 468.281 281.665 456.494C281.665 444.708 291.232 435.139 303.017 435.139ZM303.017 440.575C311.801 440.575 318.933 447.708 318.933 456.494C318.933 465.28 311.801 472.413 303.017 472.413C294.233 472.413 287.101 465.28 287.101 456.494C287.101 447.708 294.233 440.575 303.017 440.575Z" fill="#3165D4"/>
<path fill-rule="evenodd" clip-rule="evenodd" d="M70.1117 362.074C81.8961 362.074 91.4634 371.643 91.4634 383.429C91.4634 395.216 81.8961 404.785 70.1117 404.785C58.3272 404.785 48.7598 395.216 48.7598 383.429C48.7598 371.643 58.3272 362.074 70.1117 362.074ZM70.1117 367.511C78.8959 367.511 86.0277 374.644 86.0277 383.429C86.0277 392.215 78.8959 399.348 70.1117 399.348C61.3274 399.348 54.1956 392.215 54.1956 383.429C54.1956 374.644 61.3274 367.511 70.1117 367.511Z" fill="#3165D4"/>
<path fill-rule="evenodd" clip-rule="evenodd" d="M75.9733 168.929C84.523 168.929 91.4642 175.872 91.4642 184.423C91.4642 192.974 84.523 199.917 75.9733 199.917C67.4236 199.917 60.4824 192.974 60.4824 184.423C60.4824 175.872 67.4236 168.929 75.9733 168.929ZM75.9733 172.874C82.3464 172.874 87.5207 178.049 87.5207 184.423C87.5207 190.797 82.3464 195.972 75.9733 195.972C69.6002 195.972 64.4262 190.797 64.4262 184.423C64.4262 178.049 69.6002 172.874 75.9733 172.874Z" fill="#3165D4"/>
<path fill-rule="evenodd" clip-rule="evenodd" d="M95.4686 239.967C104.018 239.967 110.96 246.909 110.96 255.461C110.96 264.012 104.018 270.954 95.4686 270.954C86.9189 270.954 79.9775 264.012 79.9775 255.461C79.9775 246.909 86.9189 239.967 95.4686 239.967ZM95.4686 243.911C101.842 243.911 107.016 249.086 107.016 255.461C107.016 261.835 101.842 267.01 95.4686 267.01C89.0955 267.01 83.9213 261.835 83.9213 255.461C83.9213 249.086 89.0955 243.911 95.4686 243.911Z" fill="#3165D4"/>
<path fill-rule="evenodd" clip-rule="evenodd" d="M339.403 63.9808H344.7V95.4262H339.403V63.9808Z" fill="#3165D4"/>
<path fill-rule="evenodd" clip-rule="evenodd" d="M342.053 34.062C350.603 34.062 357.544 41.0044 357.544 49.5557C357.544 58.1069 350.603 65.0494 342.053 65.0494C333.504 65.0494 326.562 58.1069 326.562 49.5557C326.562 41.0044 333.504 34.062 342.053 34.062ZM342.053 38.0065C348.426 38.0065 353.601 43.1815 353.601 49.5557C353.601 55.9299 348.426 61.1049 342.053 61.1049C335.68 61.1049 330.506 55.9299 330.506 49.5557C330.506 43.1815 335.68 38.0065 342.053 38.0065Z" fill="#3165D4"/>
<path fill-rule="evenodd" clip-rule="evenodd" d="M205.473 231.298C217.257 231.298 226.825 240.867 226.825 252.653C226.825 264.44 217.257 274.009 205.473 274.009C193.689 274.009 184.121 264.44 184.121 252.653C184.121 240.867 193.689 231.298 205.473 231.298ZM205.473 236.735C214.257 236.735 221.389 243.868 221.389 252.653C221.389 261.439 214.257 268.572 205.473 268.572C196.689 268.572 189.557 261.439 189.557 252.653C189.557 243.868 196.689 236.735 205.473 236.735Z" fill="#3165D4"/>
<path fill-rule="evenodd" clip-rule="evenodd" d="M247.156 317.721H252.453V383.405H247.156V317.721Z" fill="#3165D4"/>
<path fill-rule="evenodd" clip-rule="evenodd" d="M249.803 287.803C258.353 287.803 265.294 294.745 265.294 303.297C265.294 311.848 258.353 318.79 249.803 318.79C241.254 318.79 234.312 311.848 234.312 303.297C234.312 294.745 241.254 287.803 249.803 287.803ZM249.803 291.747C256.176 291.747 261.351 296.922 261.351 303.297C261.351 309.671 256.176 314.846 249.803 314.846C243.43 314.846 238.256 309.671 238.256 303.297C238.256 296.922 243.43 291.747 249.803 291.747Z" fill="#3165D4"/>
<path fill-rule="evenodd" clip-rule="evenodd" d="M210.86 0C219.41 0 226.351 6.94243 226.351 15.4937C226.351 24.0449 219.41 30.9875 210.86 30.9875C202.31 30.9875 195.369 24.0449 195.369 15.4937C195.369 6.94243 202.31 0 210.86 0ZM210.86 3.94445C217.233 3.94445 222.407 9.11945 222.407 15.4937C222.407 21.8679 217.233 27.0431 210.86 27.0431C204.487 27.0431 199.313 21.8679 199.313 15.4937C199.313 9.11945 204.487 3.94445 210.86 3.94445Z" fill="#3165D4"/>
<path d="M261.757 242.269C276.631 242.269 288.69 230.208 288.69 215.33C288.69 200.453 276.631 188.392 261.757 188.392C246.882 188.392 234.823 200.453 234.823 215.33C234.823 230.208 246.882 242.269 261.757 242.269Z" fill="white"/>
<path fill-rule="evenodd" clip-rule="evenodd" d="M262.071 187.072C277.84 187.072 290.641 199.876 290.641 215.647C290.641 231.418 277.84 244.223 262.071 244.223C246.303 244.223 233.501 231.418 233.501 215.647C233.501 199.876 246.303 187.072 262.071 187.072ZM262.071 194.347C273.825 194.347 283.368 203.891 283.368 215.647C283.368 227.403 273.825 236.948 262.071 236.948C250.317 236.948 240.774 227.403 240.774 215.647C240.774 203.891 250.317 194.347 262.071 194.347Z" fill="#4AA658"/>
<path d="M257.505 228.452L244.752 216.209L248.707 212.142L257.43 220.467L274.732 202.841L278.761 206.834L257.505 228.452Z" fill="#4AA658"/>
<path fill-rule="evenodd" clip-rule="evenodd" d="M15.1579 321.095C23.7076 321.095 30.649 328.038 30.649 336.589C30.649 345.14 23.7076 352.083 15.1579 352.083C6.60818 352.083 -0.333008 345.14 -0.333008 336.589C-0.333008 328.038 6.60818 321.095 15.1579 321.095ZM15.1579 325.04C21.531 325.04 26.7053 330.215 26.7053 336.589C26.7053 342.963 21.531 348.139 15.1579 348.139C8.78481 348.139 3.61073 342.963 3.61073 336.589C3.61073 330.215 8.78481 325.04 15.1579 325.04Z" fill="#3165D4"/>
<path fill-rule="evenodd" clip-rule="evenodd" d="M139.906 340.745V346.043H159.295V340.745H139.906Z" fill="#3165D4"/>
<path fill-rule="evenodd" clip-rule="evenodd" d="M157.191 343.393C157.191 334.842 164.133 327.899 172.682 327.899C181.232 327.899 188.173 334.842 188.173 343.393C188.173 351.944 181.232 358.887 172.682 358.887C164.133 358.887 157.191 351.944 157.191 343.393ZM161.135 343.393C161.135 337.019 166.309 331.844 172.682 331.844C179.055 331.844 184.23 337.019 184.23 343.393C184.23 349.767 179.055 354.942 172.682 354.942C166.309 354.942 161.135 349.767 161.135 343.393Z" fill="#3165D4"/>
</g>
</svg>
