<svg viewBox="0 0 1130 134" fill="none" xmlns="http://www.w3.org/2000/svg">
<path fill-rule="evenodd" clip-rule="evenodd" d="M862.321 77.434L866.831 77.1679L866.997 80.039C881.213 61.9287 932.438 46.1733 994.127 42.5355C1055.82 38.8972 1108.52 48.524 1124.74 64.8394L1124.57 61.9683L1129.08 61.7027L1129.86 75.0017C1131.15 97.2617 1072.44 118.859 998.824 123.2C925.21 127.541 864.392 112.993 863.096 90.7335L862.321 77.434Z" fill="#FFCE00"/>
<path fill-rule="evenodd" clip-rule="evenodd" d="M993.35 29.2359C1066.96 24.8946 1127.78 39.4426 1129.08 61.7026C1130.37 83.9627 1071.66 105.559 998.047 109.901C924.433 114.242 863.615 99.694 862.319 77.434C861.022 55.1739 919.736 33.5773 993.35 29.2359Z" fill="#FFE600"/>
<path fill-rule="evenodd" clip-rule="evenodd" d="M527.889 73.6834L532.401 73.8896L532.271 76.7626C548.278 60.2348 600.85 49.9121 662.581 52.7346C724.312 55.5571 775.738 70.6345 790.189 88.5556L790.318 85.6826L794.831 85.8888L794.23 99.1972C793.224 121.472 732.601 136.822 658.937 133.455C585.272 130.086 526.282 109.267 527.288 86.9919L527.889 73.6834Z" fill="#FFCE00"/>
<path fill-rule="evenodd" clip-rule="evenodd" d="M663.183 39.4262C736.848 42.7946 795.838 63.6137 794.832 85.8888C793.826 108.164 733.203 123.514 659.538 120.146C585.874 116.778 526.884 95.9587 527.89 73.6835C528.896 51.4084 589.519 36.0583 663.183 39.4262Z" fill="#FFE600"/>
<path fill-rule="evenodd" clip-rule="evenodd" d="M660.549 51.2041L665.049 51.5948L664.803 54.4602C681.466 38.602 734.412 30.4431 795.978 35.7936C857.543 41.1437 908.316 58.3165 922.03 76.8146L922.275 73.9497L926.776 74.3408L925.636 87.6134C923.73 109.829 862.536 122.681 789.069 116.297C715.601 109.912 657.503 86.6919 659.41 64.4767L660.549 51.2041Z" fill="#12AE01"/>
<path fill-rule="evenodd" clip-rule="evenodd" d="M797.113 22.5204C870.581 28.9052 928.679 52.125 926.772 74.3406C924.865 96.5559 863.672 109.409 790.204 103.024C716.737 96.6389 658.639 73.4192 660.546 51.204C662.453 28.9883 723.646 16.1356 797.113 22.5204Z" fill="#14CC00"/>
<path fill-rule="evenodd" clip-rule="evenodd" d="M101.554 74.9211L106.071 74.9089L106.078 77.7847C121.277 60.501 173.295 47.6474 235.09 47.4794C296.884 47.3119 348.97 59.8839 364.261 77.0845L364.253 74.2087L368.77 74.1964L368.806 87.5185C368.866 109.817 309.046 128.082 235.306 128.282C161.566 128.482 101.649 110.542 101.589 88.2433L101.554 74.9211Z" fill="#12AE01"/>
<path fill-rule="evenodd" clip-rule="evenodd" d="M235.054 34.1572C308.794 33.9576 368.711 51.8985 368.77 74.1963C368.83 96.4945 309.011 114.76 235.27 114.96C161.53 115.16 101.614 97.2193 101.554 74.921C101.494 52.6227 161.313 34.3572 235.054 34.1572Z" fill="#14CC00"/>
<path fill-rule="evenodd" clip-rule="evenodd" d="M214.345 42.4666L218.785 43.3022L218.26 46.129C236.394 32.0004 289.882 29.1317 350.624 40.5613C411.365 51.991 460.209 74.1151 472.044 93.8834L472.57 91.0562L477.01 91.8918L474.576 104.987C470.503 126.905 408.349 133.627 335.864 119.987C263.38 106.348 207.839 77.4802 211.912 55.5618L214.345 42.4666Z" fill="#C56700"/>
<path fill-rule="evenodd" clip-rule="evenodd" d="M353.057 27.4662C425.541 41.1055 481.082 69.974 477.01 91.8919C472.936 113.81 410.782 120.532 338.298 106.892C265.814 93.2532 210.272 64.3851 214.345 42.4667C218.418 20.5487 280.573 13.827 353.057 27.4662Z" fill="#FF8500"/>
<path fill-rule="evenodd" clip-rule="evenodd" d="M823.712 29.5548L828.209 29.9808L827.942 32.8444C844.725 17.1163 897.733 9.37077 959.256 15.2012C1020.78 21.0316 1071.42 38.5998 1084.99 57.2045L1085.26 54.3415L1089.75 54.7675L1088.51 68.0312C1086.43 90.2308 1025.14 102.606 951.727 95.6479C878.311 88.6903 820.394 65.018 822.471 42.8184L823.712 29.5548Z" fill="#C56700"/>
<path fill-rule="evenodd" clip-rule="evenodd" d="M960.498 1.93745C1033.91 8.89507 1091.83 32.5673 1089.75 54.7674C1087.68 76.9676 1026.38 89.3423 952.969 82.3846C879.553 75.427 821.636 51.7548 823.713 29.5547C825.791 7.35454 887.082 -5.02017 960.498 1.93745Z" fill="#FF8500"/>
<path fill-rule="evenodd" clip-rule="evenodd" d="M452.826 76.304L457.337 76.0709L457.484 78.943C471.829 60.9365 523.166 45.5538 584.879 42.3647C646.592 39.1756 699.224 49.1855 715.328 65.6185L715.181 62.7464L719.692 62.5133L720.371 75.818C721.507 98.0865 662.641 119.256 588.997 123.061C515.353 126.867 454.641 111.877 453.505 89.6087L452.826 76.304Z" fill="#FFCE00"/>
<path fill-rule="evenodd" clip-rule="evenodd" d="M584.2 29.0605C657.844 25.2547 718.556 40.2443 719.693 62.5133C720.829 84.7823 661.962 105.951 588.319 109.757C514.675 113.563 453.963 98.5725 452.827 76.304C451.69 54.035 510.557 32.8658 584.2 29.0605Z" fill="#FFE600"/>
<path fill-rule="evenodd" clip-rule="evenodd" d="M0.331055 91.575L4.72727 90.5313L5.38323 93.3303C16.2852 73.026 64.0448 48.6228 124.188 34.341C184.331 20.0596 237.893 20.4026 256.666 33.6611L256.009 30.8617L260.405 29.818L263.446 42.7839C268.535 64.4863 214.399 95.9418 142.629 112.984C70.8599 130.026 8.46049 126.243 3.37127 104.541L0.331055 91.575Z" fill="#FFCE00"/>
<path fill-rule="evenodd" clip-rule="evenodd" d="M121.148 21.375C192.917 4.3325 255.317 8.11564 260.405 29.818C265.495 51.5198 211.359 82.9754 139.589 100.018C67.8196 117.06 5.42011 113.277 0.331363 91.575C-4.75786 69.8731 49.3781 38.4176 121.148 21.375Z" fill="#FFE600"/>
</svg>
