<svg  viewBox="0 0 18 22" fill="none" xmlns="http://www.w3.org/2000/svg">
<path d="M16.9997 3.33325H4.33301C4.06779 3.33325 3.81344 3.43861 3.6259 3.62615C3.43836 3.81368 3.33301 4.06804 3.33301 4.33325V20.3333C3.33301 20.5985 3.43836 20.8528 3.6259 21.0404C3.81344 21.2279 4.06779 21.3333 4.33301 21.3333H16.9997C17.2649 21.3333 17.5192 21.2279 17.7068 21.0404C17.8943 20.8528 17.9997 20.5985 17.9997 20.3333V4.33325C17.9997 4.06804 17.8943 3.81368 17.7068 3.62615C17.5192 3.43861 17.2649 3.33325 16.9997 3.33325ZM16.6663 19.9999H4.66634V4.66659H16.6663V19.9999Z" fill="#272727"/>
<path d="M14.6667 1C14.6667 0.734784 14.5613 0.48043 14.3738 0.292893C14.1862 0.105357 13.9319 0 13.6667 0H1C0.734783 0 0.480429 0.105357 0.292893 0.292893C0.105357 0.48043 0 0.734784 0 1V17C0 17.2652 0.105357 17.5196 0.292893 17.7071C0.480429 17.8946 0.734783 18 1 18H1.33333V1.33333H14.6667V1Z" fill="#272727"/>
</svg>
