<svg viewBox="0 0 1006 660" fill="none" xmlns="http://www.w3.org/2000/svg">
<g >
<path fill-rule="evenodd" clip-rule="evenodd" d="M972.469 625.068L1010.66 559.751C1010.66 559.751 751.282 570.518 463.312 402.164C175.339 233.81 42.1712 -6.44287 42.1712 -6.44287L3.98438 58.8743C3.98438 58.8743 151.256 307.372 423.706 466.651C696.156 625.93 972.469 625.068 972.469 625.068Z" fill="#4CA3FF"/>
<path fill-rule="evenodd" clip-rule="evenodd" d="M968.102 631.443L1006.29 566.126C1006.29 566.126 746.915 576.892 458.944 408.538C170.971 240.184 37.804 -0.0683594 37.804 -0.0683594L-0.382812 65.2488C-0.382812 65.2488 146.889 313.747 419.339 473.026C691.789 632.305 968.102 631.443 968.102 631.443Z" fill="#0278FA"/>
</g>

</svg>
