<svg viewBox="0 0 1006 660" fill="none" xmlns="http://www.w3.org/2000/svg">
<g clip-path="url(#clip0)">
<path fill-rule="evenodd" clip-rule="evenodd" d="M33.5313 34.9321L-4.6554 100.249C-4.6554 100.249 254.718 89.4825 542.688 257.836C830.661 426.19 963.829 666.443 963.829 666.443L1002.02 601.126C1002.02 601.126 854.744 352.628 582.294 193.349C309.844 34.0698 33.5313 34.9321 33.5313 34.9321Z" fill="#4CA3FF"/>
<path fill-rule="evenodd" clip-rule="evenodd" d="M37.8984 28.5571L-0.288452 93.8743C-0.288452 93.8743 259.085 83.108 547.056 251.462C835.029 419.816 968.196 660.068 968.196 660.068L1006.38 594.751C1006.38 594.751 859.111 346.253 586.661 186.974C314.211 27.6953 37.8984 28.5571 37.8984 28.5571Z" fill="#0278FA"/>
</g>
<defs>
<clipPath id="clip0">
<rect width="1006" height="660" fill="white" transform="translate(1006 660) rotate(180)"/>
</clipPath>
</defs>
</svg>
