<svg viewBox="0 0 310 284" fill="none" xmlns="http://www.w3.org/2000/svg">
<path fill-rule="evenodd" clip-rule="evenodd" d="M184.455 228.464C217.476 232.268 239.942 239.736 239.942 248.318C239.942 260.753 192.767 270.85 134.661 270.85C76.5548 270.85 29.3799 260.753 29.3799 248.318C29.3799 240.166 49.6503 233.019 79.9841 229.063C80.4249 230.484 80.9227 231.886 81.4764 233.267C55.8141 236.515 38.9029 242.046 38.9029 248.318C38.9029 257.382 74.2242 264.898 120.252 266.214C127.875 267.928 135.778 267.972 143.419 266.343C192.175 265.506 230.42 257.749 230.42 248.318C230.42 241.659 211.359 235.836 183 232.692C183.542 231.303 184.027 229.892 184.455 228.464Z" fill="#6697FF"/>
<path fill-rule="evenodd" clip-rule="evenodd" d="M186.71 214.953C235.219 220.369 269.323 233.125 269.323 247.982C269.323 267.744 208.983 283.789 134.661 283.789C60.3399 283.789 0 267.744 0 247.982C0 233.669 31.6549 221.305 77.3593 215.575C77.616 217.967 77.9472 220.261 78.3586 222.435C39.0572 227.226 12.1801 236.873 12.1801 247.982C12.1801 263.858 67.0623 276.747 134.661 276.747C202.261 276.747 257.143 263.858 257.143 247.982C257.143 236.411 227.984 226.426 185.994 221.863C186.379 219.577 186.618 217.269 186.71 214.953Z" fill="#DDE7FD"/>
<path fill-rule="evenodd" clip-rule="evenodd" d="M101.068 108.937C95.3285 125.251 79.0934 194.771 88.4121 225.933C95.64 250.105 121.097 263.851 145.226 256.61C169.354 249.369 183.076 223.866 175.847 199.694C166.529 168.531 104.093 133.258 101.068 108.937Z" fill="#3165D4"/>
<path fill-rule="evenodd" clip-rule="evenodd" d="M105.591 124.062C100.622 138.187 86.5668 198.373 94.6343 225.353C100.892 246.28 122.932 258.18 143.821 251.911C164.711 245.642 176.59 223.562 170.332 202.636C162.264 175.656 108.21 145.118 105.591 124.062Z" fill="url(#paint0_linear)"/>
<path fill-rule="evenodd" clip-rule="evenodd" d="M109.923 138.549C105.712 150.519 93.8 201.527 100.637 224.392C105.941 242.127 124.619 252.213 142.323 246.9C160.027 241.587 170.094 222.875 164.791 205.139C157.953 182.274 112.143 156.393 109.923 138.549Z" fill="url(#paint1_linear)"/>
<path fill-rule="evenodd" clip-rule="evenodd" d="M130.406 40.6125C141.963 41.9441 149.826 44.5576 149.826 47.561C149.826 51.9135 133.315 55.4471 112.979 55.4471C92.643 55.4471 76.1328 51.9135 76.1328 47.561C76.1328 44.7082 83.2269 42.2072 93.8434 40.8225C93.9975 41.3198 94.1717 41.8106 94.3654 42.2937C85.3842 43.4304 79.4655 45.3662 79.4655 47.561C79.4655 50.7335 91.8274 53.3641 107.936 53.8246C110.604 54.4244 113.37 54.4399 116.045 53.8699C133.108 53.5766 146.493 50.8622 146.493 47.561C146.493 45.2309 139.822 43.1926 129.897 42.0925C130.087 41.6063 130.256 41.1126 130.406 40.6125Z" fill="#6697FF"/>
<path fill-rule="evenodd" clip-rule="evenodd" d="M131.195 35.8843C148.172 37.7798 160.108 42.2441 160.108 47.4439C160.108 54.3602 138.99 59.9755 112.979 59.9755C86.9673 59.9755 65.8496 54.3602 65.8496 47.4439C65.8496 42.4344 76.9282 38.1075 92.9241 36.102C93.0139 36.9394 93.1299 37.7417 93.2737 38.5028C79.5189 40.1796 70.1126 43.5557 70.1126 47.4439C70.1126 52.9999 89.3201 57.5108 112.979 57.5108C136.637 57.5108 155.845 52.9999 155.845 47.4439C155.845 43.3942 145.64 39.8996 130.944 38.3025C131.078 37.507 131.163 36.6994 131.195 35.8843Z" fill="#DDE7FD"/>
<path fill-rule="evenodd" clip-rule="evenodd" d="M96.6914 0C101.116 2.55538 120.482 21.4681 124.381 30.2621C127.404 37.0831 124.332 45.0804 117.523 48.1097C110.714 51.1391 102.228 48.2628 99.7069 41.2397C96.319 31.8027 101.945 16.9113 96.6914 0Z" fill="#3165D4"/>
<path fill-rule="evenodd" clip-rule="evenodd" d="M100.94 10.7058C104.771 12.9181 119.497 23.7186 122.872 31.3319C125.49 37.2375 122.829 44.1613 116.935 46.7838C111.04 49.4064 104.128 46.7413 101.51 40.8361C98.1351 33.2224 104.4 15.9381 100.94 10.7058Z" fill="url(#paint2_linear)"/>
<path fill-rule="evenodd" clip-rule="evenodd" d="M259.417 109.506C279.013 111.764 292.346 116.196 292.346 121.289C292.346 128.668 264.35 134.66 229.867 134.66C195.384 134.66 167.388 128.668 167.388 121.289C167.388 116.451 179.417 112.21 197.419 109.862C197.683 110.711 197.978 111.543 198.304 112.357C183.075 114.284 173.039 117.567 173.039 121.289C173.039 126.667 194.001 131.128 221.316 131.909C225.84 132.926 230.529 132.952 235.064 131.986C263.998 131.488 286.694 126.885 286.694 121.289C286.694 117.337 275.383 113.881 258.553 112.016C258.875 111.191 259.163 110.354 259.417 109.506Z" fill="#6697FF"/>
<path fill-rule="evenodd" clip-rule="evenodd" d="M260.755 101.488C289.543 104.703 309.782 112.273 309.782 121.09C309.782 132.817 273.973 142.339 229.867 142.339C185.761 142.339 149.952 132.817 149.952 121.09C149.952 112.595 168.738 105.258 195.861 101.858C196.014 103.277 196.21 104.638 196.454 105.929C173.131 108.772 157.181 114.497 157.181 121.09C157.181 130.511 189.75 138.16 229.867 138.16C269.984 138.16 302.553 130.511 302.553 121.09C302.553 114.222 285.249 108.297 260.33 105.589C260.559 104.233 260.701 102.863 260.755 101.488Z" fill="#DDE7FD"/>
<path fill-rule="evenodd" clip-rule="evenodd" d="M202.233 40.9438C209.736 45.2766 233.518 68.6025 249.2 91.9551C256.251 102.456 249.117 117.082 237.571 122.219C226.026 127.355 212.489 122.136 207.362 110.569C200.751 95.6577 209.009 51.1919 202.233 40.9438Z" fill="#3165D4"/>
<path fill-rule="evenodd" clip-rule="evenodd" d="M209.453 58.7947C215.949 62.5457 237.994 82.6119 246.641 93.7695C252.052 100.751 246.569 115.523 236.574 119.97C226.578 124.417 214.859 119.898 210.42 109.885C204.697 96.975 215.319 67.6668 209.453 58.7947Z" fill="url(#paint3_linear)"/>
<defs>
<linearGradient id="paint0_linear" x1="142.671" y1="248.083" x2="129.042" y2="202.666" gradientUnits="userSpaceOnUse">
<stop stop-color="white" stop-opacity="0.5"/>
<stop offset="1" stop-color="white" stop-opacity="0"/>
</linearGradient>
<linearGradient id="paint1_linear" x1="134.84" y1="257.404" x2="141.156" y2="230.774" gradientUnits="userSpaceOnUse">
<stop stop-color="white"/>
<stop offset="1" stop-color="white" stop-opacity="0"/>
</linearGradient>
<linearGradient id="paint2_linear" x1="116.448" y1="45.6877" x2="110.748" y2="32.8752" gradientUnits="userSpaceOnUse">
<stop stop-color="white" stop-opacity="0.5"/>
<stop offset="1" stop-color="white" stop-opacity="0"/>
</linearGradient>
<linearGradient id="paint3_linear" x1="235.748" y1="118.119" x2="226.082" y2="96.3932" gradientUnits="userSpaceOnUse">
<stop stop-color="white" stop-opacity="0.5"/>
<stop offset="1" stop-color="white" stop-opacity="0"/>
</linearGradient>
</defs>
</svg>
