<svg viewBox="0 0 431 437" fill="none" xmlns="http://www.w3.org/2000/svg">
<path fill-rule="evenodd" clip-rule="evenodd" d="M209.014 77.9937C289.389 77.9937 354.644 143.613 354.644 224.438C354.644 305.262 289.389 370.882 209.014 370.882C128.638 370.882 63.3828 305.262 63.3828 224.438C63.3828 143.613 128.638 77.9937 209.014 77.9937ZM253.344 329.405L244.468 329.577L236.259 338.149L231.023 345.795L224.927 353.772L218.561 349.745L221.546 341.499V327.461L227.895 319.142L230.502 307.956L234.311 298.956L233.174 286.885L221.546 281.22L206.124 258.672L207.324 247.625L215.966 238.746L215.009 230.049L209.039 227.903L205.532 230.569L194.9 225.758L188.715 216.97L178.128 215.308L169.275 208.327L161.758 211.504L143.585 202.044L141.824 192.97L128.2 173.469L126.299 177.427L133.057 189.311L132.931 193.6L129.312 191.222L124.017 182.225L122.511 173.084L119.943 167.956L115.184 165.673L114.284 152.168L120.733 137.887L123.859 132.937L122.012 124.881L121.817 114.598L116.315 113.713L142.114 95.4455L152.705 94.6793L160.997 95.9466L169.623 96.8445L164.623 89.0887L170.933 86.7779L178.636 94.0788L185.021 94.4602L187.513 89.6622L193.353 91.7909L196.843 96.1806L205.731 97.9095L207.486 103.442L204.464 106.49L194.74 102.792L188.472 106.109L183.596 110.411L185.462 114.772L196.74 118.812L203.978 122.083L206.28 125.743L210.756 127.165L211.935 119.52L214.853 114.55L213.045 109.698L214.804 104.07L227.025 107.363L228.628 111.995L234.523 112.666L235.221 109.974L240.742 111.146L242.187 114.479L247.023 119.228L253.135 120.666L258.584 124.406L260.075 131.177L265.918 132.973L266.095 137.702L256.17 137.698L254.884 130.125L249.484 130.935L243.453 132.045L243.174 137.129L248.122 139.167L252.922 138.494L252.695 141.281L247.323 143.505L242.969 144.898L238.021 142.581L231.423 146.952L230.088 150.76L224.772 151.514L221.546 157.216L217.962 158.902L218.548 165.181L211.909 168.201L204.754 173.181L207.926 179.052L208.519 185.88L206.911 189.497L203.138 185.603L201.1 179.823L199.878 175.777L191.572 175.987L184.916 175.521L182.649 179.127L178.321 178.653L173.398 177.296L169.211 178.965L164.654 182.34L162.819 188.916L163.594 197.45L168.106 202.47L174.15 204.37L178.705 201.362L180.831 196.695L188.71 195.784L189.068 201.608L185.542 207.775L188.519 209.878L197.938 210.211L199.1 216.415L200.053 221.962L203.154 224.747L211.1 224.222L216.653 226.807L221.546 222.993L226.335 220.562L230.686 217.37L233.972 219.03L240.26 219.546L241.338 222.87L251.489 222.465L258.281 224.006L262.906 227.827L269.812 232.922L278.862 233.236L282.897 238.039L286.175 245.57L292.034 248.324L299.023 252.276L308.486 252.788L310.337 256.641L313.655 258.111L313.762 265.479L310.236 269.709L305.295 275.745L302.843 279.511L301.664 286.074L297.818 291.406L294.293 296.584L288.055 296.495L283.786 299.844L279.575 303.575L277.146 308.062L272.246 312.882L266.243 318.421L263.261 321.471L256.251 322.034L255.109 325.52L253.344 329.405ZM225.935 199.305L233.136 199.948L237.134 203.05L233.69 204.509L225.375 204.349L223.854 201.961L225.935 199.305ZM197.582 192.157L206.308 191.95L210.313 194.337L215.204 196.046L219.151 198.139L216.849 201.393L211.541 200.09L205.509 196.413L197.277 195.629L197.582 192.157Z" fill="#0278FA"/>
<path fill-rule="evenodd" clip-rule="evenodd" d="M91.2142 361.216L43.8084 345.326L75.4125 313.545L91.2142 361.216ZM54.787 334.286C-21.8304 257.24 -16.3304 137.669 60.287 60.6239C136.904 -16.4216 255.811 -21.9524 332.428 55.0931L321.918 65.6626C251.102 -5.5499 141.614 -0.0185565 70.7977 71.1933C-0.0184534 142.406 -5.51906 252.505 65.2977 323.716L54.787 334.286ZM340.565 77.7776L387.971 93.6677L356.367 125.448L340.565 77.7776ZM376.993 104.708C453.61 181.753 445.567 296.366 368.95 373.412C292.332 450.457 175.968 460.946 99.3509 383.9L109.862 373.331C180.678 444.543 287.623 434.054 358.439 362.842C429.255 291.63 437.298 186.489 366.482 115.277L376.993 104.708Z" fill="#4AA658"/>
</svg>
