<svg  viewBox="0 0 229 229" fill="none" xmlns="http://www.w3.org/2000/svg">
<path fill-rule="evenodd" clip-rule="evenodd" d="M114.037 0C176.976 0 228.075 51.2902 228.075 114.465C228.075 177.641 176.976 228.931 114.037 228.931C51.0984 228.931 0 177.641 0 114.465C0 51.2902 51.0984 0 114.037 0ZM148.75 196.511L141.8 196.646L135.372 203.346L131.272 209.322L126.499 215.557L121.513 212.409L123.851 205.964V194.992L128.823 188.489L130.864 179.746L133.847 172.712L132.956 163.276L123.851 158.848L111.775 141.224L112.714 132.589L119.481 125.649L118.732 118.851L114.057 117.174L111.311 119.258L102.986 115.497L98.1418 108.629L89.852 107.33L82.9193 101.873L77.0333 104.356L62.8027 96.9622L61.4235 89.869L50.7548 74.627L49.2673 77.7205L54.5587 87.0095L54.4602 90.3618L51.6258 88.5027L47.4801 81.4711L46.3002 74.3255L44.2901 70.3175L40.5635 68.5331L39.8587 57.9769L44.9078 46.8152L47.3559 42.9457L45.9098 36.6488L45.7569 28.6115L41.4494 27.92L61.6507 13.6411L69.9446 13.0422L76.4373 14.0329L83.1915 14.7347L79.2766 8.67271L84.2185 6.86634L90.2497 12.5729L95.2492 12.8709L97.201 9.12089L101.774 10.7848L104.507 14.216L111.467 15.5673L112.841 19.8919L110.475 22.2744L102.86 19.3833L97.9516 21.9762L94.1337 25.3388L95.5952 28.7475L104.426 31.9049L110.094 34.4622L111.896 37.3225L115.401 38.4341L116.325 32.4584L118.609 28.5739L117.194 24.7818L118.572 20.3823L128.141 22.9564L129.397 26.5765L134.012 27.1012L134.559 24.9968L138.882 25.9138L140.014 28.5185L143.801 32.2306L148.587 33.3543L152.854 36.2775L154.021 41.5702L158.597 42.9738L158.735 46.6701L150.964 46.6672L149.957 40.7482L145.728 41.3809L141.005 42.2488L140.787 46.222L144.661 47.8152L148.42 47.2895L148.242 49.4682L144.035 51.206L140.627 52.295L136.752 50.4838L131.585 53.9004L130.54 56.8769L126.377 57.466L123.851 61.923L121.045 63.2411L121.503 68.1481L116.305 70.5095L110.702 74.4019L113.186 78.9907L113.65 84.3278L112.39 87.1548L109.437 84.1114L107.841 79.5931L106.883 76.4307L100.379 76.5948L95.1676 76.2307L93.3923 79.0498L90.003 78.6791L86.1483 77.6185L82.8692 78.9221L79.3008 81.5604L77.8642 86.7003L78.4712 93.3714L82.0042 97.2945L86.7372 98.7805L90.3038 96.429L91.9688 92.7813L98.1384 92.0687L98.419 96.6214L95.6575 101.441L97.9892 103.085L105.364 103.346L106.275 108.195L107.021 112.53L109.449 114.707L115.672 114.297L120.02 116.317L123.851 113.336L127.601 111.436L131.008 108.942L133.581 110.239L138.505 110.642L139.349 113.24L147.298 112.923L152.616 114.128L156.238 117.115L161.646 121.097L168.733 121.343L171.892 125.097L174.459 130.983L179.047 133.136L184.52 136.225L191.93 136.625L193.379 139.637L195.978 140.786L196.061 146.545L193.301 149.851L189.431 154.569L187.511 157.512L186.588 162.642L183.576 166.81L180.816 170.857L175.931 170.788L172.589 173.405L169.291 176.322L167.389 179.829L163.552 183.597L158.851 187.926L156.516 190.31L151.027 190.749L150.132 193.474L148.75 196.511ZM127.288 94.8215L132.927 95.3239L136.057 97.7487L133.36 98.8889L126.849 98.7634L125.658 96.897L127.288 94.8215ZM105.085 89.2338L111.919 89.072L115.055 90.9381L118.885 92.2738L121.975 93.9098L120.173 96.4534L116.017 95.4351L111.293 92.5604L104.847 91.9475L105.085 89.2338Z" fill="#0278FA"/>
</svg>
