<svg  viewBox="0 0 617 353" fill="none" xmlns="http://www.w3.org/2000/svg">
<g opacity="0.4">
<g clip-path="url(#clip0_2_7)">
<path fill-rule="evenodd" clip-rule="evenodd" d="M306.657 0C475.906 0 613.314 137.423 613.314 306.691C613.314 475.958 475.906 613.381 306.657 613.381C137.408 613.381 0 475.958 0 306.691C0 137.423 137.408 0 306.657 0ZM400.003 526.517L381.314 526.878L364.028 544.831L353.002 560.843L340.167 577.549L326.76 569.115L333.045 551.846V522.447L346.416 505.024L351.905 481.598L359.927 462.752L357.531 437.471L333.045 425.607L300.572 378.385L303.099 355.251L321.295 336.655L319.28 318.442L306.711 313.948L299.327 319.532L276.939 309.456L263.912 291.052L241.62 287.571L222.978 272.95L207.15 279.604L168.882 259.794L165.174 240.789L136.484 199.95L132.484 208.239L146.713 233.127L146.448 242.109L138.827 237.128L127.678 218.288L124.506 199.142L119.1 188.404L109.079 183.623L107.184 155.339L120.761 125.433L127.344 115.066L123.456 98.1943L123.045 76.6597L111.461 74.807L165.784 36.5491L188.087 34.9443L205.547 37.5988L223.71 39.4792L213.182 23.237L226.471 18.3972L242.69 33.6869L256.134 34.4855L261.382 24.4379L273.679 28.896L281.028 38.0893L299.745 41.71L303.439 53.2969L297.078 59.6805L276.601 51.9342L263.401 58.8814L253.134 67.891L257.064 77.024L280.811 85.4837L296.052 92.3355L300.899 99.9993L310.325 102.978L312.808 86.9668L318.951 76.5589L315.146 66.3985L318.851 54.611L344.584 61.5078L347.959 71.2072L360.371 72.6131L361.842 66.9746L373.467 69.4316L376.51 76.4104L386.694 86.3564L399.563 89.3671L411.039 97.1995L414.177 111.38L426.482 115.141L426.853 125.045L405.956 125.037L403.248 109.178L391.877 110.873L379.176 113.199L378.59 123.844L389.007 128.113L399.116 126.704L398.637 132.542L387.324 137.198L378.158 140.116L367.739 135.263L353.844 144.417L351.033 152.392L339.839 153.97L333.045 165.912L325.501 169.444L326.733 182.591L312.755 188.918L297.689 199.347L304.367 211.642L305.615 225.942L302.228 233.516L294.285 225.362L289.993 213.256L287.419 204.783L269.929 205.223L255.914 204.247L251.141 211.8L242.026 210.807L231.661 207.966L222.843 211.458L213.247 218.527L209.384 232.299L211.016 250.173L220.517 260.684L233.244 264.666L242.835 258.365L247.312 248.592L263.903 246.682L264.658 258.881L257.232 271.795L263.502 276.199L283.334 276.897L285.782 289.89L287.788 301.506L294.319 307.338L311.051 306.239L322.744 311.653L333.045 303.665L343.131 298.575L352.293 291.891L359.211 295.366L372.452 296.448L374.722 303.407L396.097 302.559L410.399 305.786L420.14 313.789L434.68 324.46L453.738 325.118L462.234 335.176L469.137 350.947L481.473 356.715L496.19 364.992L516.117 366.064L520.015 374.133L527.002 377.212L527.227 392.641L519.803 401.501L509.397 414.14L504.235 422.028L501.751 435.772L493.652 446.939L486.23 457.784L473.096 457.597L464.107 464.609L455.24 472.425L450.124 481.821L439.806 491.916L427.165 503.516L420.886 509.904L406.126 511.081L403.72 518.382L400.003 526.517ZM342.289 254.058L357.452 255.404L365.87 261.901L358.618 264.956L341.109 264.62L337.906 259.619L342.289 254.058ZM282.584 239.087L300.96 238.653L309.394 243.653L319.693 247.232L328.003 251.615L323.156 258.431L311.98 255.702L299.278 248L281.942 246.358L282.584 239.087Z" fill="#0278FA"/>
</g>
</g>
<defs>
<clipPath id="clip0_2_7">
<path d="M0 0H617V341C617 347.627 611.627 353 605 353H0V0Z" fill="white"/>
</clipPath>
</defs>
</svg>
