<svg viewBox="0 0 623 168" fill="none" xmlns="http://www.w3.org/2000/svg">
<g >
<path d="M536.555 31.9306C538.666 31.9306 540.377 30.2188 540.377 28.1072C540.377 25.9955 538.666 24.2837 536.555 24.2837C534.445 24.2837 532.733 25.9955 532.733 28.1072C532.733 30.2188 534.445 31.9306 536.555 31.9306Z" fill="#3165D4"/>
<path d="M584.014 128.58C586.125 128.58 587.836 126.868 587.836 124.756C587.836 122.644 586.125 120.933 584.014 120.933C581.904 120.933 580.192 122.644 580.192 124.756C580.192 126.868 581.904 128.58 584.014 128.58Z" fill="#3165D4"/>
<path d="M530.031 105.758C532.142 105.758 533.853 104.046 533.853 101.935C533.853 99.8229 532.142 98.1111 530.031 98.1111C527.92 98.1111 526.209 99.8229 526.209 101.935C526.209 104.046 527.92 105.758 530.031 105.758Z" fill="#3165D4"/>
<path d="M542.721 68.9362C544.832 68.9362 546.543 67.2244 546.543 65.1128C546.543 63.0011 544.832 61.2893 542.721 61.2893C540.611 61.2893 538.899 63.0011 538.899 65.1128C538.899 67.2244 540.611 68.9362 542.721 68.9362Z" fill="#3165D4"/>
<path d="M619.675 98.1118C621.786 98.1118 623.497 96.3999 623.497 94.2883C623.497 92.1767 621.786 90.4648 619.675 90.4648C617.565 90.4648 615.854 92.1767 615.854 94.2883C615.854 96.3999 617.565 98.1118 619.675 98.1118Z" fill="#3165D4"/>
<path d="M379.096 120.445C381.207 120.445 382.918 118.733 382.918 116.621C382.918 114.509 381.207 112.798 379.096 112.798C376.986 112.798 375.274 114.509 375.274 116.621C375.274 118.733 376.986 120.445 379.096 120.445Z" fill="#3165D4"/>
<path d="M282.49 67.8757C284.601 67.8757 286.312 66.1639 286.312 64.0522C286.312 61.9406 284.601 60.2288 282.49 60.2288C280.379 60.2288 278.668 61.9406 278.668 64.0522C278.668 66.1639 280.379 67.8757 282.49 67.8757Z" fill="#3165D4"/>
<path d="M151.004 79.0063C153.114 79.0063 154.825 77.2945 154.825 75.1828C154.825 73.0712 153.114 71.3594 151.004 71.3594C148.893 71.3594 147.182 73.0712 147.182 75.1828C147.182 77.2945 148.893 79.0063 151.004 79.0063Z" fill="#3165D4"/>
<path d="M261.704 91.7368C263.815 91.7368 265.526 90.0249 265.526 87.9133C265.526 85.8017 263.815 84.0898 261.704 84.0898C259.593 84.0898 257.882 85.8017 257.882 87.9133C257.882 90.0249 259.593 91.7368 261.704 91.7368Z" fill="#3165D4"/>
<path d="M435.391 82.5087C437.502 82.5087 439.213 80.7969 439.213 78.6853C439.213 76.5736 437.502 74.8618 435.391 74.8618C433.28 74.8618 431.569 76.5736 431.569 78.6853C431.569 80.7969 433.28 82.5087 435.391 82.5087Z" fill="#3165D4"/>
<path d="M306.876 112.798C308.986 112.798 310.698 111.086 310.698 108.975C310.698 106.863 308.986 105.151 306.876 105.151C304.765 105.151 303.054 106.863 303.054 108.975C303.054 111.086 304.765 112.798 306.876 112.798Z" fill="#3165D4"/>
<path d="M297.373 143.267C299.484 143.267 301.195 141.555 301.195 139.443C301.195 137.332 299.484 135.62 297.373 135.62C295.262 135.62 293.551 137.332 293.551 139.443C293.551 141.555 295.262 143.267 297.373 143.267Z" fill="#3165D4"/>
<path d="M36.2282 154.023C38.339 154.023 40.0501 152.311 40.0501 150.199C40.0501 148.088 38.339 146.376 36.2282 146.376C34.1174 146.376 32.4062 148.088 32.4062 150.199C32.4062 152.311 34.1174 154.023 36.2282 154.023Z" fill="#3165D4"/>
<path d="M176.595 164.567C178.706 164.567 180.417 162.855 180.417 160.743C180.417 158.632 178.706 156.92 176.595 156.92C174.485 156.92 172.773 158.632 172.773 160.743C172.773 162.855 174.485 164.567 176.595 164.567Z" fill="#3165D4"/>
<path d="M343.487 127.431C345.598 127.431 347.309 125.72 347.309 123.608C347.309 121.496 345.598 119.784 343.487 119.784C341.376 119.784 339.665 121.496 339.665 123.608C339.665 125.72 341.376 127.431 343.487 127.431Z" fill="#3165D4"/>
<path d="M358.048 166.031C360.159 166.031 361.87 164.319 361.87 162.207C361.87 160.096 360.159 158.384 358.048 158.384C355.938 158.384 354.227 160.096 354.227 162.207C354.227 164.319 355.938 166.031 358.048 166.031Z" fill="#3165D4"/>
<path d="M416.193 150.199C418.304 150.199 420.015 148.487 420.015 146.376C420.015 144.264 418.304 142.552 416.193 142.552C414.082 142.552 412.371 144.264 412.371 146.376C412.371 148.487 414.082 150.199 416.193 150.199Z" fill="#3165D4"/>
<path d="M507.468 135.047C509.579 135.047 511.29 133.335 511.29 131.224C511.29 129.112 509.579 127.4 507.468 127.4C505.358 127.4 503.646 129.112 503.646 131.224C503.646 133.335 505.358 135.047 507.468 135.047Z" fill="#3165D4"/>
<path d="M482.971 168.39C485.082 168.39 486.793 166.678 486.793 164.567C486.793 162.455 485.082 160.743 482.971 160.743C480.861 160.743 479.149 162.455 479.149 164.567C479.149 166.678 480.861 168.39 482.971 168.39Z" fill="#3165D4"/>
<path d="M230.593 142.473C232.704 142.473 234.415 140.761 234.415 138.649C234.415 136.538 232.704 134.826 230.593 134.826C228.483 134.826 226.771 136.538 226.771 138.649C226.771 140.761 228.483 142.473 230.593 142.473Z" fill="#3165D4"/>
<path d="M91.6383 52.4431C93.7491 52.4431 95.4602 50.7312 95.4602 48.6196C95.4602 46.508 93.7491 44.7961 91.6383 44.7961C89.5275 44.7961 87.8164 46.508 87.8164 48.6196C87.8164 50.7312 89.5275 52.4431 91.6383 52.4431Z" fill="#3165D4"/>
<path d="M22.3463 81.3166C24.4571 81.3166 26.1682 79.6048 26.1682 77.4931C26.1682 75.3815 24.4571 73.6697 22.3463 73.6697C20.2355 73.6697 18.5244 75.3815 18.5244 77.4931C18.5244 79.6048 20.2355 81.3166 22.3463 81.3166Z" fill="#3165D4"/>
<path d="M49.5358 52.322C51.6466 52.322 53.3577 50.6101 53.3577 48.4985C53.3577 46.3869 51.6466 44.675 49.5358 44.675C47.425 44.675 45.7139 46.3869 45.7139 48.4985C45.7139 50.6101 47.425 52.322 49.5358 52.322Z" fill="#3165D4"/>
<path d="M83.9948 82.829C86.1056 82.829 87.8167 81.1172 87.8167 79.0056C87.8167 76.8939 86.1056 75.1821 83.9948 75.1821C81.884 75.1821 80.1729 76.8939 80.1729 79.0056C80.1729 81.1172 81.884 82.829 83.9948 82.829Z" fill="#3165D4"/>
<path d="M53.358 105.205C55.4688 105.205 57.18 103.493 57.18 101.381C57.18 99.2694 55.4688 97.5576 53.358 97.5576C51.2473 97.5576 49.5361 99.2694 49.5361 101.381C49.5361 103.493 51.2473 105.205 53.358 105.205Z" fill="#3165D4"/>
<path d="M91.6383 139.443C93.7491 139.443 95.4602 137.731 95.4602 135.62C95.4602 133.508 93.7491 131.796 91.6383 131.796C89.5275 131.796 87.8164 133.508 87.8164 135.62C87.8164 137.731 89.5275 139.443 91.6383 139.443Z" fill="#3165D4"/>
<path d="M159.571 123.278C161.682 123.278 163.393 121.566 163.393 119.455C163.393 117.343 161.682 115.631 159.571 115.631C157.46 115.631 155.749 117.343 155.749 119.455C155.749 121.566 157.46 123.278 159.571 123.278Z" fill="#3165D4"/>
<path d="M167.17 39.7739C169.28 39.7739 170.991 38.0621 170.991 35.9504C170.991 33.8388 169.28 32.127 167.17 32.127C165.059 32.127 163.348 33.8388 163.348 35.9504C163.348 38.0621 165.059 39.7739 167.17 39.7739Z" fill="#3165D4"/>
<path d="M466.289 124.268C468.4 124.268 470.111 122.556 470.111 120.445C470.111 118.333 468.4 116.621 466.289 116.621C464.178 116.621 462.467 118.333 462.467 120.445C462.467 122.556 464.178 124.268 466.289 124.268Z" fill="#3165D4"/>
<path d="M476.272 10.8095C479.255 10.8095 481.674 8.38967 481.674 5.40473C481.674 2.41978 479.255 0 476.272 0C473.288 0 470.869 2.41978 470.869 5.40473C470.869 8.38967 473.288 10.8095 476.272 10.8095Z" fill="#3165D4"/>
<path d="M203.575 89.4947C206.559 89.4947 208.978 87.075 208.978 84.09C208.978 81.1051 206.559 78.6853 203.575 78.6853C200.592 78.6853 198.173 81.1051 198.173 84.09C198.173 87.075 200.592 89.4947 203.575 89.4947Z" fill="#3165D4"/>
<path d="M112.481 114.38C115.464 114.38 117.883 111.96 117.883 108.975C117.883 105.99 115.464 103.57 112.481 103.57C109.497 103.57 107.078 105.99 107.078 108.975C107.078 111.96 109.497 114.38 112.481 114.38Z" fill="#3165D4"/>
<path d="M5.40254 125.189C8.38629 125.189 10.8051 122.769 10.8051 119.784C10.8051 116.799 8.38629 114.38 5.40254 114.38C2.4188 114.38 0 116.799 0 119.784C0 122.769 2.4188 125.189 5.40254 125.189Z" fill="#3165D4"/>
<path d="M353.446 78.6852C356.429 78.6852 358.848 76.2654 358.848 73.2805C358.848 70.2955 356.429 67.8757 353.446 67.8757C350.462 67.8757 348.043 70.2955 348.043 73.2805C348.043 76.2654 350.462 78.6852 353.446 78.6852Z" fill="#3165D4"/>
<path d="M498.244 80.2665C501.228 80.2665 503.647 77.8467 503.647 74.8618C503.647 71.8768 501.228 69.457 498.244 69.457C495.261 69.457 492.842 71.8768 492.842 74.8618C492.842 77.8467 495.261 80.2665 498.244 80.2665Z" fill="#3165D4"/>
<path d="M593.239 50.5023C596.222 50.5023 598.641 48.0825 598.641 45.0976C598.641 42.1126 596.222 39.6929 593.239 39.6929C590.255 39.6929 587.836 42.1126 587.836 45.0976C587.836 48.0825 590.255 50.5023 593.239 50.5023Z" fill="#3165D4"/>
<path d="M5.40234 119.784L22.3459 77.4931L53.358 101.381L49.5361 48.4985L83.9949 79.0056L91.6381 48.6197L112.481 108.975L91.6381 135.62L159.571 119.455L151.003 75.1828L167.169 35.9506L203.575 84.09L230.593 138.649L261.703 87.9135L306.876 108.975L282.49 64.0524L353.446 73.2806L379.096 116.621L435.391 78.6853L466.289 120.445L498.244 74.8618L476.272 5.40479L530.031 101.935L542.721 65.1129L593.239 45.0975L536.555 28.1071L619.675 94.2883L584.014 124.756" stroke="#3165D4" stroke-opacity="0.23" stroke-width="1.68" stroke-miterlimit="1.5" stroke-linejoin="round"/>
<path d="M5.40234 119.883L53.4039 101.221L84.0571 78.9159L112.535 109.011L159.658 119.395L203.677 84.5433L261.488 87.9226L282.339 63.8493L379.08 116.415L466.217 120.235L530.074 101.815L584.014 124.756L593.148 44.675L619.675 94.2883L542.726 64.8423L536.555 28.1071L498.084 74.5448L435.575 78.3709L476.329 5.40479L353.621 73.1568L306.905 108.845L230.593 138.649L91.6381 135.62" stroke="#3165D4" stroke-opacity="0.23" stroke-width="1.68" stroke-miterlimit="1.5" stroke-linejoin="round"/>
<path d="M22.4212 77.4597L49.6736 48.2928L91.6381 48.6072L151.128 75.0505L282.466 64.112L167.435 35.5798L83.9268 79.0128L91.6381 135.62L5.40234 119.784" stroke="#3165D4" stroke-opacity="0.23" stroke-width="1.68" stroke-miterlimit="1.5" stroke-linejoin="round"/>
<path d="M5.40234 119.989L36.2285 150.199L53.3731 101.346L91.6381 135.62L176.595 160.743L159.697 119.526L230.626 138.65L358.049 162.207L297.372 139.443L306.843 108.721L343.487 123.608L379.075 116.57L416.193 146.376L466.289 120.445L482.971 164.567L507.468 131.224L584.125 124.801" stroke="#3165D4" stroke-opacity="0.23" stroke-width="1.68" stroke-miterlimit="1.5" stroke-linejoin="round"/>
<path d="M530.098 102.174L507.469 131.224L466.16 120.444L353.584 73.4829L343.6 123.736L358.049 162.207L416.193 146.376L482.972 164.567L584.126 124.901L542.784 65.0081L498.244 74.8618" stroke="#3165D4" stroke-opacity="0.23" stroke-width="1.68" stroke-miterlimit="1.5" stroke-linejoin="round"/>
<path d="M36.354 150.368L176.492 160.87L230.618 138.649L297.274 139.377L261.703 87.9133L159.598 119.422L91.6275 48.4983L22.2764 77.5021L84.0281 79.0172L151.003 75.1826L203.403 83.6916L353.539 73.2057L435.391 78.6851" stroke="#3165D4" stroke-opacity="0.23" stroke-width="1.68" stroke-miterlimit="1.5" stroke-linejoin="round"/>
</g>

</svg>
