<svg viewBox="0 0 32 32" fill="none" xmlns="http://www.w3.org/2000/svg">
<path fill-rule="evenodd" clip-rule="evenodd" d="M32 23.987L21.692 23.9857L25.3333 29.319H23.5853L19.9373 23.9857H17.3333L13.6853 29.319H12L15.6427 23.9857H11.7093V22.6523H22.6667V21.319H26.6667V22.6523H30.6667V3.98568H8V4.58168H6.66667V2.65234H32V23.9857V23.987ZM9.012 11.987C9.87733 11.987 10.736 11.703 11.268 11.4057C12.2747 10.8457 14.8613 9.21501 15.9147 8.57368C16.2013 8.40034 16.576 8.46434 16.7867 8.72568L16.7987 8.73901C17.0173 9.01234 16.992 9.40568 16.7413 9.64568L12.2467 13.931C11.552 14.595 11.1507 15.5083 11.1093 16.467C10.9827 19.4097 10.7613 25.683 10.6667 28.2457C10.6453 28.8457 10.152 29.3203 9.552 29.3203H9.55067C8.95867 29.3203 8.50267 28.8563 8.436 28.2697C8.288 26.9603 7.99733 23.8977 7.86667 22.6537C7.81333 22.1417 7.49467 21.8363 7.088 21.835C6.68267 21.8323 6.39067 22.1363 6.35733 22.6457C6.27467 23.8737 6.00267 26.9777 5.90133 28.2737C5.856 28.8617 5.372 29.3203 4.78133 29.3203H4.78C4.17733 29.3203 3.68267 28.8457 3.65733 28.2417C3.528 25.1217 3.16533 16.291 3.16533 16.291L1.44933 19.399C1.26267 19.7377 0.856 19.8843 0.496 19.7457L0.494667 19.7443C0.190667 19.627 0 19.3377 0 19.0243L0.0293333 18.815L1.688 12.9577C1.85067 12.3843 2.37467 11.9883 2.972 11.9883H9.012V11.987ZM18.6667 14.6537H25.3333V13.3203H18.6667V14.6537ZM18.6667 11.987H28V10.6537H18.6667V11.987ZM7.16533 5.32034C8.82 5.32034 10.1653 6.66434 10.1653 8.32034C10.1653 9.97634 8.82 11.3203 7.16533 11.3203C5.50933 11.3203 4.16533 9.97634 4.16533 8.32034C4.16533 6.66434 5.50933 5.32034 7.16533 5.32034ZM18.6667 9.32034H28V7.98701H18.6667V9.32034Z" fill="white"/>
</svg>
