<svg viewBox="0 0 24 24" fill="none" xmlns="http://www.w3.org/2000/svg">
<path d="M16.25 6C16.664 6 17 6.336 17 6.75V16.25C17 16.664 16.664 17 16.25 17H6.75C6.336 17 6 16.664 6 16.25V6.75C6 6.336 6.336 6 6.75 6H16.25ZM19 6C19 4.896 18.104 4 17 4H6C4.896 4 4 4.896 4 6V17C4 18.104 4.896 19 6 19H17C18.104 19 19 18.104 19 17V6ZM8 20V23H7V20H8ZM12 20V23H11V20H12ZM14 20V23H13V20H14ZM10 20V23H9V20H10ZM16 20V23H15V20H16ZM8 0V3H7V0H8ZM12 0V3H11V0H12ZM14 0V3H13V0H14ZM10 0V3H9V0H10ZM16 0V3H15V0H16ZM20 15H23V16H20V15ZM20 11H23V12H20V11ZM20 9H23V10H20V9ZM20 13H23V14H20V13ZM20 7H23V8H20V7ZM0 15H3V16H0V15ZM0 11H3V12H0V11ZM0 9H3V10H0V9ZM0 13H3V14H0V13ZM0 7H3V8H0V7Z" fill="black" fill-opacity="0.37"/>
</svg>
