<svg viewBox="0 0 48 48" fill="none" xmlns="http://www.w3.org/2000/svg">
<path d="M41.644 36.192C34.766 34.604 28.362 33.212 31.464 27.356C40.902 9.532 33.966 0 24 0C13.836 0 7.07 9.898 16.536 27.356C19.732 33.246 13.086 34.638 6.356 36.192C0.398 37.568 0 40.478 0 45.518L0.01 48H4C4 41.732 3.75 40.9 7.676 39.994C13.378 38.68 18.762 37.438 20.726 33.082C21.444 31.492 21.91 28.876 20.05 25.452C15.934 17.854 14.894 11.274 17.204 7.4C19.912 2.85 28.056 2.872 30.738 7.332C33.038 11.154 32.016 17.77 27.932 25.484C26.112 28.922 26.59 31.53 27.312 33.112C29.292 37.446 34.726 38.7 40.48 40.028C44.238 40.9 44 41.792 44 48H47.99L48 45.518C48 40.478 47.602 37.568 41.644 36.192Z" fill="#CDCDCD"/>
</svg>
