<svg  viewBox="0 0 24 24" fill="none" xmlns="http://www.w3.org/2000/svg">
<g clip-path="url(#clip0_36_92)">
<path fill-rule="evenodd" clip-rule="evenodd" d="M12.297 5.57397L12.292 5.56897C12.292 5.56897 13.995 3.81497 14.68 3.30997C15.861 2.43897 17.423 2.97097 17.423 2.97097C17.423 2.97097 17.444 4.43597 16.487 5.03097C15.574 5.59897 14.699 5.36397 14.605 5.33797C14.96 4.83797 15.458 4.17297 16.126 3.83997C15.633 3.81197 15.036 4.08597 14.569 4.52097C14.189 4.87397 13.309 5.77797 12.999 6.09697V9.19697C14.067 8.33697 16.034 6.75797 16.602 6.31997C18.17 5.10797 20.293 5.79797 20.293 5.79797C20.293 5.79797 20.321 7.76097 19.039 8.55797C17.816 9.31797 16.286 8.85597 16.161 8.82097C16.766 8.15297 17.724 7.54397 18.618 7.09897C17.72 6.97697 17.004 7.25597 15.869 8.15897C15.08 8.78797 13.378 10.172 12.999 10.48V13.681C14.228 12.752 16.752 10.87 17.899 10.229C20.749 8.63597 23 9.94497 23 9.94497C23 9.94497 22.737 12.515 20.939 13.362C19.225 14.17 17.102 13.286 16.943 13.222C17.836 12.44 19.14 11.755 20.528 11.406C19.212 11.197 17.902 11.211 16.113 12.619C15.163 13.366 13.448 14.616 12.999 14.942L13 24.022H11L10.999 14.942C10.549 14.614 8.837 13.366 7.887 12.619C6.098 11.211 4.788 11.197 3.472 11.406C4.86 11.755 6.164 12.44 7.057 13.222C6.898 13.286 4.775 14.17 3.061 13.362C1.263 12.515 1 9.94497 1 9.94497C1 9.94497 3.251 8.63597 6.101 10.229C7.247 10.87 9.771 12.75 10.999 13.681V10.483C10.629 10.182 8.918 8.78997 8.125 8.15897C6.99 7.25597 6.274 6.97697 5.376 7.09897C6.271 7.54397 7.229 8.15297 7.833 8.82097C7.708 8.85597 6.178 9.31797 4.956 8.55797C3.674 7.76097 3.702 5.79797 3.702 5.79797C3.702 5.79797 5.824 5.10797 7.393 6.31997C7.961 6.75897 9.932 8.34097 10.999 9.19997V6.09497C10.688 5.77397 9.81 4.87297 9.431 4.52097C8.964 4.08597 8.367 3.81197 7.874 3.83997C8.542 4.17297 9.04 4.83797 9.395 5.33797C9.301 5.36397 8.426 5.59897 7.513 5.03097C6.556 4.43597 6.577 2.97097 6.577 2.97097C6.577 2.97097 8.139 2.43897 9.32 3.30997C10.005 3.81497 11.708 5.56897 11.708 5.56897L11.702 5.57597L11.999 5.85197L12.297 5.57397ZM15.192 14.96C15.581 14.822 17.214 14.324 18.775 15.08C20.563 15.946 20.812 18.541 20.812 18.541C20.812 18.541 18.634 19.961 16.834 19.09C15.117 18.259 14.537 16.453 14.487 16.289C15.664 16.492 16.85 16.907 17.981 17.594C17.134 16.532 16.198 15.668 15.192 14.96ZM8.808 14.96C8.419 14.822 6.786 14.324 5.225 15.08C3.437 15.946 3.188 18.541 3.188 18.541C3.188 18.541 5.366 19.961 7.166 19.09C8.883 18.259 9.463 16.453 9.513 16.289C8.336 16.492 7.15 16.907 6.019 17.594C6.866 16.532 7.802 15.668 8.808 14.96ZM12.472 3.98697C12.647 3.81197 13.338 3.05797 13.333 2.01797C13.328 0.827973 11.989 0.0219727 11.989 0.0219727C11.989 0.0219727 10.657 0.832973 10.663 2.03097C10.669 3.17397 11.495 3.95497 11.571 4.02397C11.765 3.33497 11.847 2.58697 11.769 1.79697C12.124 2.53097 12.349 3.25997 12.472 3.98697Z" fill="white"/>
</g>
<defs>
<clipPath id="clip0_36_92">
<rect width="24" height="24" fill="white"/>
</clipPath>
</defs>
</svg>
