<svg viewBox="0 0 500 393" fill="none" xmlns="http://www.w3.org/2000/svg">
<path fill-rule="evenodd" clip-rule="evenodd" d="M380.633 0H0V265.746H380.633V0ZM367.317 41.0846C367.317 37.4342 366.597 33.8196 365.196 30.4471C363.796 27.0746 361.743 24.0102 359.155 21.429C356.567 18.8477 353.494 16.8002 350.113 15.4032C346.732 14.0063 343.108 13.2873 339.448 13.2873H39.4281C35.7499 13.2872 32.1078 14.0098 28.7096 15.4138C25.3114 16.8178 22.2238 18.8756 19.623 21.4698C17.022 24.0638 14.9588 27.1433 13.5511 30.5326C12.1434 33.9219 11.419 37.5545 11.419 41.2231V224.619C11.419 239.994 23.916 252.458 39.3319 252.458H339.404C354.82 252.458 367.317 239.994 367.317 224.619V41.0846Z" fill="#E6E6E6"/>
<path fill-rule="evenodd" clip-rule="evenodd" d="M61.2897 225.884H54.3884C44.811 225.884 37.0352 218.11 37.0352 208.535V57.2109C37.0352 47.6356 44.811 39.8618 54.3884 39.8618H194.715C204.293 39.8618 212.068 47.6356 212.068 57.2109V208.535C212.068 218.11 204.293 225.884 194.715 225.884H187.814C187.814 206.413 168.623 189.956 142.374 184.736C157.158 177.966 167.438 163.04 167.438 145.732C167.438 122.068 148.221 102.856 124.552 102.856C100.882 102.856 81.6655 122.068 81.6655 145.732C81.6655 163.04 91.9456 177.966 106.729 184.736C80.4804 189.956 61.2897 206.413 61.2897 225.884Z" fill="#E6E6E6"/>
<path fill-rule="evenodd" clip-rule="evenodd" d="M499.634 109.394H93.625V392.856H499.634V109.394ZM485.43 151.364C485.43 136.012 472.953 123.567 457.56 123.567H133.814C118.345 123.567 105.805 136.075 105.805 151.503V350.843C105.805 358.226 108.746 365.308 113.981 370.529C119.215 375.75 126.315 378.683 133.718 378.683H457.517C461.183 378.683 464.813 377.964 468.199 376.564C471.586 375.165 474.663 373.115 477.255 370.529C479.847 367.944 481.903 364.875 483.306 361.497C484.709 358.119 485.43 354.499 485.43 350.843V151.364Z" fill="#3165D4"/>
<path fill-rule="evenodd" clip-rule="evenodd" d="M158.998 350.337H151.637C141.421 350.337 133.127 342.045 133.127 331.831V170.419C133.127 160.206 141.421 151.913 151.637 151.913H301.319C311.535 151.913 319.828 160.206 319.828 170.419V331.831C319.828 342.045 311.535 350.337 301.319 350.337H293.958C293.958 329.568 273.487 312.014 245.489 306.446C261.258 299.225 272.223 283.303 272.223 264.842C272.223 239.6 251.726 219.108 226.478 219.108C201.23 219.108 180.733 239.6 180.733 264.842C180.733 283.303 191.698 299.225 207.467 306.446C179.469 312.014 158.998 329.568 158.998 350.337Z" fill="#3165D4"/>
</svg>
