<svg viewBox="0 0 80 80" fill="none" xmlns="http://www.w3.org/2000/svg">
<g clip-path="url(#clip0_7_159)">
<path fill-rule="evenodd" clip-rule="evenodd" d="M10.6695 24.534V4.21194C10.6695 1.88788 12.5575 0.000854492 14.8829 0.000854492H75.7895C78.1149 0.000854492 80.0029 1.88788 80.0029 4.21194V38.4562C80.0029 40.7802 78.1149 42.6672 75.7895 42.6672H74.6694V28.7451C74.6694 26.421 72.7814 24.534 70.4563 24.534H10.6692H10.6695Z" fill="white"/>
<path fill-rule="evenodd" clip-rule="evenodd" d="M63.9979 40.344C63.9979 37.947 62.0523 36.0015 59.6544 36.0015H4.34125C1.94335 36.0015 -0.00231934 37.947 -0.00231934 40.344V75.6586C-0.00231934 78.0553 1.94335 80.0012 4.34125 80.0012H59.6544C62.0523 80.0012 63.9979 78.0553 63.9979 75.6586V40.344Z" fill="white"/>
<path fill-rule="evenodd" clip-rule="evenodd" d="M7.46619 43.7347H23.4663V60.9346H7.46619V43.7347ZM17.9465 9.46826H28.9851V24.5352H17.9465V9.46826Z" fill="#3165d4"/>
</g>

</svg>
