<svg viewBox="0 0 75 75" fill="none" xmlns="http://www.w3.org/2000/svg">
<path d="M37.5 52.5C45.7843 52.5 52.5 45.7843 52.5 37.5C52.5 29.2157 45.7843 22.5 37.5 22.5C29.2157 22.5 22.5 29.2157 22.5 37.5C22.5 45.7843 29.2157 52.5 37.5 52.5Z" fill="#3165D4"/>
<path d="M15 22.5C19.1421 22.5 22.5 19.1421 22.5 15C22.5 10.8579 19.1421 7.5 15 7.5C10.8579 7.5 7.5 10.8579 7.5 15C7.5 19.1421 10.8579 22.5 15 22.5Z" fill="#3165D4"/>
<path d="M37.5 7.5C39.5711 7.5 41.25 5.82107 41.25 3.75C41.25 1.67893 39.5711 0 37.5 0C35.4289 0 33.75 1.67893 33.75 3.75C33.75 5.82107 35.4289 7.5 37.5 7.5Z" fill="#3165D4"/>
<path d="M71.25 41.25C73.3211 41.25 75 39.5711 75 37.5C75 35.4289 73.3211 33.75 71.25 33.75C69.1789 33.75 67.5 35.4289 67.5 37.5C67.5 39.5711 69.1789 41.25 71.25 41.25Z" fill="#3165D4"/>
<path d="M37.5 75C39.5711 75 41.25 73.3211 41.25 71.25C41.25 69.1789 39.5711 67.5 37.5 67.5C35.4289 67.5 33.75 69.1789 33.75 71.25C33.75 73.3211 35.4289 75 37.5 75Z" fill="#3165D4"/>
<path d="M3.75 41.25C5.82107 41.25 7.5 39.5711 7.5 37.5C7.5 35.4289 5.82107 33.75 3.75 33.75C1.67893 33.75 0 35.4289 0 37.5C0 39.5711 1.67893 41.25 3.75 41.25Z" fill="#3165D4"/>
<path d="M60 22.5C64.1421 22.5 67.5 19.1421 67.5 15C67.5 10.8579 64.1421 7.5 60 7.5C55.8579 7.5 52.5 10.8579 52.5 15C52.5 19.1421 55.8579 22.5 60 22.5Z" fill="#3165D4"/>
<path d="M60 67.5C64.1421 67.5 67.5 64.1421 67.5 60C67.5 55.8579 64.1421 52.5 60 52.5C55.8579 52.5 52.5 55.8579 52.5 60C52.5 64.1421 55.8579 67.5 60 67.5Z" fill="#3165D4"/>
<path d="M15 67.5C19.1421 67.5 22.5 64.1421 22.5 60C22.5 55.8579 19.1421 52.5 15 52.5C10.8579 52.5 7.5 55.8579 7.5 60C7.5 64.1421 10.8579 67.5 15 67.5Z" fill="#3165D4"/>
</svg>
