<svg viewBox="0 0 369 431" fill="none" xmlns="http://www.w3.org/2000/svg">
<g clip-path="url(#clip0)">
<path fill-rule="evenodd" clip-rule="evenodd" d="M280.455 308.395C283.553 299.079 285.256 288.941 285.256 278.337C285.256 232.307 253.17 195.245 214.095 195.245C175.019 195.245 142.933 232.307 142.933 278.337C142.933 324.368 175.019 361.43 214.095 361.43C230.049 361.43 244.805 355.3 256.708 344.89L263.381 351.556V388.891C263.381 391.158 265.221 392.996 267.491 392.996H301.643V414.804C301.643 417.071 303.483 418.909 305.753 418.909H326.713L337.473 429.659C338.244 430.429 339.289 430.861 340.379 430.861H364.65C366.92 430.861 368.759 429.023 368.759 426.756V398.309C368.759 397.22 368.326 396.176 367.556 395.406L280.455 308.395ZM216.957 261.251C216.957 270.656 210.842 278.596 202.859 278.596C194.875 278.596 188.76 270.656 188.76 261.251C188.76 251.847 194.875 243.908 202.859 243.908C210.842 243.908 216.957 251.847 216.957 261.251Z" fill="#CF9316"/>
<path fill-rule="evenodd" clip-rule="evenodd" d="M275.728 309.475L364.651 398.307V426.754H340.381L328.417 414.802H305.755V388.889H267.493V349.854L256.822 339.194C245.22 350.514 230.327 357.323 214.096 357.323C177.089 357.323 147.044 321.93 147.044 278.336C147.044 234.741 177.089 199.349 214.096 199.349C251.103 199.349 281.148 234.741 281.148 278.336C281.148 289.391 279.216 299.919 275.728 309.475ZM221.069 261.25C221.069 273.088 212.91 282.699 202.86 282.699C192.811 282.699 184.652 273.088 184.652 261.25C184.652 249.411 192.811 239.8 202.86 239.8C212.91 239.8 221.069 249.411 221.069 261.25Z" fill="#FAC151"/>
<path fill-rule="evenodd" clip-rule="evenodd" d="M117.179 326.68C123.949 324.691 130.639 321.58 136.93 317.308C165.184 298.12 174.447 262.985 158.159 239.049C141.87 215.112 105.758 210.79 77.5031 229.978C49.2481 249.165 39.9858 284.3 56.2741 308.237C62.7603 317.769 72.3356 324.19 83.3264 327.263L82.3069 332.606L60.176 347.634C58.3251 348.891 57.8445 351.409 59.103 353.258L72.4796 372.916L60.2183 381.243C58.3672 382.5 57.8868 385.018 59.145 386.867L67.4734 399.106L65.4819 409.543C65.3822 410.065 65.3865 410.602 65.4945 411.123C65.6025 411.643 65.812 412.138 66.1113 412.577L76.0418 427.17C77.3 429.02 79.8208 429.5 81.6717 428.243L98.8111 416.603C99.2513 416.305 99.6283 415.922 99.9204 415.478C100.213 415.033 100.414 414.536 100.514 414.013L117.179 326.68ZM118.085 267.496C112.939 270.991 106.309 270.756 103.342 266.396C100.375 262.036 102.595 255.791 107.742 252.296C112.889 248.801 119.519 249.036 122.486 253.396C125.453 257.756 123.232 264.001 118.085 267.496Z" fill="#CF9316"/>
<path fill-rule="evenodd" clip-rule="evenodd" d="M113.673 323.442L96.5345 413.256L79.395 424.895L69.4647 410.302L71.7707 398.217L62.4985 384.591L78.1115 373.989L62.4562 350.983L85.9753 335.011L88.032 324.234C76.4642 321.889 66.2686 315.721 59.6276 305.961C44.4858 283.71 53.5173 251.163 79.7832 233.326C106.049 215.49 139.667 219.074 154.809 241.325C169.95 263.577 160.919 296.123 134.653 313.96C127.992 318.483 120.858 321.629 113.673 323.442ZM120.366 270.845C113.233 275.689 104.104 274.715 99.9916 268.673C95.8798 262.63 98.3325 253.792 105.465 248.948C112.598 244.104 121.727 245.078 125.839 251.12C129.951 257.163 127.498 266.001 120.366 270.845Z" fill="#FAC151"/>
<path fill-rule="evenodd" clip-rule="evenodd" d="M235.61 210.646C233.253 204.53 251.965 213.702 259.52 224.279C273.058 243.231 286.269 280.383 260.937 250.366C256.704 245.35 250.565 250.7 243.738 239.638C240.359 234.163 246.252 238.259 235.61 210.646Z" fill="#FFFC00"/>
<path fill-rule="evenodd" clip-rule="evenodd" d="M69.5872 253.028C65.4436 254.842 72.6815 243.226 80.0817 238.05C93.3414 228.776 118.434 218.406 97.1708 235.375C93.6177 238.211 96.6884 241.43 89.0215 246.214C85.227 248.582 88.2929 244.838 69.5872 253.028Z" fill="#FFFC00"/>
<path fill-rule="evenodd" clip-rule="evenodd" d="M216.238 255.364L216.939 262.931C200.891 267.241 183.75 269.599 165.951 269.655L165.943 262.306C183.546 262.246 200.466 259.806 216.238 255.364ZM270.999 228.676C302.068 205.375 321.555 171.943 321.555 134.827C321.555 64.4692 251.531 7.34715 165.282 7.34715C79.0326 7.34715 9.00916 64.4692 9.00916 134.827C9.00916 193.506 57.7145 242.978 123.909 257.784L121.105 264.778C51.3033 249 0 196.762 0 134.827C0 60.4129 74.0603 -0.00195312 165.282 -0.00195312C256.503 -0.00195312 330.564 60.4129 330.564 134.827C330.564 174.937 309.047 210.979 274.934 235.681L270.999 228.676Z" fill="#0D0D0D"/>
</g>
</svg>
