<svg  viewBox="0 0 120 120" fill="none" xmlns="http://www.w3.org/2000/svg">
<rect width="120" height="120" rx="16" fill="#3165D4"/>
<g clip-path="url(#clip0_36_114)">
<path fill-rule="evenodd" clip-rule="evenodd" d="M76.1056 51.7239C77.0114 48.9676 77.5096 45.9678 77.5096 42.8305C77.5096 29.2109 68.126 18.2449 56.6986 18.2449C45.2711 18.2449 35.8875 29.2109 35.8875 42.8305C35.8875 56.45 45.2711 67.4161 56.6986 67.4161C61.3643 67.4161 65.6797 65.6023 69.1608 62.5221L71.1123 64.4946V75.5412C71.1123 76.2121 71.6504 76.7559 72.3142 76.7559H82.302V83.2085C82.302 83.8793 82.8401 84.4232 83.5039 84.4232H89.6335L92.7803 87.6038C93.0057 87.8316 93.3114 87.9596 93.6302 87.9596H100.728C101.392 87.9596 101.93 87.4157 101.93 86.7448V78.328C101.93 78.0058 101.803 77.6969 101.578 77.4691L76.1056 51.7239ZM57.5358 37.775C57.5358 40.5578 55.7475 42.9068 53.4126 42.9068C51.0778 42.9068 49.2894 40.5578 49.2894 37.775C49.2894 34.9923 51.0778 32.6433 53.4126 32.6433C55.7475 32.6433 57.5358 34.9923 57.5358 37.775Z" fill="white"/>
<path fill-rule="evenodd" clip-rule="evenodd" d="M74.7227 52.043L100.728 78.3269V86.7438H93.6303L90.1313 83.2074H83.504V75.5401H72.3143V63.9903L69.1936 60.8363C65.8006 64.1858 61.4454 66.2002 56.6986 66.2002C45.876 66.2002 37.0894 55.7281 37.0894 42.8294C37.0894 29.9306 45.876 19.4585 56.6986 19.4585C67.5212 19.4585 76.3078 29.9306 76.3078 42.8294C76.3078 46.1005 75.7427 49.2156 74.7227 52.043ZM58.7377 37.7739C58.7377 41.2767 56.3517 44.1205 53.4127 44.1205C50.4737 44.1205 48.0876 41.2767 48.0876 37.7739C48.0876 34.2712 50.4737 31.4274 53.4127 31.4274C56.3517 31.4274 58.7377 34.2712 58.7377 37.7739Z" fill="white"/>
<path fill-rule="evenodd" clip-rule="evenodd" d="M28.3558 57.1332C30.3357 56.5447 32.292 55.6242 34.1317 54.3601C42.3947 48.6829 45.1035 38.287 40.3401 31.2045C35.5766 24.1222 25.0156 22.8434 16.7526 28.5206C8.48948 34.1979 5.78073 44.5938 10.5442 51.6762C12.4411 54.4964 15.2413 56.3964 18.4556 57.3057L18.1574 58.8864L11.6853 63.3331C11.144 63.7051 11.0035 64.4501 11.3715 64.9972L15.2835 70.8136L11.6977 73.2773C11.1563 73.6493 11.0158 74.3943 11.3838 74.9415L13.8194 78.5628L13.237 81.6509C13.2079 81.8054 13.2091 81.9642 13.2407 82.1183C13.2723 82.2723 13.3336 82.4186 13.4211 82.5487L16.3252 86.8665C16.6932 87.4137 17.4304 87.5557 17.9717 87.1838L22.9841 83.7399C23.1128 83.6515 23.223 83.5383 23.3085 83.4068C23.3939 83.2753 23.4529 83.1281 23.482 82.9736L28.3558 57.1332ZM28.6208 39.6217C27.1156 40.6559 25.1767 40.5863 24.309 39.2963C23.4413 38.0061 24.0906 36.1583 25.5958 35.1243C27.101 34.0901 29.0399 34.1596 29.9076 35.4497C30.7753 36.7398 30.1259 38.5876 28.6208 39.6217Z" fill="white"/>
<path fill-rule="evenodd" clip-rule="evenodd" d="M27.3303 56.1751L22.318 82.7495L17.3056 86.1932L14.4016 81.8754L15.0759 78.2999L12.3643 74.2682L16.9303 71.1311L12.3519 64.324L19.23 59.5984L19.8315 56.4093C16.4485 55.7157 13.4669 53.8906 11.5247 51.0029C7.09654 44.419 9.73778 34.7891 17.4192 29.5115C25.1006 24.2339 34.932 25.2944 39.3602 31.8782C43.7883 38.462 41.1471 48.092 33.4656 53.3696C31.5177 54.708 29.4314 55.6388 27.3303 56.1751ZM29.2874 40.6126C27.2014 42.0458 24.5316 41.7578 23.3291 39.9699C22.1266 38.182 22.8439 35.5669 24.9298 34.1337C27.0157 32.7005 29.6855 32.9886 30.888 34.7765C32.0905 36.5643 31.3733 39.1794 29.2874 40.6126Z" fill="white"/>
<path fill-rule="evenodd" clip-rule="evenodd" d="M62.9905 22.8014C62.3011 20.9916 67.7734 23.7054 69.9829 26.835C73.942 32.4426 77.8056 43.4352 70.3972 34.5537C69.1593 33.0696 67.3642 34.6527 65.3675 31.3796C64.3792 29.7597 66.1028 30.9715 62.9905 22.8014Z" fill="white"/>
<path fill-rule="evenodd" clip-rule="evenodd" d="M14.4379 35.3411C13.2261 35.8779 15.3428 32.441 17.507 30.9095C21.3848 28.1654 28.7231 25.0971 22.5047 30.1181C21.4656 30.9571 22.3636 31.9097 20.1214 33.3251C19.0117 34.0256 19.9083 32.9179 14.4379 35.3411Z" fill="white"/>
<path fill-rule="evenodd" clip-rule="evenodd" d="M57.3254 36.0332L57.5304 38.2723C52.8371 39.5475 47.8245 40.2451 42.619 40.2618L42.6168 38.0873C47.7647 38.0694 52.7128 37.3476 57.3254 36.0332ZM73.3401 28.1366C82.4262 21.2424 88.1249 11.3504 88.1249 0.368504C88.1249 -20.4492 67.6468 -37.3507 42.4234 -37.3507C17.2 -37.3507 -3.27814 -20.4492 -3.27814 0.368504C-3.27814 17.7305 10.9656 32.3685 30.3241 36.7493L29.5038 38.8187C9.09067 34.1501 -5.91284 18.694 -5.91284 0.368504C-5.91284 -21.6494 15.7459 -39.5251 42.4234 -39.5251C69.1009 -39.5251 90.7596 -21.6494 90.7596 0.368504C90.7596 12.2362 84.4672 22.9005 74.4907 30.2093L73.3401 28.1366Z" fill="white"/>
</g>
<defs>
<clipPath id="clip0_36_114">
<rect width="102" height="88" fill="white"/>
</clipPath>
</defs>
</svg>
