<svg  viewBox="0 0 136 260" fill="none" xmlns="http://www.w3.org/2000/svg">
<g clip-path="url(#clip0)">
<path fill-rule="evenodd" clip-rule="evenodd" d="M15.6047 200.524C65.3786 142.572 81.3449 157.812 119.498 119.844C148.779 90.705 133.591 46.3133 114.979 4.53487C106.957 -13.471 136.404 22.6873 49.6732 103.253C24.7876 126.369 11.5264 205.272 15.6047 200.524Z" fill="#85C308"/>
<path fill-rule="evenodd" clip-rule="evenodd" d="M90.9709 100.291C106.322 99.8725 133.075 82.1011 120.27 92.0279C111.373 98.9249 97.1232 103.299 86.7011 105.76C80.3648 113.571 72.8288 121.594 63.8866 129.746C61.2835 132.119 58.6573 134.812 56.0486 137.724C68.4975 141.348 91.4551 124.407 77.6668 135.096C68.0696 142.537 56.6611 144.868 49.4515 145.569C29.4857 170.703 12.3084 204.362 15.6048 200.524C65.3787 142.573 81.345 157.812 119.498 119.844C148.39 91.0929 133.987 47.4917 115.721 6.20734C114.173 0.837668 112.896 -0.141063 114.979 4.53517C115.226 5.09083 115.473 5.64696 115.721 6.20734C118.607 16.2212 122.426 41.4955 107.122 73.8155C121.696 69.5294 137.703 59.1077 127.225 67.2302C121.329 71.8012 113.081 75.264 105.158 77.795C101.457 85.0004 96.7981 92.5272 90.9709 100.291Z" fill="#74AC40"/>
<path fill-rule="evenodd" clip-rule="evenodd" d="M5.00346 257.705L0.464355 260C0.464355 260 8.07498 231.109 13.8152 204.657C20.0375 175.984 5.00346 257.705 5.00346 257.705Z" fill="#74AC40"/>
</g>
<defs>
<clipPath id="clip0">
<rect width="136" height="260" fill="white"/>
</clipPath>
</defs>
</svg>
