<svg viewBox="0 0 153 90" fill="none" xmlns="http://www.w3.org/2000/svg">
<g clip-path="url(#clip0)">
<path fill-rule="evenodd" clip-rule="evenodd" d="M118.654 70.448C83.5432 45.8481 91.1861 36.1025 67.8787 16.8922C49.9915 2.14911 26.0143 13.0583 3.68499 25.7354C-5.93856 31.199 12.6567 12.7836 62.4289 56.7681C76.7099 69.3885 121.531 72.4637 118.654 70.448Z" fill="#85C308"/>
<path fill-rule="evenodd" clip-rule="evenodd" d="M58.5132 33.8839C57.4389 25.3398 46.0428 11.3845 52.2914 17.9863C56.6328 22.5731 59.8574 30.2857 61.8031 35.9669C66.5152 39.0748 71.4117 42.8405 76.4567 47.3839C77.9254 48.7065 79.5741 50.0244 81.3443 51.3206C82.6883 44.1747 71.9642 32.2917 78.6926 39.4004C83.3759 44.3483 85.3033 50.5871 86.09 54.5721C101.229 64.3364 120.98 72.0772 118.655 70.448C83.5434 45.848 91.1863 36.1025 67.8788 16.8921C50.2295 2.34514 26.6511 12.7725 4.57902 25.2294C1.66287 26.3874 1.18585 27.1543 3.68515 25.7353C3.98213 25.5667 4.27942 25.3984 4.57902 25.2294C10.0173 23.0699 23.933 19.5531 42.833 26.3217C39.6399 18.4239 32.9394 10.0625 38.0523 15.4643C40.9296 18.5043 43.3163 22.9171 45.1644 27.1997C49.3939 28.8705 53.8553 31.0576 58.5132 33.8839Z" fill="#74AC40"/>
<path fill-rule="evenodd" clip-rule="evenodd" d="M151.191 73.2296L152.722 75.6369C152.722 75.6369 136.16 72.9735 121.062 71.2202C104.698 69.3196 151.191 73.2296 151.191 73.2296Z" fill="#74AC40"/>
</g>
<defs>
<clipPath id="clip0">
<rect width="76" height="146" fill="white" transform="translate(7.41931 89.8899) rotate(-95.6023)"/>
</clipPath>
</defs>
</svg>
