<svg  viewBox="0 0 165 142" fill="none" xmlns="http://www.w3.org/2000/svg">
<g clip-path="url(#clip0)">
<path fill-rule="evenodd" clip-rule="evenodd" d="M100.096 116.801C87.2068 75.9131 99.2023 72.8313 92.3988 43.4036C87.1776 20.8193 61.5128 14.8838 36.0796 11.354C25.1183 9.83274 51.0808 6.53679 63.8069 71.7285C67.4584 90.4338 101.153 120.151 100.096 116.801Z" fill="#85C308"/>
<path fill-rule="evenodd" clip-rule="evenodd" d="M74.6266 51.1869C78.9739 43.7533 78.4239 25.7445 79.3645 34.7857C80.018 41.0674 77.883 49.1497 75.9695 54.8419C77.8172 60.1756 79.4108 66.1435 80.649 72.819C81.0095 74.7623 81.5156 76.8114 82.1315 78.9172C87.5468 74.0649 86.2689 58.1093 87.2817 67.8448C87.9867 74.6212 85.7193 80.7446 83.9184 84.3854C89.9889 101.347 100.95 119.509 100.097 116.801C87.2069 75.9131 99.2024 72.8313 92.399 43.4036C87.2472 21.1197 62.192 15.0446 37.0969 11.4965C34.0782 10.6408 33.233 10.9589 36.0797 11.354C36.418 11.4009 36.7563 11.4484 37.0969 11.4965C42.7264 13.0926 55.9087 18.7708 66.7865 35.6437C69.0592 27.4336 68.831 16.7211 69.6006 24.119C70.0337 28.2822 69.242 33.2363 68.1023 37.7592C70.4415 41.6589 72.6506 46.1095 74.6266 51.1869Z" fill="#74AC40"/>
<path fill-rule="evenodd" clip-rule="evenodd" d="M124.221 138.809L123.971 141.651C123.971 141.651 112.45 129.458 101.537 118.879C89.7085 107.412 124.221 138.809 124.221 138.809Z" fill="#74AC40"/>
</g>
<defs>
<clipPath id="clip0">
<rect width="76" height="146" fill="white" transform="translate(0 64.533) rotate(-58.1158)"/>
</clipPath>
</defs>
</svg>
