<svg viewBox="0 0 560 533" fill="none" xmlns="http://www.w3.org/2000/svg">
<g>
<path d="M-65.3391 -72.3406C-65.3391 -72.3406 82.6818 -20.9441 132.419 26.8165C190.664 82.7448 190.72 230.887 253.628 290.675C312.369 346.503 446.485 350.432 498.508 399.936C543.851 443.083 596.264 560.245 596.264 560.245" stroke="#E9F0FF" stroke-width="15.64" stroke-miterlimit="1.5" stroke-linecap="round" stroke-linejoin="round"/>
<path d="M5.07983 -72.3406C5.07983 -72.3406 132.515 -28.0918 175.336 13.0271C225.48 61.1764 225.529 188.716 279.688 240.19C330.26 288.253 445.723 291.637 490.512 334.255C529.549 371.403 574.672 472.271 574.672 472.271" stroke="#E9F0FF" stroke-width="13.46" stroke-miterlimit="1.5" stroke-linecap="round" stroke-linejoin="round"/>
<path d="M-52.2554 9.59277C-52.2554 9.59277 83.6144 56.7697 129.269 100.61C182.732 151.946 182.784 287.928 240.528 342.808C294.447 394.053 417.553 397.659 465.304 443.098C506.926 482.704 555.036 590.25 555.036 590.25" stroke="#E9F0FF" stroke-width="14.35" stroke-miterlimit="1.5" stroke-linecap="round" stroke-linejoin="round"/>
</g>
</svg>
