<svg viewBox="0 0 560 425" fill="none" xmlns="http://www.w3.org/2000/svg">
<g clip-path="url(#clip0)">
<path d="M-65.3391 605.341C-65.3391 605.341 82.6818 553.944 132.419 506.184C190.664 450.255 190.72 302.113 253.628 242.325C312.369 186.497 446.485 182.568 498.508 133.064C543.851 89.9173 596.264 -27.2455 596.264 -27.2455" stroke="#F8FAFF" stroke-width="15.64" stroke-miterlimit="1.5" stroke-linecap="round" stroke-linejoin="round"/>
<path d="M5.07971 605.341C5.07971 605.341 132.515 561.092 175.336 519.973C225.48 471.824 225.529 344.284 279.688 292.81C330.26 244.747 445.723 241.363 490.512 198.745C529.549 161.597 574.672 60.7292 574.672 60.7292" stroke="#F8FAFF" stroke-width="13.46" stroke-miterlimit="1.5" stroke-linecap="round" stroke-linejoin="round"/>
<path d="M-52.2554 523.407C-52.2554 523.407 83.6144 476.23 129.269 432.39C182.732 381.054 182.784 245.072 240.528 190.192C294.447 138.947 417.553 135.341 465.304 89.9017C506.926 50.2956 555.036 -57.2497 555.036 -57.2497" stroke="#F8FAFF" stroke-width="14.35" stroke-miterlimit="1.5" stroke-linecap="round" stroke-linejoin="round"/>
</g>
</svg>
