<svg viewBox="0 0 560 425" fill="none" xmlns="http://www.w3.org/2000/svg">
<g clip-path="url(#clip0)">
<path d="M596.264 -180.341C596.264 -180.341 448.243 -128.944 398.505 -81.1835C340.261 -25.2552 340.204 122.887 277.297 182.675C218.556 238.503 84.4395 242.432 32.4168 291.936C-12.9267 335.083 -65.3392 452.245 -65.3392 452.245" stroke="#F8FAFF" stroke-width="15.64" stroke-miterlimit="1.5" stroke-linecap="round" stroke-linejoin="round"/>
<path d="M525.845 -180.341C525.845 -180.341 398.41 -136.092 355.589 -94.9729C305.445 -46.8236 305.396 80.7163 251.236 132.19C200.665 180.253 85.2015 183.637 40.413 226.255C1.37549 263.403 -43.7475 364.271 -43.7475 364.271" stroke="#F8FAFF" stroke-width="13.46" stroke-miterlimit="1.5" stroke-linecap="round" stroke-linejoin="round"/>
<path d="M583.18 -98.4072C583.18 -98.4072 447.31 -51.2303 401.655 -7.39023C348.193 43.9465 348.141 179.928 290.397 234.808C236.478 286.053 113.372 289.659 65.6202 335.098C23.9985 374.704 -24.1119 482.25 -24.1119 482.25" stroke="#F8FAFF" stroke-width="14.35" stroke-miterlimit="1.5" stroke-linecap="round" stroke-linejoin="round"/>
</g>
</svg>
