<svg viewBox="0 0 560 425" fill="none" xmlns="http://www.w3.org/2000/svg">
<g clip-path="url(#clip0)">
<path d="M-65.3391 -180.341C-65.3391 -180.341 82.6818 -128.944 132.419 -81.1835C190.664 -25.2552 190.72 122.887 253.628 182.675C312.369 238.503 446.485 242.432 498.508 291.936C543.851 335.083 596.264 452.245 596.264 452.245" stroke="#F8FAFF" stroke-width="15.64" stroke-miterlimit="1.5" stroke-linecap="round" stroke-linejoin="round"/>
<path d="M5.07971 -180.341C5.07971 -180.341 132.515 -136.092 175.336 -94.9729C225.48 -46.8236 225.529 80.7163 279.688 132.19C330.26 180.253 445.723 183.637 490.512 226.255C529.549 263.403 574.672 364.271 574.672 364.271" stroke="#F8FAFF" stroke-width="13.46" stroke-miterlimit="1.5" stroke-linecap="round" stroke-linejoin="round"/>
<path d="M-52.2554 -98.4072C-52.2554 -98.4072 83.6144 -51.2303 129.269 -7.39023C182.732 43.9465 182.784 179.928 240.528 234.808C294.447 286.053 417.553 289.659 465.304 335.098C506.926 374.704 555.036 482.25 555.036 482.25" stroke="#F8FAFF" stroke-width="14.35" stroke-miterlimit="1.5" stroke-linecap="round" stroke-linejoin="round"/>
</g>
</svg>
