<svg viewBox="0 0 24 26" fill="none" xmlns="http://www.w3.org/2000/svg">
<g clip-path="url(#clip0_36_71)">
<path fill-rule="evenodd" clip-rule="evenodd" d="M22.9201 20.2235C20.7271 10.5148 14.5079 2.59391 4.05518 0.775224C4.05518 0.775224 11.6607 -2.60388 19.4333 4.74764C27.087 11.9864 22.6477 20.3026 22.9201 20.2235Z" fill="#3165D4"/>
<path fill-rule="evenodd" clip-rule="evenodd" d="M16.1633 8.85706C15.5902 8.28369 14.6607 8.28369 14.0872 8.85706C11.232 11.7123 3.28525 19.6588 0.43003 22.5142C-0.143343 23.0876 -0.143343 24.0172 0.43003 24.5906C1.0034 25.1643 1.93325 25.1643 2.50663 24.5906L16.1636 10.9337C16.737 10.3603 16.737 9.43067 16.1636 8.8573C16.1636 8.8573 16.1636 8.85706 16.1633 8.85706Z" fill="#3165D4"/>
</g>
<defs>
<clipPath id="clip0_36_71">
<rect width="24" height="25.0746" fill="white"/>
</clipPath>
</defs>
</svg>
