<svg viewBox="0 0 75 75" fill="none" xmlns="http://www.w3.org/2000/svg">
<path fill-rule="evenodd" clip-rule="evenodd" d="M2.44197 44.8949L1.21197 40.3034C1.10988 39.923 1.08374 39.5261 1.13503 39.1356C1.18633 38.745 1.31406 38.3684 1.51092 38.0273C1.70779 37.6861 1.96994 37.387 2.2824 37.1472C2.59486 36.9073 2.95151 36.7314 3.33197 36.6294L57.907 22.0059C58.6756 21.8004 59.4944 21.9085 60.1834 22.3062C60.8725 22.704 61.3755 23.359 61.582 24.1274L67.792 47.3094C67.8942 47.6899 67.9205 48.0868 67.8693 48.4775C67.818 48.8681 67.6903 49.2449 67.4935 49.5862C67.2966 49.9275 67.0344 50.2266 66.7218 50.4665C66.4093 50.7064 66.0526 50.8824 65.672 50.9844L61.062 52.2194L56.287 34.3984C55.747 32.3734 53.662 31.1699 51.637 31.7134L2.44197 44.8939V44.8949Z" fill="#3165D4"/>
<path fill-rule="evenodd" clip-rule="evenodd" d="M6.312 30.329L4.212 22.497C4.10985 22.1166 4.08365 21.7197 4.13491 21.3291C4.18618 20.9386 4.3139 20.5619 4.51077 20.2207C4.70765 19.8795 4.96983 19.5805 5.28232 19.3407C5.59481 19.1008 5.9515 18.9249 6.332 18.823L60.907 4.19999C61.6756 3.99453 62.4944 4.10255 63.1835 4.50033C63.8725 4.89811 64.3755 5.55312 64.582 6.32149L70.792 29.5035C70.9968 30.2683 70.891 31.083 70.4976 31.7701C70.1043 32.4572 69.4552 32.9609 68.692 33.1715L64.582 17.8215C64.3755 17.0531 63.8725 16.3981 63.1835 16.0003C62.4944 15.6026 61.6756 15.4945 60.907 15.7L6.332 30.323L6.312 30.329ZM52.7425 40.197C52.5878 39.6208 52.2107 39.1295 51.694 38.8312C51.1774 38.5329 50.5634 38.4519 49.987 38.606L2.1735 51.418C1.5974 51.5727 1.10624 51.9497 0.807931 52.4663C0.509618 52.9828 0.428539 53.5967 0.582504 54.173L5.241 71.56C5.39568 72.1363 5.77287 72.6277 6.28966 72.926C6.80646 73.2243 7.42056 73.3053 7.997 73.151L55.81 60.3395C56.3862 60.1848 56.8775 59.8077 57.1758 59.291C57.4741 58.7743 57.5551 58.1604 57.401 57.584L52.7425 40.197Z" fill="#3165D4"/>
</svg>
