<svg viewBox="0 0 75 75" fill="none" xmlns="http://www.w3.org/2000/svg">
<g>
<path fill-rule="evenodd" clip-rule="evenodd" d="M20.9087 71.1354C21.5596 69.6722 23.2578 68.9715 24.7581 69.5694C26.4819 70.2543 28.2416 70.7952 30.0251 71.1885C30.9174 71.3861 31.8231 71.5486 32.7401 71.6753C34.34 71.8961 35.4712 73.344 35.3144 74.9378C30.1663 74.6416 25.2944 73.3048 20.9087 71.1354ZM41.3062 74.8097C41.0807 73.2243 42.1477 71.7284 43.7368 71.4382C45.5353 71.1104 47.3138 70.6344 49.0601 70.0135C49.9222 69.7067 50.7753 69.3636 51.6181 68.9847C53.0915 68.3222 54.819 68.9479 55.5325 70.3809C51.232 72.7472 46.4201 74.293 41.3062 74.8097ZM5.57921 57.1817C6.90629 56.2844 8.7179 56.5903 9.67507 57.8921C10.644 59.2086 11.6873 60.4396 12.7973 61.5761L13.2839 62.0653C13.9447 62.7165 14.6256 63.3365 15.325 63.924C16.5624 64.9632 16.7486 66.792 15.7665 68.0576C11.6899 65.1514 8.21922 61.4507 5.57921 57.1813V57.1817ZM60.5363 67.0833C59.4988 65.8611 59.6114 64.0271 60.799 62.9351C62.1358 61.7119 63.3918 60.3611 64.5552 58.8952L64.98 58.3507C65.3989 57.8014 65.7988 57.2396 66.1862 56.6653C67.0862 55.3226 68.88 54.9397 70.2428 55.7782C67.7927 60.1646 64.4802 64.0083 60.5363 67.0833ZM0.000599487 37.2224C1.60108 37.17 2.97231 38.3936 3.08835 40.0057C3.22106 41.851 3.50002 43.6761 3.92128 45.455C4.13354 46.3543 4.38118 47.2397 4.66307 48.1105C5.16005 49.6473 4.34892 51.2956 2.84608 51.848C1.01126 47.4286 -0.00109863 42.5824 -0.00109863 37.5012L0.000599487 37.2224ZM74.9488 35.595C74.9799 36.2255 74.9989 36.862 74.9989 37.5012C74.9989 42.0068 74.205 46.3279 72.7427 50.3306C71.2178 49.8449 70.3364 48.2335 70.7615 46.6762C71.2488 44.9168 71.5962 43.1037 71.7988 41.2623C71.8928 40.3543 71.955 39.4356 71.9865 38.5082C72.03 36.8926 73.3489 35.6099 74.9488 35.595ZM5.87553 17.3496C7.2595 18.1559 7.77006 19.9208 7.01185 21.3468C6.15818 22.9476 5.42587 24.641 4.82411 26.4058C4.5294 27.2714 4.26854 28.1538 4.04241 29.0499C3.64759 30.6158 2.08504 31.5818 0.518809 31.252C1.36674 26.2051 3.22448 21.4985 5.87553 17.3493V17.3496ZM68.2178 15.9965C71.0488 20.0357 73.1112 24.6607 74.1739 29.652C72.6238 30.0499 71.0177 29.1537 70.5552 27.6062C70.0204 25.8219 69.3508 24.1028 68.5551 22.4715C68.1511 21.638 67.7174 20.8268 67.2552 20.0402C66.4364 18.6479 66.8675 16.8621 68.2175 15.9965H68.2178ZM21.4105 3.62401C22.1577 5.04032 21.6567 6.80801 20.2586 7.61704C18.6857 8.52532 17.1688 9.57311 15.7201 10.7521C15.012 11.329 14.322 11.9388 13.6518 12.5802C12.4843 13.6976 10.6461 13.6851 9.49507 12.5719C12.8107 8.84967 16.8581 5.79066 21.4105 3.62401ZM52.102 2.95595C56.7532 4.92573 60.9238 7.80905 64.3927 11.3795C63.2926 12.5413 61.455 12.633 60.2425 11.567C58.8361 10.336 57.3578 9.2336 55.8195 8.26877L55.2325 7.90835C54.6378 7.55113 54.0355 7.21329 53.4263 6.89517C51.9942 6.14761 51.4177 4.40316 52.1017 2.95595H52.102ZM27.0106 1.49069C30.3381 0.521601 33.8583 0.00146484 37.4988 0.00146484C40.5701 0.00146484 43.5557 0.371597 46.4139 1.06951C46.0983 2.63894 44.5941 3.6938 42.9987 3.43755C41.175 3.14631 39.3378 3.00064 37.4988 3.00145L36.9602 3.00596C35.7056 3.02471 34.4668 3.11083 33.2481 3.26083C32.3288 3.37402 31.4212 3.52332 30.5254 3.707C28.9436 4.03199 27.3952 3.0452 27.0106 1.49069ZM52.5011 34.2513C52.5011 30.1117 49.1408 26.7513 45.0011 26.7513H30.001C25.8615 26.7513 22.501 30.1117 22.501 34.2513V49.2512C22.501 53.3907 25.8615 56.7511 30.001 56.7511H45.0011C49.1408 56.7511 52.5011 53.3907 52.5011 49.2512V34.2513Z" fill="#3165D4"/>
<path d="M37.5002 38.2512C43.0231 38.2512 47.5002 33.2144 47.5002 27.0013C47.5002 20.7881 43.0231 15.7513 37.5002 15.7513C31.9773 15.7513 27.5001 20.7881 27.5001 27.0013C27.5001 33.2144 31.9773 38.2512 37.5002 38.2512Z" fill="#3165D4"/>
<path d="M37.5011 39.2512C38.8818 39.2512 40.0011 38.1319 40.0011 36.7512C40.0011 35.3705 38.8818 34.2512 37.5011 34.2512C36.1204 34.2512 35.0011 35.3705 35.0011 36.7512C35.0011 38.1319 36.1204 39.2512 37.5011 39.2512Z" fill="white"/>
<path fill-rule="evenodd" clip-rule="evenodd" d="M36.502 38.2512H38.5021V48.2512H36.502V38.2512Z" fill="white"/>
</g>
</svg>
