<svg viewBox="0 0 284 379" fill="none" xmlns="http://www.w3.org/2000/svg">
<g clip-path="url(#clip0)">
<path fill-rule="evenodd" clip-rule="evenodd" d="M47.0913 94.7068C47.0913 42.4366 89.5705 0 141.893 0C194.216 0 236.695 42.4366 236.695 94.7068H249.387C268.56 94.7068 284.128 110.258 284.128 129.413V344.184C284.128 363.339 268.56 378.89 249.387 378.89H34.4C15.2263 378.89 -0.34082 363.339 -0.34082 344.184V129.413C-0.34082 110.258 15.2263 94.7068 34.4 94.7068H47.0913ZM276.807 134.939C276.807 116.771 262.042 102.02 243.854 102.02H39.932C21.7451 102.02 6.97945 116.771 6.97945 134.939V338.657C6.97945 356.827 21.7451 371.577 39.932 371.577H243.854C262.042 371.577 276.807 356.827 276.807 338.657V134.939ZM128.037 241.558C119.348 236.698 113.469 227.411 113.469 216.764C113.469 201.092 126.205 188.368 141.893 188.368C157.581 188.368 170.318 201.092 170.318 216.764C170.318 227.411 164.439 236.698 155.749 241.558V278.308C155.749 282.128 152.645 285.228 148.821 285.228H134.965C131.141 285.228 128.037 282.128 128.037 278.308V241.558ZM229.413 94.1414L229.414 94.7068H54.3724C54.3724 46.4511 93.589 7.27373 141.893 7.27373C190.009 7.27373 229.108 46.146 229.413 94.1414Z" fill="white"/>
</g>

</svg>
