<svg  viewBox="0 0 120 120" fill="none" xmlns="http://www.w3.org/2000/svg">
<rect x="1" y="1.00043" width="118" height="118" rx="15" fill="#0A3FB1" stroke="white" stroke-width="2"/>
<g clip-path="url(#clip0_36_51)">
<path fill-rule="evenodd" clip-rule="evenodd" d="M-13.0442 131.748L58.5911 131.748L58.5911 -76.235L-13.0442 -76.235L-13.0442 131.748ZM56.2054 129.991L56.2054 -74.4783L-10.6583 -74.4783L-10.6583 129.991L56.2054 129.991Z" fill="white"/>
<path fill-rule="evenodd" clip-rule="evenodd" d="M-13.0444 105.246L49.4626 105.246L49.4626 -76.235L-13.0444 -76.235L-13.0444 105.246ZM47.3809 103.713L47.381 -74.7016L-10.9627 -74.7016L-10.9627 103.713L47.3809 103.713Z" fill="white"/>
<path fill-rule="evenodd" clip-rule="evenodd" d="M-13.0443 77.8126L40.0142 77.8126L40.0142 -76.235L-13.0443 -76.235L-13.0443 77.8126ZM38.2471 76.5111L38.2471 -74.9342L-11.2773 -74.9342L-11.2773 76.5111L38.2471 76.5111Z" fill="white"/>
<path fill-rule="evenodd" clip-rule="evenodd" d="M-13.0441 49.435L30.24 49.435L30.24 -76.235L-13.0441 -76.235L-13.0441 49.435ZM28.7984 48.3733L28.7985 -75.1727L-11.6026 -75.1727L-11.6026 48.3733L28.7984 48.3733Z" fill="white"/>
<path fill-rule="evenodd" clip-rule="evenodd" d="M-13.0443 22.9777L21.1274 22.9777L21.1274 -76.235L-13.0443 -76.235L-13.0443 22.9777ZM19.9894 22.1394L19.9894 -75.3967L-11.9062 -75.3967L-11.9062 22.1394L19.9894 22.1394Z" fill="white"/>
<path fill-rule="evenodd" clip-rule="evenodd" d="M-13.0444 163.299L69.4578 163.299L69.4578 -76.235L-13.0444 -76.235L-13.0444 163.299ZM66.7101 161.275L66.7101 -74.2117L-10.2968 -74.2117L-10.2968 161.275L66.7101 161.275Z" fill="white"/>
<path fill-rule="evenodd" clip-rule="evenodd" d="M-13.0445 195.555L80.5676 195.555L80.5676 -76.235L-13.0445 -76.235L-13.0445 195.555ZM77.4501 193.259L77.4501 -73.9398L-9.92675 -73.9398L-9.92676 193.259L77.4501 193.259Z" fill="white"/>
<path fill-rule="evenodd" clip-rule="evenodd" d="M-13.0445 229.245L92.1714 229.245L92.1714 -76.235L-13.0445 -76.235L-13.0445 229.245ZM88.6673 226.665L88.6673 -73.6538L-9.54043 -73.6538L-9.54044 226.665L88.6673 226.665Z" fill="white"/>
<path fill-rule="evenodd" clip-rule="evenodd" d="M-13.0443 262.137L103.5 262.137L103.5 -76.235L-13.0443 -76.235L-13.0443 262.137ZM99.6192 259.278L99.6192 -73.376L-9.16283 -73.376L-9.16284 259.278L99.6192 259.278Z" fill="white"/>
<path fill-rule="evenodd" clip-rule="evenodd" d="M-13.0445 295.854L115.113 295.854L115.113 -76.235L-13.0445 -76.235L-13.0445 295.854ZM110.845 292.71L110.845 -73.0915L-8.77633 -73.0916L-8.77635 292.71L110.845 292.71Z" fill="white"/>
<path fill-rule="evenodd" clip-rule="evenodd" d="M-13.0444 330.365L127 330.365L127 -76.235L-13.0444 -76.235L-13.0444 330.365ZM122.336 326.93L122.336 -72.8L-8.38039 -72.8L-8.3804 326.93L122.336 326.93Z" fill="white"/>
</g>
<defs>
<clipPath id="clip0_36_51">
<rect x="120" width="120" height="120" rx="16" transform="rotate(90 120 0)" fill="white"/>
</clipPath>
</defs>
</svg>
