<svg  viewBox="0 0 571 92" fill="none" xmlns="http://www.w3.org/2000/svg">
<g clip-path="url(#clip0)">
<path fill-rule="evenodd" clip-rule="evenodd" d="M288.099 92.0292V44.9546H-8V92.0292H288.099ZM285.597 46.5223H-5.49912V90.4613H285.597V46.5223Z" fill="#5088FF"/>
<path fill-rule="evenodd" clip-rule="evenodd" d="M250.369 92.0292V50.9531H-8V92.0292H250.369ZM248.186 52.3211H-5.81697V90.6612H248.186V52.3211Z" fill="#5088FF"/>
<path fill-rule="evenodd" clip-rule="evenodd" d="M211.312 92.0292V57.1622H-8V92.0292H211.312ZM209.46 58.3234H-6.14816V90.868H209.46V58.3234Z" fill="#5088FF"/>
<path fill-rule="evenodd" clip-rule="evenodd" d="M170.912 92.0292V63.5853H-8V92.0292H170.912ZM169.401 64.5326H-6.4877V91.0819H169.401V64.5326Z" fill="#5088FF"/>
<path fill-rule="evenodd" clip-rule="evenodd" d="M133.246 92.0292V69.5735H-8V92.0292H133.246ZM132.052 70.3214H-6.80662V91.2813H132.052V70.3214Z" fill="#5088FF"/>
<path fill-rule="evenodd" clip-rule="evenodd" d="M333.016 92.0292V37.8135H-8V92.0292H333.016ZM330.135 39.6191H-5.11958V90.2237H330.135V39.6191Z" fill="#5088FF"/>
<path fill-rule="evenodd" clip-rule="evenodd" d="M378.938 92.0292V30.5127H-8V92.0292H378.938ZM375.669 32.5614H-4.73239V89.9804H375.669V32.5614Z" fill="#5088FF"/>
<path fill-rule="evenodd" clip-rule="evenodd" d="M426.902 92.0292V22.8873H-8V92.0292H426.902ZM423.228 25.1899H-4.3253V89.7265H423.228V25.1899Z" fill="#5088FF"/>
<path fill-rule="evenodd" clip-rule="evenodd" d="M473.729 92.0291V15.4426H-8V92.0291H473.729ZM469.659 17.9931H-3.92976V89.4785H469.659V17.9931Z" fill="#5088FF"/>
<path fill-rule="evenodd" clip-rule="evenodd" d="M521.731 92.0291V7.81116H-8V92.0291H521.731ZM517.255 10.6159H-3.52479V89.2243H517.255V10.6159Z" fill="#5088FF"/>
<path fill-rule="evenodd" clip-rule="evenodd" d="M570.863 92.0292V0H-8V92.0292H570.863ZM565.973 3.06492H-3.1097V88.9643H565.973V3.06492Z" fill="#5088FF"/>
</g>
<defs>
<clipPath id="clip0">
<rect width="571" height="92" fill="white"/>
</clipPath>
</defs>
</svg>
