<svg viewBox="0 0 22 22" fill="none" xmlns="http://www.w3.org/2000/svg">
<path d="M10.9966 8.24737C16.8742 8.24737 21.9931 6.40086 21.9931 4.12365C21.9931 1.8465 16.8742 0 10.9966 0C5.11998 0 0 1.84651 0 4.12365C0 6.40086 5.11998 8.24737 10.9966 8.24737ZM11.2022 4.56448C10.5446 4.39954 8.53224 4.26022 8.53224 3.32734C8.53224 2.80684 9.26675 2.34318 10.6403 2.23963V1.83274H11.3462V2.21943C11.8609 2.2295 12.4338 2.27627 13.0716 2.38439L12.8143 3.01212C12.3293 2.91958 11.7883 2.82973 11.2572 2.82973L11.0977 2.83159C10.0399 2.86825 9.95297 3.3576 10.6876 3.56376C11.8884 3.87259 13.4719 4.09982 13.4719 4.91909C13.4719 5.5734 12.5185 5.92438 11.3452 6.01142V6.41462H10.6392V6.03344C9.91446 6.02793 9.15136 5.92988 8.52233 5.75487L8.84671 5.1262C9.38336 5.24075 10.0585 5.35805 10.6666 5.35805C10.8261 5.35805 10.9789 5.34979 11.1252 5.33242C11.9356 5.23524 12.0973 4.78071 11.2022 4.56448ZM10.9966 19.2439C15.1565 19.2439 19.4727 18.356 21.9931 16.6753V17.8693C21.9931 20.1465 16.8742 21.993 10.9966 21.993C5.11998 21.993 0 20.1465 0 17.8693V16.6744C2.52037 18.3559 6.83657 19.2439 10.9966 19.2439V19.2439ZM10.9966 10.0801C15.1565 10.0801 19.4727 9.19215 21.9931 7.51147V8.70554C21.9931 10.9827 16.8742 12.8292 10.9966 12.8292C5.11998 12.8292 0 10.9827 0 8.70554V7.51147C2.52037 9.19215 6.83657 10.0801 10.9966 10.0801V10.0801ZM10.9966 14.662C15.1565 14.662 19.4727 13.774 21.9931 12.0934V13.2874C21.9931 15.5646 16.8742 17.4111 10.9966 17.4111C5.11998 17.4111 0 15.5646 0 13.2874V12.0925C2.52037 13.774 6.83657 14.662 10.9966 14.662Z" fill="white"/>
<path d="M10.9965 7.33099C12.8184 7.33099 14.2954 5.89502 14.2954 4.12365C14.2954 2.35229 12.8184 0.916321 10.9965 0.916321C9.1745 0.916321 7.69751 2.35229 7.69751 4.12365C7.69751 5.89502 9.1745 7.33099 10.9965 7.33099Z" fill="white"/>
</svg>
