<svg  viewBox="0 0 253 366" fill="none" xmlns="http://www.w3.org/2000/svg">
<path fill-rule="evenodd" clip-rule="evenodd" d="M124.609 105.609H117.654C117.48 105.609 117.314 105.678 117.192 105.8C117.069 105.923 117 106.089 117 106.263V107.57C117 107.744 117.069 107.91 117.192 108.033C117.314 108.155 117.48 108.224 117.654 108.224H124.609V115.179C124.609 115.353 124.678 115.519 124.8 115.642C124.923 115.764 125.089 115.833 125.263 115.833H126.57C126.744 115.833 126.91 115.764 127.033 115.642C127.155 115.519 127.224 115.353 127.224 115.179V108.224H134.179C134.353 108.224 134.519 108.155 134.642 108.033C134.764 107.91 134.833 107.744 134.833 107.57V106.263C134.833 106.089 134.764 105.923 134.642 105.8C134.519 105.678 134.353 105.609 134.179 105.609H127.224V98.6538C127.224 98.4804 127.155 98.3142 127.033 98.1916C126.91 98.0689 126.744 98 126.57 98H125.263C125.089 98 124.923 98.0689 124.8 98.1916C124.678 98.3142 124.609 98.4804 124.609 98.6538V105.609V105.609Z" fill="#3165D4"/>
<path fill-rule="evenodd" clip-rule="evenodd" d="M78.8013 53.8013H72.5844C72.4294 53.8014 72.2808 53.863 72.1712 53.9725C72.0616 54.0821 72 54.2308 72 54.3858V55.5546C72 55.7096 72.0616 55.8582 72.1712 55.9678C72.2808 56.0774 72.4294 56.139 72.5844 56.139H78.8013V62.3559C78.8014 62.5109 78.863 62.6596 78.9725 62.7691C79.0821 62.8787 79.2308 62.9403 79.3858 62.9404H80.5546C80.7096 62.9403 80.8582 62.8787 80.9678 62.7691C81.0774 62.6596 81.139 62.5109 81.139 62.3559V56.139H87.3559C87.5109 56.139 87.6596 56.0774 87.7691 55.9678C87.8787 55.8582 87.9403 55.7096 87.9404 55.5546V54.3858C87.9403 54.2308 87.8787 54.0821 87.7691 53.9725C87.6596 53.863 87.5109 53.8014 87.3559 53.8013H81.139V47.5844C81.139 47.4294 81.0774 47.2808 80.9678 47.1712C80.8582 47.0616 80.7096 47 80.5546 47H79.3858C79.2308 47 79.0821 47.0616 78.9725 47.1712C78.863 47.2808 78.8014 47.4294 78.8013 47.5844V53.8013V53.8013Z" fill="#2F3030"/>
<path fill-rule="evenodd" clip-rule="evenodd" d="M243.801 29.8013H237.584C237.429 29.8014 237.281 29.863 237.171 29.9725C237.062 30.0821 237 30.2308 237 30.3858V31.5546C237 31.7096 237.062 31.8582 237.171 31.9678C237.281 32.0774 237.429 32.139 237.584 32.139H243.801V38.3559C243.801 38.5109 243.863 38.6596 243.973 38.7691C244.082 38.8787 244.231 38.9403 244.386 38.9404H245.555C245.71 38.9403 245.858 38.8787 245.968 38.7691C246.077 38.6596 246.139 38.5109 246.139 38.3559V32.139H252.356C252.511 32.139 252.66 32.0774 252.769 31.9678C252.879 31.8582 252.94 31.7096 252.94 31.5546V30.3858C252.94 30.2308 252.879 30.0821 252.769 29.9725C252.66 29.863 252.511 29.8014 252.356 29.8013H246.139V23.5844C246.139 23.4294 246.077 23.2808 245.968 23.1712C245.858 23.0616 245.71 23 245.555 23H244.386C244.231 23 244.082 23.0616 243.973 23.1712C243.863 23.2808 243.801 23.4294 243.801 23.5844V29.8013V29.8013Z" fill="#8DC351"/>
<path fill-rule="evenodd" clip-rule="evenodd" d="M219.801 104.801H213.584C213.429 104.801 213.281 104.863 213.171 104.973C213.062 105.082 213 105.231 213 105.386V106.555C213 106.71 213.062 106.858 213.171 106.968C213.281 107.077 213.429 107.139 213.584 107.139H219.801V113.356C219.801 113.511 219.863 113.66 219.973 113.769C220.082 113.879 220.231 113.94 220.386 113.94H221.555C221.71 113.94 221.858 113.879 221.968 113.769C222.077 113.66 222.139 113.511 222.139 113.356V107.139H228.356C228.511 107.139 228.66 107.077 228.769 106.968C228.879 106.858 228.94 106.71 228.94 106.555V105.386C228.94 105.231 228.879 105.082 228.769 104.973C228.66 104.863 228.511 104.801 228.356 104.801H222.139V98.5844C222.139 98.4294 222.077 98.2808 221.968 98.1712C221.858 98.0616 221.71 98 221.555 98H220.386C220.231 98 220.082 98.0616 219.973 98.1712C219.863 98.2808 219.801 98.4294 219.801 98.5844V104.801V104.801Z" fill="#F7931A"/>
<path fill-rule="evenodd" clip-rule="evenodd" d="M227.801 340.801H221.584C221.429 340.801 221.281 340.863 221.171 340.973C221.062 341.082 221 341.231 221 341.386V342.555C221 342.71 221.062 342.858 221.171 342.968C221.281 343.077 221.429 343.139 221.584 343.139H227.801V349.356C227.801 349.511 227.863 349.66 227.973 349.769C228.082 349.879 228.231 349.94 228.386 349.94H229.555C229.71 349.94 229.858 349.879 229.968 349.769C230.077 349.66 230.139 349.511 230.139 349.356V343.139H236.356C236.511 343.139 236.66 343.077 236.769 342.968C236.879 342.858 236.94 342.71 236.94 342.555V341.386C236.94 341.231 236.879 341.082 236.769 340.973C236.66 340.863 236.511 340.801 236.356 340.801H230.139V334.584C230.139 334.429 230.077 334.281 229.968 334.171C229.858 334.062 229.71 334 229.555 334H228.386C228.231 334 228.082 334.062 227.973 334.171C227.863 334.281 227.801 334.429 227.801 334.584V340.801V340.801Z" fill="#8247E5"/>
<path fill-rule="evenodd" clip-rule="evenodd" d="M19.8013 97.8013H13.5844C13.4294 97.8014 13.2808 97.863 13.1712 97.9725C13.0616 98.0821 13 98.2308 13 98.3858V99.5546C13 99.7096 13.0616 99.8582 13.1712 99.9678C13.2808 100.077 13.4294 100.139 13.5844 100.139H19.8013V106.356C19.8014 106.511 19.863 106.66 19.9725 106.769C20.0821 106.879 20.2308 106.94 20.3858 106.94H21.5546C21.7096 106.94 21.8582 106.879 21.9678 106.769C22.0774 106.66 22.139 106.511 22.139 106.356V100.139H28.3559C28.5109 100.139 28.6596 100.077 28.7691 99.9678C28.8787 99.8582 28.9403 99.7096 28.9404 99.5546V98.3858C28.9403 98.2308 28.8787 98.0821 28.7691 97.9725C28.6596 97.863 28.5109 97.8014 28.3559 97.8013H22.139V91.5844C22.139 91.4294 22.0774 91.2808 21.9678 91.1712C21.8582 91.0616 21.7096 91 21.5546 91H20.3858C20.2308 91 20.0821 91.0616 19.9725 91.1712C19.863 91.2808 19.8014 91.4294 19.8013 91.5844V97.8013V97.8013Z" fill="#F61280"/>
<path fill-rule="evenodd" clip-rule="evenodd" d="M113.801 309.801H107.584C107.429 309.801 107.281 309.863 107.171 309.973C107.062 310.082 107 310.231 107 310.386V311.555C107 311.71 107.062 311.858 107.171 311.968C107.281 312.077 107.429 312.139 107.584 312.139H113.801V318.356C113.801 318.511 113.863 318.66 113.973 318.769C114.082 318.879 114.231 318.94 114.386 318.94H115.555C115.71 318.94 115.858 318.879 115.968 318.769C116.077 318.66 116.139 318.511 116.139 318.356V312.139H122.356C122.511 312.139 122.66 312.077 122.769 311.968C122.879 311.858 122.94 311.71 122.94 311.555V310.386C122.94 310.231 122.879 310.082 122.769 309.973C122.66 309.863 122.511 309.801 122.356 309.801H116.139V303.584C116.139 303.429 116.077 303.281 115.968 303.171C115.858 303.062 115.71 303 115.555 303H114.386C114.231 303 114.082 303.062 113.973 303.171C113.863 303.281 113.801 303.429 113.801 303.584V309.801V309.801Z" fill="#2875C9"/>
<path fill-rule="evenodd" clip-rule="evenodd" d="M243.801 281.801H237.584C237.429 281.801 237.281 281.863 237.171 281.973C237.062 282.082 237 282.231 237 282.386V283.555C237 283.71 237.062 283.858 237.171 283.968C237.281 284.077 237.429 284.139 237.584 284.139H243.801V290.356C243.801 290.511 243.863 290.66 243.973 290.769C244.082 290.879 244.231 290.94 244.386 290.94H245.555C245.71 290.94 245.858 290.879 245.968 290.769C246.077 290.66 246.139 290.511 246.139 290.356V284.139H252.356C252.511 284.139 252.66 284.077 252.769 283.968C252.879 283.858 252.94 283.71 252.94 283.555V282.386C252.94 282.231 252.879 282.082 252.769 281.973C252.66 281.863 252.511 281.801 252.356 281.801H246.139V275.584C246.139 275.429 246.077 275.281 245.968 275.171C245.858 275.062 245.71 275 245.555 275H244.386C244.231 275 244.082 275.062 243.973 275.171C243.863 275.281 243.801 275.429 243.801 275.584V281.801V281.801Z" fill="#335DD2"/>
<path fill-rule="evenodd" clip-rule="evenodd" d="M6.80132 301.801H0.584431C0.429444 301.801 0.280816 301.863 0.171224 301.973C0.0616309 302.082 4.3166e-05 302.231 0 302.386L0 303.555C4.3166e-05 303.71 0.0616309 303.858 0.171224 303.968C0.280816 304.077 0.429444 304.139 0.584431 304.139H6.80132V310.356C6.80136 310.511 6.86295 310.66 6.97254 310.769C7.08214 310.879 7.23076 310.94 7.38575 310.94H8.55461C8.7096 310.94 8.85823 310.879 8.96782 310.769C9.07741 310.66 9.139 310.511 9.13905 310.356V304.139H15.3559C15.5109 304.139 15.6596 304.077 15.7691 303.968C15.8787 303.858 15.9403 303.71 15.9404 303.555V302.386C15.9403 302.231 15.8787 302.082 15.7691 301.973C15.6596 301.863 15.5109 301.801 15.3559 301.801H9.13905V295.584C9.139 295.429 9.07741 295.281 8.96782 295.171C8.85823 295.062 8.7096 295 8.55461 295H7.38575C7.23076 295 7.08214 295.062 6.97254 295.171C6.86295 295.281 6.80136 295.429 6.80132 295.584V301.801V301.801Z" fill="#FFD83D"/>
<path fill-rule="evenodd" clip-rule="evenodd" d="M49.8013 353.801H43.5844C43.4294 353.801 43.2808 353.863 43.1712 353.973C43.0616 354.082 43 354.231 43 354.386V355.555C43 355.71 43.0616 355.858 43.1712 355.968C43.2808 356.077 43.4294 356.139 43.5844 356.139H49.8013V362.356C49.8014 362.511 49.863 362.66 49.9725 362.769C50.0821 362.879 50.2308 362.94 50.3858 362.94H51.5546C51.7096 362.94 51.8582 362.879 51.9678 362.769C52.0774 362.66 52.139 362.511 52.139 362.356V356.139H58.3559C58.5109 356.139 58.6596 356.077 58.7691 355.968C58.8787 355.858 58.9403 355.71 58.9404 355.555V354.386C58.9403 354.231 58.8787 354.082 58.7691 353.973C58.6596 353.863 58.5109 353.801 58.3559 353.801H52.139V347.584C52.139 347.429 52.0774 347.281 51.9678 347.171C51.8582 347.062 51.7096 347 51.5546 347H50.3858C50.2308 347 50.0821 347.062 49.9725 347.171C49.863 347.281 49.8014 347.429 49.8013 347.584V353.801V353.801Z" fill="#30CEB8"/>
<path fill-rule="evenodd" clip-rule="evenodd" d="M149.801 356.801H143.584C143.429 356.801 143.281 356.863 143.171 356.973C143.062 357.082 143 357.231 143 357.386V358.555C143 358.71 143.062 358.858 143.171 358.968C143.281 359.077 143.429 359.139 143.584 359.139H149.801V365.356C149.801 365.511 149.863 365.66 149.973 365.769C150.082 365.879 150.231 365.94 150.386 365.94H151.555C151.71 365.94 151.858 365.879 151.968 365.769C152.077 365.66 152.139 365.511 152.139 365.356V359.139H158.356C158.511 359.139 158.66 359.077 158.769 358.968C158.879 358.858 158.94 358.71 158.94 358.555V357.386C158.94 357.231 158.879 357.082 158.769 356.973C158.66 356.863 158.511 356.801 158.356 356.801H152.139V350.584C152.139 350.429 152.077 350.281 151.968 350.171C151.858 350.062 151.71 350 151.555 350H150.386C150.231 350 150.082 350.062 149.973 350.171C149.863 350.281 149.801 350.429 149.801 350.584V356.801V356.801Z" fill="#0334AE"/>
<path fill-rule="evenodd" clip-rule="evenodd" d="M168.801 53.8013H162.584C162.429 53.8014 162.281 53.863 162.171 53.9725C162.062 54.0821 162 54.2308 162 54.3858V55.5546C162 55.7096 162.062 55.8582 162.171 55.9678C162.281 56.0774 162.429 56.139 162.584 56.139H168.801V62.3559C168.801 62.5109 168.863 62.6596 168.973 62.7691C169.082 62.8787 169.231 62.9403 169.386 62.9404H170.555C170.71 62.9403 170.858 62.8787 170.968 62.7691C171.077 62.6596 171.139 62.5109 171.139 62.3559V56.139H177.356C177.511 56.139 177.66 56.0774 177.769 55.9678C177.879 55.8582 177.94 55.7096 177.94 55.5546V54.3858C177.94 54.2308 177.879 54.0821 177.769 53.9725C177.66 53.863 177.511 53.8014 177.356 53.8013H171.139V47.5844C171.139 47.4294 171.077 47.2808 170.968 47.1712C170.858 47.0616 170.71 47 170.555 47H169.386C169.231 47 169.082 47.0616 168.973 47.1712C168.863 47.2808 168.801 47.4294 168.801 47.5844V53.8013V53.8013Z" fill="#F3BA2F"/>
<path fill-rule="evenodd" clip-rule="evenodd" d="M123.801 6.80132H117.584C117.429 6.80136 117.281 6.86295 117.171 6.97254C117.062 7.08214 117 7.23076 117 7.38575V8.55461C117 8.7096 117.062 8.85823 117.171 8.96782C117.281 9.07741 117.429 9.139 117.584 9.13905H123.801V15.3559C123.801 15.5109 123.863 15.6596 123.973 15.7691C124.082 15.8787 124.231 15.9403 124.386 15.9404H125.555C125.71 15.9403 125.858 15.8787 125.968 15.7691C126.077 15.6596 126.139 15.5109 126.139 15.3559V9.13905H132.356C132.511 9.139 132.66 9.07741 132.769 8.96782C132.879 8.85823 132.94 8.7096 132.94 8.55461V7.38575C132.94 7.23076 132.879 7.08214 132.769 6.97254C132.66 6.86295 132.511 6.80136 132.356 6.80132H126.139V0.584431C126.139 0.429444 126.077 0.280816 125.968 0.171224C125.858 0.0616309 125.71 4.3166e-05 125.555 0H124.386C124.231 4.3166e-05 124.082 0.0616309 123.973 0.171224C123.863 0.280816 123.801 0.429444 123.801 0.584431V6.80132V6.80132Z" fill="#BA9F33"/>
<path fill-rule="evenodd" clip-rule="evenodd" d="M19.8013 14.8013H13.5844C13.4294 14.8014 13.2808 14.863 13.1712 14.9725C13.0616 15.0821 13 15.2308 13 15.3858V16.5546C13 16.7096 13.0616 16.8582 13.1712 16.9678C13.2808 17.0774 13.4294 17.139 13.5844 17.139H19.8013V23.3559C19.8014 23.5109 19.863 23.6596 19.9725 23.7691C20.0821 23.8787 20.2308 23.9403 20.3858 23.9404H21.5546C21.7096 23.9403 21.8582 23.8787 21.9678 23.7691C22.0774 23.6596 22.139 23.5109 22.139 23.3559V17.139H28.3559C28.5109 17.139 28.6596 17.0774 28.7691 16.9678C28.8787 16.8582 28.9403 16.7096 28.9404 16.5546V15.3858C28.9403 15.2308 28.8787 15.0821 28.7691 14.9725C28.6596 14.863 28.5109 14.8014 28.3559 14.8013H22.139V8.58443C22.139 8.42944 22.0774 8.28082 21.9678 8.17122C21.8582 8.06163 21.7096 8.00004 21.5546 8H20.3858C20.2308 8.00004 20.0821 8.06163 19.9725 8.17122C19.863 8.28082 19.8014 8.42944 19.8013 8.58443V14.8013V14.8013Z" fill="#2F3030"/>
</svg>
