<svg viewBox="0 0 999 654" fill="none" xmlns="http://www.w3.org/2000/svg">
<path fill-rule="evenodd" clip-rule="evenodd" d="M80.9334 99.9334H70.0254C69.7535 99.9335 69.4927 100.042 69.3004 100.234C69.1081 100.426 69.0001 100.687 69 100.959V103.01C69.0001 103.282 69.1081 103.542 69.3004 103.735C69.4927 103.927 69.7535 104.035 70.0254 104.035H80.9334V114.943C80.9335 115.215 81.0416 115.476 81.2339 115.668C81.4261 115.86 81.6869 115.968 81.9589 115.969H84.0097C84.2817 115.968 84.5424 115.86 84.7347 115.668C84.927 115.476 85.0351 115.215 85.0351 114.943V104.035H95.9431C96.2151 104.035 96.4759 103.927 96.6681 103.735C96.8604 103.542 96.9685 103.282 96.9686 103.01V100.959C96.9685 100.687 96.8604 100.426 96.6681 100.234C96.4759 100.042 96.2151 99.9335 95.9431 99.9334H85.0351V89.0254C85.0351 88.7535 84.927 88.4927 84.7347 88.3004C84.5424 88.1081 84.2817 88.0001 84.0097 88H81.9589C81.6869 88.0001 81.4261 88.1081 81.2339 88.3004C81.0416 88.4927 80.9335 88.7535 80.9334 89.0254V99.9334Z" fill="#3165D4"/>
<path fill-rule="evenodd" clip-rule="evenodd" d="M853.667 621.667H843.917C843.674 621.667 843.44 621.763 843.269 621.935C843.097 622.107 843 622.34 843 622.583V624.417C843 624.66 843.097 624.893 843.269 625.065C843.44 625.237 843.674 625.333 843.917 625.333H853.667V635.083C853.667 635.326 853.763 635.56 853.935 635.731C854.107 635.903 854.34 636 854.583 636H856.417C856.66 636 856.893 635.903 857.065 635.731C857.237 635.56 857.333 635.326 857.333 635.083V625.333H867.083C867.326 625.333 867.56 625.237 867.731 625.065C867.903 624.893 868 624.66 868 624.417V622.583C868 622.34 867.903 622.107 867.731 621.935C867.56 621.763 867.326 621.667 867.083 621.667H857.333V611.917C857.333 611.674 857.237 611.44 857.065 611.269C856.893 611.097 856.66 611 856.417 611H854.583C854.34 611 854.107 611.097 853.935 611.269C853.763 611.44 853.667 611.674 853.667 611.917V621.667Z" fill="#3165D4"/>
<path fill-rule="evenodd" clip-rule="evenodd" d="M243.667 59.6668H233.917C233.674 59.6669 233.44 59.7635 233.269 59.9354C233.097 60.1072 233 60.3403 233 60.5834V62.4166C233 62.6597 233.097 62.8928 233.269 63.0646C233.44 63.2365 233.674 63.3331 233.917 63.3332H243.667V73.0834C243.667 73.3265 243.763 73.5596 243.935 73.7315C244.107 73.9033 244.34 73.9999 244.583 74H246.417C246.66 73.9999 246.893 73.9033 247.065 73.7315C247.237 73.5596 247.333 73.3265 247.333 73.0834V63.3332H257.083C257.326 63.3331 257.56 63.2365 257.731 63.0646C257.903 62.8928 258 62.6597 258 62.4166V60.5834C258 60.3403 257.903 60.1072 257.731 59.9354C257.56 59.7635 257.326 59.6669 257.083 59.6668H247.333V49.9166C247.333 49.6735 247.237 49.4404 247.065 49.2685C246.893 49.0967 246.66 49.0001 246.417 49H244.583C244.34 49.0001 244.107 49.0967 243.935 49.2685C243.763 49.4404 243.667 49.6735 243.667 49.9166V59.6668Z" fill="#2F3030"/>
<path fill-rule="evenodd" clip-rule="evenodd" d="M362.667 22.6668H352.917C352.674 22.6669 352.44 22.7635 352.269 22.9354C352.097 23.1072 352 23.3403 352 23.5834V25.4166C352 25.6597 352.097 25.8928 352.269 26.0646C352.44 26.2365 352.674 26.3331 352.917 26.3332H362.667V36.0834C362.667 36.3265 362.763 36.5596 362.935 36.7315C363.107 36.9033 363.34 36.9999 363.583 37H365.417C365.66 36.9999 365.893 36.9033 366.065 36.7315C366.237 36.5596 366.333 36.3265 366.333 36.0834V26.3332H376.083C376.326 26.3331 376.56 26.2365 376.731 26.0646C376.903 25.8928 377 25.6597 377 25.4166V23.5834C377 23.3403 376.903 23.1072 376.731 22.9354C376.56 22.7635 376.326 22.6669 376.083 22.6668H366.333V12.9166C366.333 12.6735 366.237 12.4404 366.065 12.2685C365.893 12.0967 365.66 12.0001 365.417 12H363.583C363.34 12.0001 363.107 12.0967 362.935 12.2685C362.763 12.4404 362.667 12.6735 362.667 12.9166V22.6668Z" fill="#8DC351"/>
<path fill-rule="evenodd" clip-rule="evenodd" d="M465.667 71.6668H455.917C455.674 71.6669 455.44 71.7635 455.269 71.9354C455.097 72.1072 455 72.3403 455 72.5834V74.4166C455 74.6597 455.097 74.8928 455.269 75.0646C455.44 75.2365 455.674 75.3331 455.917 75.3332H465.667V85.0834C465.667 85.3265 465.763 85.5596 465.935 85.7315C466.107 85.9033 466.34 85.9999 466.583 86H468.417C468.66 85.9999 468.893 85.9033 469.065 85.7315C469.237 85.5596 469.333 85.3265 469.333 85.0834V75.3332H479.083C479.326 75.3331 479.56 75.2365 479.731 75.0646C479.903 74.8928 480 74.6597 480 74.4166V72.5834C480 72.3403 479.903 72.1072 479.731 71.9354C479.56 71.7635 479.326 71.6669 479.083 71.6668H469.333V61.9166C469.333 61.6735 469.237 61.4404 469.065 61.2685C468.893 61.0967 468.66 61.0001 468.417 61H466.583C466.34 61.0001 466.107 61.0967 465.935 61.2685C465.763 61.4404 465.667 61.6735 465.667 61.9166V71.6668Z" fill="#F7931A"/>
<path fill-rule="evenodd" clip-rule="evenodd" d="M614.667 626.667H604.917C604.674 626.667 604.44 626.763 604.269 626.935C604.097 627.107 604 627.34 604 627.583V629.417C604 629.66 604.097 629.893 604.269 630.065C604.44 630.237 604.674 630.333 604.917 630.333H614.667V640.083C614.667 640.326 614.763 640.56 614.935 640.731C615.107 640.903 615.34 641 615.583 641H617.417C617.66 641 617.893 640.903 618.065 640.731C618.237 640.56 618.333 640.326 618.333 640.083V630.333H628.083C628.326 630.333 628.56 630.237 628.731 630.065C628.903 629.893 629 629.66 629 629.417V627.583C629 627.34 628.903 627.107 628.731 626.935C628.56 626.763 628.326 626.667 628.083 626.667H618.333V616.917C618.333 616.674 618.237 616.44 618.065 616.269C617.893 616.097 617.66 616 617.417 616H615.583C615.34 616 615.107 616.097 614.935 616.269C614.763 616.44 614.667 616.674 614.667 616.917V626.667Z" fill="#F7931A"/>
<path fill-rule="evenodd" clip-rule="evenodd" d="M621.667 28.6668H611.917C611.674 28.6669 611.44 28.7635 611.269 28.9354C611.097 29.1072 611 29.3403 611 29.5834V31.4166C611 31.6597 611.097 31.8928 611.269 32.0646C611.44 32.2365 611.674 32.3331 611.917 32.3332H621.667V42.0834C621.667 42.3265 621.763 42.5596 621.935 42.7315C622.107 42.9033 622.34 42.9999 622.583 43H624.417C624.66 42.9999 624.893 42.9033 625.065 42.7315C625.237 42.5596 625.333 42.3265 625.333 42.0834V32.3332H635.083C635.326 32.3331 635.56 32.2365 635.731 32.0646C635.903 31.8928 636 31.6597 636 31.4166V29.5834C636 29.3403 635.903 29.1072 635.731 28.9354C635.56 28.7635 635.326 28.6669 635.083 28.6668H625.333V18.9166C625.333 18.6735 625.237 18.4404 625.065 18.2685C624.893 18.0967 624.66 18.0001 624.417 18H622.583C622.34 18.0001 622.107 18.0967 621.935 18.2685C621.763 18.4404 621.667 18.6735 621.667 18.9166V28.6668Z" fill="#8247E5"/>
<path fill-rule="evenodd" clip-rule="evenodd" d="M477.667 560.667H467.917C467.674 560.667 467.44 560.763 467.269 560.935C467.097 561.107 467 561.34 467 561.583V563.417C467 563.66 467.097 563.893 467.269 564.065C467.44 564.237 467.674 564.333 467.917 564.333H477.667V574.083C477.667 574.326 477.763 574.56 477.935 574.731C478.107 574.903 478.34 575 478.583 575H480.417C480.66 575 480.893 574.903 481.065 574.731C481.237 574.56 481.333 574.326 481.333 574.083V564.333H491.083C491.326 564.333 491.56 564.237 491.731 564.065C491.903 563.893 492 563.66 492 563.417V561.583C492 561.34 491.903 561.107 491.731 560.935C491.56 560.763 491.326 560.667 491.083 560.667H481.333V550.917C481.333 550.674 481.237 550.44 481.065 550.269C480.893 550.097 480.66 550 480.417 550H478.583C478.34 550 478.107 550.097 477.935 550.269C477.763 550.44 477.667 550.674 477.667 550.917V560.667Z" fill="#8247E5"/>
<path fill-rule="evenodd" clip-rule="evenodd" d="M723.667 58.6668H713.917C713.674 58.6669 713.44 58.7635 713.269 58.9354C713.097 59.1072 713 59.3403 713 59.5834V61.4166C713 61.6597 713.097 61.8928 713.269 62.0646C713.44 62.2365 713.674 62.3331 713.917 62.3332H723.667V72.0834C723.667 72.3265 723.763 72.5596 723.935 72.7315C724.107 72.9033 724.34 72.9999 724.583 73H726.417C726.66 72.9999 726.893 72.9033 727.065 72.7315C727.237 72.5596 727.333 72.3265 727.333 72.0834V62.3332H737.083C737.326 62.3331 737.56 62.2365 737.731 62.0646C737.903 61.8928 738 61.6597 738 61.4166V59.5834C738 59.3403 737.903 59.1072 737.731 58.9354C737.56 58.7635 737.326 58.6669 737.083 58.6668H727.333V48.9166C727.333 48.6735 727.237 48.4404 727.065 48.2685C726.893 48.0967 726.66 48.0001 726.417 48H724.583C724.34 48.0001 724.107 48.0967 723.935 48.2685C723.763 48.4404 723.667 48.6735 723.667 48.9166V58.6668Z" fill="#2F3030"/>
<path fill-rule="evenodd" clip-rule="evenodd" d="M11.6668 300.667H1.91659C1.67352 300.667 1.44042 300.763 1.26854 300.935C1.09666 301.107 1.00007 301.34 1 301.583V303.417C1.00007 303.66 1.09666 303.893 1.26854 304.065C1.44042 304.237 1.67352 304.333 1.91659 304.333H11.6668V314.083C11.6669 314.326 11.7635 314.56 11.9354 314.731C12.1072 314.903 12.3403 315 12.5834 315H14.4166C14.6597 315 14.8928 314.903 15.0646 314.731C15.2365 314.56 15.3331 314.326 15.3332 314.083V304.333H25.0834C25.3265 304.333 25.5596 304.237 25.7315 304.065C25.9033 303.893 25.9999 303.66 26 303.417V301.583C25.9999 301.34 25.9033 301.107 25.7315 300.935C25.5596 300.763 25.3265 300.667 25.0834 300.667H15.3332V290.917C15.3331 290.674 15.2365 290.44 15.0646 290.269C14.8928 290.097 14.6597 290 14.4166 290H12.5834C12.3403 290 12.1072 290.097 11.9354 290.269C11.7635 290.44 11.6669 290.674 11.6668 290.917V300.667Z" fill="#F61280"/>
<path fill-rule="evenodd" clip-rule="evenodd" d="M742.667 535.667H732.917C732.674 535.667 732.44 535.763 732.269 535.935C732.097 536.107 732 536.34 732 536.583V538.417C732 538.66 732.097 538.893 732.269 539.065C732.44 539.237 732.674 539.333 732.917 539.333H742.667V549.083C742.667 549.326 742.763 549.56 742.935 549.731C743.107 549.903 743.34 550 743.583 550H745.417C745.66 550 745.893 549.903 746.065 549.731C746.237 549.56 746.333 549.326 746.333 549.083V539.333H756.083C756.326 539.333 756.56 539.237 756.731 539.065C756.903 538.893 757 538.66 757 538.417V536.583C757 536.34 756.903 536.107 756.731 535.935C756.56 535.763 756.326 535.667 756.083 535.667H746.333V525.917C746.333 525.674 746.237 525.44 746.065 525.269C745.893 525.097 745.66 525 745.417 525H743.583C743.34 525 743.107 525.097 742.935 525.269C742.763 525.44 742.667 525.674 742.667 525.917V535.667Z" fill="#F61280"/>
<path fill-rule="evenodd" clip-rule="evenodd" d="M47.6668 434.667H37.9166C37.6735 434.667 37.4404 434.763 37.2685 434.935C37.0967 435.107 37.0001 435.34 37 435.583V437.417C37.0001 437.66 37.0967 437.893 37.2685 438.065C37.4404 438.237 37.6735 438.333 37.9166 438.333H47.6668V448.083C47.6669 448.326 47.7635 448.56 47.9354 448.731C48.1072 448.903 48.3403 449 48.5834 449H50.4166C50.6597 449 50.8928 448.903 51.0646 448.731C51.2365 448.56 51.3331 448.326 51.3332 448.083V438.333H61.0834C61.3265 438.333 61.5596 438.237 61.7315 438.065C61.9033 437.893 61.9999 437.66 62 437.417V435.583C61.9999 435.34 61.9033 435.107 61.7315 434.935C61.5596 434.763 61.3265 434.667 61.0834 434.667H51.3332V424.917C51.3331 424.674 51.2365 424.44 51.0646 424.269C50.8928 424.097 50.6597 424 50.4166 424H48.5834C48.3403 424 48.1072 424.097 47.9354 424.269C47.7635 424.44 47.6669 424.674 47.6668 424.917V434.667Z" fill="#2875C9"/>
<path fill-rule="evenodd" clip-rule="evenodd" d="M803.667 118.667H793.917C793.674 118.667 793.44 118.763 793.269 118.935C793.097 119.107 793 119.34 793 119.583V121.417C793 121.66 793.097 121.893 793.269 122.065C793.44 122.237 793.674 122.333 793.917 122.333H803.667V132.083C803.667 132.326 803.763 132.56 803.935 132.731C804.107 132.903 804.34 133 804.583 133H806.417C806.66 133 806.893 132.903 807.065 132.731C807.237 132.56 807.333 132.326 807.333 132.083V122.333H817.083C817.326 122.333 817.56 122.237 817.731 122.065C817.903 121.893 818 121.66 818 121.417V119.583C818 119.34 817.903 119.107 817.731 118.935C817.56 118.763 817.326 118.667 817.083 118.667H807.333V108.917C807.333 108.674 807.237 108.44 807.065 108.269C806.893 108.097 806.66 108 806.417 108H804.583C804.34 108 804.107 108.097 803.935 108.269C803.763 108.44 803.667 108.674 803.667 108.917V118.667Z" fill="#2875C9"/>
<path fill-rule="evenodd" clip-rule="evenodd" d="M205.667 534.667H195.917C195.674 534.667 195.44 534.763 195.269 534.935C195.097 535.107 195 535.34 195 535.583V537.417C195 537.66 195.097 537.893 195.269 538.065C195.44 538.237 195.674 538.333 195.917 538.333H205.667V548.083C205.667 548.326 205.763 548.56 205.935 548.731C206.107 548.903 206.34 549 206.583 549H208.417C208.66 549 208.893 548.903 209.065 548.731C209.237 548.56 209.333 548.326 209.333 548.083V538.333H219.083C219.326 538.333 219.56 538.237 219.731 538.065C219.903 537.893 220 537.66 220 537.417V535.583C220 535.34 219.903 535.107 219.731 534.935C219.56 534.763 219.326 534.667 219.083 534.667H209.333V524.917C209.333 524.674 209.237 524.44 209.065 524.269C208.893 524.097 208.66 524 208.417 524H206.583C206.34 524 206.107 524.097 205.935 524.269C205.763 524.44 205.667 524.674 205.667 524.917V534.667Z" fill="#335DD2"/>
<path fill-rule="evenodd" clip-rule="evenodd" d="M35.6668 567.667H25.9166C25.6735 567.667 25.4404 567.763 25.2685 567.935C25.0967 568.107 25.0001 568.34 25 568.583V570.417C25.0001 570.66 25.0967 570.893 25.2685 571.065C25.4404 571.237 25.6735 571.333 25.9166 571.333H35.6668V581.083C35.6669 581.326 35.7635 581.56 35.9354 581.731C36.1072 581.903 36.3403 582 36.5834 582H38.4166C38.6597 582 38.8928 581.903 39.0646 581.731C39.2365 581.56 39.3331 581.326 39.3332 581.083V571.333H49.0834C49.3265 571.333 49.5596 571.237 49.7315 571.065C49.9033 570.893 49.9999 570.66 50 570.417V568.583C49.9999 568.34 49.9033 568.107 49.7315 567.935C49.5596 567.763 49.3265 567.667 49.0834 567.667H39.3332V557.917C39.3331 557.674 39.2365 557.44 39.0646 557.269C38.8928 557.097 38.6597 557 38.4166 557H36.5834C36.3403 557 36.1072 557.097 35.9354 557.269C35.7635 557.44 35.6669 557.674 35.6668 557.917V567.667Z" fill="#FFD83D"/>
<path fill-rule="evenodd" clip-rule="evenodd" d="M984.667 350.667H974.917C974.674 350.667 974.44 350.763 974.269 350.935C974.097 351.107 974 351.34 974 351.583V353.417C974 353.66 974.097 353.893 974.269 354.065C974.44 354.237 974.674 354.333 974.917 354.333H984.667V364.083C984.667 364.326 984.763 364.56 984.935 364.731C985.107 364.903 985.34 365 985.583 365H987.417C987.66 365 987.893 364.903 988.065 364.731C988.237 364.56 988.333 364.326 988.333 364.083V354.333H998.083C998.326 354.333 998.56 354.237 998.731 354.065C998.903 353.893 999 353.66 999 353.417V351.583C999 351.34 998.903 351.107 998.731 350.935C998.56 350.763 998.326 350.667 998.083 350.667H988.333V340.917C988.333 340.674 988.237 340.44 988.065 340.269C987.893 340.097 987.66 340 987.417 340H985.583C985.34 340 985.107 340.097 984.935 340.269C984.763 340.44 984.667 340.674 984.667 340.917V350.667Z" fill="#328332"/>
<path fill-rule="evenodd" clip-rule="evenodd" d="M865.667 509.667H855.917C855.674 509.667 855.44 509.763 855.269 509.935C855.097 510.107 855 510.34 855 510.583V512.417C855 512.66 855.097 512.893 855.269 513.065C855.44 513.237 855.674 513.333 855.917 513.333H865.667V523.083C865.667 523.326 865.763 523.56 865.935 523.731C866.107 523.903 866.34 524 866.583 524H868.417C868.66 524 868.893 523.903 869.065 523.731C869.237 523.56 869.333 523.326 869.333 523.083V513.333H879.083C879.326 513.333 879.56 513.237 879.731 513.065C879.903 512.893 880 512.66 880 512.417V510.583C880 510.34 879.903 510.107 879.731 509.935C879.56 509.763 879.326 509.667 879.083 509.667H869.333V499.917C869.333 499.674 869.237 499.44 869.065 499.269C868.893 499.097 868.66 499 868.417 499H866.583C866.34 499 866.107 499.097 865.935 499.269C865.763 499.44 865.667 499.674 865.667 499.917V509.667Z" fill="black"/>
<path fill-rule="evenodd" clip-rule="evenodd" d="M966.667 522.667H956.917C956.674 522.667 956.44 522.763 956.269 522.935C956.097 523.107 956 523.34 956 523.583V525.417C956 525.66 956.097 525.893 956.269 526.065C956.44 526.237 956.674 526.333 956.917 526.333H966.667V536.083C966.667 536.326 966.763 536.56 966.935 536.731C967.107 536.903 967.34 537 967.583 537H969.417C969.66 537 969.893 536.903 970.065 536.731C970.237 536.56 970.333 536.326 970.333 536.083V526.333H980.083C980.326 526.333 980.56 526.237 980.731 526.065C980.903 525.893 981 525.66 981 525.417V523.583C981 523.34 980.903 523.107 980.731 522.935C980.56 522.763 980.326 522.667 980.083 522.667H970.333V512.917C970.333 512.674 970.237 512.44 970.065 512.269C969.893 512.097 969.66 512 969.417 512H967.583C967.34 512 967.107 512.097 966.935 512.269C966.763 512.44 966.667 512.674 966.667 512.917V522.667Z" fill="#15BDFF"/>
<path fill-rule="evenodd" clip-rule="evenodd" d="M941.667 151.667H931.917C931.674 151.667 931.44 151.763 931.269 151.935C931.097 152.107 931 152.34 931 152.583V154.417C931 154.66 931.097 154.893 931.269 155.065C931.44 155.237 931.674 155.333 931.917 155.333H941.667V165.083C941.667 165.326 941.763 165.56 941.935 165.731C942.107 165.903 942.34 166 942.583 166H944.417C944.66 166 944.893 165.903 945.065 165.731C945.237 165.56 945.333 165.326 945.333 165.083V155.333H955.083C955.326 155.333 955.56 155.237 955.731 155.065C955.903 154.893 956 154.66 956 154.417V152.583C956 152.34 955.903 152.107 955.731 151.935C955.56 151.763 955.326 151.667 955.083 151.667H945.333V141.917C945.333 141.674 945.237 141.44 945.065 141.269C944.893 141.097 944.66 141 944.417 141H942.583C942.34 141 942.107 141.097 941.935 141.269C941.763 141.44 941.667 141.674 941.667 141.917V151.667Z" fill="#30CEB8"/>
<path fill-rule="evenodd" clip-rule="evenodd" d="M148.667 621.667H138.917C138.674 621.667 138.44 621.763 138.269 621.935C138.097 622.107 138 622.34 138 622.583V624.417C138 624.66 138.097 624.893 138.269 625.065C138.44 625.237 138.674 625.333 138.917 625.333H148.667V635.083C148.667 635.326 148.763 635.56 148.935 635.731C149.107 635.903 149.34 636 149.583 636H151.417C151.66 636 151.893 635.903 152.065 635.731C152.237 635.56 152.333 635.326 152.333 635.083V625.333H162.083C162.326 625.333 162.56 625.237 162.731 625.065C162.903 624.893 163 624.66 163 624.417V622.583C163 622.34 162.903 622.107 162.731 621.935C162.56 621.763 162.326 621.667 162.083 621.667H152.333V611.917C152.333 611.674 152.237 611.44 152.065 611.269C151.893 611.097 151.66 611 151.417 611H149.583C149.34 611 149.107 611.097 148.935 611.269C148.763 611.44 148.667 611.674 148.667 611.917V621.667Z" fill="#30CEB8"/>
<path fill-rule="evenodd" clip-rule="evenodd" d="M907.667 262.667H897.917C897.674 262.667 897.44 262.763 897.269 262.935C897.097 263.107 897 263.34 897 263.583V265.417C897 265.66 897.097 265.893 897.269 266.065C897.44 266.237 897.674 266.333 897.917 266.333H907.667V276.083C907.667 276.326 907.763 276.56 907.935 276.731C908.107 276.903 908.34 277 908.583 277H910.417C910.66 277 910.893 276.903 911.065 276.731C911.237 276.56 911.333 276.326 911.333 276.083V266.333H921.083C921.326 266.333 921.56 266.237 921.731 266.065C921.903 265.893 922 265.66 922 265.417V263.583C922 263.34 921.903 263.107 921.731 262.935C921.56 262.763 921.326 262.667 921.083 262.667H911.333V252.917C911.333 252.674 911.237 252.44 911.065 252.269C910.893 252.097 910.66 252 910.417 252H908.583C908.34 252 908.107 252.097 907.935 252.269C907.763 252.44 907.667 252.674 907.667 252.917V262.667Z" fill="#0334AE"/>
<path fill-rule="evenodd" clip-rule="evenodd" d="M349.667 639.667H339.917C339.674 639.667 339.44 639.763 339.269 639.935C339.097 640.107 339 640.34 339 640.583V642.417C339 642.66 339.097 642.893 339.269 643.065C339.44 643.237 339.674 643.333 339.917 643.333H349.667V653.083C349.667 653.326 349.763 653.56 349.935 653.731C350.107 653.903 350.34 654 350.583 654H352.417C352.66 654 352.893 653.903 353.065 653.731C353.237 653.56 353.333 653.326 353.333 653.083V643.333H363.083C363.326 643.333 363.56 643.237 363.731 643.065C363.903 642.893 364 642.66 364 642.417V640.583C364 640.34 363.903 640.107 363.731 639.935C363.56 639.763 363.326 639.667 363.083 639.667H353.333V629.917C353.333 629.674 353.237 629.44 353.065 629.269C352.893 629.097 352.66 629 352.417 629H350.583C350.34 629 350.107 629.097 349.935 629.269C349.763 629.44 349.667 629.674 349.667 629.917V639.667Z" fill="#0334AE"/>
<path fill-rule="evenodd" clip-rule="evenodd" d="M60.6668 200.667H50.9166C50.6735 200.667 50.4404 200.763 50.2685 200.935C50.0967 201.107 50.0001 201.34 50 201.583V203.417C50.0001 203.66 50.0967 203.893 50.2685 204.065C50.4404 204.237 50.6735 204.333 50.9166 204.333H60.6668V214.083C60.6669 214.326 60.7635 214.56 60.9354 214.731C61.1072 214.903 61.3403 215 61.5834 215H63.4166C63.6597 215 63.8928 214.903 64.0646 214.731C64.2365 214.56 64.3331 214.326 64.3332 214.083V204.333H74.0834C74.3265 204.333 74.5596 204.237 74.7315 204.065C74.9033 203.893 74.9999 203.66 75 203.417V201.583C74.9999 201.34 74.9033 201.107 74.7315 200.935C74.5596 200.763 74.3265 200.667 74.0834 200.667H64.3332V190.917C64.3331 190.674 64.2365 190.44 64.0646 190.269C63.8928 190.097 63.6597 190 63.4166 190H61.5834C61.3403 190 61.1072 190.097 60.9354 190.269C60.7635 190.44 60.6669 190.674 60.6668 190.917V200.667Z" fill="#F3BA2F"/>
<path fill-rule="evenodd" clip-rule="evenodd" d="M853.667 53.6668H843.917C843.674 53.6669 843.44 53.7635 843.269 53.9354C843.097 54.1072 843 54.3403 843 54.5834V56.4166C843 56.6597 843.097 56.8928 843.269 57.0646C843.44 57.2365 843.674 57.3331 843.917 57.3332H853.667V67.0834C853.667 67.3265 853.763 67.5596 853.935 67.7315C854.107 67.9033 854.34 67.9999 854.583 68H856.417C856.66 67.9999 856.893 67.9033 857.065 67.7315C857.237 67.5596 857.333 67.3265 857.333 67.0834V57.3332H867.083C867.326 57.3331 867.56 57.2365 867.731 57.0646C867.903 56.8928 868 56.6597 868 56.4166V54.5834C868 54.3403 867.903 54.1072 867.731 53.9354C867.56 53.7635 867.326 53.6669 867.083 53.6668H857.333V43.9166C857.333 43.6735 857.237 43.4404 857.065 43.2685C856.893 43.0967 856.66 43.0001 856.417 43H854.583C854.34 43.0001 854.107 43.0967 853.935 43.2685C853.763 43.4404 853.667 43.6735 853.667 43.9166V53.6668Z" fill="#BA9F33"/>
<path fill-rule="evenodd" clip-rule="evenodd" d="M10.6668 10.6668H0.91659C0.673516 10.6669 0.440417 10.7635 0.268538 10.9354C0.0966585 11.1072 6.76992e-05 11.3403 0 11.5834L0 13.4166C6.76992e-05 13.6597 0.0966585 13.8928 0.268538 14.0646C0.440417 14.2365 0.673516 14.3331 0.91659 14.3332H10.6668V24.0834C10.6669 24.3265 10.7635 24.5596 10.9354 24.7315C11.1072 24.9033 11.3403 24.9999 11.5834 25H13.4166C13.6597 24.9999 13.8928 24.9033 14.0646 24.7315C14.2365 24.5596 14.3331 24.3265 14.3332 24.0834V14.3332H24.0834C24.3265 14.3331 24.5596 14.2365 24.7315 14.0646C24.9033 13.8928 24.9999 13.6597 25 13.4166V11.5834C24.9999 11.3403 24.9033 11.1072 24.7315 10.9354C24.5596 10.7635 24.3265 10.6669 24.0834 10.6668H14.3332V0.91659C14.3331 0.673516 14.2365 0.440417 14.0646 0.268538C13.8928 0.0966585 13.6597 6.76992e-05 13.4166 0H11.5834C11.3403 6.76992e-05 11.1072 0.0966585 10.9354 0.268538C10.7635 0.440417 10.6669 0.673516 10.6668 0.91659V10.6668Z" fill="#BA9F33"/>
</svg>
