<svg viewBox="0 0 950 572" fill="none" xmlns="http://www.w3.org/2000/svg">
<g opacity="0.54" clip-path="url(#clip0)">
<path fill-rule="evenodd" clip-rule="evenodd" d="M758.931 531.798C758.922 531.952 758.95 532.106 759.013 532.246C759.075 532.387 759.17 532.511 759.29 532.608C759.41 532.705 759.551 532.773 759.702 532.805C759.853 532.837 760.009 532.833 760.158 532.794L765.323 531.421L767.032 532.822L766.469 535.43L761.56 536.26C761.389 536.289 761.229 536.363 761.095 536.473C760.962 536.584 760.86 536.729 760.801 536.891C760.741 537.054 760.726 537.23 760.757 537.4C760.787 537.57 760.863 537.729 760.975 537.861C761.399 538.357 761.879 538.803 762.404 539.191C765.223 541.276 768.905 541.385 771.787 539.768L786.937 550.972C786.224 554.192 787.399 557.675 790.219 559.761C794.047 562.592 799.466 561.781 802.311 557.951C803.1 556.889 803.609 555.706 803.851 554.491C803.883 554.328 803.874 554.16 803.823 554.002C803.772 553.844 803.682 553.702 803.561 553.588C803.44 553.475 803.292 553.394 803.131 553.354C802.97 553.314 802.801 553.315 802.64 553.358L798.134 554.555L796.426 553.154L796.989 550.546L802.024 549.694C802.183 549.668 802.334 549.602 802.461 549.503C802.589 549.404 802.691 549.276 802.757 549.129C802.823 548.982 802.852 548.821 802.841 548.66C802.829 548.499 802.779 548.344 802.693 548.208C802.139 547.329 801.416 546.536 800.531 545.882C797.711 543.796 794.029 543.687 791.148 545.304L775.998 534.1C776.711 530.88 775.536 527.397 772.716 525.312C768.888 522.481 763.469 523.291 760.623 527.121C759.573 528.535 759.019 530.164 758.931 531.798ZM759.909 531.848C759.987 530.4 760.479 528.956 761.41 527.703C763.933 524.307 768.737 523.588 772.132 526.098C774.809 528.078 775.814 531.479 774.882 534.494L791.095 546.484C793.715 544.717 797.269 544.688 799.947 546.668C800.709 547.23 801.358 547.93 801.863 548.73L796.171 549.692L795.342 553.533L797.899 555.629L802.89 554.303C802.675 555.38 802.224 556.428 801.525 557.369C799.002 560.765 794.198 561.484 790.803 558.974C788.126 556.994 787.121 553.593 788.053 550.578L771.84 538.588C769.22 540.355 765.665 540.384 762.988 538.404C762.522 538.06 762.097 537.664 761.721 537.224L767.286 536.284L768.115 532.443L765.559 530.347L759.909 531.848Z" fill="white"/>
</g>
<g opacity="0.54" clip-path="url(#clip1)">
<path fill-rule="evenodd" clip-rule="evenodd" d="M885.235 403.54C885.208 403.522 885.181 403.505 885.153 403.489L835.646 375.94C835.534 375.878 835.411 375.84 835.283 375.829C835.156 375.817 835.027 375.833 834.906 375.875C834.785 375.916 834.674 375.983 834.581 376.07C834.487 376.158 834.413 376.264 834.363 376.382L831.728 382.612C831.662 382.767 831.641 382.936 831.666 383.102C831.691 383.269 831.762 383.424 831.87 383.553C831.979 383.681 832.121 383.777 832.28 383.83C832.44 383.883 832.611 383.89 832.775 383.852L834.211 383.515L833.598 385.846C833.557 386.002 833.558 386.166 833.601 386.321C833.644 386.476 833.727 386.617 833.843 386.729C833.958 386.841 834.101 386.921 834.258 386.96C834.414 386.999 834.578 386.996 834.733 386.951L837.206 386.233L836.912 388.512C836.892 388.666 836.912 388.823 836.97 388.967C837.028 389.111 837.122 389.238 837.243 389.336C837.364 389.434 837.508 389.499 837.661 389.525C837.814 389.552 837.972 389.538 838.118 389.487L840.972 388.482L840.558 390.61C840.527 390.769 840.539 390.934 840.593 391.087C840.647 391.24 840.741 391.376 840.866 391.481C840.99 391.585 841.14 391.654 841.3 391.681C841.461 391.708 841.625 391.692 841.777 391.634L843.368 391.026L843.093 392.665C843.066 392.826 843.083 392.991 843.141 393.142C843.2 393.294 843.298 393.428 843.426 393.529C843.553 393.63 843.706 393.695 843.867 393.717C844.028 393.739 844.193 393.718 844.343 393.655L845.958 392.98L845.416 395.753C845.384 395.918 845.398 396.088 845.457 396.245C845.516 396.403 845.617 396.54 845.749 396.644C845.882 396.747 846.04 396.812 846.207 396.831C846.374 396.85 846.543 396.823 846.695 396.752L848.715 395.812L848.471 398.101C848.454 398.262 848.48 398.425 848.547 398.572C848.614 398.72 848.72 398.847 848.852 398.941C848.985 399.034 849.14 399.09 849.302 399.104C849.463 399.117 849.626 399.087 849.772 399.017L851.605 398.136L851.201 399.874C851.163 400.041 851.172 400.215 851.228 400.377C851.284 400.539 851.385 400.682 851.519 400.789C851.652 400.896 851.814 400.963 851.984 400.983C852.155 401.003 852.327 400.974 852.482 400.9L853.581 400.374L853.514 401.849C853.507 402.003 853.539 402.157 853.607 402.295C853.676 402.433 853.778 402.551 853.905 402.639C854.032 402.727 854.179 402.781 854.333 402.796C854.486 402.811 854.641 402.788 854.783 402.727L856.317 402.069L856.278 404.111C856.275 404.256 856.307 404.399 856.371 404.528C856.434 404.658 856.528 404.771 856.644 404.857C856.759 404.944 856.894 405.002 857.037 405.026C857.179 405.05 857.326 405.039 857.464 404.996L859.159 404.46L859.03 406.479C859.019 406.644 859.054 406.81 859.131 406.957C859.207 407.104 859.323 407.227 859.465 407.314C859.606 407.4 859.769 407.446 859.935 407.447C860.101 407.447 860.264 407.403 860.407 407.317L861.926 406.41L861.635 408.208C861.609 408.365 861.625 408.526 861.681 408.675C861.737 408.824 861.832 408.955 861.954 409.056C862.077 409.157 862.224 409.224 862.381 409.251C862.538 409.277 862.699 409.262 862.849 409.207L864.626 408.554L864.472 410.358C864.459 410.511 864.485 410.664 864.547 410.804C864.609 410.944 864.705 411.066 864.827 411.159C864.949 411.252 865.093 411.312 865.245 411.335C865.396 411.357 865.551 411.341 865.695 411.288L867.529 410.612L867.233 412.165C867.203 412.325 867.216 412.491 867.271 412.644C867.327 412.797 867.422 412.933 867.548 413.036C867.673 413.14 867.824 413.208 867.986 413.234C868.147 413.259 868.312 413.241 868.463 413.181L870.917 412.212L870.813 414.954C870.807 415.112 870.842 415.269 870.915 415.409C870.988 415.549 871.096 415.668 871.229 415.753C871.362 415.839 871.515 415.888 871.673 415.897C871.831 415.906 871.988 415.873 872.13 415.802L873.549 415.095L873.305 416.62C873.281 416.768 873.295 416.919 873.344 417.061C873.393 417.203 873.476 417.33 873.586 417.431C873.696 417.533 873.83 417.606 873.975 417.644C874.12 417.682 874.272 417.683 874.418 417.648L876.491 417.149L875.804 418.279C874.777 419.969 875.317 422.174 877.008 423.199L881.578 425.969C883.27 426.994 885.476 426.454 886.503 424.764L894.729 411.229C895.756 409.539 895.217 407.334 893.526 406.309L888.955 403.539C887.774 402.823 886.341 402.871 885.235 403.54ZM884.709 404.284L835.202 376.735L832.567 382.966L835.478 382.283L834.479 386.077L838.288 384.971L837.816 388.628L842.17 387.096L841.452 390.783L844.53 389.608L843.992 392.815L847.179 391.482L846.311 395.927L849.791 394.306L849.378 398.196L852.922 396.494L852.089 400.079L854.561 398.897L854.424 401.89L857.256 400.676L857.189 404.128L860.154 403.191L859.939 406.536L863.138 404.625L862.534 408.353L865.655 407.205L865.38 410.434L868.725 409.2L868.129 412.335L871.88 410.853L871.723 414.988L874.727 413.49L874.205 416.763L877.766 415.907L884.709 404.284ZM893.95 410.756C894.716 409.496 894.314 407.852 893.052 407.088L888.482 404.318C887.221 403.553 885.575 403.956 884.809 405.216L876.583 418.752C875.817 420.012 876.219 421.656 877.481 422.42L882.051 425.19C883.313 425.955 884.959 425.552 885.725 424.292L893.95 410.756ZM890.043 411.574C890.406 410.978 890.216 410.2 889.619 409.838L887.455 408.527C886.858 408.165 886.079 408.356 885.717 408.952L880.17 418.08C879.807 418.677 879.998 419.455 880.594 419.816L882.758 421.127C883.355 421.489 884.134 421.299 884.496 420.702L890.043 411.574ZM889.264 411.102L883.717 420.23C883.669 420.31 883.59 420.368 883.499 420.39C883.407 420.413 883.311 420.398 883.231 420.349L881.068 419.038C880.987 418.989 880.93 418.911 880.907 418.82C880.885 418.729 880.9 418.632 880.949 418.552L886.496 409.424C886.544 409.344 886.623 409.286 886.714 409.264C886.806 409.242 886.902 409.257 886.982 409.305L889.146 410.616C889.226 410.665 889.283 410.743 889.306 410.835C889.328 410.926 889.313 411.022 889.264 411.102Z" fill="white"/>
</g>
<g opacity="0.54" clip-path="url(#clip2)">
<path fill-rule="evenodd" clip-rule="evenodd" d="M932.522 211.749C932.329 212.383 931.855 212.924 931.188 213.174L892.95 227.511C891.808 227.94 890.53 227.357 890.098 226.21L889.093 223.542C888.662 222.396 889.238 221.117 890.38 220.689L928.618 206.351C929.065 206.183 929.556 206.165 930.015 206.301L929.349 204.855C929.262 204.666 929.253 204.45 929.323 204.254C929.393 204.058 929.537 203.898 929.724 203.808L931.597 202.909C931.109 201.406 929.767 197.58 927.936 194.841C927.041 193.503 926.06 192.406 924.961 192.138C924.392 192 924.073 191.845 923.945 191.749C923.758 191.608 923.674 191.453 923.631 191.332C923.525 191.036 923.552 190.283 924.501 190.175C925.335 190.081 928.297 190.418 931.419 191.752C934.539 193.086 937.808 195.404 939.309 199.166C942.905 208.18 943.1 209.413 943.1 209.413C943.128 209.574 943.105 209.74 943.034 209.887C942.964 210.034 942.85 210.156 942.708 210.236L941.487 210.921L942.184 213.58L944.105 213.53C944.27 213.526 944.432 213.573 944.569 213.666C944.706 213.758 944.811 213.891 944.869 214.046L946.555 218.522C946.592 218.62 946.609 218.724 946.606 218.828C946.603 218.932 946.579 219.035 946.536 219.129C946.494 219.224 946.433 219.31 946.357 219.381C946.281 219.452 946.192 219.507 946.095 219.544L938.743 222.3C938.554 222.371 938.345 222.367 938.159 222.289C937.972 222.21 937.822 222.064 937.74 221.879L935.511 216.896C935.45 216.759 935.429 216.609 935.449 216.461C935.47 216.313 935.531 216.174 935.627 216.06L936.676 214.812L936.211 213.556L934.464 214.211C934.277 214.281 934.069 214.278 933.884 214.201C933.699 214.124 933.549 213.98 933.465 213.798L932.522 211.749ZM928.898 207.095C929.631 206.82 930.452 207.195 930.729 207.931L931.734 210.598C932.011 211.334 931.641 212.155 930.908 212.43L892.67 226.768C891.937 227.043 891.116 226.668 890.839 225.932L889.834 223.265C889.557 222.529 889.927 221.708 890.661 221.433L928.898 207.095ZM941.578 214.39L944.128 214.324L945.814 218.8L938.462 221.557L936.234 216.573L937.579 214.972L936.677 212.533L934.184 213.467L930.069 204.525L932.558 203.329C932.558 203.329 929.333 192.388 925.145 191.367C920.957 190.346 935.033 190.584 938.573 199.459C942.115 208.333 942.319 209.543 942.319 209.543L940.565 210.527L941.578 214.39Z" fill="white"/>
</g>
<g opacity="0.54" clip-path="url(#clip3)">
<path fill-rule="evenodd" clip-rule="evenodd" d="M67.7361 12.2438C67.6996 12.2743 67.6646 12.3067 67.6311 12.3411L9.3787 72.4647C9.24711 72.6005 9.14558 72.7625 9.08072 72.9402C9.01587 73.1179 8.98914 73.3072 9.00228 73.496C9.01542 73.6847 9.06814 73.8685 9.157 74.0355C9.24586 74.2024 9.36887 74.3488 9.518 74.465L17.4024 80.6088C17.5983 80.7614 17.8325 80.8568 18.0792 80.8844C18.3259 80.912 18.5754 80.8707 18.8 80.7651C19.0247 80.6595 19.2158 80.4937 19.3522 80.2861C19.4886 80.0784 19.5649 79.8371 19.5728 79.5887L19.6415 77.4097L22.7337 79.1768C22.9403 79.2949 23.1745 79.3559 23.4124 79.3538C23.6503 79.3516 23.8833 79.2864 24.0878 79.1646C24.2923 79.0429 24.4609 78.869 24.5763 78.6608C24.6918 78.4526 24.7501 78.2174 24.7452 77.9793L24.666 74.1742L27.8068 75.4657C28.0192 75.553 28.2503 75.5844 28.4782 75.5569C28.7061 75.5295 28.9233 75.4441 29.1089 75.3089C29.2945 75.1737 29.4425 74.9932 29.5388 74.7845C29.635 74.5759 29.6763 74.346 29.6588 74.1168L29.3167 69.6599L32.195 71.065C32.4106 71.1703 32.6504 71.2159 32.8896 71.1972C33.1287 71.1784 33.3585 71.096 33.5551 70.9584C33.7517 70.8207 33.908 70.633 34.0077 70.4145C34.1075 70.1961 34.147 69.9549 34.1223 69.716L33.8637 67.2131L36.098 68.2325C36.3169 68.3322 36.5584 68.3715 36.7975 68.346C37.0366 68.3206 37.2645 68.2315 37.4576 68.088C37.6506 67.9444 37.8017 67.7517 37.8951 67.5299C37.9885 67.308 38.0208 67.0652 37.9886 66.8266L37.6422 64.263L41.3933 66.097C41.6162 66.2059 41.8648 66.251 42.1117 66.2273C42.3586 66.2036 42.5942 66.112 42.7923 65.9627C42.9905 65.8133 43.1435 65.612 43.2345 65.381C43.3255 65.15 43.351 64.8983 43.3081 64.6537L42.7386 61.4117L45.9128 62.6348C46.1363 62.7209 46.3788 62.7457 46.6151 62.7065C46.8514 62.6674 47.0729 62.5658 47.2569 62.4123C47.4409 62.2588 47.5806 62.0588 47.6616 61.8331C47.7425 61.6075 47.7619 61.3642 47.7176 61.1286L47.1617 58.1759L49.4871 59.4161C49.7106 59.5353 49.9632 59.5889 50.2157 59.5707C50.4683 59.5526 50.7107 59.4634 50.9149 59.3134C51.1191 59.1635 51.2768 58.9588 51.37 58.7231C51.4632 58.4873 51.488 58.23 51.4416 57.9808L51.1121 56.2115L53.1912 56.8715C53.4083 56.9405 53.6394 56.9531 53.8627 56.9083C54.086 56.8634 54.2943 56.7624 54.468 56.6149C54.6417 56.4673 54.7751 56.278 54.8558 56.0647C54.9364 55.8514 54.9616 55.6211 54.9289 55.3954L54.5766 52.9537L57.4766 53.7908C57.6817 53.8501 57.898 53.8596 58.1076 53.8186C58.3171 53.7776 58.5139 53.6872 58.6816 53.5549C58.8494 53.4226 58.9832 53.2522 59.0721 53.0578C59.161 52.8634 59.2024 52.6507 59.1928 52.4371L59.0763 49.8118L61.9083 50.7686C62.1406 50.8471 62.3898 50.8606 62.6292 50.8076C62.8685 50.7545 63.0888 50.637 63.2663 50.4677C63.4437 50.2984 63.5716 50.0838 63.6361 49.847C63.7005 49.6102 63.6991 49.3603 63.632 49.1243L62.9172 46.6088L65.3729 47.7127C65.5872 47.809 65.8229 47.8475 66.0567 47.8243C66.2904 47.8011 66.514 47.717 66.7052 47.5804C66.8964 47.4438 67.0485 47.2594 67.1464 47.0457C67.2443 46.8319 67.2846 46.5962 67.2632 46.362L67.0096 43.5759L69.5261 44.4853C69.739 44.5623 69.9678 44.5842 70.1914 44.549C70.4151 44.5138 70.6262 44.4227 70.8053 44.2841C70.9844 44.1455 71.1256 43.9639 71.2159 43.7561C71.3063 43.5482 71.3427 43.321 71.322 43.0953L71.0577 40.219L73.1619 41.2351C73.3787 41.3398 73.6196 41.3843 73.8594 41.364C74.0993 41.3437 74.3292 41.2593 74.5254 41.1197C74.7216 40.9801 74.8768 40.7904 74.9747 40.5702C75.0727 40.3501 75.1099 40.1077 75.0824 39.8683L74.6374 35.9959L78.511 37.1928C78.734 37.2618 78.9712 37.2715 79.1991 37.2209C79.4271 37.1703 79.6379 37.0611 79.8109 36.9041C79.9839 36.7472 80.1131 36.5478 80.1858 36.3256C80.2584 36.1035 80.2721 35.8662 80.2254 35.6372L79.7583 33.342L81.8421 34.2729C82.0442 34.3631 82.2654 34.4021 82.4862 34.3862C82.7069 34.3704 82.9203 34.3002 83.1075 34.182C83.2947 34.0639 83.4499 33.9012 83.5593 33.7086C83.6687 33.516 83.729 33.2994 83.7347 33.0779L83.8158 29.9276L85.1663 31.3401C87.1857 33.4523 90.5378 33.5257 92.6475 31.5039L98.3491 26.0397C100.459 24.0179 100.532 20.6617 98.5127 18.5495L82.3401 1.63341C80.3207 -0.478802 76.9686 -0.552128 74.8589 1.46958L69.1573 6.93373C67.6839 8.34581 67.2038 10.4087 67.7361 12.2438ZM68.5966 13.2788L10.3441 73.4022L18.2284 79.5462L18.3679 75.1312L23.4005 78.0073L23.2786 72.1479L28.3178 74.22L27.7957 67.4192L32.7844 69.8547L32.2841 65.0126L36.6557 67.0071L35.9722 61.948L41.9835 64.887L41.0019 59.2997L46.3959 61.378L45.3209 55.6684L50.1194 58.2276L49.3783 54.2483L53.5978 55.5879L52.9476 51.0819L57.8492 52.4969L57.6453 47.9072L62.3384 49.4927L60.8332 44.1959L65.9238 46.4843L65.4783 41.591L69.9826 43.2187L69.5006 37.9721L73.7462 40.0223L73.0658 34.1011L78.9076 35.9062L77.9184 31.0455L82.3901 33.0431L82.5296 27.6333L68.5966 13.2788ZM81.3685 2.56461C79.8625 0.989308 77.3623 0.934496 75.7889 2.44244L70.0873 7.90659C68.5139 9.4144 68.4592 11.9176 69.9654 13.4929L86.1379 30.409C87.6439 31.9843 90.144 32.039 91.7174 30.5312L97.419 25.067C98.9924 23.5591 99.0472 21.056 97.541 19.4807L81.3685 2.56461ZM81.0417 8.45312C80.3288 7.70756 79.1455 7.68161 78.4009 8.39527L75.7022 10.9814C74.9576 11.6952 74.9317 12.8799 75.6446 13.6254L86.5511 25.0334C87.2639 25.779 88.4472 25.8049 89.1919 25.0913L91.8904 22.5051C92.6352 21.7913 92.661 20.6067 91.9482 19.8611L81.0417 8.45312ZM80.07 9.3842L90.9766 20.7922C91.0724 20.8925 91.1245 21.0268 91.1215 21.1656C91.1185 21.3043 91.0605 21.4362 90.9604 21.5322L88.2618 24.1184C88.1616 24.2143 88.0275 24.2665 87.8889 24.2635C87.7503 24.2605 87.6186 24.2025 87.5226 24.1023L76.6161 12.6944C76.5203 12.594 76.4682 12.4597 76.4712 12.321C76.4743 12.1822 76.5322 12.0503 76.6323 11.9543L79.3308 9.36812C79.431 9.27219 79.5651 9.22 79.7037 9.22301C79.8423 9.22603 79.9741 9.284 80.07 9.3842Z" fill="white"/>
</g>
<g opacity="0.54" clip-path="url(#clip4)">
<path fill-rule="evenodd" clip-rule="evenodd" d="M36.6648 209.129C37.0753 209.568 37.2844 210.185 37.1784 210.822L31.1072 247.314C30.9258 248.404 29.8895 249.142 28.7942 248.962L26.2465 248.542C25.1513 248.362 24.4094 247.33 24.5907 246.24L30.662 209.748C30.7325 209.32 30.9409 208.928 31.2556 208.629L29.8194 208.496C29.6314 208.478 29.4577 208.388 29.3359 208.245C29.214 208.101 29.1537 207.915 29.168 207.728L29.3107 205.851C27.9105 205.553 24.3014 204.873 21.3229 205.069C19.8684 205.165 18.5633 205.438 17.855 206.179C17.4888 206.562 17.2233 206.742 17.0894 206.799C16.8946 206.883 16.7349 206.878 16.6204 206.857C16.3403 206.806 15.7612 206.443 16.1069 205.65C16.4106 204.954 18.0167 202.782 20.4775 200.938C22.9372 199.093 26.2363 197.579 29.8677 198.106C38.5678 199.367 39.6237 199.772 39.6237 199.772C39.7626 199.824 39.8821 199.917 39.9659 200.039C40.0497 200.161 40.0937 200.305 40.0918 200.453L40.0761 201.721L42.4781 202.379L43.3087 200.849C43.38 200.718 43.4907 200.612 43.6253 200.547C43.76 200.481 43.9119 200.459 44.0598 200.483L48.3349 201.188C48.4283 201.203 48.5176 201.237 48.5979 201.286C48.6782 201.336 48.7478 201.401 48.8029 201.478C48.8579 201.554 48.8973 201.641 48.9187 201.733C48.9401 201.824 48.9432 201.919 48.9277 202.012L47.7604 209.029C47.7304 209.209 47.6325 209.371 47.4867 209.481C47.3408 209.592 47.158 209.643 46.9756 209.624L42.0566 209.116C41.9219 209.102 41.794 209.05 41.6873 208.967C41.5807 208.884 41.4998 208.773 41.4537 208.646L40.9496 207.258L39.7537 207.053L39.4763 208.721C39.4465 208.9 39.3498 209.061 39.2056 209.172C39.0614 209.282 38.8805 209.334 38.6991 209.318L36.6648 209.129ZM31.3725 209.865C31.4889 209.165 32.1542 208.691 32.8573 208.807L35.4051 209.227C36.1081 209.343 36.5844 210.005 36.468 210.705L30.3967 247.197C30.2803 247.897 29.6149 248.371 28.9119 248.255L26.3641 247.835C25.661 247.719 25.1847 247.057 25.3012 246.357L31.3725 209.865ZM42.8393 203.221L43.9422 201.19L48.2173 201.895L47.0499 208.911L42.131 208.403L41.4845 206.622L39.1616 206.225L38.7658 208.604L29.8861 207.782L30.0757 205.288C30.0757 205.288 20.0312 202.862 17.3332 205.685C14.6352 208.508 21.1979 197.573 29.7639 198.815C38.3301 200.057 39.3717 200.444 39.3717 200.444L39.3493 202.266L42.8393 203.221Z" fill="white"/>
</g>
<g opacity="0.54" clip-path="url(#clip5)">
<path fill-rule="evenodd" clip-rule="evenodd" d="M29.6953 433.053C29.7795 432.924 29.8319 432.776 29.8482 432.623C29.8645 432.47 29.8442 432.315 29.7891 432.171C29.7339 432.027 29.6455 431.899 29.5308 431.795C29.4162 431.692 29.2788 431.617 29.1296 431.577L23.9707 430.183L23.1912 428.116L24.9833 426.138L29.649 427.874C29.8115 427.934 29.9872 427.951 30.1582 427.921C30.3292 427.892 30.4893 427.818 30.6222 427.707C30.7551 427.596 30.856 427.451 30.9146 427.288C30.9732 427.126 30.9875 426.95 30.9559 426.78C30.8365 426.139 30.6445 425.513 30.3837 424.914C28.9845 421.698 25.8503 419.763 22.5465 419.722L15.0282 402.445C17.256 400.012 17.9793 396.408 16.5801 393.192C14.6802 388.826 9.58218 386.82 5.20271 388.714C3.98882 389.239 2.95685 390.009 2.13963 390.94C2.03011 391.065 1.95424 391.215 1.91916 391.377C1.88409 391.54 1.89096 391.708 1.93913 391.867C1.9873 392.025 2.07519 392.169 2.19452 392.285C2.31385 392.4 2.4607 392.484 2.62125 392.527L7.12227 393.743L7.90175 395.81L6.10967 397.788L1.32323 396.007C1.17194 395.951 1.00904 395.933 0.849009 395.954C0.688978 395.976 0.536771 396.037 0.405912 396.131C0.275053 396.225 0.169595 396.35 0.0989088 396.495C0.0282228 396.64 -0.00550223 396.8 0.000730598 396.961C0.0407043 397.998 0.270655 399.046 0.709957 400.056C2.10924 403.271 5.2434 405.207 8.54714 405.247L16.0655 422.525C13.8376 424.958 13.1143 428.562 14.5136 431.778C16.4135 436.144 21.5115 438.15 25.8909 436.256C27.5074 435.557 28.8014 434.424 29.6953 433.053ZM28.8731 432.52C28.0808 433.735 26.9336 434.74 25.5008 435.36C21.6177 437.039 17.0975 435.26 15.413 431.388C14.0845 428.335 14.9141 424.887 17.2288 422.743L9.18275 404.252C6.03043 404.472 2.93798 402.72 1.60937 399.667C1.23062 398.799 1.01735 397.869 0.980494 396.923L6.39081 398.936L9.02968 396.024L7.86341 392.93L2.87761 391.583C3.60203 390.758 4.51694 390.076 5.59286 389.61C9.47592 387.931 13.9961 389.71 15.6806 393.581C17.0092 396.635 16.1796 400.083 13.8649 402.227L21.9109 420.718C25.0632 420.498 28.1557 422.25 29.4843 425.303C29.7156 425.834 29.8859 426.389 29.9917 426.958L24.7021 424.99L22.0632 427.902L23.2295 430.996L28.8731 432.52Z" fill="white"/>
</g>
<g opacity="0.54" clip-path="url(#clip6)">
<path fill-rule="evenodd" clip-rule="evenodd" d="M171.768 535.614C171.547 535.667 171.328 535.743 171.115 535.844L134.904 552.998C133.241 553.786 132.533 555.77 133.324 557.427L135.028 560.996C135.819 562.652 137.811 563.358 139.474 562.57L175.685 545.416C175.918 545.306 176.138 545.168 176.34 545.007L180.561 553.679C180.67 553.903 180.838 554.092 181.048 554.226C181.258 554.36 181.5 554.434 181.749 554.439C181.998 554.444 182.244 554.381 182.46 554.256C182.675 554.132 182.851 553.95 182.97 553.732L188.774 543.022C188.877 542.833 188.933 542.622 188.937 542.407C188.941 542.192 188.893 541.979 188.798 541.786L179.395 522.752C179.314 522.588 179.201 522.443 179.063 522.324C178.924 522.206 178.762 522.116 178.588 522.061C178.413 522.007 178.229 521.988 178.047 522.006C177.865 522.024 177.689 522.078 177.529 522.166L168.94 526.874C168.309 527.22 168.061 527.998 168.375 528.643L171.768 535.614ZM175.104 544.199C176.092 543.73 176.513 542.551 176.043 541.566L174.339 537.997C173.869 537.012 172.685 536.593 171.696 537.062L135.485 554.215C134.497 554.684 134.076 555.863 134.546 556.848L136.25 560.417C136.72 561.402 137.904 561.821 138.893 561.353L175.104 544.199ZM178.181 523.347L169.593 528.055L181.779 553.091L187.584 542.381L178.181 523.347Z" fill="white"/>
</g>
<g opacity="0.54" clip-path="url(#clip7)">
<path fill-rule="evenodd" clip-rule="evenodd" d="M888.923 53.5458C889.048 53.6781 889.189 53.7993 889.345 53.9069L915.792 72.1872C917.007 73.0269 918.67 72.7227 919.504 71.5084L921.3 68.8928C922.134 67.6786 921.825 66.0111 920.61 65.1716L894.163 46.8913C893.992 46.7733 893.809 46.6755 893.616 46.5998L897.949 40.1877C898.06 40.0226 898.124 39.8297 898.133 39.6303C898.142 39.4308 898.096 39.2325 898 39.0573C897.904 38.882 897.761 38.7366 897.588 38.6371C897.415 38.5376 897.218 38.4877 897.019 38.4931L887.248 38.7562C887.075 38.7609 886.906 38.8068 886.755 38.8902C886.604 38.9736 886.476 39.092 886.38 39.2356L876.926 53.4056C876.844 53.5273 876.789 53.6643 876.762 53.8084C876.735 53.9525 876.738 54.1006 876.77 54.2438C876.802 54.3871 876.862 54.5224 876.948 54.6417C877.033 54.7609 877.142 54.8617 877.267 54.9377L883.984 59.017C884.478 59.3166 885.118 59.1773 885.44 58.7L888.923 53.5458ZM893.55 47.7834C892.828 47.2844 891.84 47.4652 891.344 48.187L889.548 50.8026C889.052 51.5244 889.236 52.5156 889.958 53.0147L916.405 71.295C917.127 71.7941 918.116 71.6133 918.611 70.8915L920.408 68.2759C920.903 67.5541 920.719 66.5629 919.997 66.0637L893.55 47.7834ZM877.826 54.0106L884.543 58.0898L897.051 39.5775L887.281 39.8405L877.826 54.0106Z" fill="white"/>
</g>
<defs>
<clipPath id="clip0">
<rect width="31" height="49" fill="white" transform="translate(807.174 555.968) rotate(150)"/>
</clipPath>
<clipPath id="clip1">
<rect width="61.5856" height="54.818" fill="white" transform="translate(882.95 363) rotate(75)"/>
</clipPath>
<clipPath id="clip2">
<rect width="36.4282" height="56.2982" fill="white" transform="translate(931.756 185.851) rotate(60)"/>
</clipPath>
<clipPath id="clip3">
<rect width="91" height="81" fill="white" transform="translate(9)"/>
</clipPath>
<clipPath id="clip4">
<rect width="33" height="51" fill="white" transform="translate(16 198)"/>
</clipPath>
<clipPath id="clip5">
<rect width="31" height="49" fill="white" transform="translate(0 388)"/>
</clipPath>
<clipPath id="clip6">
<rect width="56" height="41" fill="white" transform="translate(133 522)"/>
</clipPath>
<clipPath id="clip7">
<rect width="44.9331" height="32.8975" fill="white" transform="translate(895.017 85.9463) rotate(-120)"/>
</clipPath>
</defs>
</svg>
