<svg viewBox="0 0 24 24" fill="none" xmlns="http://www.w3.org/2000/svg">
<path d="M11.8428 21.6391C17.0567 21.6391 21.2833 17.1172 21.2833 11.5392C21.2833 5.96111 17.0567 1.43921 11.8428 1.43921C6.62899 1.43921 2.40234 5.96111 2.40234 11.5392C2.40234 17.1172 6.62899 21.6391 11.8428 21.6391Z" fill="white"/>
<path fill-rule="evenodd" clip-rule="evenodd" d="M11.9917 0C18.61 0 23.9833 5.37272 23.9833 11.9904C23.9833 18.6081 18.61 23.9808 11.9917 23.9808C5.37327 23.9808 0 18.6081 0 11.9904C0 5.37272 5.37327 0 11.9917 0ZM6.11249 4.33724C6.56535 3.9495 7.20075 3.63102 7.75315 3.85528C8.74642 4.25856 11.4151 9.63833 11.4151 9.63833C11.4151 9.63833 15.148 4.33557 16.4887 3.85203C16.9461 3.68708 17.5732 3.97721 18.0514 4.33473C19.7299 5.58947 19.9033 7.34003 19.7582 7.82567C19.5758 8.43623 10.3035 20.1999 10.3035 20.1999C10.0262 20.0868 4.53232 9.89093 4.23459 8.14636C3.95007 6.47917 4.9181 5.34639 6.11249 4.33724Z" fill="#3165D4"/>
</svg>
