<svg viewBox="0 0 24 24" fill="none" xmlns="http://www.w3.org/2000/svg">
<g >
<path d="M11.9995 18.0004C15.3132 18.0004 17.9995 15.3141 17.9995 12.0004C17.9995 8.68673 15.3132 6.00046 11.9995 6.00046C8.68581 6.00046 5.99951 8.68673 5.99951 12.0004C5.99951 15.3141 8.68581 18.0004 11.9995 18.0004Z" fill="white"/>
<path d="M2.39951 4.80078C3.725 4.80078 4.79951 3.72627 4.79951 2.40079C4.79951 1.07532 3.725 0.000808716 2.39951 0.000808716C1.07403 0.000808716 -0.000488281 1.07532 -0.000488281 2.40079C-0.000488281 3.72627 1.07403 4.80078 2.39951 4.80078Z" fill="white"/>
<path d="M21.6 4.80046C22.9254 4.80046 24 3.72595 24 2.40047C24 1.075 22.9254 0.000488281 21.6 0.000488281C20.2745 0.000488281 19.2 1.075 19.2 2.40047C19.2 3.72595 20.2745 4.80046 21.6 4.80046Z" fill="white"/>
<path d="M21.6 24.0003C22.9254 24.0003 24 22.9258 24 21.6003C24 20.2749 22.9254 19.2003 21.6 19.2003C20.2745 19.2003 19.2 20.2749 19.2 21.6003C19.2 22.9258 20.2745 24.0003 21.6 24.0003Z" fill="white"/>
<path d="M2.39976 24.0003C3.72524 24.0003 4.79976 22.9258 4.79976 21.6003C4.79976 20.2749 3.72524 19.2003 2.39976 19.2003C1.07427 19.2003 -0.000244141 20.2749 -0.000244141 21.6003C-0.000244141 22.9258 1.07427 24.0003 2.39976 24.0003Z" fill="white"/>
<path fill-rule="evenodd" clip-rule="evenodd" d="M2.74012 2.40024L21.9617 21.6214L21.6009 21.9822L2.37939 2.76101L2.74012 2.40024Z" fill="white"/>
<path fill-rule="evenodd" clip-rule="evenodd" d="M2.37854 21.6217L21.6 2.40036L21.9607 2.76114L2.73927 21.9826L2.37854 21.6217Z" fill="white"/>
</g>

</svg>
