<svg viewBox="0 0 24 24" fill="none" xmlns="http://www.w3.org/2000/svg">
<g >
<path fill-rule="evenodd" clip-rule="evenodd" d="M3.20077 7.36044V1.26381C3.20077 0.566595 3.76718 0.000488281 4.46481 0.000488281H22.7368C23.4344 0.000488281 24.0008 0.566595 24.0008 1.26381V11.5371C24.0008 12.2343 23.4344 12.8004 22.7368 12.8004H22.4008V8.62376C22.4008 7.92655 21.8344 7.36044 21.1368 7.36044H3.20068H3.20077Z" fill="white"/>
<path fill-rule="evenodd" clip-rule="evenodd" d="M19.1993 12.1033C19.1993 11.3842 18.6156 10.8005 17.8963 10.8005H1.30234C0.582968 10.8005 -0.000732422 11.3842 -0.000732422 12.1033V22.6977C-0.000732422 23.4167 0.582968 24.0004 1.30234 24.0004H17.8963C18.6156 24.0004 19.1993 23.4167 19.1993 22.6977V12.1033Z" fill="white"/>
<path fill-rule="evenodd" clip-rule="evenodd" d="M2.24011 13.1204H7.04013V18.2804H2.24011V13.1204ZM5.38422 2.84045H8.69578V7.36054H5.38422V2.84045Z" fill="#4AA658"/>
</g>

</svg>
