<svg viewBox="0 0 3775 3488" xmlns="http://www.w3.org/2000/svg" fill-rule="evenodd" clip-rule="evenodd" stroke-linejoin="round" stroke-miterlimit="2"><path d="M776.321 3209.61l822.635-2935.63-56.246-18.102-1044.03 2864.37 277.642 89.356zM2127.73 2284.39l855.042-2010.46-38.247-18.016-1005.59 1939.54 188.795 88.932z" fill="#1a1a1a"/><path d="M1.304 3481.6s1381.57-2233.89 3582.03-2245.83c-1826.57 920.209-1837.5 2250-1837.5 2250l-1744.53-4.166z" fill="#fff"/><path d="M1.304 3481.6s1381.57-2233.89 3582.03-2245.83c-1826.57 920.209-1837.5 2250-1837.5 2250l-1744.53-4.166zm3401.79-2198.12c-1858.32 114.328-3088.86 1805.69-3324.94 2156.64l1628.27 3.889c18.248-226.092 184.505-1330.77 1696.66-2160.53z" fill="#1a1a1a"/><path d="M1670.83 2173.26h170.834l229.166-170.833-16.666-108.333-383.334 279.166z" fill="#262626"/><path d="M2638.82 3120.25L1594.79 255.88l-56.246 18.102 822.635 2935.63 277.642-89.356zM3684.18 2579.78L2981.102 259.5l-40.858 10.864 542.252 2363.05 201.684-53.629zM2250 1764.93l87.5 37.5 325-225-75-8.333L2250 1764.93zM2787.5 1460.76l54.167 16.667 325-154.167-8.334-8.333L2787.5 1460.76zM1529.17 2498.26l-162.5-4.166-258.334 329.166 187.5 8.334 233.334-333.334zM1075 3206.6l-195.833-4.167-112.5 237.5H962.5L1075 3206.6z" fill="#1a1a1a"/><path d="M2362.5 3202.43h300l-25-87.5-275 87.5zM3479.17 2633.68h223.296l-18.608-54.108-204.688 54.108z" fill="#1a1a1a"/></svg>