<svg viewBox="0 0 3042 1850" xmlns="http://www.w3.org/2000/svg" fill-rule="evenodd" clip-rule="evenodd" stroke-linejoin="round" stroke-miterlimit="2"><circle cx="1784.92" cy="1402.43" r="445.833" fill="#e6e6e6"/><circle cx="1886.72" cy="644.096" r="445.833" fill="#333"/><path d="M1886.72 131.596c-282.857 0-512.5 229.643-512.5 512.5 0 282.856 229.643 512.5 512.5 512.5 282.856 0 512.5-229.644 512.5-512.5 0-282.857-229.644-512.5-512.5-512.5zm0 66.666c246.062 0 445.833 199.771 445.833 445.834 0 246.062-199.771 445.833-445.833 445.833-246.063 0-445.834-199.771-445.834-445.833 0-246.063 199.771-445.834 445.834-445.834z" fill="#fff"/><circle cx="2528.39" cy="1168.01" r="445.833" fill="#b3b3b3"/><path d="M2528.39 655.513c-282.856 0-512.5 229.643-512.5 512.5 0 282.856 229.644 512.5 512.5 512.5 282.857 0 512.5-229.644 512.5-512.5 0-282.857-229.643-512.5-512.5-512.5zm0 66.666c246.062 0 445.834 199.772 445.834 445.834s-199.772 445.833-445.834 445.833-445.833-199.771-445.833-445.833c0-246.062 199.771-445.834 445.833-445.834z" fill="#fff"/><circle cx="608.554" cy="945.096" r="528.166" fill="#b6cdff"/><path d="M608.554 337.952C273.462 337.952 1.41 610.004 1.41 945.096s272.052 607.144 607.144 607.144 607.145-272.052 607.145-607.144-272.053-607.144-607.145-607.144zm0 78.978c291.503 0 528.167 236.663 528.167 528.166 0 291.503-236.664 528.166-528.167 528.166-291.503 0-528.166-236.663-528.166-528.166 0-291.503 236.663-528.166 528.166-528.166z" fill="#fff"/><circle cx="1222.42" cy="424.967" r="368.046" fill="#f1a111"/><path d="M1222.42 1.885c-233.504 0-423.081 189.577-423.081 423.082 0 233.504 189.577 423.081 423.081 423.081 233.505 0 423.082-189.577 423.082-423.081 0-233.505-189.577-423.082-423.082-423.082zm0 55.035c203.131 0 368.047 164.916 368.047 368.047 0 203.13-164.916 368.046-368.047 368.046-203.13 0-368.046-164.916-368.046-368.046 0-203.131 164.916-368.047 368.046-368.047z" fill="#fff"/><circle cx="1222.42" cy="1027.43" r="445.833" fill="#3165d4"/><path d="M1222.42 514.53c-283.076 0-512.898 229.822-512.898 512.899 0 283.076 229.822 512.899 512.898 512.899 283.077 0 512.899-229.823 512.899-512.899 0-283.077-229.822-512.899-512.899-512.899zm0 67.066c246.063 0 445.834 199.771 445.834 445.833 0 246.062-199.771 445.833-445.834 445.833-246.062 0-445.833-199.771-445.833-445.833 0-246.062 199.771-445.833 445.833-445.833z" fill="#fff"/><path d="M1003.84 742.865c16.836-14.417 40.459-26.259 60.996-17.92 36.929 14.995 136.148 215.027 136.148 215.027s138.783-197.169 188.629-215.148c17.005-6.134 40.318 4.654 58.099 17.947 62.404 46.655 68.852 111.745 63.457 129.803-6.781 22.702-351.512 460.104-351.512 460.104-10.309-4.204-214.566-383.312-225.635-448.18-10.578-61.99 25.412-104.111 69.818-141.633z" fill="#fff"/></svg>