<svg viewBox="0 0 2455 2067" xmlns="http://www.w3.org/2000/svg" fill-rule="evenodd" clip-rule="evenodd" stroke-linecap="round" stroke-linejoin="round" stroke-miterlimit="1.5"><path d="M430.899 194.643l1830.58 766.263" fill="none" stroke="#3165d4" stroke-width="34.72"/><path fill="#fff" stroke="#3165d4" stroke-width="33.13" d="M716.286 213.95h344.517v344.517H716.286zM1173.93 405.516h344.517v344.517H1173.93zM1631.58 597.082h344.517v344.517H1631.58zM2089.22 788.647h344.517v344.517H2089.22z"/><circle cx="411.592" cy="194.643" r="191.566" fill="#3165d4"/><path d="M317.673 72.372c7.234-6.195 17.385-11.283 26.209-7.7 15.868 6.443 58.5 92.393 58.5 92.393s59.632-84.72 81.05-92.445c7.307-2.636 17.324 2 24.964 7.712 26.814 20.046 29.584 48.014 27.266 55.773-2.914 9.755-151.037 197.698-151.038 197.698-4.429-1.807-92.194-164.702-96.95-192.574-4.546-26.636 10.919-44.735 29.999-60.857z" fill="#fff"/><g stroke="#ccc"><path d="M1178.82 1164.27l933.266 390.656" fill="none" stroke-width="34.72"/><path fill="#fff" stroke-width="22.52" d="M1061.72 1047.18h234.188v234.188H1061.72zM1372.81 1177.39h234.188v234.188H1372.81zM1683.9 1307.61h234.188v234.188H1683.9zM1994.99 1437.83h234.188v234.188H1994.99z"/></g><g stroke="#ccc"><path d="M90.505 718.832l603.512 252.623" fill="none" stroke-width="34.72"/><path fill="#fff" stroke-width="14.56" d="M14.784 643.111h151.442v151.442H14.784zM215.955 727.319h151.442v151.442H215.955zM417.125 811.527h151.442v151.442H417.125zM618.296 895.734h151.442v151.442H618.296z"/></g><g stroke="#ccc"><path d="M157.387 1434.14l1136.58 475.76" fill="none" stroke-width="34.72"/><path fill="#fff" stroke-width="27.42" d="M14.784 1291.54H299.99v285.206H14.784zM393.643 1450.12h285.206v285.206H393.643zM772.503 1608.71h285.206v285.206H772.503zM1151.36 1767.3h285.206v285.206H1151.36z"/></g></svg>