<svg viewBox="0 0 1505 938" xmlns="http://www.w3.org/2000/svg" fill-rule="evenodd" clip-rule="evenodd" stroke-linejoin="round" stroke-miterlimit="2"><path d="M1503.3 33.089c0-17.112-13.893-31.006-31.006-31.006H628.699c-17.113 0-31.006 13.894-31.006 31.006v517.688c0 17.113 13.893 31.006 31.006 31.006h843.595c17.113 0 31.006-13.893 31.006-31.006V33.089z" fill="#fff"/><path d="M1503.3 33.089c0-17.112-13.893-31.006-31.006-31.006H628.699c-17.113 0-31.006 13.894-31.006 31.006v517.688c0 17.113 13.893 31.006 31.006 31.006h843.595c17.113 0 31.006-13.893 31.006-31.006V33.089zm-17.321 0v517.688c0 7.554-6.132 13.686-13.685 13.686H628.699c-7.554 0-13.686-6.132-13.686-13.686V33.089c0-7.553 6.132-13.685 13.686-13.685h843.595c7.553 0 13.685 6.132 13.685 13.685z" fill="#353535"/><path d="M910.724 130.694c0-19.33-15.694-35.024-35.024-35.024H729.605c-19.33 0-35.023 15.694-35.023 35.024v181.747c0 19.33 15.693 35.024 35.023 35.024H875.7c19.33 0 35.024-15.694 35.024-35.024V130.694zM1050.5 114.611h309.729v35.652H1050.5zM1050.5 185.915h229.511v35.652H1050.5zM1050.5 261.676h265.164v35.652H1050.5z" fill="#e2e2e2"/><g><path d="M1108.92 265.771c0-20.893-16.962-37.854-37.854-37.854H41.156c-20.892 0-37.854 16.961-37.854 37.854v632.025c0 20.892 16.962 37.854 37.854 37.854h1029.91c20.892 0 37.854-16.962 37.854-37.854V265.771z" fill="#fff"/><path d="M1108.92 265.771c0-20.893-16.962-37.854-37.854-37.854H41.156c-20.892 0-37.854 16.961-37.854 37.854v632.025c0 20.892 16.962 37.854 37.854 37.854h1029.91c20.892 0 37.854-16.962 37.854-37.854V265.771zm-21.146 0v632.025c0 9.221-7.487 16.708-16.708 16.708H41.156c-9.222 0-16.708-7.487-16.708-16.708V265.771c0-9.222 7.486-16.708 16.708-16.708h1029.91c9.221 0 16.708 7.486 16.708 16.708z" fill="#3165d4"/><path d="M385.467 384.932c0-23.599-19.159-42.758-42.759-42.758H164.347c-23.599 0-42.759 19.159-42.759 42.758V606.82c0 23.6 19.16 42.759 42.759 42.759h178.361c23.6 0 42.759-19.159 42.759-42.759V384.932zM556.11 365.297h378.136v43.526H556.11zM556.11 452.35h280.202v43.526H556.11zM556.11 544.844h323.728v43.526H556.11z" fill="#d9e5ff"/></g><circle cx="637.042" cy="760.31" r="80.932" fill="#caf5d1"/><circle cx="855.35" cy="760.31" r="80.932" fill="#caf5d1"/></svg>