<svg xmlns="http://www.w3.org/2000/svg" xmlns:xlink="http://www.w3.org/1999/xlink" viewBox="0 0 125.19 36.46"><defs><style>.cls-1{fill:#433f3f;}.cls-2{fill:#ec7000;}.cls-3{fill:#d62817;}.cls-4{fill:url(#未命名的渐变_2);}</style><linearGradient id="未命名的渐变_2" x1="-550.48" y1="672.05" x2="-550.77" y2="672.48" gradientTransform="matrix(12.98, 0, 0, -11.98, 7166.53, 8069.69)" gradientUnits="userSpaceOnUse"><stop offset="0" stop-color="#d62616" stop-opacity="0"/><stop offset="1" stop-color="#d62616"/></linearGradient></defs><title>资源 13</title><g id="图层_2" data-name="图层 2"><g id="图层_1-2" data-name="图层 1"><g id="组_136" data-name="组 136"><g id="组_4" data-name="组 4"><g id="组_3" data-name="组 3"><path id="路径_7" data-name="路径 7" class="cls-1" d="M52.8,6.58H50.74L47.11,19.29h4L54.21,8.55A1.55,1.55,0,0,0,54,7.15,1.43,1.43,0,0,0,52.8,6.58Z"/><path id="路径_8" data-name="路径 8" class="cls-1" d="M55.62,3.71a2.9,2.9,0,0,1-2.6,2,1.46,1.46,0,0,1-1.54-1.39,1.49,1.49,0,0,1,.1-.63,2.89,2.89,0,0,1,2.6-2,1.45,1.45,0,0,1,1.54,1.38A1.35,1.35,0,0,1,55.62,3.71Z"/></g><path id="路径_9" data-name="路径 9" class="cls-1" d="M72.1,5.88a5.93,5.93,0,0,0-2.32.46,5.18,5.18,0,0,0-1,.57l.92-3.25a1.53,1.53,0,0,0-.18-1.39,1.42,1.42,0,0,0-1.22-.58h-2l-5,17.59h3.93l1.94-6.76a4.94,4.94,0,0,1,1.27-2.34,2.49,2.49,0,0,1,1.83-.77,1.25,1.25,0,0,1,1.29.77,3.54,3.54,0,0,1-.07,2.34l-1.93,6.76h4l1.89-6.62a6.81,6.81,0,0,0,0-4.89A3.39,3.39,0,0,0,72.1,5.88Z"/><path id="路径_10" data-name="路径 10" class="cls-1" d="M107.9,5.86a9.2,9.2,0,0,0-5.24,1.5,3.41,3.41,0,0,0-3.07-1.5,5.91,5.91,0,0,0-2.31.45A5.56,5.56,0,0,0,96.06,7,1.38,1.38,0,0,0,94.6,5.87h-2L88.8,19.27h3.93l1.94-6.77a5.11,5.11,0,0,1,1.27-2.34,2.46,2.46,0,0,1,1.83-.78,1.27,1.27,0,0,1,1.3.78A3.68,3.68,0,0,1,99,12.5l-1.94,6.77h4L103,12.5a5,5,0,0,1,1.28-2.34,2.42,2.42,0,0,1,1.82-.78,1.27,1.27,0,0,1,1.3.78,3.61,3.61,0,0,1-.07,2.34l-1.93,6.77h4l1.9-6.64a6.92,6.92,0,0,0,0-4.89A3.39,3.39,0,0,0,107.9,5.86Z"/><path id="路径_11" data-name="路径 11" class="cls-1" d="M76.57,13.5l2.18-7.65h4L80.54,13.5C79.9,15.75,82,15.74,82,15.74a3,3,0,0,0,2.85-2.24l2.18-7.65H91L88.8,13.5A7.91,7.91,0,0,1,81,19.27S74.8,19.67,76.57,13.5Z"/><path id="路径_12" data-name="路径 12" class="cls-1" d="M124.77,12.64a6.87,6.87,0,0,0-.06-4.89,3.35,3.35,0,0,0-3.28-1.88,5.78,5.78,0,0,0-2.32.45,5,5,0,0,0-1,.58L119,3.66a1.53,1.53,0,0,0-.18-1.39,1.44,1.44,0,0,0-1.22-.58h-2l-3.33,11.68c-1.83,6.38,4.63,5.91,4.63,5.91S122.84,19.41,124.77,12.64Zm-3.94-.13A5.58,5.58,0,0,1,119.52,15a2.53,2.53,0,0,1-1.83.78,1.32,1.32,0,0,1-1.34-.78,4,4,0,0,1,.15-2.47,5,5,0,0,1,1.28-2.35,2.47,2.47,0,0,1,1.83-.77,1.26,1.26,0,0,1,1.29.77,3.64,3.64,0,0,1-.07,2.35Z"/><path id="路径_13" data-name="路径 13" class="cls-1" d="M61.5,3.67a1.58,1.58,0,0,0-.18-1.4,1.34,1.34,0,0,0-1.18-.57H58.08L53.84,16.56c-.57,2.05.43,2.57,1.39,2.64.67.06,1.48.09,2.27.09.51,0,1,0,1.42,0l.4,0L60.23,16H58.46c-.49,0-.44-.17-.39-.34L59.9,9.27h.49a2.6,2.6,0,0,0,1.54-.55,2.64,2.64,0,0,0,1-1.42l.31-1.06H60.76Z"/><path id="路径_14" data-name="路径 14" class="cls-1" d="M47.59,12.64a6.81,6.81,0,0,0-.05-4.89,3.37,3.37,0,0,0-3.29-1.88,5.73,5.73,0,0,0-2.31.45,4.81,4.81,0,0,0-1,.58l.93-3.24a1.59,1.59,0,0,0-.18-1.39,1.48,1.48,0,0,0-1.23-.58h-2L35.15,13.37c-1.83,6.38,4.63,5.91,4.63,5.91S45.66,19.41,47.59,12.64Zm-3.94-.13A5.58,5.58,0,0,1,42.34,15a2.5,2.5,0,0,1-1.82.78A1.31,1.31,0,0,1,39.18,15a3.94,3.94,0,0,1,.15-2.47,5.1,5.1,0,0,1,1.27-2.35,2.49,2.49,0,0,1,1.83-.77,1.27,1.27,0,0,1,1.3.77,3.64,3.64,0,0,1-.08,2.35Z"/></g><g id="组_2" data-name="组 2"><path id="路径_1" data-name="路径 1" class="cls-2" d="M57.82,33.49a5.3,5.3,0,0,1-3.64,1.31,3.1,3.1,0,0,1-2.8-1.28c-.85-1.2-.46-2.69.06-4.66s.91-3.46,2.38-4.66a5.22,5.22,0,0,1,3.47-1.27c2.91,0,3.64,1.95,3.41,3.87H57.9c0-.89-.32-1.32-1.27-1.32a1.85,1.85,0,0,0-1.24.51c-.34.35-.6.74-1.16,2.88s-.51,2.54-.35,2.88a1,1,0,0,0,1,.5,2,2,0,0,0,1.36-.47A2.36,2.36,0,0,0,57,30.53l0-.16H55.34L56,28h4.44L60,29.6A6.77,6.77,0,0,1,57.82,33.49Z"/><path id="路径_2" data-name="路径 2" class="cls-2" d="M60.25,34.7,63.31,23h.81a1.47,1.47,0,0,1,1.46,2l-1.87,7.14h4.75l-.67,2.56Z"/><path id="路径_3" data-name="路径 3" class="cls-2" d="M76.42,33.52a5.25,5.25,0,0,1-3.48,1.28,3.12,3.12,0,0,1-2.82-1.28c-.85-1.2-.45-2.69.06-4.66s.91-3.46,2.39-4.66a5.18,5.18,0,0,1,3.48-1.27,3.11,3.11,0,0,1,2.82,1.27c.84,1.2.45,2.69-.06,4.66S77.9,32.32,76.42,33.52ZM76.36,26a1,1,0,0,0-1-.51,1.78,1.78,0,0,0-1.25.51c-.34.35-.6.73-1.16,2.87s-.5,2.51-.34,2.85a1,1,0,0,0,1,.53,1.82,1.82,0,0,0,1.25-.53c.35-.34.6-.72,1.16-2.85s.51-2.53.34-2.87Z"/><path id="路径_4" data-name="路径 4" class="cls-2" d="M83.81,34.7H78.89L82,23h4.69c2.36,0,3.25,1.36,2.73,3.38a4,4,0,0,1-1.85,2.32,2.08,2.08,0,0,1,.73,2.54A4.46,4.46,0,0,1,83.81,34.7Zm2-9.11H84.05l-.5,1.91h1.74a1.21,1.21,0,0,0,1.25-.95c.13-.46,0-.95-.75-.95Zm-1,4.48H82.88l-.54,2h1.88a1.3,1.3,0,0,0,1.29-1c.13-.49,0-1-.75-1Z"/><path id="路径_5" data-name="路径 5" class="cls-2" d="M95.29,34.7,95.22,33H91.74l-1,1.74H87.81L95,23h2.14L98.2,34.7ZM95,27.45l-1.83,3.12h2Z"/><path id="路径_6" data-name="路径 6" class="cls-2" d="M99,34.7,102.1,23h.82a1.46,1.46,0,0,1,1.53,1.39,1.58,1.58,0,0,1-.08.57l-1.88,7.16h4.75l-.67,2.56Z"/></g><path id="路径_19" data-name="路径 19" class="cls-2" d="M45.82,29.74H35.48c-.61,0-.91-.49-.68-1.1a1.8,1.8,0,0,1,1.52-1.1H46.66c.61,0,.91.49.68,1.1A1.79,1.79,0,0,1,45.82,29.74Z"/><path id="路径_239" data-name="路径 239" class="cls-2" d="M123.47,29.74H113.13c-.61,0-.91-.49-.68-1.1a1.8,1.8,0,0,1,1.53-1.1h10.33c.61,0,.91.49.68,1.1A1.79,1.79,0,0,1,123.47,29.74Z"/><g id="组_3-2" data-name="组 3-2"><path id="路径_9-2" data-name="路径 9-2" class="cls-3" d="M.22,14.7A2.81,2.81,0,0,0,1.7,18.37,2.74,2.74,0,0,0,3,18.59H4L6.76,8.74H1.94Z"/><path id="路径_10-2" data-name="路径 10-2" class="cls-2" d="M26.82,12.55C25.53,10,23.25,8.72,20.05,8.72h-6l-2.8,9.91h4.24a1.52,1.52,0,0,1,1.63.88,4.52,4.52,0,0,1-.09,2.95,7.07,7.07,0,0,1-1.64,3.12,3.08,3.08,0,0,1-2.29,1,1.62,1.62,0,0,1-1.67-1,5,5,0,0,1,.19-3.11L16.85,4.08a3.23,3.23,0,0,0-.37-2.88A2.93,2.93,0,0,0,14,0H8.17L1.3,24.19c-3.77,13.24,9.54,12.26,9.54,12.26S23,36.72,26.93,22.69C28.11,18.56,28.07,15.15,26.82,12.55Z"/><path id="路径_11-2" data-name="路径 11-2" class="cls-4" d="M26.93,22.64c1.18-4.11,1.14-7.5-.11-10.08S23.24,8.75,20,8.75H15.55l-2.8,9.85h2.76a1.5,1.5,0,0,1,1.62.88,4.53,4.53,0,0,1-.08,2.93"/></g></g></g></g></svg>