<svg width="175" height="30" viewBox="0 0 175 30" fill="none" xmlns="http://www.w3.org/2000/svg" preserveAspectRatio="xMidYMid">
<path d="M67.033 30H57.6821V6.94601H44.5137V0H79.7798V6.94601H67.0317V30H67.033Z" fill="black"/>
<path d="M122.872 23.0154V30H99.8563H90.6198H89.9707V0H90.3525H99.8563H122.872V6.94601H99.3229V11.9846H121.422V18.0527H99.3229V23.0141H122.872V23.0154Z" fill="black"/>
<path d="M145.39 30H132.795L147.336 15.1915L133.33 0H145.504L153.787 9.27378L162.032 0H174.321L160.161 15.1902L174.97 29.9987H162.413L153.902 20.991L145.39 30Z" fill="black"/>
<path d="M35.0876 0.00128174V6.19797H11.2058V6.50902C10.986 6.52316 10.7791 6.53987 10.5824 6.56429C10.1763 6.61699 9.79324 6.72496 9.43719 6.88949C9.07987 7.0553 8.7958 7.3008 8.57858 7.63242C8.36393 7.96276 8.25467 8.3972 8.25467 8.93191C8.25467 9.89721 8.59786 10.5309 9.28552 10.8394C9.78295 11.063 10.4243 11.2031 11.2046 11.2623V11.7391H25.4848C25.5079 11.7391 25.5311 11.743 25.5542 11.743H25.5581C26.1172 11.7661 26.621 11.7892 27.0696 11.8124C27.8858 11.8509 28.5594 11.8934 29.0941 11.9461C31.0876 12.054 32.6519 12.6042 33.7946 13.59C33.3691 14.0386 33.229 14.6903 33.7239 15.3522C33.9038 15.5977 34.0709 15.8163 34.2213 16.0296C33.6673 17.8343 33.9951 20.2726 33.5568 21.7096C33.3473 22.4037 33.5838 22.9602 34.0118 23.3111C33.5324 24.5721 33.1943 25.7803 33.4874 27.1646L31.1828 29.4693C30.0388 29.8227 28.6815 29.9988 27.1108 29.9988H0.0117188V23.5091H23.1416C23.3023 23.5091 23.4604 23.5052 23.6133 23.5027C23.7431 23.4988 23.8704 23.4924 23.9964 23.4847C24.2097 23.4744 24.4128 23.4577 24.6095 23.4358C24.9424 23.3947 25.2573 23.3279 25.5555 23.2225C25.657 23.1903 25.7547 23.1531 25.8498 23.1106C26.2329 22.9435 26.5375 22.698 26.765 22.3638C26.9951 22.0335 27.1082 21.6003 27.1082 21.0669C27.1082 20.4538 26.9488 19.9667 26.6313 19.5978C26.3498 19.27 25.9899 19.0206 25.5555 18.8535C25.5028 18.8356 25.4475 18.815 25.391 18.7957C24.9424 18.6517 24.4771 18.5541 23.9964 18.5091V17.9422H9.06701C8.98604 17.9384 8.90763 17.9358 8.82537 17.9281C8.75082 17.9242 8.67498 17.9217 8.60043 17.9178C7.81122 17.8818 7.13642 17.8368 6.576 17.7841C4.02715 17.6466 2.13126 16.8741 0.887042 15.4692C0.933315 15.4088 0.974446 15.342 1.01044 15.27C1.37805 14.572 1.60941 13.7944 1.71738 13.0155C1.87162 11.8921 1.06571 10.7494 1.26237 9.75068C1.44489 8.81109 2.19553 8.35993 2.08499 7.24424C1.96031 6.00131 1.01301 5.10799 0.793212 3.92032C0.754652 3.71595 0.690383 3.54243 0.60555 3.3959L3.43332 0.568122C4.41533 0.190228 5.59143 0.00256678 6.95904 0.00256678H35.0876V0.00128174Z" fill="black"/>
<path d="M8.8265 0.00128174V7.01289C7.6247 7.08229 7.1684 8.26353 7.45246 9.18385C7.01416 10.117 7.44218 11.4872 8.73524 11.5669C8.76609 11.5708 8.79437 11.5733 8.8265 11.5733V17.9422H0V3.99873L0.6054 3.39333C0.6054 3.39333 0.605399 3.39461 0.606685 3.39461L3.43446 0.566837C3.43317 0.566837 3.4306 0.568122 3.42932 0.568122L3.99615 0.00128174H8.8265Z" fill="black"/>
<path d="M11.2064 6.37534H6.01367V11.5682H11.2064V6.37534Z" fill="black"/>
<path d="M34.7989 11.7442V25.8818L33.4904 27.1903C33.4892 27.1813 33.4866 27.1736 33.4853 27.1646L31.1807 29.4692C31.1961 29.4641 31.2089 29.4602 31.2244 29.4551L30.6832 29.9988H25.5547V11.7442H34.7989Z" fill="black"/>
<path d="M23.9983 18.3381H25.5561H27.497V23.7366H25.5561H23.9983H23.6152V23.504C23.7463 23.5001 23.8736 23.4937 23.9983 23.4847V18.5117V18.3381Z" fill="black"/>
<path d="M23.6133 23.504C23.7444 23.5001 23.8717 23.4937 23.9964 23.4847V23.9988H0.0117188V23.5117H23.1416C23.3023 23.5104 23.4591 23.5078 23.6133 23.504Z" fill="black"/>
<path d="M35.0882 5.56815H11.2051V6.94604H35.0882V5.56815Z" fill="black"/>
<path d="M31.1819 29.4704C31.1973 29.4653 31.2102 29.4614 31.2256 29.4563L30.6845 30H30.6523L31.1819 29.4704Z" fill="black"/>
<path d="M34.8 25.851V25.8818L33.4915 27.1903C33.4902 27.1813 33.4876 27.1736 33.4863 27.1646L34.8 25.851Z" fill="black"/>
<path d="M32.055 23.1355L27.9414 27.2489L30.6871 29.9945L34.8007 25.8811L32.055 23.1355Z" fill="black"/>
</svg>
