<svg width="200" height="72" viewBox="0 0 200 72" fill="none" xmlns="http://www.w3.org/2000/svg" preserveAspectRatio="xMidYMid">
<path d="M73.168 55.6191H75.7844L77.9268 61.6803L80.2318 55.6191H81.8323L84.0957 61.6118L86.2406 55.6191H88.8742L84.9868 66.2727H83.2928L81.0211 60.2017L78.6808 66.2727H77.0064L73.168 55.6191ZM90.3968 51.5065H93.0504V56.6962C93.5728 56.2458 94.0981 55.908 94.6269 55.6828C95.1557 55.4576 95.6908 55.345 96.2328 55.345C97.2903 55.345 98.1814 55.7102 98.906 56.4416C99.5263 57.0752 99.8362 58.0054 99.8362 59.2323V66.2727H97.2022V61.602C97.2022 60.3682 97.1434 59.5329 97.0259 59.0952C96.9084 58.6575 96.7077 58.3315 96.4237 58.1161C96.1398 57.9006 95.7887 57.7929 95.3711 57.7929C94.8291 57.7929 94.364 57.9721 93.9757 58.3315C93.5875 58.6908 93.3182 59.1804 93.1679 59.8003C93.0896 60.1205 93.0504 60.8509 93.0504 61.9936V66.2727H90.3968V51.5065ZM103.464 51.2324C103.934 51.2324 104.335 51.4018 104.67 51.7415C105.005 52.0813 105.173 52.4926 105.173 52.9753C105.173 53.4522 105.007 53.8585 104.674 54.1944C104.343 54.5303 103.945 54.6987 103.483 54.6987C103.009 54.6987 102.604 54.5273 102.267 54.1846C101.932 53.8419 101.766 53.4257 101.766 52.9361C101.766 52.4661 101.931 52.0647 102.263 51.7317C102.596 51.3988 102.996 51.2324 103.464 51.2324ZM102.128 55.6191H104.801V66.2727H102.128V55.6191ZM107.553 51.6926H110.226V55.6191H111.812V57.9202H110.226V66.2727H107.553V57.9202H106.182V55.6191H107.553V51.6926ZM123.915 61.7195H115.327C115.452 62.4764 115.783 63.0786 116.321 63.5261C116.86 63.9736 117.547 64.1968 118.383 64.1968C119.381 64.1968 120.24 63.8473 120.958 63.1491L123.21 64.2066C122.649 65.0027 121.976 65.5922 121.193 65.974C120.409 66.3559 119.479 66.5469 118.402 66.5469C116.731 66.5469 115.37 66.0201 114.319 64.9655C113.268 63.9109 112.742 62.591 112.742 61.0047C112.742 59.3792 113.266 58.0299 114.314 56.9557C115.362 55.8816 116.676 55.345 118.255 55.345C119.933 55.345 121.298 55.8816 122.348 56.9557C123.399 58.0299 123.925 59.4478 123.925 61.2103L123.915 61.7195ZM121.242 59.6142C121.066 59.0198 120.717 58.5371 120.197 58.165C119.677 57.7929 119.074 57.6069 118.387 57.6069C117.642 57.6069 116.988 57.8154 116.426 58.2336C116.073 58.495 115.746 58.9552 115.445 59.6142H121.242ZM132.733 51.2324C133.202 51.2324 133.603 51.4018 133.938 51.7415C134.274 52.0813 134.441 52.4926 134.441 52.9753C134.441 53.4522 134.275 53.8585 133.943 54.1944C133.611 54.5303 133.214 54.6987 132.752 54.6987C132.277 54.6987 131.872 54.5273 131.536 54.1846C131.201 53.8419 131.034 53.4257 131.034 52.9361C131.034 52.4661 131.199 52.0647 131.531 51.7317C131.864 51.3988 132.264 51.2324 132.733 51.2324ZM131.396 55.6191H134.069V66.2727H131.396V55.6191ZM143.019 57.1075L141.364 58.7623C140.691 58.0965 140.081 57.7636 139.533 57.7636C139.232 57.7636 138.997 57.8272 138.828 57.9545C138.659 58.0818 138.573 58.2404 138.573 58.4294C138.573 58.5733 138.627 58.7055 138.735 58.826C138.843 58.9464 139.109 59.1119 139.533 59.3205L140.512 59.8101C141.543 60.3192 142.252 60.8382 142.637 61.367C143.022 61.8957 143.215 62.5156 143.215 63.2274C143.215 64.1743 142.867 64.9635 142.172 65.5971C141.477 66.2306 140.545 66.5469 139.376 66.5469C137.822 66.5469 136.583 65.9398 135.655 64.7256L137.3 62.9337C137.614 63.2989 137.981 63.5946 138.402 63.8198C138.823 64.045 139.197 64.1577 139.523 64.1577C139.876 64.1577 140.16 64.0725 140.375 63.9031C140.591 63.7337 140.698 63.5378 140.698 63.3156C140.698 62.9043 140.31 62.5028 139.533 62.1112L138.632 61.6607C136.909 60.7922 136.047 59.7053 136.047 58.4C136.047 57.5579 136.372 56.8382 137.021 56.2409C137.671 55.6436 138.502 55.345 139.513 55.345C140.206 55.345 140.857 55.4967 141.467 55.8003C142.077 56.1038 142.595 56.5396 143.019 57.1075ZM161.359 57.7733L159.133 58.9973C158.715 58.5596 158.302 58.2561 157.894 58.0867C157.485 57.9173 157.007 57.8321 156.457 57.8321C155.458 57.8321 154.649 58.1308 154.031 58.7271C153.413 59.3234 153.105 60.0872 153.105 61.0194C153.105 61.9251 153.402 62.6654 153.997 63.2382C154.591 63.812 155.372 64.0989 156.34 64.0989C157.535 64.0989 158.468 63.6906 159.133 62.8749L161.242 64.3182C160.099 65.8037 158.487 66.5469 156.404 66.5469C154.531 66.5469 153.063 65.9917 152.003 64.8823C150.943 63.7728 150.412 62.4735 150.412 60.9851C150.412 59.954 150.669 59.0042 151.185 58.1356C151.701 57.2671 152.421 56.5856 153.344 56.0891C154.268 55.5927 155.301 55.345 156.444 55.345C157.501 55.345 158.451 55.5555 159.293 55.9765C160.135 56.3976 160.824 56.9968 161.359 57.7733ZM163.474 51.5065H166.147V66.2727H163.474V51.5065ZM179.249 61.7195H170.661C170.786 62.4764 171.117 63.0786 171.655 63.5261C172.194 63.9736 172.881 64.1968 173.717 64.1968C174.715 64.1968 175.574 63.8473 176.292 63.1491L178.544 64.2066C177.983 65.0027 177.31 65.5922 176.527 65.974C175.743 66.3559 174.813 66.5469 173.736 66.5469C172.065 66.5469 170.704 66.0201 169.653 64.9655C168.602 63.9109 168.076 62.591 168.076 61.0047C168.076 59.3792 168.6 58.0299 169.648 56.9557C170.696 55.8816 172.01 55.345 173.589 55.345C175.267 55.345 176.632 55.8816 177.682 56.9557C178.733 58.0299 179.259 59.4478 179.259 61.2103L179.249 61.7195ZM176.576 59.6142C176.399 59.0198 176.051 58.5371 175.531 58.165C175.011 57.7929 174.408 57.6069 173.721 57.6069C172.976 57.6069 172.322 57.8154 171.76 58.2336C171.407 58.495 171.08 58.9552 170.779 59.6142H176.576ZM189.276 55.6191H191.949V66.2727H189.276V65.1466C188.754 65.6431 188.231 66.0005 187.706 66.2188C187.181 66.4372 186.612 66.5469 185.999 66.5469C184.624 66.5469 183.434 66.0132 182.429 64.9459C181.426 63.8786 180.923 62.5518 180.923 60.9655C180.923 59.3205 181.409 57.9721 182.38 56.9214C183.352 55.8708 184.533 55.345 185.921 55.345C186.561 55.345 187.16 55.4654 187.721 55.7072C188.281 55.9491 188.8 56.3114 189.276 56.7941V55.6191H189.276ZM186.466 57.8125C185.639 57.8125 184.953 58.1043 184.406 58.6889C183.86 59.2735 183.587 60.0225 183.587 60.9361C183.587 61.8566 183.865 62.6135 184.421 63.2078C184.977 63.8022 185.662 64.0989 186.475 64.0989C187.315 64.0989 188.011 63.8071 188.564 63.2225C189.117 62.6379 189.393 61.8732 189.393 60.9263C189.393 59.999 189.117 59.249 188.564 58.6742C188.011 58.0994 187.312 57.8125 186.466 57.8125ZM194.025 55.6191H196.316V56.9606C196.564 56.4319 196.894 56.0304 197.305 55.7562C197.716 55.482 198.167 55.345 198.656 55.345C199.002 55.345 199.364 55.436 199.743 55.6191L198.911 57.9202C198.598 57.7636 198.34 57.6852 198.137 57.6852C197.726 57.6852 197.379 57.9398 197.095 58.449C196.811 58.9582 196.669 59.9569 196.669 61.4453L196.678 61.9643V66.2727H194.025V55.6191Z" fill="#151515"/>
<path d="M0.626953 16.1862H7.16842L12.5241 31.3392L18.2866 16.1862H22.2876L27.9463 31.1678L33.3084 16.1862H39.8924L30.174 42.8202H25.939L20.2597 27.6427L14.409 42.8202H10.223L0.626953 16.1862ZM43.699 5.90475H50.333V18.879C51.6383 17.7529 52.9523 16.9089 54.2742 16.3449C55.5961 15.7828 56.9342 15.5008 58.2889 15.5008C60.9327 15.5008 63.1604 16.4154 64.9719 18.2425C66.5219 19.8259 67.2974 22.1514 67.2974 25.2192V42.8202H60.7124V31.1433C60.7124 28.0589 60.5655 25.9703 60.2718 24.8765C59.978 23.7838 59.4762 22.9671 58.7663 22.4286C58.0564 21.89 57.179 21.6207 56.1347 21.6207C54.78 21.6207 53.6172 22.0702 52.6463 22.9671C51.675 23.865 51.0018 25.089 50.6268 26.6391C50.4309 27.4391 50.333 29.2672 50.333 32.1225V42.8202H43.699V5.90475H43.699ZM79.7084 19.5289C79.7084 17.6828 78.2118 16.1862 76.3657 16.1862C74.5196 16.1862 73.023 17.6828 73.023 19.5289C73.023 19.533 73.0242 19.5368 73.0242 19.541V42.8202H79.7072V19.5404C79.7072 19.5365 79.7084 19.5328 79.7084 19.5289ZM127.493 31.4371H106.024C106.334 33.3308 107.163 34.8359 108.509 35.9541C109.856 37.0713 111.572 37.6305 113.662 37.6305C116.159 37.6305 118.304 36.758 120.1 35.0111L125.731 37.6549C124.326 39.6466 122.646 41.1183 120.688 42.074C118.729 43.0277 116.404 43.5056 113.711 43.5056C109.533 43.5056 106.13 42.1876 103.503 39.5516C100.875 36.9166 99.5617 33.6158 99.5617 29.6501C99.5617 25.5864 100.871 22.2122 103.491 19.5272C106.11 16.8433 109.394 15.5008 113.344 15.5008C117.538 15.5008 120.948 16.8433 123.576 19.5272C126.203 22.2122 127.518 25.7578 127.518 30.1642L127.493 31.4371ZM120.81 26.174C120.368 24.6895 119.498 23.4812 118.199 22.551C116.898 21.6207 115.391 21.1556 113.675 21.1556C111.81 21.1556 110.176 21.6785 108.77 22.7223C107.888 23.3754 107.07 24.526 106.318 26.174H120.81V26.174ZM93.2704 16.1862V6.36986H86.5875V13.0567V16.1862V21.9389V26.0333V42.8201H93.2704V21.939H97.2361V16.1862H93.2704Z" fill="#151515"/>
<path fill-rule="evenodd" clip-rule="evenodd" d="M49.9338 63.1431H53.3056V66.5148H49.9338V63.1431ZM3.37174 63.1431H0V66.5148H3.37174V63.1431ZM16.6982 63.1431H20.0699V66.5148H16.6982V63.1431ZM36.6074 63.1431H33.2357V66.5148H36.6074V63.1431ZM70.0036 63.1431H66.6319V66.5148H70.0036V63.1431Z" fill="#151515"/>
<path fill-rule="evenodd" clip-rule="evenodd" d="M58.2834 63.1431H61.6551V66.5148H58.2834V63.1431ZM11.7214 63.1431H8.34961V66.5148H11.7214V63.1431ZM25.0477 63.1431H28.4194V66.5148H25.0477V63.1431ZM44.9571 63.1431H41.5852V66.5148H44.9571L44.9571 63.1431Z" fill="#C5B358"/>
<path d="M76.3663 5.21931C77.5379 5.21931 78.5426 5.64428 79.3808 6.49226C80.2189 7.34122 80.638 8.36936 80.638 9.5767C80.638 10.7684 80.2229 11.7838 79.393 12.6239C78.5631 13.4651 77.5702 13.8851 76.4153 13.8851C75.2271 13.8851 74.2141 13.4562 73.3759 12.6004C72.5377 11.7427 72.1191 10.7028 72.1191 9.47877C72.1191 8.30375 72.5338 7.30007 73.3637 6.46776C74.194 5.63547 75.1943 5.21931 76.3663 5.21931Z" fill="#C5B358"/>
<path d="M169.131 6.8105H175.936V42.8202H169.131V6.8105ZM180.098 6.8105H200V13.5669H193.439V42.8202H186.487V13.5669H180.098V6.8105Z" fill="#C5B358"/>
<path d="M147.458 20.0423L146.795 21.3383C146.714 21.497 146.659 21.6191 146.635 21.7018C146.61 21.7835 146.597 21.8691 146.597 21.9546C146.597 22.1748 146.679 22.3719 146.841 22.5411C147.004 22.7113 147.21 22.7978 147.453 22.7978C147.687 22.7978 147.889 22.7151 148.053 22.5517C148.218 22.3882 148.302 22.1854 148.302 21.9498C148.302 21.7066 148.221 21.4998 148.06 21.3354C147.936 21.2095 147.791 21.1306 147.625 21.1008L148.023 20.3259L147.458 20.0423ZM147.658 21.9431C147.658 22.0113 147.637 22.0662 147.595 22.1094C147.51 22.194 147.393 22.2008 147.305 22.1085C147.263 22.0642 147.242 22.0104 147.242 21.9431C147.242 21.8758 147.262 21.8219 147.302 21.7787C147.341 21.7373 147.386 21.7171 147.443 21.7171C147.506 21.7171 147.556 21.7373 147.595 21.7796C147.638 21.8229 147.658 21.8748 147.658 21.9431ZM150.601 10.0343L149.531 11.6256L149.514 11.6506V12.2024H150.564V12.6957H151.209V12.2024H151.422V11.5823H151.209V10.0343H150.601ZM150.3 11.5823L150.564 11.1939V11.5823H150.3ZM136.596 32.6L137.473 30.8049H136.524V30.179H138.298L138.288 30.5607L137.16 32.874L136.596 32.6ZM147.622 38.8342C147.676 38.7794 147.702 38.7101 147.702 38.6217C147.702 38.5352 147.678 38.4669 147.629 38.415C147.557 38.3371 147.468 38.3121 147.359 38.3659C147.32 38.3861 147.281 38.4169 147.243 38.4582L147.203 38.4996L146.681 38.3823L147.009 36.8737H148.314V37.4939H147.51L147.461 37.7112C147.47 37.7112 147.479 37.7112 147.488 37.7112C147.733 37.7112 147.94 37.7958 148.102 37.964C148.265 38.1294 148.346 38.3448 148.346 38.6034C148.346 38.864 148.257 39.0861 148.079 39.2649C147.9 39.4447 147.681 39.5351 147.426 39.5351C147.2 39.5351 147.002 39.4697 146.837 39.3399C146.671 39.2082 146.563 39.0284 146.513 38.8044L146.486 38.6851H147.149L147.177 38.739C147.206 38.7986 147.243 38.8419 147.29 38.8717C147.39 38.937 147.535 38.9265 147.622 38.8342ZM147.318 25.8995C147.483 25.7361 147.567 25.5332 147.567 25.2976C147.567 25.0544 147.486 24.8477 147.324 24.6833C147.2 24.5573 147.055 24.4785 146.89 24.4487L147.288 23.6737L146.722 23.3901L146.06 24.6862C145.978 24.8448 145.923 24.9669 145.899 25.0496C145.874 25.1313 145.862 25.2169 145.862 25.3025C145.862 25.5226 145.944 25.7197 146.105 25.889C146.269 26.0591 146.474 26.1457 146.718 26.1457C146.951 26.1457 147.153 26.063 147.318 25.8995ZM146.506 25.2909C146.506 25.2236 146.526 25.1698 146.567 25.1265C146.605 25.0852 146.65 25.065 146.708 25.065C146.77 25.065 146.82 25.0852 146.86 25.1275C146.902 25.1707 146.922 25.2227 146.922 25.2909C146.922 25.3592 146.901 25.414 146.86 25.4573C146.776 25.5419 146.658 25.5486 146.569 25.4563C146.527 25.4121 146.506 25.3582 146.506 25.2909ZM160.574 32.7798V32.2866H160.788V31.6664H160.574V30.1184H159.967L158.896 31.7097L158.88 31.7347V32.2866H159.93V32.7798H160.574V32.7798ZM159.666 31.6664L159.93 31.278V31.6664H159.666ZM145.355 26.0457C145.488 25.9774 145.596 25.8755 145.673 25.7428C145.751 25.6092 145.791 25.463 145.791 25.3082C145.791 25.165 145.757 25.0294 145.69 24.9054C145.64 24.814 145.575 24.7342 145.496 24.6679C145.55 24.5996 145.591 24.5362 145.617 24.4756C145.654 24.391 145.672 24.2968 145.672 24.1968C145.672 24.0574 145.637 23.9256 145.568 23.8054C145.496 23.6824 145.398 23.5872 145.277 23.5218C145.034 23.3901 144.677 23.393 144.436 23.5209C144.311 23.5862 144.212 23.6795 144.143 23.7978C144.073 23.916 144.038 24.0477 144.038 24.19C144.038 24.2958 144.059 24.3968 144.1 24.49C144.128 24.5535 144.165 24.6131 144.212 24.6717C144.13 24.7458 144.066 24.8275 144.019 24.9169C143.956 25.0352 143.925 25.1679 143.925 25.3082C143.925 25.4707 143.964 25.6198 144.042 25.7515C144.121 25.8842 144.226 25.9842 144.358 26.0505C144.486 26.114 144.656 26.1457 144.864 26.1457C145.06 26.1457 145.225 26.112 145.355 26.0457ZM144.972 24.3535C144.91 24.4179 144.798 24.4198 144.734 24.3535C144.7 24.3189 144.684 24.2785 144.684 24.2275C144.684 24.1756 144.698 24.1381 144.73 24.1064C144.759 24.0756 144.796 24.0612 144.844 24.0612C144.899 24.0612 144.941 24.0756 144.973 24.1074C145.004 24.1362 145.019 24.1737 145.019 24.2247C145.019 24.2804 145.003 24.3218 144.972 24.3535ZM144.649 25.1015C144.706 25.0506 144.776 25.0256 144.862 25.0256C144.945 25.0256 145.011 25.0506 145.065 25.0996C145.117 25.1496 145.142 25.2063 145.142 25.2775C145.142 25.3486 145.119 25.4034 145.07 25.4476C144.971 25.5399 144.748 25.5419 144.646 25.4428C144.594 25.3938 144.57 25.338 144.57 25.2678C144.57 25.2034 144.596 25.1505 144.649 25.1015ZM150.963 39.4745V37.4997H150.39L150.776 36.8737H151.613V39.4745H150.963ZM142.964 37.6602C142.826 37.7977 142.757 37.965 142.757 38.1708C142.757 38.314 142.788 38.4409 142.849 38.5496C142.91 38.6592 142.995 38.7428 143.107 38.8053C143.314 38.9217 143.597 38.9265 143.807 38.8332C143.905 38.789 144.018 38.7044 144.141 38.5823L144.212 38.5121L144.659 38.9774L144.59 39.0457C144.4 39.2313 144.225 39.3553 144.055 39.4264C143.886 39.4986 143.692 39.5351 143.476 39.5351C143.077 39.5351 142.745 39.4062 142.489 39.1515C142.233 38.8976 142.103 38.5669 142.103 38.1698C142.103 37.9131 142.162 37.6814 142.279 37.4814C142.395 37.2814 142.564 37.118 142.781 36.9958C143.178 36.7718 143.667 36.7516 144.096 36.9478C144.293 37.0372 144.464 37.166 144.605 37.3304L144.666 37.4016L144.206 37.8391L144.139 37.7669C143.939 37.5554 143.722 37.4525 143.475 37.4525C143.272 37.4525 143.104 37.5208 142.964 37.6602ZM145.579 39.5351C145.813 39.5351 146.015 39.4524 146.179 39.2889C146.345 39.1255 146.428 38.9226 146.428 38.6871C146.428 38.4438 146.347 38.2371 146.186 38.0727C146.062 37.9467 145.917 37.8679 145.751 37.8381L146.149 37.0632L145.584 36.7795L144.922 38.0756C144.84 38.2342 144.785 38.3563 144.761 38.439C144.736 38.5207 144.723 38.6063 144.723 38.6919C144.723 38.9121 144.805 39.1092 144.967 39.2784C145.13 39.4485 145.336 39.5351 145.579 39.5351ZM145.368 38.6803C145.368 38.613 145.388 38.5592 145.428 38.5159C145.467 38.4746 145.512 38.4544 145.57 38.4544C145.632 38.4544 145.682 38.4746 145.721 38.5169C145.764 38.5602 145.784 38.6121 145.784 38.6803C145.784 38.7486 145.763 38.8034 145.721 38.8467C145.638 38.9313 145.52 38.938 145.431 38.8457C145.389 38.8015 145.368 38.7476 145.368 38.6803ZM152.33 39.2947L153.207 37.4997H152.258V36.8737H154.031L154.022 37.2554L152.893 39.5687L152.33 39.2947ZM149.279 24.8813C149.363 24.7188 149.415 24.6006 149.439 24.5198C149.464 24.4391 149.477 24.3545 149.477 24.2679C149.477 24.0468 149.395 23.8487 149.234 23.6805C149.07 23.5103 148.865 23.4238 148.62 23.4238C148.388 23.4238 148.186 23.5064 148.021 23.6699C147.856 23.8333 147.772 24.0362 147.772 24.2737C147.772 24.516 147.853 24.7217 148.015 24.8861C148.139 25.0131 148.286 25.0919 148.451 25.1217L148.051 25.8976L148.616 26.1793L149.279 24.8813ZM148.833 24.2795C148.833 24.3458 148.813 24.3987 148.772 24.4429C148.69 24.5294 148.557 24.5217 148.479 24.441C148.437 24.3977 148.416 24.3448 148.416 24.2785C148.416 24.2112 148.438 24.1564 148.48 24.1131C148.523 24.0699 148.57 24.0487 148.629 24.0487C148.683 24.0487 148.727 24.0699 148.769 24.1131C148.813 24.1583 148.833 24.2112 148.833 24.2795ZM145.748 22.0969C145.802 22.0421 145.828 21.9729 145.828 21.8844C145.828 21.7979 145.804 21.7296 145.755 21.6777C145.683 21.6008 145.595 21.5748 145.485 21.6287C145.447 21.6489 145.407 21.6796 145.369 21.721L145.329 21.7623L144.807 21.645L145.135 20.1365H146.44V20.7566H145.636L145.587 20.9739C145.596 20.9739 145.605 20.9739 145.614 20.9739C145.859 20.9739 146.066 21.0585 146.228 21.2268C146.391 21.3922 146.472 21.6075 146.472 21.8662C146.472 22.1267 146.383 22.3488 146.205 22.5277C146.026 22.7075 145.807 22.7978 145.552 22.7978C145.326 22.7978 145.128 22.7325 144.963 22.6027C144.798 22.4709 144.689 22.2911 144.639 22.0671L144.612 21.9479H145.275L145.303 22.0017C145.332 22.0613 145.37 22.1046 145.416 22.1344C145.517 22.2008 145.661 22.1902 145.748 22.0969ZM159.844 28.1561C159.844 28.4888 159.88 28.7397 159.955 28.9233C160.031 29.1128 160.141 29.256 160.28 29.3512C160.42 29.4454 160.592 29.4935 160.792 29.4935C160.993 29.4935 161.164 29.4454 161.297 29.3512C161.431 29.257 161.539 29.1108 161.616 28.9157C161.691 28.7234 161.728 28.4676 161.728 28.133C161.728 27.8061 161.691 27.5456 161.617 27.3581C161.542 27.1619 161.43 27.0139 161.288 26.9177C161.144 26.8206 160.973 26.7716 160.778 26.7716C160.476 26.7716 160.236 26.8956 160.064 27.1408C159.916 27.359 159.844 27.6917 159.844 28.1561ZM160.497 28.1657C160.497 27.9417 160.513 27.7715 160.542 27.66C160.568 27.56 160.603 27.4908 160.647 27.4542C160.688 27.4206 160.735 27.4033 160.789 27.4033C160.838 27.4033 160.911 27.4177 160.981 27.535C161.023 27.6061 161.074 27.7686 161.074 28.1388C161.074 28.4311 161.039 28.6387 160.968 28.7551C160.907 28.8589 160.84 28.8724 160.789 28.8724C160.738 28.8724 160.663 28.8589 160.592 28.7445C160.548 28.6763 160.497 28.5205 160.497 28.1657ZM137.349 13.3476L136.687 14.6436C136.605 14.8023 136.55 14.9244 136.526 15.0071C136.501 15.0888 136.488 15.1743 136.488 15.2599C136.488 15.4801 136.57 15.6772 136.732 15.8464C136.895 16.0166 137.101 16.1031 137.344 16.1031C137.578 16.1031 137.78 16.0204 137.944 15.857C138.11 15.6935 138.193 15.4907 138.193 15.2551C138.193 15.0119 138.112 14.8051 137.951 14.6407C137.827 14.5148 137.682 14.4359 137.516 14.4061L137.914 13.6312L137.349 13.3476ZM137.549 15.2484C137.549 15.3166 137.528 15.3714 137.486 15.4147C137.402 15.4984 137.285 15.506 137.196 15.4137C137.154 15.3695 137.133 15.3157 137.133 15.2484C137.133 15.1811 137.153 15.1272 137.193 15.084C137.232 15.0426 137.277 15.0224 137.335 15.0224C137.397 15.0224 137.447 15.0426 137.486 15.0849C137.529 15.1282 137.549 15.1801 137.549 15.2484ZM137.555 22.1065C137.606 22.0565 137.631 21.9969 137.631 21.9248C137.631 21.846 137.597 21.7825 137.526 21.7258C137.448 21.6643 137.331 21.6325 137.175 21.6306L137.078 21.6296V21.0489L137.168 21.0422C137.289 21.0326 137.351 21.0143 137.381 20.9999C137.417 20.9826 137.446 20.9585 137.466 20.9287C137.486 20.8999 137.495 20.871 137.495 20.8412C137.495 20.8028 137.483 20.7749 137.457 20.7499C137.44 20.7345 137.41 20.7124 137.344 20.7124C137.299 20.7124 137.262 20.7259 137.225 20.7528C137.189 20.7797 137.164 20.8143 137.15 20.8576L137.129 20.9258H136.505L136.519 20.8153C136.545 20.6163 136.619 20.4538 136.738 20.3317C136.904 20.1615 137.112 20.0759 137.36 20.0759C137.581 20.0759 137.77 20.148 137.923 20.2903C138.077 20.4336 138.154 20.6086 138.154 20.8085C138.154 20.9345 138.119 21.0508 138.05 21.1556C138.015 21.2075 137.973 21.2547 137.922 21.297C138.007 21.345 138.077 21.4075 138.135 21.4835C138.23 21.6094 138.278 21.7585 138.278 21.9267C138.278 22.169 138.187 22.3777 138.009 22.5459C137.832 22.7132 137.605 22.7978 137.334 22.7978C137.074 22.7978 136.86 22.718 136.694 22.5594C136.529 22.4007 136.438 22.1844 136.423 21.9181L136.417 21.8142H137.059L137.071 21.8969C137.087 21.9979 137.12 22.0709 137.17 22.1161C137.266 22.2056 137.452 22.2046 137.555 22.1065ZM143.133 11.1352C143.184 11.0391 143.211 10.9535 143.211 10.8814C143.211 10.816 143.19 10.7631 143.148 10.7218C143.062 10.6372 142.902 10.6304 142.807 10.7362C142.757 10.792 142.731 10.8708 142.727 10.9708L142.725 11.066H142.08L142.085 10.9631C142.098 10.6804 142.189 10.4516 142.358 10.2853C142.528 10.1189 142.747 10.0343 143.008 10.0343C143.171 10.0343 143.317 10.0689 143.442 10.1382C143.569 10.2074 143.672 10.3103 143.749 10.443C143.824 10.5728 143.862 10.7083 143.862 10.8458C143.862 11.0016 143.818 11.1708 143.73 11.3496C143.645 11.5227 143.494 11.7217 143.268 11.9582L143.155 12.0765H143.881V12.6957H142.02V12.338L142.791 11.5506C142.965 11.3756 143.079 11.2352 143.133 11.1352ZM143.709 20.0423L143.047 21.3383C142.965 21.497 142.91 21.6191 142.886 21.7018C142.861 21.7835 142.849 21.8691 142.849 21.9546C142.849 22.1748 142.93 22.3719 143.092 22.5411C143.255 22.7113 143.461 22.7978 143.704 22.7978C143.938 22.7978 144.14 22.7151 144.304 22.5517C144.47 22.3882 144.553 22.1854 144.553 21.9498C144.553 21.7066 144.473 21.4998 144.311 21.3354C144.187 21.2095 144.042 21.1306 143.876 21.1008L144.274 20.3259L143.709 20.0423ZM143.909 21.9431C143.909 22.0113 143.888 22.0662 143.847 22.1094C143.764 22.194 143.645 22.2008 143.556 22.1085C143.514 22.0642 143.493 22.0104 143.493 21.9431C143.493 21.8758 143.513 21.8219 143.553 21.7787C143.592 21.7373 143.637 21.7171 143.695 21.7171C143.757 21.7171 143.807 21.7373 143.847 21.7796C143.889 21.8229 143.909 21.8748 143.909 21.9431ZM142.974 33.4326L142.311 34.7287C142.229 34.8873 142.175 35.0094 142.151 35.0921C142.126 35.1739 142.113 35.2594 142.113 35.345C142.113 35.5652 142.195 35.7623 142.356 35.9315C142.52 36.1017 142.726 36.1882 142.969 36.1882C143.202 36.1882 143.404 36.1055 143.569 35.9421C143.734 35.7786 143.818 35.5758 143.818 35.3402C143.818 35.0969 143.737 34.8902 143.575 34.7258C143.451 34.5999 143.306 34.521 143.141 34.4912L143.539 33.7163L142.974 33.4326ZM143.174 35.3335C143.174 35.4017 143.152 35.4565 143.111 35.4998C143.028 35.5844 142.908 35.5911 142.821 35.4988C142.778 35.4546 142.757 35.4008 142.757 35.3335C142.757 35.2662 142.777 35.2123 142.818 35.1691C142.856 35.1277 142.901 35.1075 142.959 35.1075C143.022 35.1075 143.072 35.1277 143.111 35.17C143.153 35.2133 143.174 35.2652 143.174 35.3335ZM136.528 28.9233C136.604 29.1128 136.713 29.256 136.853 29.3512C136.993 29.4454 137.164 29.4935 137.364 29.4935C137.566 29.4935 137.736 29.4454 137.87 29.3512C138.004 29.257 138.111 29.1108 138.188 28.9157C138.222 28.8311 138.247 28.7349 138.266 28.6253V28.9397H139.316V29.4329H139.96V28.9397H140.174V28.3196H139.96V26.7716H139.353L138.296 28.3426C138.3 28.2763 138.301 28.2071 138.301 28.133C138.301 27.8061 138.264 27.5456 138.19 27.3581C138.114 27.1619 138.003 27.0139 137.86 26.9177C137.717 26.8206 137.546 26.7716 137.351 26.7716C137.049 26.7716 136.809 26.8956 136.637 27.1408C136.488 27.3591 136.416 27.6917 136.416 28.1561C136.416 28.4888 136.453 28.7397 136.528 28.9233ZM139.052 28.3195L139.316 27.9311V28.3195H139.052ZM137.07 28.1657C137.07 27.9417 137.086 27.7715 137.114 27.66C137.14 27.56 137.176 27.4908 137.22 27.4542C137.261 27.4206 137.308 27.4033 137.361 27.4033C137.411 27.4033 137.484 27.4177 137.554 27.535C137.596 27.6061 137.647 27.7686 137.647 28.1388C137.647 28.4311 137.611 28.6387 137.541 28.7551C137.48 28.8589 137.412 28.8724 137.361 28.8724C137.311 28.8724 137.236 28.8589 137.164 28.7445C137.121 28.6763 137.07 28.5205 137.07 28.1657ZM142.974 23.3901L142.311 24.6862C142.229 24.8448 142.175 24.9669 142.151 25.0496C142.126 25.1313 142.113 25.2169 142.113 25.3025C142.113 25.5226 142.195 25.7197 142.356 25.889C142.52 26.0591 142.726 26.1457 142.969 26.1457C143.202 26.1457 143.404 26.063 143.569 25.8995C143.734 25.7361 143.818 25.5332 143.818 25.2976C143.818 25.0544 143.737 24.8477 143.575 24.6833C143.451 24.5573 143.306 24.4785 143.141 24.4487L143.539 23.6737L142.974 23.3901ZM143.174 25.2909C143.174 25.3592 143.152 25.414 143.111 25.4573C143.028 25.5419 142.908 25.5486 142.821 25.4563C142.778 25.4121 142.757 25.3582 142.757 25.2909C142.757 25.2236 142.777 25.1698 142.818 25.1265C142.856 25.0852 142.901 25.065 142.959 25.065C143.022 25.065 143.072 25.0852 143.111 25.1275C143.153 25.1707 143.174 25.2227 143.174 25.2909ZM141.118 19.4846L141.78 18.1866C141.864 18.0241 141.917 17.9059 141.941 17.8251C141.966 17.7444 141.978 17.6597 141.978 17.5732C141.978 17.3521 141.897 17.154 141.735 16.9858C141.572 16.8156 141.366 16.729 141.122 16.729C140.889 16.729 140.687 16.8117 140.523 16.9752C140.357 17.1386 140.274 17.3415 140.274 17.579C140.274 17.8213 140.355 18.027 140.516 18.1914C140.64 18.3183 140.787 18.3972 140.953 18.427L140.553 19.2029L141.118 19.4846ZM140.918 17.5838C140.918 17.5165 140.939 17.4617 140.981 17.4184C141.025 17.3751 141.072 17.354 141.13 17.354C141.184 17.354 141.229 17.3751 141.271 17.4184C141.314 17.4636 141.334 17.5165 141.334 17.5847C141.334 17.6511 141.314 17.704 141.274 17.7482C141.192 17.8338 141.058 17.827 140.98 17.7463C140.938 17.703 140.918 17.6501 140.918 17.5838ZM152.546 18.7597C152.597 18.7097 152.622 18.6501 152.622 18.5779C152.622 18.4991 152.588 18.4356 152.517 18.3789C152.439 18.3174 152.322 18.2857 152.166 18.2837L152.069 18.2828V17.7021L152.159 17.6953C152.281 17.6857 152.342 17.6674 152.372 17.653C152.409 17.6357 152.437 17.6117 152.458 17.5819C152.477 17.553 152.486 17.5242 152.486 17.4944C152.486 17.4559 152.474 17.428 152.448 17.403C152.432 17.3877 152.401 17.3655 152.335 17.3655C152.29 17.3655 152.253 17.379 152.216 17.4059C152.181 17.4328 152.156 17.4675 152.141 17.5107L152.12 17.579H151.496L151.51 17.4684C151.536 17.2694 151.61 17.1069 151.73 16.9848C151.895 16.8146 152.104 16.7291 152.351 16.7291C152.572 16.7291 152.761 16.8012 152.914 16.9435C153.068 17.0867 153.145 17.2617 153.145 17.4617C153.145 17.5876 153.11 17.704 153.041 17.8088C153.007 17.8607 152.964 17.9078 152.913 17.9501C152.998 17.9982 153.068 18.0607 153.126 18.1366C153.221 18.2636 153.269 18.4116 153.269 18.5799C153.269 18.8222 153.179 19.0308 153 19.1991C152.823 19.3664 152.596 19.451 152.325 19.451C152.065 19.451 151.851 19.3712 151.685 19.2125C151.52 19.0539 151.429 18.8375 151.414 18.5712L151.409 18.4674H152.05L152.062 18.5501C152.078 18.651 152.111 18.7241 152.16 18.7693C152.259 18.8587 152.443 18.8587 152.546 18.7597ZM138.301 15.2657C138.301 15.4282 138.339 15.5772 138.417 15.7089C138.496 15.8416 138.602 15.9416 138.734 16.0079C138.861 16.0714 139.032 16.1031 139.239 16.1031C139.435 16.1031 139.601 16.0695 139.731 16.0031C139.863 15.9349 139.971 15.833 140.049 15.7003C140.127 15.5666 140.166 15.4205 140.166 15.2657C140.166 15.1224 140.132 14.9869 140.065 14.8628C140.015 14.7715 139.951 14.6917 139.871 14.6253C139.926 14.5571 139.966 14.4936 139.992 14.433C140.03 14.3484 140.048 14.2542 140.048 14.1542C140.048 14.0148 140.012 13.8831 139.943 13.7629C139.871 13.6398 139.774 13.5446 139.653 13.4793C139.408 13.3476 139.052 13.3504 138.811 13.4783C138.686 13.5437 138.587 13.637 138.518 13.7552C138.448 13.8735 138.413 14.0052 138.413 14.1475C138.413 14.2533 138.435 14.3542 138.476 14.4475C138.504 14.5109 138.54 14.5705 138.587 14.6292C138.506 14.7032 138.441 14.7849 138.394 14.8744C138.332 14.9926 138.301 15.1253 138.301 15.2657ZM139.348 14.3109C139.284 14.3754 139.174 14.3773 139.109 14.3109C139.076 14.2763 139.059 14.2359 139.059 14.185C139.059 14.1331 139.074 14.0956 139.106 14.0638C139.134 14.0331 139.171 14.0187 139.219 14.0187C139.275 14.0187 139.316 14.0331 139.349 14.0648C139.38 14.0936 139.394 14.1311 139.394 14.1821C139.394 14.2379 139.379 14.2792 139.348 14.3109ZM139.237 14.983C139.32 14.983 139.386 15.008 139.44 15.057C139.492 15.107 139.517 15.1638 139.517 15.2349C139.517 15.3061 139.494 15.3609 139.445 15.4051C139.346 15.4964 139.124 15.4993 139.021 15.4003C138.969 15.3513 138.945 15.2955 138.945 15.2253C138.945 15.1609 138.971 15.108 139.025 15.059C139.082 15.008 139.152 14.983 139.237 14.983ZM139.224 16.6954L138.561 17.9914C138.48 18.1501 138.425 18.2722 138.401 18.3549C138.376 18.4366 138.363 18.5222 138.363 18.6078C138.363 18.8279 138.445 19.025 138.607 19.1942C138.77 19.3644 138.976 19.451 139.219 19.451C139.453 19.451 139.655 19.3683 139.819 19.2048C139.984 19.0414 140.068 18.8385 140.068 18.6029C140.068 18.3597 139.987 18.153 139.826 17.9886C139.702 17.8626 139.557 17.7838 139.391 17.754L139.789 16.979L139.224 16.6954ZM139.424 18.5962C139.424 18.6645 139.403 18.7193 139.361 18.7625C139.278 18.8462 139.159 18.8539 139.071 18.7616C139.029 18.7174 139.008 18.6635 139.008 18.5962C139.008 18.5289 139.028 18.4751 139.068 18.4318C139.107 18.3905 139.152 18.3703 139.209 18.3703C139.272 18.3703 139.322 18.3905 139.361 18.4328C139.404 18.476 139.424 18.5279 139.424 18.5962ZM141.258 27.8725C141.309 27.7763 141.336 27.6907 141.336 27.6186C141.336 27.5532 141.315 27.5004 141.273 27.459C141.187 27.3744 141.028 27.3677 140.932 27.4734C140.882 27.5292 140.856 27.6081 140.853 27.708L140.85 27.8032H140.206L140.21 27.7004C140.223 27.4177 140.314 27.1889 140.483 27.0225C140.654 26.8562 140.872 26.7716 141.133 26.7716C141.296 26.7716 141.442 26.8062 141.567 26.8754C141.694 26.9446 141.797 27.0475 141.874 27.1802C141.949 27.31 141.987 27.4456 141.987 27.5831C141.987 27.7388 141.943 27.908 141.855 28.0869C141.77 28.2599 141.619 28.4589 141.393 28.6955L141.28 28.8137H142.006V29.4329H140.145V29.0753L140.916 28.2878C141.09 28.1128 141.204 27.9725 141.258 27.8725ZM141.099 13.3476L140.436 14.6436C140.355 14.8023 140.3 14.9244 140.276 15.0071C140.251 15.0888 140.238 15.1743 140.238 15.2599C140.238 15.4801 140.32 15.6772 140.481 15.8464C140.645 16.0166 140.851 16.1031 141.094 16.1031C141.328 16.1031 141.529 16.0204 141.694 15.857C141.859 15.6935 141.943 15.4907 141.943 15.2551C141.943 15.0119 141.862 14.8051 141.701 14.6407C141.577 14.5148 141.431 14.4359 141.266 14.4061L141.664 13.6312L141.099 13.3476ZM141.299 15.2484C141.299 15.3166 141.278 15.3714 141.236 15.4147C141.153 15.4984 141.034 15.506 140.946 15.4137C140.904 15.3695 140.882 15.3157 140.882 15.2484C140.882 15.1811 140.903 15.1272 140.943 15.084C140.981 15.0426 141.027 15.0224 141.084 15.0224C141.147 15.0224 141.197 15.0426 141.236 15.0849C141.279 15.1282 141.299 15.1801 141.299 15.2484ZM138.471 25.9053L139.348 24.1102H138.399V23.4843H140.173L140.163 23.866L139.034 26.1793L138.471 25.9053ZM140.229 21.4325C140.229 21.1758 140.287 20.9441 140.405 20.7441C140.52 20.5441 140.689 20.3807 140.906 20.2586C141.303 20.0346 141.793 20.0144 142.221 20.2105C142.418 20.2999 142.589 20.4288 142.73 20.5932L142.791 20.6643L142.331 21.1018L142.264 21.0297C142.064 20.8182 141.847 20.7153 141.601 20.7153C141.397 20.7153 141.229 20.7835 141.089 20.923C140.951 21.0604 140.882 21.2277 140.882 21.4335C140.882 21.5767 140.913 21.7037 140.974 21.8123C141.035 21.9219 141.12 22.0056 141.232 22.0681C141.439 22.1844 141.722 22.1882 141.932 22.0959C142.03 22.0517 142.143 21.9671 142.266 21.845L142.337 21.7748L142.784 22.2402L142.715 22.3084C142.526 22.494 142.351 22.618 142.18 22.6892C142.011 22.7613 141.817 22.7978 141.602 22.7978C141.203 22.7978 140.87 22.669 140.614 22.4142C140.358 22.1604 140.229 21.8296 140.229 21.4325ZM143.066 29.4329H143.71V28.9397H143.924V28.3196H143.71V26.7716H143.102L142.032 28.3628L142.016 28.3878V28.9397H143.066V29.4329ZM142.801 28.3195L143.066 27.9311V28.3195H142.801ZM138.607 22.5411C138.77 22.7113 138.976 22.7978 139.219 22.7978C139.453 22.7978 139.655 22.7151 139.819 22.5517C139.984 22.3882 140.068 22.1854 140.068 21.9498C140.068 21.7066 139.987 21.4998 139.826 21.3354C139.702 21.2095 139.557 21.1306 139.391 21.1008L139.789 20.3259L139.224 20.0423L138.561 21.3383C138.48 21.497 138.425 21.6191 138.401 21.7018C138.376 21.7835 138.363 21.8691 138.363 21.9546C138.363 22.1748 138.445 22.3719 138.607 22.5411ZM139.008 21.9431C139.008 21.8758 139.028 21.8219 139.068 21.7787C139.107 21.7373 139.152 21.7171 139.209 21.7171C139.272 21.7171 139.322 21.7373 139.361 21.7796C139.404 21.8229 139.424 21.8748 139.424 21.9431C139.424 22.0113 139.403 22.0662 139.361 22.1094C139.278 22.194 139.159 22.2008 139.071 22.1085C139.029 22.0642 139.008 22.0104 139.008 21.9431ZM142.483 32.7452C142.611 32.8086 142.781 32.8404 142.989 32.8404C143.185 32.8404 143.351 32.8067 143.48 32.7404C143.613 32.6721 143.721 32.5702 143.799 32.4375C143.876 32.3039 143.916 32.1577 143.916 32.0029C143.916 31.8597 143.882 31.7241 143.815 31.6001C143.765 31.5087 143.7 31.4289 143.621 31.3626C143.675 31.2943 143.716 31.2309 143.742 31.1703C143.779 31.0857 143.798 30.9915 143.798 30.8915C143.798 30.7521 143.762 30.6203 143.693 30.5002C143.621 30.3771 143.524 30.2819 143.402 30.2165C143.159 30.0848 142.801 30.0877 142.561 30.2156C142.436 30.281 142.337 30.3742 142.268 30.4925C142.198 30.6107 142.163 30.7425 142.163 30.8848C142.163 30.9905 142.184 31.0915 142.226 31.1847C142.253 31.2482 142.29 31.3078 142.337 31.3665C142.255 31.4405 142.191 31.5222 142.144 31.6116C142.081 31.7299 142.051 31.8626 142.051 32.003C142.051 32.1654 142.089 32.3145 142.167 32.4462C142.246 32.5789 142.352 32.6788 142.483 32.7452ZM143.098 31.0482C143.034 31.1126 142.924 31.1145 142.859 31.0482C142.826 31.0136 142.809 30.9732 142.809 30.9222C142.809 30.8703 142.824 30.8328 142.855 30.8011C142.884 30.7703 142.921 30.7559 142.969 30.7559C143.025 30.7559 143.066 30.7703 143.099 30.8021C143.129 30.8309 143.144 30.8684 143.144 30.9194C143.144 30.9751 143.128 31.0165 143.098 31.0482ZM142.987 31.7203C143.07 31.7203 143.136 31.7453 143.19 31.7943C143.242 31.8443 143.267 31.901 143.267 31.9722C143.267 32.0433 143.244 32.0981 143.195 32.1424C143.097 32.2337 142.874 32.2366 142.771 32.1375C142.719 32.0885 142.695 32.0327 142.695 31.9626C142.695 31.8981 142.721 31.8453 142.775 31.7962C142.831 31.7453 142.901 31.7203 142.987 31.7203ZM140.603 36.0459C140.743 36.1401 140.914 36.1882 141.114 36.1882C141.316 36.1882 141.486 36.1401 141.62 36.0459C141.754 35.9517 141.861 35.8055 141.938 35.6104C142.014 35.4181 142.051 35.1623 142.051 34.8277C142.051 34.5008 142.014 34.2403 141.94 34.0528C141.864 33.8566 141.753 33.7086 141.61 33.6124C141.467 33.5153 141.296 33.4663 141.101 33.4663C140.799 33.4663 140.558 33.5903 140.386 33.8355C140.238 34.0538 140.166 34.3864 140.166 34.8508C140.166 35.1835 140.203 35.4344 140.278 35.6181C140.354 35.8075 140.463 35.9507 140.603 36.0459ZM140.82 34.8604C140.82 34.6364 140.835 34.4662 140.864 34.3547C140.89 34.2547 140.926 34.1855 140.97 34.1489C141.01 34.1153 141.057 34.098 141.111 34.098C141.16 34.098 141.233 34.1124 141.304 34.2297C141.346 34.3008 141.397 34.4633 141.397 34.8335C141.397 35.1258 141.361 35.3335 141.291 35.4498C141.229 35.5536 141.162 35.5671 141.111 35.5671C141.06 35.5671 140.985 35.5536 140.914 35.4392C140.871 35.371 140.82 35.2152 140.82 34.8604ZM136.528 18.8808C136.604 19.0702 136.713 19.2135 136.853 19.3087C136.993 19.4029 137.164 19.451 137.364 19.451C137.566 19.451 137.736 19.4029 137.87 19.3087C138.004 19.2144 138.111 19.0683 138.188 18.8731C138.264 18.6808 138.301 18.4251 138.301 18.0905C138.301 17.7636 138.264 17.503 138.19 17.3155C138.114 17.1194 138.003 16.9713 137.86 16.8752C137.717 16.7781 137.546 16.729 137.351 16.729C137.049 16.729 136.809 16.8531 136.637 17.0983C136.488 17.3165 136.416 17.6492 136.416 18.1136C136.416 18.4462 136.453 18.6972 136.528 18.8808ZM137.07 18.1232C137.07 17.8991 137.086 17.729 137.114 17.6174C137.14 17.5174 137.176 17.4482 137.22 17.4117C137.261 17.378 137.308 17.3607 137.361 17.3607C137.411 17.3607 137.484 17.3751 137.554 17.4924C137.596 17.5636 137.647 17.7261 137.647 18.0962C137.647 18.3885 137.611 18.5962 137.541 18.7125C137.48 18.8164 137.412 18.8298 137.361 18.8298C137.311 18.8298 137.236 18.8164 137.164 18.702C137.121 18.6337 137.07 18.478 137.07 18.1232ZM136.528 25.5755C136.604 25.7649 136.713 25.9082 136.853 26.0034C136.993 26.0976 137.164 26.1457 137.364 26.1457C137.566 26.1457 137.736 26.0976 137.87 26.0034C138.004 25.9091 138.111 25.763 138.188 25.5678C138.264 25.3755 138.301 25.1198 138.301 24.7852C138.301 24.4583 138.264 24.1977 138.19 24.0102C138.114 23.8141 138.003 23.666 137.86 23.5699C137.717 23.4728 137.546 23.4237 137.351 23.4237C137.049 23.4237 136.809 23.5478 136.637 23.793C136.488 24.0112 136.416 24.3439 136.416 24.8083C136.416 25.1409 136.453 25.3919 136.528 25.5755ZM137.07 24.8179C137.07 24.5939 137.086 24.4237 137.114 24.3121C137.14 24.2122 137.176 24.1429 137.22 24.1064C137.261 24.0727 137.308 24.0554 137.361 24.0554C137.411 24.0554 137.484 24.0699 137.554 24.1872C137.596 24.2583 137.647 24.4208 137.647 24.791C137.647 25.0832 137.611 25.2909 137.541 25.4073C137.48 25.5111 137.412 25.5246 137.361 25.5246C137.311 25.5246 137.236 25.5111 137.164 25.3967C137.121 25.3284 137.07 25.1727 137.07 24.8179ZM142.993 16.1368L143.655 14.8388C143.739 14.6763 143.792 14.558 143.816 14.4773C143.841 14.3965 143.853 14.3119 143.853 14.2254C143.853 14.0042 143.772 13.8062 143.61 13.6379C143.447 13.4677 143.241 13.3812 142.997 13.3812C142.764 13.3812 142.562 13.4639 142.398 13.6273C142.232 13.7908 142.149 13.9937 142.149 14.2311C142.149 14.4734 142.229 14.6792 142.391 14.8436C142.515 14.9705 142.662 15.0493 142.827 15.0792L142.427 15.8551L142.993 16.1368ZM142.793 14.2359C142.793 14.1686 142.814 14.1138 142.856 14.0706C142.9 14.0273 142.947 14.0062 143.005 14.0062C143.059 14.0062 143.103 14.0273 143.146 14.0706C143.189 14.1158 143.209 14.1686 143.209 14.2369C143.209 14.3033 143.189 14.3561 143.149 14.4004C143.067 14.4869 142.933 14.4802 142.855 14.3984C142.813 14.3552 142.793 14.3023 142.793 14.2359ZM140.346 25.9053L141.223 24.1102H140.274V23.4843H142.048L142.038 23.866L140.909 26.1793L140.346 25.9053ZM142.149 16.7896H143.923L143.913 17.1713L142.784 19.4846L142.221 19.2106L143.098 17.4155H142.149V16.7896H142.149ZM140.131 36.1276H138.27V35.77L139.041 34.9825C139.215 34.8076 139.33 34.6672 139.383 34.5672C139.434 34.471 139.461 34.3855 139.461 34.3133C139.461 34.248 139.44 34.1951 139.398 34.1537C139.312 34.0701 139.153 34.0624 139.058 34.1682C139.008 34.2239 138.982 34.3028 138.978 34.4028L138.975 34.4979H138.331L138.335 34.3951C138.348 34.1124 138.439 33.8836 138.609 33.7172C138.779 33.5509 138.997 33.4663 139.258 33.4663C139.421 33.4663 139.567 33.5009 139.692 33.5701C139.819 33.6394 139.922 33.7422 139.999 33.8749C140.074 34.0047 140.112 34.1403 140.112 34.2778C140.112 34.4335 140.068 34.6027 139.981 34.7816C139.895 34.9546 139.744 35.1537 139.518 35.3902L139.406 35.5084H140.132V36.1276H140.131ZM140.163 30.5607L139.034 32.874L138.471 32.6L139.348 30.8049H138.399V30.179H140.173L140.163 30.5607ZM141.099 30.0848L140.436 31.3809C140.355 31.5395 140.3 31.6616 140.276 31.7443C140.251 31.826 140.238 31.9116 140.238 31.9972C140.238 32.2173 140.32 32.4144 140.481 32.5837C140.645 32.7538 140.851 32.8404 141.094 32.8404C141.328 32.8404 141.529 32.7577 141.694 32.5942C141.859 32.4308 141.943 32.2279 141.943 31.9924C141.943 31.7491 141.862 31.5424 141.701 31.378C141.577 31.252 141.431 31.1732 141.266 31.1434L141.664 30.3684L141.099 30.0848ZM141.299 31.9856C141.299 32.0539 141.278 32.1087 141.236 32.152C141.153 32.2356 141.034 32.2433 140.946 32.151C140.904 32.1068 140.882 32.0529 140.882 31.9856C140.882 31.9183 140.903 31.8645 140.943 31.8212C140.981 31.7799 141.027 31.7597 141.084 31.7597C141.147 31.7597 141.197 31.7799 141.236 31.8222C141.279 31.8654 141.299 31.9174 141.299 31.9856ZM138.257 12.6957H136.395V12.338L137.166 11.5506C137.34 11.3756 137.455 11.2352 137.509 11.1352C137.56 11.0391 137.586 10.9535 137.586 10.8814C137.586 10.816 137.565 10.7631 137.523 10.7218C137.436 10.6372 137.278 10.6304 137.183 10.7362C137.133 10.792 137.107 10.8708 137.103 10.9708L137.1 11.066H136.456L136.461 10.9631C136.473 10.6804 136.564 10.4516 136.734 10.2853C136.904 10.1189 137.122 10.0343 137.384 10.0343C137.546 10.0343 137.692 10.069 137.817 10.1382C137.944 10.2074 138.047 10.3103 138.124 10.443C138.199 10.5728 138.237 10.7083 138.237 10.8458C138.237 11.0016 138.193 11.1708 138.106 11.3496C138.02 11.5227 137.869 11.7217 137.643 11.9582L137.531 12.0765H138.257V12.6957H138.257ZM139.348 7.37298H138.399V6.74706H140.173L140.163 7.12877L139.034 9.44206L138.471 9.16804L139.348 7.37298ZM137.473 7.37298H136.524V6.74706H138.298L138.288 7.12877L137.16 9.44206L136.596 9.16804L137.473 7.37298ZM138.569 39.2966C138.404 39.138 138.312 38.9217 138.298 38.6553L138.292 38.5515H138.933L138.946 38.6342C138.961 38.7351 138.995 38.8082 139.045 38.8534C139.142 38.9428 139.327 38.9419 139.43 38.8438C139.481 38.7938 139.506 38.7342 139.506 38.6621C139.506 38.5832 139.472 38.5198 139.401 38.463C139.323 38.4015 139.206 38.3698 139.05 38.3679L138.953 38.3669V37.7862L139.043 37.7794C139.164 37.7698 139.226 37.7516 139.256 37.7371C139.292 37.7198 139.321 37.6958 139.341 37.666C139.36 37.6371 139.37 37.6083 139.37 37.5785C139.37 37.54 139.358 37.5121 139.332 37.4871C139.315 37.4718 139.284 37.4496 139.219 37.4496C139.174 37.4496 139.136 37.4631 139.1 37.49C139.064 37.517 139.039 37.5516 139.025 37.5948L139.004 37.6631H138.38L138.394 37.5525C138.42 37.3535 138.494 37.191 138.613 37.0689C138.779 36.8987 138.987 36.8132 139.234 36.8132C139.456 36.8132 139.645 36.8853 139.798 37.0276C139.951 37.1708 140.029 37.3458 140.029 37.5458C140.029 37.6718 139.994 37.7881 139.925 37.8929C139.89 37.9448 139.848 37.9919 139.797 38.0342C139.882 38.0823 139.952 38.1448 140.009 38.2208C140.105 38.3467 140.153 38.4957 140.153 38.664C140.153 38.9063 140.062 39.1149 139.883 39.2832C139.707 39.4505 139.48 39.5351 139.208 39.5351C138.949 39.5351 138.734 39.4553 138.569 39.2966ZM137.344 39.5351C137.578 39.5351 137.78 39.4524 137.944 39.2889C138.11 39.1255 138.193 38.9226 138.193 38.6871C138.193 38.4438 138.112 38.2371 137.951 38.0727C137.827 37.9467 137.682 37.8679 137.516 37.8381L137.914 37.0632L137.349 36.7795L136.687 38.0756C136.605 38.2342 136.55 38.3563 136.526 38.439C136.501 38.5207 136.488 38.6063 136.488 38.6919C136.488 38.9121 136.57 39.1092 136.732 39.2784C136.895 39.4485 137.101 39.5351 137.344 39.5351ZM137.133 38.6803C137.133 38.613 137.153 38.5592 137.193 38.5159C137.232 38.4746 137.277 38.4544 137.335 38.4544C137.397 38.4544 137.447 38.4746 137.486 38.5169C137.529 38.5602 137.549 38.6121 137.549 38.6803C137.549 38.7486 137.528 38.8034 137.486 38.8467C137.402 38.9313 137.285 38.938 137.196 38.8457C137.154 38.8015 137.133 38.7476 137.133 38.6803ZM136.524 40.2216H138.298L138.288 40.6033L137.16 42.9166L136.596 42.6425L137.473 40.8475H136.524V40.2216H136.524ZM141.094 9.40841C141.328 9.40841 141.529 9.32572 141.694 9.16228C141.859 8.99883 141.943 8.79596 141.943 8.5604C141.943 8.31715 141.862 8.11043 141.701 7.94602C141.577 7.82007 141.431 7.74123 141.266 7.71142L141.664 6.93648L141.099 6.65285L140.436 7.94891C140.355 8.10755 140.3 8.22966 140.276 8.31234C140.251 8.39407 140.238 8.47964 140.238 8.56521C140.238 8.78538 140.32 8.98248 140.481 9.1517C140.645 9.32188 140.851 9.40841 141.094 9.40841ZM140.882 8.55367C140.882 8.48636 140.903 8.43253 140.943 8.38926C140.981 8.34792 141.027 8.32773 141.084 8.32773C141.147 8.32773 141.197 8.34792 141.236 8.39022C141.279 8.43349 141.299 8.4854 141.299 8.55367C141.299 8.62193 141.278 8.67673 141.236 8.72C141.153 8.80461 141.034 8.81134 140.946 8.71904C140.904 8.67481 140.882 8.62097 140.882 8.55367ZM136.728 35.993C136.563 35.8613 136.454 35.6815 136.404 35.4575L136.377 35.3383H137.04L137.068 35.3921C137.097 35.4517 137.135 35.495 137.181 35.5248C137.281 35.5911 137.426 35.5806 137.513 35.4873C137.567 35.4325 137.593 35.3633 137.593 35.2748C137.593 35.1883 137.569 35.12 137.52 35.0681C137.448 34.9892 137.359 34.9662 137.25 35.0191C137.211 35.0392 137.172 35.07 137.134 35.1113L137.094 35.1527L136.572 35.0354L136.9 33.5269H138.205V34.147H137.401L137.352 34.3643C137.361 34.3643 137.37 34.3643 137.379 34.3643C137.624 34.3643 137.831 34.4489 137.993 34.6172C138.156 34.7825 138.237 34.9979 138.237 35.2565C138.237 35.5171 138.148 35.7392 137.97 35.918C137.791 36.0978 137.572 36.1882 137.317 36.1882C137.091 36.1882 136.893 36.1228 136.728 35.993ZM140.065 10.6208C139.989 10.4247 139.878 10.2766 139.735 10.1805C139.592 10.0834 139.421 10.0343 139.226 10.0343C138.924 10.0343 138.684 10.1584 138.511 10.4035C138.363 10.6218 138.291 10.9545 138.291 11.4188C138.291 11.7515 138.328 12.0025 138.403 12.1861C138.479 12.3755 138.588 12.5188 138.728 12.614C138.868 12.7082 139.039 12.7563 139.239 12.7563C139.441 12.7563 139.611 12.7082 139.745 12.614C139.879 12.5197 139.986 12.3736 140.063 12.1784C140.097 12.0938 140.122 11.9977 140.141 11.8881V12.2025H141.191V12.6957H141.835V12.2025H142.049V11.5823H141.835V10.0343H141.228L140.171 11.6054C140.175 11.539 140.176 11.4698 140.176 11.3958C140.176 11.0689 140.139 10.8083 140.065 10.6208ZM139.522 11.4015C139.522 11.6938 139.486 11.9015 139.416 12.0178C139.355 12.1217 139.287 12.1351 139.236 12.1351C139.185 12.1351 139.11 12.1217 139.039 12.0073C138.996 11.939 138.945 11.7832 138.945 11.4285C138.945 11.2044 138.96 11.0343 138.989 10.9227C139.015 10.8227 139.051 10.7535 139.095 10.717C139.135 10.6833 139.183 10.666 139.236 10.666C139.285 10.666 139.358 10.6804 139.429 10.7977C139.471 10.8689 139.522 11.0314 139.522 11.4015ZM140.927 11.5823L141.191 11.1939V11.5823H140.927ZM147.652 12.0255L147.625 11.9063H148.289L148.316 11.9601C148.345 12.0198 148.383 12.063 148.429 12.0928C148.529 12.1592 148.674 12.1486 148.762 12.0553C148.815 12.0005 148.841 11.9313 148.841 11.8428C148.841 11.7563 148.817 11.688 148.768 11.6361C148.696 11.5582 148.608 11.5332 148.498 11.5871C148.46 11.6073 148.42 11.638 148.382 11.6794L148.342 11.7207L147.82 11.6034L148.148 10.0949H149.453V10.715H148.649L148.6 10.9323C148.61 10.9323 148.618 10.9323 148.627 10.9323C148.872 10.9323 149.079 11.0169 149.241 11.1852C149.404 11.3506 149.486 11.5659 149.486 11.8246C149.486 12.0851 149.396 12.3072 149.218 12.4861C149.039 12.6659 148.82 12.7562 148.565 12.7562C148.34 12.7562 148.141 12.6909 147.976 12.5611C147.811 12.4294 147.702 12.2496 147.652 12.0255ZM148.721 7.37298H147.772V6.74706H149.546L149.537 7.12877L148.408 9.44206L147.844 9.16804L148.721 7.37298ZM146.576 8.38445L146.176 9.16035L146.742 9.44206L147.404 8.14408C147.488 7.98159 147.541 7.86333 147.565 7.78257C147.59 7.70181 147.602 7.61719 147.602 7.53066C147.602 7.30953 147.52 7.11146 147.359 6.94321C147.195 6.77302 146.99 6.6865 146.745 6.6865C146.513 6.6865 146.311 6.76918 146.146 6.93263C145.981 7.09608 145.897 7.29895 145.897 7.53643C145.897 7.77872 145.978 7.98448 146.14 8.14889C146.264 8.27581 146.411 8.35465 146.576 8.38445ZM146.542 7.54124C146.542 7.47393 146.563 7.41913 146.605 7.37586C146.648 7.3326 146.695 7.31145 146.754 7.31145C146.808 7.31145 146.852 7.3326 146.894 7.37586C146.938 7.42105 146.958 7.47393 146.958 7.5422C146.958 7.60854 146.938 7.66142 146.897 7.70565C146.816 7.79121 146.682 7.78545 146.604 7.70373C146.562 7.66046 146.542 7.60758 146.542 7.54124ZM149.514 8.30273V8.85461H150.564V9.34784H151.209V8.85461H151.422V8.23446H151.209V6.6865H150.601L149.531 8.27773L149.514 8.30273ZM150.3 8.23446L150.564 7.84603V8.23446H150.3ZM144.844 9.40841C145.077 9.40841 145.279 9.32572 145.444 9.16228C145.609 8.99883 145.693 8.79596 145.693 8.5604C145.693 8.31715 145.612 8.11043 145.45 7.94602C145.326 7.82007 145.181 7.74123 145.016 7.71142L145.414 6.93648L144.848 6.65285L144.186 7.94891C144.104 8.10755 144.049 8.22966 144.025 8.31234C144 8.39407 143.988 8.47964 143.988 8.56521C143.988 8.78538 144.07 8.98248 144.231 9.1517C144.395 9.32188 144.6 9.40841 144.844 9.40841ZM144.632 8.55367C144.632 8.48636 144.652 8.43253 144.693 8.38926C144.731 8.34792 144.776 8.32773 144.834 8.32773C144.897 8.32773 144.947 8.34792 144.986 8.39022C145.028 8.43349 145.048 8.4854 145.048 8.55367C145.048 8.62193 145.027 8.67673 144.986 8.72C144.903 8.80461 144.784 8.81134 144.696 8.71904C144.653 8.67481 144.632 8.62097 144.632 8.55367ZM142.483 9.31323C142.611 9.37668 142.781 9.40841 142.989 9.40841C143.185 9.40841 143.351 9.37476 143.48 9.30842C143.613 9.24016 143.721 9.13824 143.799 9.00556C143.876 8.87191 143.916 8.72576 143.916 8.57097C143.916 8.42772 143.882 8.29215 143.815 8.16812C143.765 8.07678 143.7 7.99697 143.621 7.93064C143.675 7.86237 143.716 7.79892 143.742 7.73834C143.779 7.65373 143.798 7.55951 143.798 7.45952C143.798 7.3201 143.762 7.18838 143.693 7.0682C143.621 6.94513 143.524 6.84994 143.402 6.78457C143.159 6.65285 142.801 6.65573 142.561 6.78361C142.436 6.84899 142.337 6.94225 142.268 7.06051C142.198 7.17877 142.163 7.31049 142.163 7.45279C142.163 7.55855 142.184 7.65951 142.226 7.75277C142.253 7.81622 142.29 7.87584 142.337 7.93449C142.255 8.00852 142.191 8.09025 142.144 8.17966C142.081 8.29793 142.051 8.43061 142.051 8.57098C142.051 8.73347 142.089 8.8825 142.167 9.01422C142.246 9.14689 142.352 9.24688 142.483 9.31323ZM143.098 7.61624C143.034 7.68161 142.924 7.68258 142.859 7.61624C142.826 7.58162 142.809 7.54125 142.809 7.49029C142.809 7.43837 142.824 7.40087 142.855 7.36914C142.884 7.33837 142.921 7.32395 142.969 7.32395C143.025 7.32395 143.066 7.33837 143.099 7.3701C143.129 7.39894 143.144 7.43645 143.144 7.4874C143.144 7.54317 143.128 7.58451 143.098 7.61624ZM142.987 8.2883C143.07 8.2883 143.136 8.3133 143.19 8.36233C143.242 8.41233 143.267 8.46905 143.267 8.54021C143.267 8.61136 143.244 8.66616 143.195 8.71039C143.097 8.80172 142.874 8.80461 142.771 8.70558C142.719 8.65655 142.695 8.60078 142.695 8.5306C142.695 8.46618 142.721 8.4133 142.775 8.36426C142.831 8.3133 142.901 8.2883 142.987 8.2883ZM145.585 10.0343H144.977L143.907 11.6256L143.891 11.6506V12.2024H144.941V12.6957H145.585V12.2024H145.798V11.5823H145.585V10.0343ZM144.676 11.5823L144.941 11.1939V11.5823H144.676ZM146.576 11.7323L146.176 12.5082L146.742 12.7899L147.404 11.4919C147.488 11.3294 147.541 11.2112 147.565 11.1304C147.59 11.0496 147.602 10.965 147.602 10.8785C147.602 10.6574 147.52 10.4593 147.359 10.291C147.195 10.1209 146.99 10.0343 146.745 10.0343C146.513 10.0343 146.311 10.117 146.146 10.2805C145.981 10.4439 145.897 10.6468 145.897 10.8843C145.897 11.1266 145.978 11.3323 146.14 11.4967C146.264 11.6236 146.411 11.7025 146.576 11.7323ZM146.542 10.8891C146.542 10.8218 146.563 10.767 146.605 10.7237C146.648 10.6804 146.695 10.6593 146.754 10.6593C146.808 10.6593 146.852 10.6804 146.894 10.7237C146.938 10.7689 146.958 10.8218 146.958 10.89C146.958 10.9564 146.938 11.0093 146.897 11.0535C146.816 11.14 146.682 11.1333 146.604 11.0516C146.562 11.0083 146.542 10.9554 146.542 10.8891ZM159.219 36.9593C159.075 36.8622 158.904 36.8132 158.709 36.8132C158.407 36.8132 158.167 36.9372 157.995 37.1824C157.847 37.4006 157.774 37.7333 157.774 38.1977C157.774 38.5304 157.811 38.7813 157.886 38.9649C157.962 39.1543 158.072 39.2976 158.211 39.3928C158.351 39.487 158.522 39.5351 158.722 39.5351C158.924 39.5351 159.095 39.487 159.228 39.3928C159.362 39.2986 159.47 39.1524 159.546 38.9572C159.622 38.7649 159.659 38.5092 159.659 38.1746C159.659 37.8477 159.622 37.5872 159.548 37.3997C159.472 37.2035 159.361 37.0554 159.219 36.9593ZM159.005 38.1804C159.005 38.4727 158.97 38.6803 158.899 38.7967C158.838 38.9005 158.771 38.914 158.72 38.914C158.669 38.914 158.594 38.9005 158.522 38.7861C158.479 38.7178 158.428 38.5621 158.428 38.2073C158.428 37.9833 158.444 37.8131 158.473 37.7016C158.498 37.6016 158.534 37.5324 158.578 37.4958C158.619 37.4622 158.666 37.4449 158.72 37.4449C158.769 37.4449 158.842 37.4593 158.912 37.5766C158.954 37.6477 159.005 37.8102 159.005 38.1804ZM156.278 42.2032H157.004V42.8223H155.143V42.4647L155.914 41.6772C156.088 41.5022 156.202 41.3619 156.256 41.2619C156.307 41.1657 156.334 41.0802 156.334 41.008C156.334 40.9427 156.313 40.8898 156.271 40.8484C156.185 40.7638 156.026 40.7571 155.93 40.8629C155.88 40.9186 155.854 40.9975 155.851 41.0975L155.848 41.1926H155.203L155.208 41.0898C155.221 40.8071 155.312 40.5783 155.481 40.4119C155.652 40.2456 155.87 40.161 156.131 40.161C156.294 40.161 156.44 40.1956 156.565 40.2648C156.692 40.3341 156.795 40.4369 156.872 40.5696C156.947 40.6994 156.985 40.835 156.985 40.9725C156.985 41.1282 156.941 41.2975 156.853 41.4763C156.768 41.6493 156.617 41.8484 156.391 42.0849L156.278 42.2032ZM157.014 38.8553H157.74V39.4745H155.878V39.1168L156.65 38.3294C156.824 38.1544 156.938 38.014 156.992 37.914C157.043 37.8179 157.07 37.7323 157.07 37.6602C157.07 37.5948 157.049 37.5419 157.006 37.5006C156.92 37.417 156.761 37.4093 156.666 37.515C156.616 37.5708 156.59 37.6496 156.586 37.7496L156.583 37.8448H155.939L155.944 37.7419C155.956 37.4593 156.048 37.2304 156.217 37.0641C156.387 36.8978 156.605 36.8132 156.867 36.8132C157.029 36.8132 157.175 36.8478 157.3 36.917C157.427 36.9862 157.53 37.0891 157.607 37.2218C157.682 37.3516 157.721 37.4871 157.721 37.6246C157.721 37.7804 157.676 37.9496 157.589 38.1284C157.503 38.3015 157.352 38.5005 157.126 38.737L157.014 38.8553ZM152.514 41.1859L152.912 40.411L152.347 40.1274L151.685 41.4234C151.603 41.5821 151.548 41.7042 151.524 41.7868C151.499 41.8686 151.486 41.9541 151.486 42.0397C151.486 42.2599 151.568 42.457 151.73 42.6262C151.893 42.7964 152.099 42.8829 152.342 42.8829C152.576 42.8829 152.778 42.8002 152.942 42.6368C153.107 42.4733 153.191 42.2705 153.191 42.0349C153.191 41.7917 153.11 41.5849 152.949 41.4205C152.825 41.2946 152.68 41.2157 152.514 41.1859ZM152.547 42.0282C152.547 42.0964 152.526 42.1512 152.484 42.1945C152.4 42.2791 152.283 42.2858 152.194 42.1936C152.152 42.1493 152.131 42.0955 152.131 42.0282C152.131 41.9609 152.151 41.907 152.191 41.8638C152.23 41.8224 152.275 41.8022 152.333 41.8022C152.395 41.8022 152.445 41.8224 152.484 41.8647C152.527 41.908 152.547 41.9599 152.547 42.0282ZM138.399 40.2216H140.173L140.163 40.6033L139.034 42.9166L138.471 42.6425L139.348 40.8475H138.399V40.2216ZM152.098 11.066H151.454L151.459 10.9631C151.471 10.6804 151.562 10.4516 151.732 10.2853C151.902 10.1189 152.12 10.0343 152.382 10.0343C152.544 10.0343 152.69 10.0689 152.815 10.1382C152.942 10.2074 153.045 10.3103 153.122 10.443C153.197 10.5728 153.235 10.7083 153.235 10.8458C153.235 11.0016 153.191 11.1708 153.104 11.3496C153.018 11.5227 152.867 11.7217 152.641 11.9582L152.529 12.0765H153.255V12.6957H151.393V12.338L152.164 11.5506C152.338 11.3756 152.453 11.2352 152.507 11.1352C152.558 11.0391 152.584 10.9535 152.584 10.8814C152.584 10.816 152.563 10.7631 152.521 10.7218C152.434 10.6372 152.276 10.6304 152.181 10.7362C152.131 10.792 152.105 10.8708 152.101 10.9708L152.098 11.066ZM162.315 31.378C162.19 31.252 162.045 31.1732 161.88 31.1434L162.278 30.3684L161.713 30.0848L161.05 31.3809C160.968 31.5395 160.914 31.6616 160.89 31.7443C160.865 31.826 160.852 31.9116 160.852 31.9972C160.852 32.2173 160.934 32.4144 161.095 32.5837C161.259 32.7538 161.465 32.8404 161.708 32.8404C161.941 32.8404 162.143 32.7577 162.308 32.5942C162.473 32.4308 162.557 32.2279 162.557 31.9924C162.557 31.7491 162.476 31.5424 162.315 31.378ZM161.913 31.9856C161.913 32.0539 161.891 32.1087 161.85 32.152C161.767 32.2356 161.647 32.2433 161.56 32.151C161.517 32.1068 161.496 32.0529 161.496 31.9856C161.496 31.9183 161.517 31.8645 161.557 31.8212C161.595 31.7799 161.641 31.7597 161.698 31.7597C161.761 31.7597 161.811 31.7799 161.85 31.8222C161.892 31.8654 161.913 31.9174 161.913 31.9856ZM159.083 35.5085H159.809V36.1276H157.948V35.77L158.719 34.9825C158.893 34.8076 159.007 34.6672 159.061 34.5672C159.112 34.471 159.139 34.3855 159.139 34.3133C159.139 34.248 159.118 34.1951 159.075 34.1537C158.99 34.0701 158.83 34.0624 158.735 34.1682C158.685 34.2239 158.659 34.3028 158.655 34.4028L158.652 34.4979H158.008L158.013 34.3951C158.025 34.1124 158.117 33.8836 158.286 33.7172C158.456 33.5509 158.674 33.4663 158.936 33.4663C159.098 33.4663 159.245 33.5009 159.37 33.5701C159.496 33.6394 159.599 33.7422 159.676 33.8749C159.751 34.0047 159.79 34.1403 159.79 34.2778C159.79 34.4335 159.745 34.6027 159.658 34.7816C159.572 34.9546 159.421 35.1537 159.196 35.3902L159.083 35.5085ZM161.288 33.6124C161.144 33.5153 160.973 33.4663 160.778 33.4663C160.476 33.4663 160.236 33.5903 160.064 33.8355C159.916 34.0538 159.844 34.3864 159.844 34.8508C159.844 35.1835 159.88 35.4344 159.955 35.6181C160.031 35.8075 160.141 35.9507 160.28 36.0459C160.42 36.1401 160.592 36.1882 160.792 36.1882C160.993 36.1882 161.164 36.1401 161.297 36.0459C161.431 35.9517 161.539 35.8056 161.616 35.6104C161.691 35.4181 161.728 35.1623 161.728 34.8277C161.728 34.5008 161.691 34.2403 161.617 34.0528C161.542 33.8566 161.43 33.7086 161.288 33.6124ZM161.074 34.8335C161.074 35.1258 161.039 35.3335 160.968 35.4498C160.907 35.5536 160.84 35.5671 160.789 35.5671C160.738 35.5671 160.663 35.5536 160.592 35.4392C160.548 35.371 160.497 35.2152 160.497 34.8604C160.497 34.6364 160.513 34.4662 160.542 34.3547C160.568 34.2547 160.603 34.1855 160.647 34.1489C160.688 34.1153 160.735 34.098 160.789 34.098C160.838 34.098 160.911 34.1124 160.981 34.2297C161.023 34.3008 161.074 34.4633 161.074 34.8335ZM154.866 41.3119C155.029 41.4773 155.11 41.6926 155.11 41.9513C155.11 42.2118 155.021 42.4339 154.843 42.6127C154.664 42.7925 154.445 42.8829 154.19 42.8829C153.964 42.8829 153.766 42.8175 153.601 42.6877C153.435 42.556 153.327 42.3762 153.277 42.1522L153.25 42.033H153.913L153.941 42.0868C153.97 42.1464 154.007 42.1897 154.054 42.2195C154.154 42.2858 154.299 42.2753 154.386 42.182C154.44 42.1272 154.466 42.058 154.466 41.9695C154.466 41.883 154.442 41.8147 154.393 41.7628C154.321 41.684 154.232 41.6599 154.123 41.7138C154.084 41.7339 154.045 41.7647 154.006 41.8061L153.967 41.8474L153.445 41.7301L153.773 40.2216H155.078V40.8417H154.274L154.225 41.059C154.234 41.059 154.243 41.059 154.252 41.059C154.497 41.059 154.704 41.1436 154.866 41.3119ZM141.266 37.8381L141.664 37.0631L141.099 36.7795L140.436 38.0756C140.355 38.2342 140.3 38.3563 140.276 38.439C140.251 38.5207 140.238 38.6063 140.238 38.6919C140.238 38.912 140.32 39.1092 140.481 39.2784C140.645 39.4486 140.851 39.5351 141.094 39.5351C141.328 39.5351 141.529 39.4524 141.694 39.2889C141.859 39.1255 141.943 38.9226 141.943 38.6871C141.943 38.4438 141.862 38.2371 141.701 38.0727C141.577 37.9467 141.431 37.8679 141.266 37.8381ZM141.299 38.6803C141.299 38.7486 141.278 38.8034 141.236 38.8467C141.153 38.9313 141.034 38.938 140.946 38.8457C140.904 38.8015 140.882 38.7476 140.882 38.6803C140.882 38.613 140.903 38.5592 140.943 38.5159C140.981 38.4746 141.027 38.4544 141.084 38.4544C141.147 38.4544 141.197 38.4746 141.236 38.5169C141.279 38.5602 141.299 38.6121 141.299 38.6803ZM143.621 41.4051C143.675 41.3369 143.716 41.2734 143.742 41.2129C143.779 41.1282 143.798 41.034 143.798 40.934C143.798 40.7946 143.762 40.6629 143.693 40.5427C143.621 40.4196 143.524 40.3244 143.402 40.2591C143.159 40.1283 142.801 40.1293 142.561 40.2581C142.436 40.3235 142.337 40.4167 142.268 40.535C142.198 40.6533 142.163 40.785 142.163 40.9273C142.163 41.0331 142.184 41.134 142.226 41.2273C142.253 41.2907 142.29 41.3503 142.337 41.409C142.255 41.483 142.191 41.5648 142.144 41.6542C142.081 41.7724 142.051 41.9051 142.051 42.0455C142.051 42.208 142.089 42.357 142.167 42.4887C142.246 42.6214 142.352 42.7214 142.483 42.7877C142.611 42.8512 142.781 42.8829 142.989 42.8829C143.185 42.8829 143.35 42.8493 143.48 42.7829C143.613 42.7147 143.721 42.6127 143.799 42.4801C143.876 42.3464 143.916 42.2003 143.916 42.0455C143.916 41.9022 143.882 41.7667 143.815 41.6426C143.765 41.5513 143.7 41.4715 143.621 41.4051ZM143.098 41.0907C143.034 41.1561 142.924 41.1571 142.859 41.0907C142.826 41.0561 142.809 41.0158 142.809 40.9648C142.809 40.9129 142.824 40.8754 142.855 40.8436C142.884 40.8129 142.921 40.7985 142.969 40.7985C143.025 40.7985 143.066 40.8129 143.099 40.8446C143.129 40.8735 143.144 40.911 143.144 40.9619C143.144 41.0177 143.128 41.059 143.098 41.0907ZM142.775 41.8388C142.831 41.7878 142.901 41.7628 142.987 41.7628C143.07 41.7628 143.136 41.7878 143.19 41.8368C143.242 41.8868 143.267 41.9436 143.267 42.0147C143.267 42.0859 143.244 42.1407 143.195 42.1849C143.097 42.2753 142.874 42.2801 142.771 42.1801C142.719 42.1311 142.695 42.0753 142.695 42.0051C142.695 41.9407 142.721 41.8878 142.775 41.8388ZM141.266 41.1859L141.664 40.411L141.099 40.1274L140.436 41.4234C140.355 41.5821 140.3 41.7042 140.276 41.7868C140.251 41.8686 140.238 41.9541 140.238 42.0397C140.238 42.2599 140.32 42.457 140.481 42.6262C140.645 42.7964 140.851 42.8829 141.094 42.8829C141.328 42.8829 141.529 42.8002 141.694 42.6368C141.859 42.4733 141.943 42.2705 141.943 42.0349C141.943 41.7917 141.862 41.5849 141.701 41.4205C141.577 41.2946 141.431 41.2157 141.266 41.1859ZM141.299 42.0282C141.299 42.0964 141.278 42.1512 141.236 42.1945C141.153 42.2791 141.034 42.2858 140.946 42.1936C140.904 42.1493 140.882 42.0955 140.882 42.0282C140.882 41.9609 140.903 41.907 140.943 41.8638C140.981 41.8224 141.027 41.8022 141.084 41.8022C141.147 41.8022 141.197 41.8224 141.236 41.8647C141.279 41.908 141.299 41.9599 141.299 42.0282ZM145.016 41.1859L145.414 40.411L144.848 40.1274L144.186 41.4234C144.104 41.5821 144.049 41.7042 144.025 41.7868C144 41.8686 143.988 41.9541 143.988 42.0397C143.988 42.2599 144.07 42.457 144.231 42.6262C144.395 42.7964 144.6 42.8829 144.844 42.8829C145.077 42.8829 145.279 42.8002 145.444 42.6368C145.609 42.4733 145.693 42.2705 145.693 42.0349C145.693 41.7917 145.612 41.5849 145.45 41.4205C145.326 41.2946 145.181 41.2157 145.016 41.1859ZM145.048 42.0282C145.048 42.0964 145.027 42.1512 144.986 42.1945C144.903 42.2791 144.784 42.2858 144.696 42.1936C144.653 42.1493 144.632 42.0955 144.632 42.0282C144.632 41.9609 144.652 41.907 144.693 41.8638C144.731 41.8224 144.776 41.8022 144.834 41.8022C144.897 41.8022 144.947 41.8224 144.986 41.8647C145.028 41.908 145.048 41.9599 145.048 42.0282ZM149.537 40.6033L148.408 42.9166L147.844 42.6425L148.721 40.8475H147.772V40.2216H149.546L149.537 40.6033ZM151.209 40.161H150.601L149.531 41.7522L149.514 41.7772V42.3291H150.564V42.8223H151.209V42.3291H151.422V41.709H151.209V40.161ZM150.3 41.709L150.564 41.3205V41.709H150.3ZM146.745 40.161C146.513 40.161 146.311 40.2437 146.146 40.4071C145.981 40.5706 145.897 40.7735 145.897 41.0109C145.897 41.2532 145.978 41.459 146.14 41.6234C146.264 41.7503 146.411 41.8291 146.576 41.859L146.176 42.6349L146.742 42.9166L147.404 41.6186C147.488 41.4561 147.541 41.3378 147.565 41.2571C147.59 41.1763 147.602 41.0917 147.602 41.0052C147.602 40.784 147.52 40.586 147.359 40.4177C147.195 40.2475 146.99 40.161 146.745 40.161ZM146.958 41.0167C146.958 41.0831 146.938 41.1359 146.897 41.1802C146.816 41.2657 146.682 41.259 146.604 41.1782C146.562 41.135 146.542 41.0821 146.542 41.0158C146.542 40.9485 146.563 40.8937 146.605 40.8504C146.648 40.8071 146.695 40.786 146.754 40.786C146.808 40.786 146.852 40.8071 146.894 40.8504C146.938 40.8956 146.958 40.9484 146.958 41.0167ZM158.266 25.3476L158.153 25.4659H158.879V26.0851H157.018V25.7274L157.789 24.94C157.963 24.765 158.077 24.6246 158.131 24.5246C158.182 24.4285 158.209 24.3429 158.209 24.2708C158.209 24.2054 158.188 24.1525 158.146 24.1112C158.06 24.0275 157.9 24.0198 157.805 24.1256C157.755 24.1814 157.729 24.2602 157.725 24.3602L157.723 24.4554H157.078L157.083 24.3525C157.096 24.0698 157.187 23.841 157.356 23.6747C157.526 23.5083 157.745 23.4237 158.006 23.4237C158.169 23.4237 158.315 23.4584 158.44 23.5276C158.567 23.5968 158.67 23.6997 158.747 23.8324C158.822 23.9622 158.86 24.0977 158.86 24.2352C158.86 24.391 158.816 24.5602 158.728 24.739C158.643 24.9121 158.492 25.1111 158.266 25.3476ZM156.12 20.4451C155.972 20.6634 155.9 20.996 155.9 21.4604C155.9 21.7931 155.936 22.044 156.011 22.2277C156.087 22.4171 156.197 22.5604 156.336 22.6555C156.476 22.7498 156.648 22.7978 156.848 22.7978C157.05 22.7978 157.22 22.7498 157.353 22.6555C157.487 22.5613 157.595 22.4152 157.672 22.22C157.748 22.0277 157.784 21.7719 157.784 21.4374C157.784 21.1105 157.748 20.8499 157.674 20.6624C157.598 20.4663 157.486 20.3182 157.344 20.2221C157.2 20.125 157.029 20.0759 156.834 20.0759C156.532 20.0759 156.292 20.1999 156.12 20.4451ZM157.037 20.8393C157.079 20.9105 157.13 21.073 157.13 21.4431C157.13 21.7354 157.095 21.9431 157.025 22.0594C156.963 22.1633 156.896 22.1767 156.845 22.1767C156.794 22.1767 156.719 22.1633 156.648 22.0488C156.604 21.9806 156.553 21.8248 156.553 21.47C156.553 21.246 156.569 21.0758 156.598 20.9643C156.624 20.8643 156.659 20.7951 156.703 20.7586C156.744 20.7249 156.791 20.7076 156.845 20.7076C156.894 20.7076 156.967 20.722 157.037 20.8393ZM152.342 9.40841C152.576 9.40841 152.778 9.32572 152.942 9.16228C153.107 8.99883 153.191 8.79596 153.191 8.5604C153.191 8.31715 153.11 8.11043 152.949 7.94602C152.825 7.82007 152.68 7.74123 152.514 7.71142L152.912 6.93648L152.347 6.65285L151.685 7.94891C151.603 8.10755 151.548 8.22966 151.524 8.31234C151.499 8.39407 151.486 8.47964 151.486 8.56521C151.486 8.78538 151.568 8.98248 151.73 9.1517C151.893 9.32188 152.099 9.40841 152.342 9.40841ZM152.131 8.55367C152.131 8.48636 152.151 8.43253 152.191 8.38926C152.23 8.34792 152.275 8.32773 152.333 8.32773C152.395 8.32773 152.445 8.34792 152.484 8.39022C152.527 8.43349 152.547 8.4854 152.547 8.55367C152.547 8.62193 152.526 8.67673 152.484 8.72C152.4 8.80461 152.283 8.81134 152.194 8.71904C152.152 8.67481 152.131 8.62097 152.131 8.55367ZM154.222 23.3901L153.559 24.6862C153.478 24.8448 153.423 24.9669 153.399 25.0496C153.374 25.1313 153.361 25.2169 153.361 25.3025C153.361 25.5226 153.443 25.7197 153.605 25.889C153.768 26.0591 153.974 26.1457 154.217 26.1457C154.451 26.1457 154.653 26.063 154.817 25.8995C154.982 25.7361 155.066 25.5332 155.066 25.2976C155.066 25.0544 154.985 24.8477 154.824 24.6833C154.7 24.5573 154.554 24.4785 154.389 24.4487L154.787 23.6737L154.222 23.3901ZM154.422 25.2909C154.422 25.3592 154.401 25.414 154.359 25.4573C154.276 25.5419 154.157 25.5486 154.069 25.4563C154.027 25.4121 154.006 25.3582 154.006 25.2909C154.006 25.2236 154.026 25.1698 154.066 25.1265C154.105 25.0852 154.15 25.065 154.207 25.065C154.27 25.065 154.32 25.0852 154.359 25.1275C154.402 25.1707 154.422 25.2227 154.422 25.2909ZM157.965 16.6954L157.302 17.9914C157.221 18.1501 157.166 18.2722 157.142 18.3549C157.117 18.4366 157.104 18.5222 157.104 18.6078C157.104 18.8279 157.186 19.025 157.348 19.1942C157.511 19.3644 157.717 19.451 157.96 19.451C158.194 19.451 158.396 19.3683 158.56 19.2048C158.725 19.0414 158.809 18.8385 158.809 18.6029C158.809 18.3597 158.728 18.153 158.567 17.9886C158.443 17.8626 158.297 17.7838 158.132 17.754L158.53 16.979L157.965 16.6954ZM158.165 18.5962C158.165 18.6645 158.144 18.7193 158.102 18.7625C158.02 18.8462 157.9 18.8539 157.812 18.7616C157.77 18.7174 157.748 18.6635 157.748 18.5962C157.748 18.5289 157.769 18.4751 157.809 18.4318C157.848 18.3905 157.893 18.3703 157.95 18.3703C158.013 18.3703 158.063 18.3905 158.102 18.4328C158.145 18.476 158.165 18.5279 158.165 18.5962ZM155.252 21.9998L155.139 22.1181H155.865V22.7373H154.004V22.3796L154.775 21.5921C154.949 21.4172 155.063 21.2768 155.117 21.1768C155.168 21.0806 155.195 20.9951 155.195 20.923C155.195 20.8576 155.174 20.8047 155.131 20.7634C155.046 20.6787 154.886 20.672 154.791 20.7778C154.741 20.8335 154.715 20.9124 154.711 21.0124L154.708 21.1076H154.064L154.069 21.0047C154.081 20.722 154.173 20.4932 154.342 20.3268C154.512 20.1605 154.73 20.0759 154.992 20.0759C155.154 20.0759 155.301 20.1105 155.426 20.1797C155.553 20.249 155.655 20.3518 155.732 20.4845C155.807 20.6143 155.846 20.7499 155.846 20.8874C155.846 21.0431 155.802 21.2124 155.714 21.3912C155.628 21.5643 155.478 21.7633 155.252 21.9998ZM152.452 27.6215C152.452 27.8638 152.533 28.0696 152.694 28.234C152.818 28.3609 152.965 28.4397 153.131 28.4695L152.731 29.2454L153.296 29.5271L153.958 28.2292C154.042 28.0667 154.095 27.9484 154.119 27.8677C154.144 27.7869 154.156 27.7023 154.156 27.6158C154.156 27.3946 154.075 27.1966 153.913 27.0283C153.75 26.8581 153.544 26.7716 153.3 26.7716C153.067 26.7716 152.865 26.8543 152.701 27.0177C152.535 27.1812 152.452 27.384 152.452 27.6215ZM153.096 27.6263C153.096 27.559 153.117 27.5042 153.159 27.461C153.203 27.4177 153.25 27.3965 153.308 27.3965C153.362 27.3965 153.407 27.4177 153.449 27.461C153.492 27.5061 153.512 27.559 153.512 27.6273C153.512 27.6936 153.492 27.7465 153.452 27.7907C153.369 27.8763 153.236 27.8705 153.158 27.7888C153.116 27.7456 153.096 27.6927 153.096 27.6263ZM155.12 29.4935C154.894 29.4935 154.696 29.4281 154.53 29.2983C154.365 29.1666 154.256 28.9868 154.206 28.7628L154.18 28.6436H154.843L154.871 28.6974C154.9 28.757 154.937 28.8003 154.983 28.8301C155.084 28.8955 155.228 28.8858 155.316 28.7926C155.37 28.7378 155.396 28.6685 155.396 28.5801C155.396 28.4936 155.372 28.4253 155.323 28.3734C155.251 28.2955 155.162 28.2715 155.053 28.3243C155.014 28.3445 154.975 28.3753 154.936 28.4166L154.897 28.458L154.375 28.3407L154.703 26.8321H156.007V27.4523H155.203L155.154 27.6696C155.164 27.6696 155.173 27.6696 155.181 27.6696C155.427 27.6696 155.633 27.7542 155.796 27.9225C155.958 28.0878 156.04 28.3032 156.04 28.5618C156.04 28.8224 155.951 29.0445 155.773 29.2233C155.594 29.4031 155.375 29.4935 155.12 29.4935ZM156.601 16.8752C156.458 16.7781 156.287 16.729 156.092 16.729C155.79 16.729 155.55 16.8531 155.378 17.0982C155.229 17.3165 155.157 17.6492 155.157 18.1136C155.157 18.4462 155.194 18.6972 155.269 18.8808C155.345 19.0702 155.454 19.2135 155.594 19.3087C155.734 19.4029 155.905 19.451 156.105 19.451C156.307 19.451 156.477 19.4029 156.611 19.3087C156.745 19.2144 156.852 19.0683 156.929 18.8731C157.005 18.6808 157.042 18.4251 157.042 18.0905C157.042 17.7636 157.005 17.503 156.931 17.3155C156.855 17.1194 156.744 16.9713 156.601 16.8752ZM156.388 18.0962C156.388 18.3885 156.352 18.5962 156.282 18.7126C156.221 18.8164 156.153 18.8298 156.102 18.8298C156.052 18.8298 155.977 18.8164 155.905 18.702C155.862 18.6337 155.811 18.478 155.811 18.1232C155.811 17.8991 155.827 17.729 155.855 17.6174C155.881 17.5174 155.917 17.4482 155.961 17.4117C156.002 17.378 156.049 17.3607 156.102 17.3607C156.152 17.3607 156.225 17.3751 156.295 17.4924C156.337 17.5636 156.388 17.7261 156.388 18.0962ZM154.808 32.5942C154.974 32.4308 155.057 32.2279 155.057 31.9924C155.057 31.7491 154.977 31.5424 154.815 31.378C154.691 31.252 154.546 31.1732 154.38 31.1434L154.779 30.3684L154.213 30.0848L153.551 31.3809C153.469 31.5395 153.414 31.6616 153.39 31.7443C153.365 31.826 153.353 31.9116 153.353 31.9972C153.353 32.2173 153.434 32.4144 153.596 32.5837C153.759 32.7538 153.965 32.8404 154.208 32.8404C154.442 32.8404 154.644 32.7577 154.808 32.5942ZM153.997 31.9856C153.997 31.9183 154.017 31.8645 154.057 31.8212C154.096 31.7799 154.141 31.7597 154.199 31.7597C154.261 31.7597 154.311 31.7799 154.351 31.8222C154.393 31.8654 154.413 31.9174 154.413 31.9856C154.413 32.0539 154.392 32.1087 154.351 32.152C154.267 32.2356 154.148 32.2433 154.06 32.151C154.018 32.1068 153.997 32.0529 153.997 31.9856ZM159.196 28.6955L159.083 28.8137H159.809V29.4329H157.948V29.0753L158.719 28.2878C158.893 28.1128 159.007 27.9725 159.061 27.8725C159.112 27.7763 159.139 27.6907 159.139 27.6186C159.139 27.5532 159.118 27.5004 159.075 27.459C158.99 27.3744 158.83 27.3677 158.735 27.4734C158.685 27.5292 158.659 27.6081 158.655 27.708L158.652 27.8032H158.008L158.013 27.7004C158.025 27.4177 158.117 27.1889 158.286 27.0225C158.456 26.8562 158.674 26.7716 158.936 26.7716C159.098 26.7716 159.245 26.8062 159.37 26.8754C159.496 26.9446 159.599 27.0475 159.676 27.1802C159.751 27.31 159.79 27.4456 159.79 27.5831C159.79 27.7388 159.745 27.908 159.658 28.0869C159.572 28.2599 159.421 28.459 159.196 28.6955ZM154.344 13.3812L153.274 14.9724L153.257 14.9974V15.5493H154.307V16.0425H154.952V15.5493H155.165V14.9292H154.952V13.3812H154.344V13.3812ZM154.043 14.9292L154.307 14.5407V14.9292H154.043ZM158.129 15.4022C158.183 15.3474 158.209 15.2782 158.209 15.1897C158.209 15.1032 158.185 15.0349 158.136 14.983C158.064 14.9051 157.975 14.8801 157.866 14.934C157.827 14.9542 157.788 14.9849 157.749 15.0263L157.71 15.0676L157.188 14.9503L157.516 13.4418H158.821V14.0619H158.017L157.968 14.2792C157.977 14.2792 157.986 14.2792 157.995 14.2792C158.24 14.2792 158.447 14.3638 158.609 14.5321C158.772 14.6975 158.853 14.9128 158.853 15.1715C158.853 15.432 158.764 15.6541 158.586 15.8329C158.407 16.0127 158.188 16.1031 157.933 16.1031C157.707 16.1031 157.509 16.0377 157.344 15.9079C157.178 15.7762 157.07 15.5964 157.02 15.3724L156.993 15.2532H157.656L157.684 15.307C157.713 15.3666 157.75 15.4099 157.797 15.4397C157.898 15.5051 158.041 15.4955 158.129 15.4022ZM157.763 29.4329V28.9397H157.976V28.3196H157.763V26.7716H157.155L156.085 28.3628L156.069 28.3878V28.9397H157.119V29.4329H157.763ZM156.854 28.3195L157.119 27.9311V28.3195H156.854ZM156.107 32.874L156.77 31.576C156.853 31.4136 156.906 31.2953 156.93 31.2145C156.955 31.1338 156.968 31.0492 156.968 30.9626C156.968 30.7415 156.886 30.5434 156.725 30.3752C156.561 30.205 156.355 30.1185 156.111 30.1185C155.878 30.1185 155.677 30.2011 155.512 30.3646C155.347 30.528 155.263 30.7309 155.263 30.9684C155.263 31.2107 155.344 31.4164 155.505 31.5808C155.629 31.7078 155.777 31.7866 155.942 31.8164L155.542 32.5923L156.107 32.874ZM155.907 30.9732C155.907 30.9059 155.928 30.8511 155.971 30.8078C156.014 30.7646 156.061 30.7434 156.12 30.7434C156.174 30.7434 156.218 30.7646 156.26 30.8078C156.303 30.853 156.324 30.9059 156.324 30.9742C156.324 31.0405 156.303 31.0934 156.263 31.1376C156.18 31.2232 156.047 31.2174 155.97 31.1357C155.927 31.0924 155.907 31.0395 155.907 30.9732ZM153.242 21.1768C153.293 21.0806 153.32 20.9951 153.32 20.923C153.32 20.8576 153.299 20.8047 153.257 20.7634C153.171 20.6787 153.011 20.672 152.916 20.7778C152.866 20.8335 152.84 20.9124 152.836 21.0124L152.833 21.1076H152.189L152.194 21.0047C152.207 20.722 152.298 20.4932 152.467 20.3268C152.637 20.1605 152.856 20.0759 153.117 20.0759C153.28 20.0759 153.426 20.1105 153.551 20.1797C153.678 20.249 153.781 20.3518 153.857 20.4845C153.932 20.6143 153.971 20.7499 153.971 20.8874C153.971 21.0431 153.927 21.2124 153.839 21.3912C153.754 21.5643 153.603 21.7633 153.377 21.9998L153.264 22.1181H153.99V22.7372H152.129V22.3796L152.9 21.5921C153.074 21.4172 153.188 21.2768 153.242 21.1768ZM154.375 17.8299C154.426 17.7338 154.453 17.6482 154.453 17.5761C154.453 17.5107 154.431 17.4578 154.389 17.4165C154.304 17.3319 154.144 17.3251 154.049 17.4309C153.999 17.4867 153.973 17.5655 153.969 17.6655L153.966 17.7607H153.322L153.327 17.6578C153.339 17.3751 153.431 17.1463 153.6 16.98C153.77 16.8137 153.988 16.729 154.25 16.729C154.412 16.729 154.558 16.7637 154.683 16.8329C154.81 16.9021 154.913 17.005 154.99 17.1377C155.065 17.2675 155.104 17.403 155.104 17.5405C155.104 17.6963 155.059 17.8655 154.972 18.0443C154.886 18.2174 154.735 18.4164 154.509 18.6529L154.397 18.7712H155.123V19.3904H153.261V19.0327L154.032 18.2453C154.206 18.0703 154.321 17.9299 154.375 17.8299ZM153.296 36.2219L153.958 34.9239C154.042 34.7614 154.095 34.6431 154.119 34.5624C154.144 34.4816 154.156 34.397 154.156 34.3105C154.156 34.0893 154.075 33.8913 153.913 33.723C153.75 33.5528 153.544 33.4663 153.3 33.4663C153.067 33.4663 152.865 33.549 152.701 33.7124C152.535 33.8759 152.452 34.0788 152.452 34.3162C152.452 34.5585 152.533 34.7643 152.694 34.9287C152.818 35.0556 152.965 35.1344 153.131 35.1642L152.731 35.9401L153.296 36.2219ZM153.096 34.321C153.096 34.2537 153.117 34.1989 153.159 34.1557C153.203 34.1124 153.25 34.0912 153.308 34.0912C153.362 34.0912 153.407 34.1124 153.449 34.1557C153.492 34.2008 153.512 34.2537 153.512 34.322C153.512 34.3883 153.492 34.4412 153.452 34.4855C153.369 34.572 153.236 34.5653 153.158 34.4835C153.116 34.4403 153.096 34.3874 153.096 34.321ZM155.648 23.4843H156.952V24.1045H156.149L156.1 24.3218C156.109 24.3218 156.118 24.3218 156.127 24.3218C156.372 24.3218 156.578 24.4064 156.741 24.5746C156.903 24.74 156.985 24.9554 156.985 25.214C156.985 25.4746 156.896 25.6967 156.718 25.8755C156.539 26.0553 156.32 26.1457 156.065 26.1457C155.839 26.1457 155.641 26.0803 155.476 25.9505C155.31 25.8188 155.202 25.639 155.152 25.415L155.125 25.2957H155.788L155.816 25.3496C155.845 25.4092 155.882 25.4525 155.928 25.4823C156.028 25.5486 156.173 25.538 156.261 25.4448C156.315 25.39 156.341 25.3207 156.341 25.2323C156.341 25.1457 156.317 25.0775 156.268 25.0256C156.196 24.9477 156.106 24.9227 155.998 24.9765C155.959 24.9967 155.92 25.0275 155.881 25.0688L155.842 25.1102L155.32 24.9929L155.648 23.4843ZM158.096 10.7208H157.147V10.0949H158.921L158.911 10.4766L157.782 12.7899L157.219 12.5159L158.096 10.7208ZM156.101 35.3085L156.095 35.2046H156.736L156.749 35.2873C156.764 35.3883 156.798 35.4613 156.848 35.5065C156.945 35.5959 157.128 35.5959 157.232 35.4969C157.283 35.4469 157.308 35.3873 157.308 35.3152C157.308 35.2364 157.274 35.1729 157.203 35.1162C157.125 35.0546 157.008 35.0229 156.852 35.021L156.755 35.02V34.4393L156.846 34.4326C156.967 34.423 157.028 34.4047 157.058 34.3903C157.095 34.373 157.124 34.3489 157.144 34.3191C157.163 34.2903 157.173 34.2614 157.173 34.2316C157.173 34.1932 157.16 34.1653 157.134 34.1403C157.118 34.1249 157.087 34.1028 157.022 34.1028C156.976 34.1028 156.939 34.1162 156.902 34.1432C156.867 34.1701 156.842 34.2047 156.827 34.248L156.806 34.3162H156.182L156.197 34.2057C156.223 34.0066 156.297 33.8442 156.416 33.722C156.581 33.5519 156.79 33.4663 157.037 33.4663C157.258 33.4663 157.448 33.5384 157.6 33.6807C157.753 33.824 157.831 33.9989 157.831 34.1989C157.831 34.3249 157.797 34.4412 157.727 34.546C157.693 34.5979 157.65 34.6451 157.599 34.6874C157.684 34.7354 157.754 34.7979 157.812 34.8739C157.907 35.0008 157.955 35.1489 157.955 35.3171C157.955 35.5594 157.865 35.7681 157.686 35.9363C157.509 36.1036 157.282 36.1882 157.011 36.1882C156.751 36.1882 156.537 36.1084 156.372 35.9498C156.206 35.7911 156.115 35.5748 156.101 35.3085ZM158.902 30.5607L157.773 32.874L157.21 32.6L158.087 30.8049H157.138V30.179H158.912L158.902 30.5607ZM156.221 10.7208H155.272V10.0949H157.046L157.036 10.4766L155.907 12.7899L155.344 12.5159L156.221 10.7208ZM159.591 14.4129H158.947L158.951 14.31C158.964 14.0273 159.055 13.7985 159.224 13.6321C159.395 13.4658 159.613 13.3812 159.874 13.3812C160.037 13.3812 160.183 13.4158 160.308 13.485C160.435 13.5543 160.538 13.6571 160.615 13.7898C160.69 13.9196 160.728 14.0552 160.728 14.1927C160.728 14.3484 160.684 14.5177 160.596 14.6965C160.511 14.8695 160.36 15.0686 160.134 15.3051L160.021 15.4234H160.747V16.0425H158.886V15.6849L159.657 14.8974C159.831 14.7224 159.945 14.5821 159.999 14.4821C160.05 14.3859 160.077 14.3004 160.077 14.2282C160.077 14.1629 160.056 14.11 160.014 14.0686C159.927 13.985 159.769 13.9773 159.673 14.0831C159.623 14.1388 159.597 14.2177 159.594 14.3177L159.591 14.4129ZM154.386 8.7075C154.44 8.6527 154.466 8.58347 154.466 8.49501C154.466 8.40848 154.442 8.34021 154.393 8.28829C154.321 8.21041 154.232 8.18541 154.123 8.23926C154.084 8.25945 154.045 8.29022 154.006 8.33157L153.967 8.37291L153.445 8.25561L153.773 6.74707H155.078V7.36722H154.274L154.225 7.58452C154.234 7.58452 154.243 7.58452 154.252 7.58452C154.497 7.58452 154.704 7.66913 154.866 7.83738C155.029 8.00276 155.11 8.21813 155.11 8.47676C155.11 8.73732 155.021 8.95941 154.843 9.13824C154.664 9.31804 154.445 9.40842 154.19 9.40842C153.964 9.40842 153.766 9.34304 153.601 9.21324C153.435 9.08152 153.327 8.90172 153.277 8.67771L153.25 8.55849H153.913L153.941 8.61232C153.97 8.67193 154.007 8.7152 154.054 8.745C154.154 8.81134 154.299 8.80077 154.386 8.7075ZM154.733 10.1805C154.59 10.0834 154.419 10.0343 154.224 10.0343C153.922 10.0343 153.681 10.1584 153.509 10.4035C153.361 10.6218 153.289 10.9545 153.289 11.4188C153.289 11.7515 153.326 12.0025 153.401 12.1861C153.477 12.3755 153.586 12.5188 153.726 12.614C153.866 12.7082 154.037 12.7563 154.237 12.7563C154.439 12.7563 154.609 12.7082 154.743 12.614C154.877 12.5197 154.984 12.3736 155.061 12.1784C155.137 11.9861 155.174 11.7304 155.174 11.3958C155.174 11.0689 155.137 10.8083 155.063 10.6208C154.987 10.4247 154.876 10.2766 154.733 10.1805ZM154.52 11.4015C154.52 11.6938 154.484 11.9015 154.414 12.0178C154.353 12.1217 154.285 12.1351 154.234 12.1351C154.183 12.1351 154.108 12.1217 154.037 12.0073C153.994 11.939 153.943 11.7832 153.943 11.4285C153.943 11.2044 153.958 11.0343 153.987 10.9227C154.013 10.8227 154.049 10.7535 154.093 10.717C154.133 10.6833 154.18 10.666 154.234 10.666C154.283 10.666 154.356 10.6804 154.427 10.7977C154.469 10.8689 154.52 11.0314 154.52 11.4015ZM156.085 16.1031C156.319 16.1031 156.521 16.0204 156.685 15.857C156.85 15.6935 156.934 15.4907 156.934 15.2551C156.934 15.0119 156.853 14.8051 156.692 14.6407C156.568 14.5148 156.423 14.4359 156.257 14.4061L156.655 13.6312L156.09 13.3476L155.428 14.6436C155.346 14.8023 155.291 14.9244 155.267 15.0071C155.242 15.0888 155.229 15.1744 155.229 15.2599C155.229 15.4801 155.311 15.6772 155.473 15.8464C155.636 16.0166 155.842 16.1031 156.085 16.1031ZM155.874 15.2484C155.874 15.1811 155.894 15.1272 155.934 15.084C155.973 15.0426 156.018 15.0224 156.076 15.0224C156.138 15.0224 156.188 15.0426 156.227 15.0849C156.27 15.1282 156.29 15.1801 156.29 15.2484C156.29 15.3166 156.269 15.3714 156.227 15.4147C156.144 15.4984 156.026 15.506 155.937 15.4137C155.895 15.3695 155.874 15.3157 155.874 15.2484ZM149.328 39.5351C149.562 39.5351 149.763 39.4524 149.928 39.2889C150.093 39.1255 150.177 38.9226 150.177 38.6871C150.177 38.4438 150.096 38.2371 149.935 38.0727C149.811 37.9467 149.665 37.8679 149.5 37.8381L149.898 37.0632L149.333 36.7795L148.67 38.0756C148.589 38.2342 148.534 38.3563 148.51 38.439C148.485 38.5207 148.472 38.6063 148.472 38.6919C148.472 38.9121 148.554 39.1092 148.715 39.2784C148.879 39.4485 149.085 39.5351 149.328 39.5351ZM149.116 38.6803C149.116 38.613 149.137 38.5592 149.177 38.5159C149.215 38.4746 149.261 38.4544 149.318 38.4544C149.381 38.4544 149.431 38.4746 149.47 38.5169C149.513 38.5602 149.533 38.6121 149.533 38.6803C149.533 38.7486 149.512 38.8034 149.47 38.8467C149.388 38.9313 149.267 38.938 149.18 38.8457C149.138 38.8015 149.116 38.7476 149.116 38.6803ZM148.901 20.1365H149.738V22.7373H149.089V20.7624H148.515L148.901 20.1365ZM151.515 13.4418H153.289L153.28 13.8235L152.151 16.1368L151.587 15.8628L152.464 14.0677H151.515V13.4418ZM156.091 33.9086L154.962 36.2219L154.399 35.9478L155.276 34.1528H154.327V33.5269H156.101L156.091 33.9086ZM150.383 20.1365H152.157L152.147 20.5182L151.018 22.8315L150.455 22.5575L151.332 20.7624H150.383V20.1365H150.383ZM155.865 39.4745H154.004V39.1168L154.775 38.3294C154.949 38.1544 155.063 38.014 155.117 37.914C155.168 37.8179 155.195 37.7323 155.195 37.6602C155.195 37.5948 155.174 37.542 155.131 37.5006C155.046 37.417 154.886 37.4093 154.791 37.515C154.741 37.5708 154.715 37.6496 154.711 37.7496L154.708 37.8448H154.064L154.069 37.7419C154.081 37.4593 154.173 37.2304 154.342 37.0641C154.512 36.8978 154.73 36.8132 154.992 36.8132C155.154 36.8132 155.301 36.8478 155.426 36.917C155.553 36.9862 155.655 37.0891 155.732 37.2218C155.807 37.3516 155.846 37.4872 155.846 37.6246C155.846 37.7804 155.802 37.9496 155.714 38.1284C155.628 38.3015 155.478 38.5005 155.252 38.7371L155.139 38.8553H155.865V39.4745H155.865ZM150.283 26.1793L149.719 25.9053L150.596 24.1102H149.647V23.4843H151.421L151.411 23.866L150.283 26.1793ZM152.439 26.0851H153.083V25.5919H153.297V24.9717H153.083V23.4238H152.476L151.406 25.015L151.389 25.04V25.5919H152.439V26.0851ZM152.175 24.9717L152.439 24.5833V24.9717H152.175Z" fill="#C5B358"/>
</svg>
