<?xml version="1.0" standalone="no"?>
<!DOCTYPE svg PUBLIC "-//W3C//DTD SVG 20010904//EN"
 "http://www.w3.org/TR/2001/REC-SVG-20010904/DTD/svg10.dtd">
<svg version="1.0" xmlns="http://www.w3.org/2000/svg"
 width="700.000000pt" height="700.000000pt" viewBox="0 0 700.000000 700.000000"
 preserveAspectRatio="xMidYMid meet">
<metadata>
Created by potrace 1.11, written by Peter Selinger 2001-2013
</metadata>
<g transform="translate(0.000000,700.000000) scale(0.100000,-0.100000)"
fill="#000000" stroke="none">
<path d="M3278 6995 c-2 -1 -41 -5 -88 -9 -47 -4 -96 -8 -110 -10 -14 -2 -46
-7 -71 -10 -25 -4 -57 -9 -70 -11 -13 -2 -41 -6 -61 -9 -173 -26 -545 -134
-696 -202 -29 -13 -55 -24 -58 -24 -10 0 -289 -139 -349 -175 -33 -19 -67 -38
-75 -42 -17 -7 -183 -117 -216 -142 -12 -9 -32 -23 -44 -31 -43 -28 -185 -143
-265 -214 -141 -124 -337 -334 -445 -476 -19 -25 -37 -47 -40 -50 -3 -3 -9
-12 -15 -21 -5 -9 -37 -56 -71 -105 -222 -323 -390 -692 -490 -1074 -26 -101
-69 -312 -80 -395 -3 -27 -8 -59 -10 -70 -25 -125 -24 -701 0 -830 2 -11 7
-47 10 -80 4 -33 9 -67 11 -75 3 -8 7 -31 9 -50 8 -58 57 -270 83 -355 13 -44
26 -87 28 -95 21 -84 126 -343 201 -492 173 -347 391 -648 668 -923 438 -433
938 -724 1546 -898 112 -32 365 -81 475 -93 28 -3 82 -9 120 -14 89 -11 567
-10 660 1 39 4 90 11 115 13 25 3 70 10 100 16 30 5 66 11 80 14 203 34 426
99 654 188 660 259 1237 729 1635 1331 262 395 453 879 526 1332 3 17 7 41 10
55 5 26 9 61 21 175 3 39 8 81 10 95 5 38 5 491 0 520 -2 14 -7 62 -11 107 -3
46 -8 91 -10 102 -2 10 -6 35 -9 55 -15 91 -36 205 -46 246 -6 25 -13 56 -16
70 -36 172 -166 525 -269 731 -269 535 -690 1009 -1197 1347 -59 40 -112 72
-118 72 -5 0 -10 5 -10 10 0 6 -5 10 -10 10 -6 0 -29 12 -52 26 -73 47 -308
160 -438 212 -238 96 -520 174 -745 208 -27 4 -52 8 -55 9 -3 1 -41 5 -85 10
-44 4 -89 10 -100 12 -25 4 -532 12 -537 8z"/>
</g>
</svg>
