<svg viewBox="0 0 296 296" xmlns="http://www.w3.org/2000/svg" fill-rule="evenodd" clip-rule="evenodd" stroke-linejoin="round" stroke-miterlimit="2"><path d="M141.011 140.23v-30.382c21.268 0 33.895 3.038 33.895 15.191 0 14.243-20.466 15.191-33.895 15.191zm0 12.116v30.419c24.112 0 40.639-2.285 40.639-15.288 0-13.952-17.852-15.131-40.639-15.131zm151.91-6.039c0 80.536-65.297 145.833-145.833 145.833-80.537 0-145.833-65.297-145.833-145.833C1.255 65.77 66.551.473 147.088.473c80.536 0 145.833 65.297 145.833 145.834zm-85.069 19.347c0-15.544-12.627-22.288-21.742-24.61 7.499-2.71 16.237-13.83 12.712-27.076-2.977-11.205-13.356-21.146-39.581-22.033V73.39h-12.153v18.229h-6.077V73.39h-12.152v18.229H98.477v18.229h9.929c5.359 0 8.3 3.476 8.3 8.531v54.007c0 5.214-3.075 10.379-8.446 10.379h-6.551l-3.038 18.095h30.188v18.363h12.152V200.86h6.077v18.363h12.153v-18.229c32.277 0 48.611-14.182 48.611-35.34z" fill="#3165d4" fill-rule="nonzero"/></svg>