<svg viewBox="0 0 2213 1438" xmlns="http://www.w3.org/2000/svg" fill-rule="evenodd" clip-rule="evenodd" stroke-linecap="round" stroke-linejoin="round" stroke-miterlimit="1.5"><path d="M189.96 192.214l1830.58 766.263" fill="none" stroke="#4aa658" stroke-width="34.72"/><path fill="#fff" stroke="#4aa658" stroke-width="33.13" d="M17.701 19.956h344.517v344.517H17.701zM475.347 211.521h344.517v344.517H475.347zM932.993 403.087h344.517v344.517H932.993zM1390.64 594.653h344.517V939.17H1390.64zM1848.28 786.218h344.517v344.517H1848.28z"/><g><path d="M1083.19 137.025c264.756 0 479.704 214.948 479.704 479.704s-214.948 479.704-479.704 479.704-479.704-214.948-479.704-479.704 214.948-479.704 479.704-479.704zm0 62.5c230.261 0 417.204 186.943 417.204 417.204s-186.943 417.204-417.204 417.204S665.986 846.99 665.986 616.729s186.943-417.204 417.204-417.204z"/><circle cx="1083.19" cy="616.729" r="409.147" fill="#3165d4" fill-opacity=".25"/><path d="M1411.94 424.892c104.634 181.231 42.447 413.317-138.784 517.951-181.231 104.633-560.397-552.101-379.166-656.735 181.231-104.634 413.316-42.446 517.95 138.784zm-72.169 41.667c81.638 141.4 33.118 322.478-108.282 404.115-5.553 3.206-11.472-1.609-18.322-4.497-15.632-6.588-31.577-17.554-47.857-31.117-51.75-43.115-103.349-110.783-145.492-183.776-42.142-72.993-74.944-151.513-86.408-217.888-3.607-20.88-5.13-40.171-3.02-57.004.924-7.375-.286-14.909 5.267-18.115 141.399-81.637 322.477-33.118 404.114 108.282z" fill="url(#_Linear1)"/><path d="M662.5 965.066c-14.626-14.626-38.375-14.626-53.001 0l-353.376 353.376c-14.626 14.626-14.626 38.375 0 53l53.001 53.001c14.625 14.625 38.374 14.625 53 0L715.5 1071.067c14.626-14.626 14.626-38.375 0-53.001l-53-53z"/><path d="M674.045 1010.43l66.049-67.855" fill="none" stroke="#000" stroke-width="62.5"/></g><defs><linearGradient id="_Linear1" x1="0" y1="0" x2="1" y2="0" gradientUnits="userSpaceOnUse" gradientTransform="rotate(147.337 612.94 408.933) scale(143.3994)"><stop offset="0" stop-color="#fff"/><stop offset="1" stop-color="#fff" stop-opacity="0"/></linearGradient></defs></svg>