<svg viewBox="0 0 296 296" xmlns="http://www.w3.org/2000/svg" fill-rule="evenodd" clip-rule="evenodd" stroke-linejoin="round" stroke-miterlimit="2"><path d="M207.852 146.171c-40.262 0-72.917 32.654-72.917 72.917 0 40.262 32.655 72.916 72.917 72.916s72.916-32.654 72.916-72.916c0-40.263-32.654-72.917-72.916-72.917zm6.076 102.983v6.392h-6.076v-6.064c-6.295-.11-12.797-1.605-18.229-4.412l2.77-9.989c5.809 2.26 13.539 4.654 19.591 3.281 6.975-1.58 8.409-8.762.692-12.214-5.651-2.637-22.956-4.885-22.956-19.712 0-8.276 6.319-15.701 18.132-17.317v-6.49h6.076v6.186c4.399.121 9.333.887 14.839 2.552l-2.2 10.014c-4.667-1.641-9.819-3.123-14.851-2.82-9.041.523-9.843 8.362-3.524 11.643 10.403 4.885 23.965 8.507 23.965 21.547.012 10.427-8.166 15.981-18.229 17.403zm19.736-123.704c13.757-2.71 26.275-7.607 34.952-14.546v7.923c0 6.064-4.691 11.606-12.238 16.139-7.061-4.095-14.681-7.292-22.714-9.516zm-25.812-70.425c32.484 0 60.764-12.238 60.764-27.344 0-15.106-28.28-27.343-60.764-27.343-32.472 0-60.764 12.237-60.764 27.343s28.292 27.344 60.764 27.344zm1.13-24.415c-3.634-1.094-14.754-2.017-14.754-8.203 0-3.451 4.06-6.526 11.643-7.207v-2.71h3.901v2.565c2.844.06 6.003.364 9.528 1.093l-1.41 4.157c-2.686-.62-5.675-1.204-8.604-1.204l-.875.013c-5.858.243-6.332 3.487-2.285 4.849 6.648 2.053 15.398 3.548 15.398 8.993 0 4.338-5.275 6.659-11.752 7.243v2.673h-3.901v-2.528c-3.986-.036-8.215-.68-11.691-1.847l1.786-4.168c2.966.765 6.709 1.531 10.063 1.531l2.528-.17c4.484-.644 5.383-3.646.425-5.08zM74.171 188.706c17.561 0 33.724-3.658 45.026-9.334 3.78-8.385 8.677-16.151 14.559-23.078-5.481-12.675-30.856-22.276-59.585-22.276-32.472 0-60.764 12.238-60.764 27.344 0 15.106 28.292 27.344 60.764 27.344zm1.13-24.415c-3.633-1.094-14.753-2.018-14.753-8.203 0-3.452 4.071-6.527 11.642-7.207v-2.71h3.901v2.564c2.844.061 6.004.365 9.528 1.094l-1.422 4.156c-2.673-.62-5.663-1.203-8.592-1.203l-.875.012c-5.857.243-6.319 3.488-2.285 4.849 6.648 2.054 15.398 3.549 15.398 8.993 0 4.339-5.274 6.66-11.752 7.243v2.674H72.19v-2.528c-3.998-.036-8.215-.681-11.691-1.847l1.787-4.169c2.965.766 6.708 1.532 10.062 1.532l2.528-.17c4.472-.645 5.384-3.646.425-5.08zm48.648 103.675c-11.168 7.17-29.653 11.885-49.778 11.885-32.472 0-60.764-12.237-60.764-27.343v-7.924c13.927 11.156 37.783 17.038 60.764 17.038 15.021 0 30.37-2.564 43.13-7.425a95.939 95.939 0 006.648 13.769zm-110.542-45.84v-7.912c13.927 11.144 37.783 17.026 60.764 17.026 12.627 0 25.448-1.835 36.799-5.286.401 5.7 1.3 11.253 2.649 16.649-10.792 4.217-24.597 6.866-39.448 6.866-32.472 0-60.764-12.237-60.764-27.343zm0-30.382v-7.924c13.927 11.156 37.783 17.038 60.764 17.038 13.696 0 27.648-2.139 39.691-6.185a96.346 96.346 0 00-2.929 18.545c-10.378 3.621-23.126 5.87-36.762 5.87-32.472 0-60.764-12.238-60.764-27.344zM147.088 58.063V50.14c13.927 11.156 37.783 17.038 60.764 17.038 22.993 0 46.837-5.882 60.764-17.038v7.923c0 15.106-28.28 27.344-60.764 27.344-32.472 0-60.764-12.238-60.764-27.344zm0 60.764v-7.923c8.665 6.939 21.194 11.836 34.951 14.546a96.505 96.505 0 00-22.701 9.516c-7.559-4.533-12.25-10.075-12.25-16.139zm0-30.382v-7.911c13.927 11.144 37.783 17.026 60.764 17.026 22.993 0 46.837-5.882 60.764-17.026v7.911c0 15.106-28.28 27.344-60.764 27.344-32.472 0-60.764-12.238-60.764-27.344z" fill="#3165d4" fill-rule="nonzero"/></svg>