<svg viewBox="0 0 205 309" xmlns="http://www.w3.org/2000/svg" fill-rule="evenodd" clip-rule="evenodd" stroke-miterlimit="1.5"><path d="M203.303 123.283c0-10.609-8.614-19.223-19.223-19.223H20.268c-10.609 0-19.223 8.614-19.223 19.223v163.812c0 10.609 8.614 19.223 19.223 19.223H184.08c10.609 0 19.223-8.614 19.223-19.223V123.283zM93.257 211.708c-9.324-3.833-15.896-13.01-15.896-23.709 0-14.141 11.481-25.622 25.622-25.622s25.622 11.481 25.622 25.622c0 11.213-7.218 20.753-17.257 24.223l17.889 35.779H75.111l18.146-36.293z" fill="#3165d4"/><path d="M29.232 126.158s-12.347-112.487 72.319-111.5c84.666.986 73.734 107.498 73.734 107.498" fill="none" stroke="#3165d4" stroke-width="15.02"/></svg>