<svg viewBox="0 0 2013 1621" xmlns="http://www.w3.org/2000/svg" fill-rule="evenodd" clip-rule="evenodd" stroke-linecap="round" stroke-miterlimit="1.5"><path d="M1351.51 72.718c0-39.873-32.372-72.245-72.245-72.245H73.035C33.162.473.79 32.845.79 72.718v1474.31c0 39.874 32.372 72.245 72.245 72.245h1206.23c39.873 0 72.245-32.371 72.245-72.245V72.718z" fill="#fff"/><path d="M1351.51 72.718c0-39.873-32.372-72.245-72.245-72.245H73.035C33.162.473.79 32.845.79 72.718v1474.31c0 39.874 32.372 72.245 72.245 72.245h1206.23c39.873 0 72.245-32.371 72.245-72.245V72.718zm-40.351 0v1474.31c0 17.603-14.291 31.894-31.894 31.894H73.035c-17.603 0-31.894-14.291-31.894-31.894V72.718c0-17.602 14.291-31.893 31.894-31.893h1206.23c17.603 0 31.894 14.291 31.894 31.893z" fill="#353535"/><path fill="#e2e2e2" d="M171.979 251.642h966.131v53.176H171.979zM171.979 357.994h715.91v53.176h-715.91zM171.979 466.826h827.119v53.176H171.979zM171.979 808.492h966.131v53.176H171.979zM171.979 702.141h715.91v53.176h-715.91zM171.979 589.142h827.119v53.176H171.979zM171.979 1039.64h715.91v53.176h-715.91zM171.979 926.642h827.119v53.176H171.979z"/><path d="M980.044 1090.35l274.73 206.977 591.698-785.39-274.729-206.977-591.699 785.39z" fill="#fff"/><g fill="#1a1a1a"><path d="M1008.33 1342.05l114.87-325.586 166.397 125.36-281.267 200.226zM1155.04 974.193l166.396 125.36 591.699-785.39-166.396-125.36-591.699 785.39zM1781.84 142.212l166.396 125.36 62.68-83.198-166.396-125.36-62.68 83.198z"/></g><path d="M587.5 1445.83s141.224 35.96 154.933-162.5c9.999-144.75 76.366 299.705 111.734 116.667 35.367-183.038 46.079-115.11 79.166-75" fill="none" stroke="#1a1a1a" stroke-width="29.17"/></svg>