<?xml version="1.0" encoding="UTF-8" standalone="no"?><!DOCTYPE svg PUBLIC "-//W3C//DTD SVG 1.1//EN" "http://www.w3.org/Graphics/SVG/1.1/DTD/svg11.dtd"><svg width="100%" height="100%" viewBox="0 0 342 405" version="1.1" xmlns="http://www.w3.org/2000/svg" xmlns:xlink="http://www.w3.org/1999/xlink" xml:space="preserve" xmlns:serif="http://www.serif.com/" style="fill-rule:evenodd;clip-rule:evenodd;stroke-linejoin:round;stroke-miterlimit:2;"><g><path d="M338.113,18.293c0,-9.905 -8.041,-17.946 -17.946,-17.946l-299.643,-0c-9.905,-0 -17.947,8.041 -17.947,17.946l0,366.236c0,9.905 8.042,17.946 17.947,17.946l299.643,0c9.905,0 17.946,-8.041 17.946,-17.946l0,-366.236Z" style="fill:#fff;"/><path d="M338.113,18.293c0,-9.905 -8.041,-17.946 -17.946,-17.946l-299.643,-0c-9.905,-0 -17.947,8.041 -17.947,17.946l0,366.236c0,9.905 8.042,17.946 17.947,17.946l299.643,0c9.905,0 17.946,-8.041 17.946,-17.946l0,-366.236Zm-10.023,0l-0,366.236c-0,4.372 -3.551,7.922 -7.923,7.922l-299.643,0c-4.373,0 -7.923,-3.55 -7.923,-7.922l0,-366.236c0,-4.373 3.55,-7.923 7.923,-7.923l299.643,0c4.372,0 7.923,3.55 7.923,7.923Z" style="fill:#353535;"/><rect x="45.104" y="62.74" width="239.999" height="13.209" style="fill:#e2e2e2;"/><rect x="45.104" y="89.159" width="177.841" height="13.209" style="fill:#e2e2e2;"/><rect x="45.104" y="167.947" width="205.466" height="13.209" style="fill:#e2e2e2;"/><rect x="45.104" y="252.821" width="239.999" height="13.209" style="fill:#e2e2e2;"/><rect x="45.104" y="226.402" width="177.841" height="13.209" style="fill:#e2e2e2;"/><rect x="45.104" y="198.332" width="205.466" height="13.209" style="fill:#e2e2e2;"/><rect x="45.104" y="336.66" width="239.999" height="13.209" style="fill:#e2e2e2;"/><rect x="45.104" y="310.241" width="177.841" height="13.209" style="fill:#e2e2e2;"/><rect x="45.104" y="282.171" width="205.466" height="13.209" style="fill:#e2e2e2;"/></g></svg>