<svg viewBox="0 0 1617 1538" xmlns="http://www.w3.org/2000/svg" fill-rule="evenodd" clip-rule="evenodd" stroke-linecap="round" stroke-linejoin="round" stroke-miterlimit="1.5"><path d="M1612.79 49.549c0-25.523-20.722-46.245-46.246-46.245H308.314c-25.523 0-46.246 20.722-46.246 46.245v772.137c0 25.524 20.723 46.246 46.246 46.246h1258.23c25.524 0 46.246-20.722 46.246-46.246V49.549z" fill="#fff"/><path d="M1612.79 49.549c0-25.523-20.722-46.245-46.246-46.245H308.314c-25.523 0-46.246 20.722-46.246 46.245v772.137c0 25.524 20.723 46.246 46.246 46.246h1258.23c25.524 0 46.246-20.722 46.246-46.246V49.549zm-25.834 0v772.137c0 11.266-9.146 20.412-20.412 20.412H308.314c-11.266 0-20.412-9.146-20.412-20.412V49.549c0-11.265 9.146-20.412 20.412-20.412h1258.23c11.266 0 20.412 9.147 20.412 20.412z" fill="#353535"/><path d="M728.956 195.128c0-28.831-23.407-52.238-52.238-52.238H458.816c-28.831 0-52.238 23.407-52.238 52.238v271.077c0 28.831 23.407 52.238 52.238 52.238h217.902c28.831 0 52.238-23.407 52.238-52.238V195.128zM937.429 171.139h461.964v53.176H937.429zM937.429 277.491h342.319v53.176H937.429zM937.429 390.489h395.494v53.176H937.429z" fill="#e2e2e2"/><g><path d="M864.225 200.993c271.992 0 492.816 220.824 492.816 492.817 0 271.992-220.824 492.816-492.816 492.816-271.993 0-492.817-220.824-492.817-492.816 0-271.993 220.824-492.817 492.817-492.817zm0 62.5c237.498 0 430.316 192.818 430.316 430.317 0 237.498-192.818 430.316-430.316 430.316-237.498 0-430.317-192.818-430.317-430.316 0-237.499 192.819-430.317 430.317-430.317z"/><circle cx="864.225" cy="693.81" r="420.331" fill="#3165d4" fill-opacity=".25"/><path d="M1201.96 496.73c107.494 186.184 43.607 424.614-142.578 532.108-186.185 107.493-575.715-567.193-389.53-674.686 186.185-107.494 424.614-43.607 532.108 142.578zm-72.169 41.666c84.498 146.354 34.278 333.775-112.076 418.273-6.276 3.624-13.103-1.23-20.846-4.493-16.243-6.847-32.822-18.224-49.738-32.317-53.341-44.441-106.545-114.174-149.984-189.411-43.438-75.237-77.226-156.179-89.042-224.595-3.748-21.696-5.311-41.742-3.118-59.233 1.045-8.337.255-16.676 6.532-20.3 146.353-84.497 333.775-34.277 418.272 112.076z" fill="url(#_Linear1)"/><path d="M432.032 1051.67c-15.026-15.025-39.423-15.025-54.449 0L14.548 1414.706c-15.026 15.025-15.026 39.423 0 54.449l54.449 54.449c15.025 15.025 39.423 15.025 54.449 0l363.035-363.036c15.026-15.025 15.026-39.423 0-54.449l-54.449-54.449z"/><path d="M443.893 1098.28l67.854-69.71" fill="none" stroke="#000" stroke-width="62.5"/></g><defs><linearGradient id="_Linear1" x1="0" y1="0" x2="1" y2="0" gradientUnits="userSpaceOnUse" gradientTransform="scale(-147.3193) rotate(-32.663 -9.586 11.504)"><stop offset="0" stop-color="#fff"/><stop offset="1" stop-color="#fff" stop-opacity="0"/></linearGradient></defs></svg>