<svg viewBox="0 0 296 292" xmlns="http://www.w3.org/2000/svg" fill-rule="evenodd" clip-rule="evenodd" stroke-linejoin="round" stroke-miterlimit="2"><path d="M148.183 0c80.485 0 145.829 65.346 145.829 145.833 0 80.488-65.344 145.834-145.829 145.834-80.484 0-145.828-65.346-145.828-145.834C2.355 65.346 67.699 0 148.183 0zm-45.632 147.454c0 27.777 19.607 45.984 44.349 45.984 19.14 0 29.643-12.838 32.444-17.74 2.801 9.804 11.204 17.74 25.443 17.74 22.641 0 37.58-18.44 37.58-55.788 0-47.618-34.779-87.534-92.666-87.534C93.914 50.116 54 91.899 54 146.52c0 55.321 42.015 95.237 94.067 95.237 21.941 0 40.847-6.77 50.651-13.539l-7.003-11.438c-12.371 7.003-27.776 10.738-43.648 10.738-45.983 0-77.961-34.547-77.961-81.231 0-45.051 31.745-82.165 79.361-82.165 47.85 0 77.261 31.045 77.261 73.761 0 28.945-9.103 41.55-20.774 41.55-10.271 0-14.239-6.536-14.239-17.04V102.87h-15.638v12.138c-2.801-3.735-12.605-13.539-29.644-13.539-24.275 0-43.882 18.441-43.882 45.985zm16.806 0c0-19.374 12.604-31.279 28.476-31.279 17.507 0 28.944 12.605 28.944 30.812 0 21.241-13.305 31.979-28.71 31.979-16.339 0-28.71-12.372-28.71-31.512z" fill="#3165d4"/></svg>